<svg width="15" height="17" viewBox="0 0 15 17" fill="none" xmlns="http://www.w3.org/2000/svg">
<path d="M4.27306 13.2736C3.01096 13.6122 1.79548 13.1693 2.18655 14.6268C2.57748 16.0844 3.9176 16.9916 5.17973 16.653C6.44183 16.3144 7.14799 14.8585 6.75695 13.4009C6.36587 11.9434 5.53524 12.935 4.2731 13.2736L4.27306 13.2736Z" fill="#E0D1F3"/>
<path d="M4.02817 12.374C6.40049 11.7376 5.7843 10.9369 6.04573 9.34871C6.29098 7.85955 4.18244 3.29315 1.76619 3.94152C-0.649987 4.58978 -0.173806 9.58537 0.767395 10.7649C1.8105 12.0721 1.65552 13.0106 4.0281 12.374L4.02817 12.374Z" fill="#E0D1F3"/>
<path d="M10.1238 9.39469C8.86171 9.05612 8.03103 8.06446 7.64011 9.52198C7.24918 10.9795 7.95534 12.4357 9.21732 12.7741C10.4794 13.1127 11.8193 12.2056 12.2105 10.7479C12.6013 9.29044 11.3856 9.7331 10.1238 9.39469L10.1238 9.39469Z" fill="#E0D1F3"/>
<path d="M12.6312 0.0625699C10.215 -0.585539 8.10638 3.98079 8.35162 5.46976C8.61305 7.05791 7.99686 7.85854 10.3692 8.495C12.7415 9.13132 12.5868 8.19289 13.63 6.88572C14.5711 5.70612 15.0473 0.710716 12.6311 0.0627192L12.6312 0.0625699Z" fill="#E0D1F3"/>
</svg>
