<svg width="64" height="64" viewBox="0 0 64 64" fill="none" xmlns="http://www.w3.org/2000/svg">
<path d="M36.879 50.1206C38.0505 51.2921 39.9499 51.292 41.1214 50.1203C42.2928 48.9486 42.2927 47.049 41.1211 45.8774L36.879 50.1206ZM25.1217 29.8781C23.9502 28.7065 22.0508 28.7067 20.8794 29.8784C19.7079 31.0501 19.708 32.9497 20.8796 34.1213L25.1217 29.8781ZM41.1211 45.8774L25.1217 29.8781L20.8796 34.1213L36.879 50.1206L41.1211 45.8774Z" fill="#7A948F"/>
<path d="M20.8794 29.8785C19.7078 31.0501 19.7078 32.9497 20.8792 34.1214C22.0507 35.2931 23.9501 35.2931 25.1216 34.1215L20.8794 29.8785ZM41.1214 18.1208C42.2929 16.9492 42.293 15.0496 41.1215 13.8779C39.95 12.7062 38.0507 12.7062 36.8791 13.8778L41.1214 18.1208ZM25.1216 34.1215L41.1214 18.1208L36.8791 13.8778L20.8794 29.8785L25.1216 34.1215Z" fill="#7A948F"/>
</svg>
