<svg width="64" height="64" viewBox="0 0 64 64" fill="none" xmlns="http://www.w3.org/2000/svg">
<path d="M56 32C56 35.1517 55.3792 38.2726 54.1731 41.1844C52.967 44.0962 51.1992 46.742 48.9706 48.9706C46.742 51.1992 44.0962 52.967 41.1844 54.1731C38.2726 55.3792 35.1517 56 32 56C28.8483 56 25.7274 55.3792 22.8156 54.1731C19.9038 52.967 17.258 51.1992 15.0294 48.9706C12.8008 46.742 11.033 44.0962 9.82689 41.1844C8.62078 38.2726 8 35.1517 8 32C8 28.8483 8.62078 25.7274 9.82689 22.8156C11.033 19.9038 12.8008 17.258 15.0294 15.0294C17.258 12.8008 19.9038 11.033 22.8156 9.82689C25.7274 8.62078 28.8483 8 32 8C35.1517 8 38.2726 8.62078 41.1844 9.82689C44.0962 11.033 46.742 12.8008 48.9706 15.0294C51.1992 17.258 52.967 19.9038 54.1731 22.8156C55.3792 25.7274 56 28.8483 56 32L56 32Z" stroke="#65B2BC" stroke-width="2" stroke-linecap="round"/>
<path d="M51 32C51 34.4951 50.5086 36.9658 49.5537 39.271C48.5989 41.5762 47.1993 43.6707 45.435 45.435C43.6707 47.1993 41.5762 48.5989 39.271 49.5537C36.9658 50.5086 34.4951 51 32 51C29.5049 51 27.0342 50.5086 24.729 49.5537C22.4238 48.5989 20.3293 47.1993 18.565 45.435C16.8007 43.6707 15.4011 41.5762 14.4463 39.271C13.4914 36.9658 13 34.4951 13 32C13 29.5049 13.4914 27.0342 14.4463 24.729C15.4011 22.4238 16.8007 20.3293 18.565 18.565C20.3293 16.8007 22.4238 15.4011 24.729 14.4463C27.0342 13.4914 29.5049 13 32 13C34.4951 13 36.9658 13.4915 39.271 14.4463C41.5762 15.4011 43.6707 16.8007 45.435 18.565C47.1993 20.3293 48.5989 22.4238 49.5537 24.729C50.5086 27.0342 51 29.5049 51 32L51 32Z" stroke="#6CBC65" stroke-width="2" stroke-linecap="round"/>
<path d="M46 32C46 33.8385 45.6379 35.659 44.9343 37.3576C44.2307 39.0561 43.1995 40.5995 41.8995 41.8995C40.5995 43.1995 39.0561 44.2307 37.3576 44.9343C35.659 45.6379 33.8385 46 32 46C30.1615 46 28.341 45.6379 26.6424 44.9343C24.9439 44.2307 23.4005 43.1995 22.1005 41.8995C20.8005 40.5995 19.7693 39.0561 19.0657 37.3576C18.3621 35.659 18 33.8385 18 32C18 30.1615 18.3621 28.341 19.0657 26.6424C19.7693 24.9439 20.8005 23.4005 22.1005 22.1005C23.4005 20.8005 24.9439 19.7693 26.6424 19.0657C28.341 18.3621 30.1615 18 32 18C33.8385 18 35.659 18.3621 37.3576 19.0657C39.0561 19.7693 40.5995 20.8005 41.8995 22.1005C43.1995 23.4005 44.2307 24.9439 44.9343 26.6424C45.6379 28.341 46 30.1615 46 32L46 32Z" stroke="#DD5A30" stroke-width="4" stroke-linecap="round"/>
<rect x="31" y="4" width="2" height="56" rx="1" fill="white"/>
<rect x="60" y="31" width="2" height="56" rx="1" transform="rotate(90 60 31)" fill="white"/>
<circle cx="32" cy="32" r="3" fill="#DD5A30"/>
</svg>
