<svg width="40" height="40" viewBox="0 0 40 40" fill="none" xmlns="http://www.w3.org/2000/svg">
<path d="M12.9904 33H26.9962C29.624 33 30.7845 31.7507 31.1847 29.0891L33.1588 15.4688H33.4656C35.1063 15.4688 36 14.4231 36 12.7664V10.7023C36 9.04563 35.1063 8 33.4656 8H6.53439C4.97374 8 4 9.04563 4 10.7023V12.7664C4 14.4231 4.89371 15.4688 6.53439 15.4688H6.82784L8.81534 29.0891C9.20217 31.7643 10.376 33 12.9904 33ZM7.08128 13.4183C6.41434 13.4183 6.14756 13.1331 6.14756 12.4541V11.0147C6.14756 10.3357 6.41434 10.0505 7.08128 10.0505H32.9321C33.599 10.0505 33.8524 10.3357 33.8524 11.0147V12.4541C33.8524 13.1331 33.599 13.4183 32.9321 13.4183H7.08128ZM13.0304 30.9495C11.8299 30.9495 11.1363 30.4063 10.9496 29.0619L8.96207 15.4688H31.0379L29.0504 29.0619C28.8504 30.4063 28.1434 30.9495 26.9696 30.9495H13.0304ZM16.1384 28.1114C16.4052 28.1114 16.6453 27.9756 16.8454 27.7854L19.9933 24.5671L23.1546 27.7854C23.3414 27.962 23.5815 28.1114 23.8749 28.1114C24.4352 28.1114 24.902 27.6225 24.902 27.0521C24.902 26.7398 24.7687 26.5225 24.5819 26.3188L21.4473 23.1141L24.5952 19.8685C24.7953 19.6513 24.9154 19.4476 24.9154 19.1624C24.9154 18.5785 24.4619 18.1168 23.8749 18.1168C23.6215 18.1168 23.3947 18.2254 23.1813 18.4427L19.9933 21.6611L16.832 18.4563C16.6186 18.2526 16.4052 18.1439 16.1384 18.1439C15.5648 18.1439 15.098 18.5921 15.098 19.1624C15.098 19.4612 15.2313 19.692 15.4181 19.8821L18.5527 23.1141L15.4181 26.3324C15.2313 26.5225 15.098 26.7534 15.098 27.0521C15.098 27.6225 15.5648 28.1114 16.1384 28.1114Z" fill="#F0A56F"/>
</svg>
