<svg width="28" height="29" viewBox="0 0 28 29" fill="none" xmlns="http://www.w3.org/2000/svg">
<path d="M4.77567 28.25H23.2243C26.4183 28.25 28 26.6683 28 23.5352V4.96483C28 1.83175 26.4183 0.25 23.2243 0.25H4.77567C1.59696 0.25 0 1.81654 0 4.96483V23.5352C0 26.6835 1.59696 28.25 4.77567 28.25ZM12.3042 21.6644C11.7871 21.6644 11.3612 21.4515 10.9658 20.9192L7.14829 16.2348C6.92015 15.9306 6.78327 15.596 6.78327 15.2462C6.78327 14.5618 7.31559 13.999 8.01521 13.999C8.44106 13.999 8.77567 14.1359 9.15589 14.6378L12.2433 18.6226L18.7376 8.18916C19.0266 7.73289 19.4221 7.48954 19.8327 7.48954C20.4867 7.48954 21.1103 7.94582 21.1103 8.66065C21.1103 8.99525 20.9278 9.34506 20.73 9.66445L13.5817 20.9192C13.2624 21.4211 12.8213 21.6644 12.3042 21.6644Z" fill="#62D3B4"/>
</svg>
