<svg width="64" height="64" viewBox="0 0 64 64" fill="none" xmlns="http://www.w3.org/2000/svg">
<path d="M40.3563 14.4731C41.1848 15.908 43.0195 16.3996 44.4544 15.5712C45.8893 14.7427 46.3809 12.908 45.5525 11.4731C44.7241 10.0382 42.8893 9.54657 41.4544 10.375C40.0195 11.2034 39.5279 13.0382 40.3563 14.4731Z" fill="#FFAB09"/>
<path d="M31.1735 12.7838C32.7451 13.2058 34.3613 12.2738 34.7834 10.7021C35.2054 9.13044 34.2734 7.51425 32.7017 7.09224C31.13 6.67023 29.5139 7.60221 29.0918 9.17388C28.6698 10.7455 29.6018 12.3617 31.1735 12.7838Z" fill="#FFAB09"/>
<path d="M18.402 14.4457C19.2304 15.8806 21.0652 16.3722 22.5001 15.5438C23.9349 14.7154 24.4266 12.8806 23.5981 11.4457C22.7697 10.0109 20.9349 9.51923 19.5001 10.3477C18.0652 11.1761 17.5736 13.0109 18.402 14.4457Z" fill="#FFAB09"/>
<path d="M10.3756 22.5473C11.2041 23.9822 13.0388 24.4738 14.4737 23.6454C15.9086 22.8169 16.4002 20.9822 15.5718 19.5473C14.7434 18.1124 12.9086 17.6208 11.4737 18.4492C10.0388 19.2776 9.5472 21.1124 10.3756 22.5473Z" fill="#FFAB09"/>
<path d="M7.4474 33.4731C8.27583 34.908 10.1106 35.3996 11.5455 34.5712C12.9804 33.7427 13.472 31.908 12.6436 30.4731C11.8151 29.0382 9.98036 28.5466 8.54548 29.375C7.1106 30.2034 6.61897 32.0382 7.4474 33.4731Z" fill="#FFAB09"/>
<path d="M10.3493 44.5004C11.1777 45.9353 13.0125 46.4269 14.4473 45.5985C15.8822 44.7701 16.3738 42.9353 15.5454 41.5004C14.717 40.0655 12.8822 39.5739 11.4473 40.4023C10.0125 41.2308 9.52083 43.0655 10.3493 44.5004Z" fill="#FFAB09"/>
<path d="M18.4474 52.5278C19.2758 53.9626 21.1106 54.4543 22.5455 53.6258C23.9804 52.7974 24.472 50.9626 23.6436 49.5278C22.8151 48.0929 20.9804 47.6013 19.5455 48.4297C18.1106 49.2581 17.619 51.0929 18.4474 52.5278Z" fill="#FFAB09"/>
<path d="M29.3756 55.4535C30.2041 56.8884 32.0388 57.38 33.4737 56.5516C34.9086 55.7232 35.4002 53.8884 34.5718 52.4535C33.7434 51.0187 31.9086 50.527 30.4737 51.3555C29.0388 52.1839 28.5472 54.0187 29.3756 55.4535Z" fill="#FFAB09"/>
<path d="M40.402 52.5512C41.2304 53.9861 43.0652 54.4777 44.5001 53.6493C45.9349 52.8209 46.4266 50.9861 45.5981 49.5512C44.7697 48.1163 42.9349 47.6247 41.5001 48.4531C40.0652 49.2816 39.5736 51.1163 40.402 52.5512Z" fill="#FFAB09"/>
<path d="M48.4281 44.4535C49.2565 45.8884 51.0913 46.38 52.5262 45.5516C53.9611 44.7232 54.4527 42.8884 53.6243 41.4535C52.7958 40.0187 50.9611 39.527 49.5262 40.3555C48.0913 41.1839 47.5997 43.0187 48.4281 44.4535Z" fill="#FFAB09"/>
<path d="M51.3563 33.5278C52.1848 34.9626 54.0195 35.4543 55.4544 34.6258C56.8893 33.7974 57.3809 31.9626 56.5525 30.5278C55.7241 29.0929 53.8893 28.6013 52.4544 29.4297C51.0195 30.2581 50.5279 32.0929 51.3563 33.5278Z" fill="#FFAB09"/>
<path d="M48.4545 22.5004C49.2829 23.9353 51.1177 24.4269 52.5526 23.5985C53.9874 22.7701 54.4791 20.9353 53.6506 19.5004C52.8222 18.0655 50.9874 17.5739 49.5526 18.4023C48.1177 19.2308 47.6261 21.0655 48.4545 22.5004Z" fill="#FFAB09"/>
<path d="M32 47C40.2843 47 47 40.2843 47 32C47 23.7157 40.2843 17 32 17C23.7157 17 17 23.7157 17 32C17 40.2843 23.7157 47 32 47Z" fill="#FFAB09"/>
</svg>
