<svg width="32" height="32" viewBox="0 0 32 32" fill="none" xmlns="http://www.w3.org/2000/svg">
<path d="M16 28C22.581 28 28 22.581 28 16C28 9.43049 22.5695 4 15.9885 4C9.41898 4 4 9.43049 4 16C4 22.581 9.41898 28 16 28ZM9.05082 8.92426C10.1783 7.81975 11.5705 6.96836 13.1237 6.48514C12.2953 7.30201 11.605 8.46405 11.0757 9.87919C10.2819 9.62608 9.60307 9.30393 9.05082 8.92426ZM18.8878 6.49664C20.4295 6.97987 21.8217 7.81975 22.9492 8.93576C22.3969 9.31544 21.7181 9.62608 20.9243 9.87919C20.4065 8.47555 19.7047 7.31352 18.8878 6.49664ZM16.8399 6.96836C17.7718 7.42857 18.6232 8.64813 19.2445 10.2934C18.4966 10.4199 17.6913 10.5005 16.8399 10.535V6.96836ZM12.7555 10.2934C13.3768 8.64813 14.2282 7.42857 15.1601 6.96836V10.535C14.3087 10.5005 13.5034 10.4199 12.7555 10.2934ZM6.09396 15.1601C6.25503 13.3193 6.92234 11.605 7.96932 10.1783C8.64813 10.6961 9.54554 11.1333 10.5925 11.4669C10.3164 12.5944 10.1438 13.837 10.0863 15.1601H6.09396ZM21.9137 15.1601C21.8562 13.837 21.6836 12.5944 21.4075 11.4669C22.4545 11.1333 23.3519 10.6961 24.0307 10.1898C25.0777 11.6165 25.745 13.3193 25.906 15.1601H21.9137ZM11.8006 15.1601C11.8581 14.0096 12.0192 12.9051 12.2723 11.8926C13.1697 12.0652 14.1477 12.1802 15.1601 12.2263V15.1601H11.8006ZM16.8399 15.1601V12.2263C17.8523 12.1802 18.8303 12.0652 19.7277 11.8926C19.9808 12.9051 20.1419 14.0096 20.1994 15.1601H16.8399ZM6.09396 16.8399H10.0863C10.1323 18.186 10.3164 19.4401 10.604 20.5906C9.55705 20.9243 8.67114 21.35 7.99233 21.8562C6.93384 20.418 6.25503 18.6922 6.09396 16.8399ZM11.8006 16.8399H15.1601V19.8313C14.1477 19.8773 13.1812 19.9923 12.2723 20.1649C12.0192 19.1294 11.8581 18.0019 11.8006 16.8399ZM16.8399 19.8313V16.8399H20.1994C20.1419 18.0019 19.9808 19.1294 19.7277 20.1649C18.8188 19.9923 17.8523 19.8773 16.8399 19.8313ZM21.396 20.5906C21.6836 19.4401 21.8677 18.186 21.9137 16.8399H25.906C25.745 18.6922 25.0662 20.418 24.0077 21.8562C23.3289 21.35 22.443 20.9243 21.396 20.5906ZM12.7785 21.7641C13.5149 21.6376 14.3087 21.5455 15.1601 21.511V25.0547C14.2397 24.5829 13.3883 23.3749 12.7785 21.7641ZM16.8399 21.511C17.6913 21.5455 18.4851 21.6376 19.2215 21.7641C18.6117 23.3749 17.7603 24.5829 16.8399 25.0547V21.511ZM20.9128 22.1668C21.6951 22.4199 22.3739 22.7306 22.9262 23.0988C21.7987 24.2033 20.418 25.0316 18.8993 25.5034C19.7047 24.698 20.395 23.559 20.9128 22.1668ZM9.08533 23.0988C9.62608 22.7306 10.3049 22.4199 11.0872 22.1668C11.605 23.559 12.2953 24.698 13.1007 25.5034C11.582 25.0316 10.2013 24.2033 9.08533 23.0988Z" fill="black"/>
</svg>
