<svg width="20" height="18" viewBox="0 0 20 18" fill="none" xmlns="http://www.w3.org/2000/svg">
<path d="M13.5984 5.4676C14.646 5.4676 15.5383 4.82007 15.9069 3.90193H19.1174C19.5926 3.90193 20 3.48636 20 2.9838C20 2.48124 19.6023 2.06566 19.1174 2.06566H15.9166C15.548 1.14753 14.646 0.5 13.5984 0.5C12.5509 0.5 11.6489 1.14753 11.2803 2.06566H0.911736C0.397672 2.06566 0 2.48124 0 2.9838C0 3.48636 0.407372 3.90193 0.911736 3.90193H11.2803C11.6489 4.82007 12.5509 5.4676 13.5984 5.4676ZM13.5984 4.16288C12.9389 4.16288 12.4054 3.64099 12.4054 2.9838C12.4054 2.30728 12.9389 1.79505 13.5984 1.79505C14.2677 1.79505 14.7818 2.30728 14.7818 2.9838C14.7818 3.64099 14.2677 4.16288 13.5984 4.16288ZM0.872939 8.0867C0.397672 8.0867 0 8.49261 0 9.00483C0 9.49773 0.407371 9.9133 0.872939 9.9133H4.19981C4.55868 10.8314 5.46072 11.4886 6.51794 11.4886C7.55577 11.4886 8.45781 10.8314 8.82638 9.9133H19.0883C19.5926 9.9133 20 9.50739 20 9.00483C20 8.49261 19.6023 8.0867 19.0883 8.0867H8.82638C8.45781 7.16856 7.55577 6.52103 6.51794 6.52103C5.47042 6.52103 4.56838 7.16856 4.19981 8.0867H0.872939ZM6.51794 10.1839C5.84869 10.1839 5.32493 9.66202 5.32493 9.00483C5.32493 8.32831 5.84869 7.81609 6.51794 7.81609C7.1872 7.81609 7.70126 8.32831 7.70126 9.00483C7.70126 9.66202 7.1872 10.1839 6.51794 10.1839ZM13.5984 17.5C14.646 17.5 15.548 16.8525 15.9166 15.9343H19.1174C19.5926 15.9343 20 15.5188 20 15.0162C20 14.504 19.6023 14.0981 19.1174 14.0981H15.9069C15.548 13.1799 14.646 12.5324 13.5984 12.5324C12.5509 12.5324 11.6489 13.1799 11.2803 14.0981H0.911736C0.397672 14.0981 0 14.5136 0 15.0162C0 15.5188 0.407372 15.9343 0.911736 15.9343H11.2803C11.6489 16.8525 12.5509 17.5 13.5984 17.5ZM13.5984 16.2049C12.9389 16.2049 12.4054 15.6734 12.4054 15.0162C12.4054 14.3493 12.9389 13.8275 13.5984 13.8275C14.2677 13.8275 14.7818 14.3493 14.7818 15.0162C14.7818 15.6734 14.2677 16.2049 13.5984 16.2049Z" fill="#0C695E"/>
</svg>
