<svg width="16" height="16" viewBox="0 0 16 16" fill="none" xmlns="http://www.w3.org/2000/svg">
<path d="M3.73193 14.1063H5.26026C5.40112 14.1063 5.50677 14.1486 5.61241 14.2542L6.69704 15.3318C7.58446 16.2263 8.4085 16.2192 9.29592 15.3318L10.3805 14.2542C10.4932 14.1486 10.5918 14.1063 10.7397 14.1063H12.261C13.5217 14.1063 14.1063 13.5288 14.1063 12.261V10.7397C14.1063 10.5918 14.1486 10.4932 14.2542 10.3805L15.3318 9.29592C16.2263 8.4085 16.2192 7.58446 15.3318 6.69704L14.2542 5.61241C14.1486 5.50677 14.1063 5.40112 14.1063 5.26026V3.73193C14.1063 2.47827 13.5288 1.88665 12.261 1.88665H10.7397C10.5918 1.88665 10.4932 1.85144 10.3805 1.74579L9.29592 0.66821C8.4085 -0.226255 7.58446 -0.219212 6.69704 0.66821L5.61241 1.74579C5.50677 1.85144 5.40112 1.88665 5.26026 1.88665H3.73193C2.47122 1.88665 1.88665 2.46418 1.88665 3.73193V5.26026C1.88665 5.40112 1.85144 5.50677 1.74579 5.61241L0.66821 6.69704C-0.226255 7.58446 -0.219212 8.4085 0.66821 9.29592L1.74579 10.3805C1.85144 10.4932 1.88665 10.5918 1.88665 10.7397V12.261C1.88665 13.5217 2.47122 14.1063 3.73193 14.1063ZM7.21118 11.437C6.97172 11.437 6.77451 11.3454 6.5914 11.0989L4.8236 8.92968C4.71795 8.78882 4.65456 8.62683 4.65456 8.47188C4.65456 8.1479 4.90107 7.88731 5.22505 7.88731C5.42225 7.88731 5.5772 7.95774 5.75328 8.19016L7.18301 10.0354L10.1904 5.20392C10.3242 4.98559 10.5073 4.87994 10.6975 4.87994C11.0003 4.87994 11.2891 5.09123 11.2891 5.41521C11.2891 5.5772 11.1975 5.73919 11.113 5.88005L7.8028 11.0989C7.65489 11.3243 7.45064 11.437 7.21118 11.437Z" fill="#B3EFDE"/>
</svg>
