<svg width="32" height="32" viewBox="0 0 32 32" fill="none" xmlns="http://www.w3.org/2000/svg">
<path d="M9.96842 29H22.0189C24.0147 29 25 27.9806 25 25.7613V16.4323C25 14.471 24.2168 13.4516 22.6253 13.2581V10.3161C22.6253 5.37419 19.3789 3 15.9937 3C12.6084 3 9.36211 5.37419 9.36211 10.3161V13.2581C7.77053 13.4516 7 14.471 7 16.4323V25.7613C7 27.9806 7.98526 29 9.96842 29ZM12.0274 10.0839C12.0274 7.21936 13.8084 5.61935 15.9937 5.61935C18.1789 5.61935 19.96 7.21936 19.96 10.0839V13.2194H12.0274V10.0839ZM10.5621 26.4065C10.0316 26.4065 9.75368 26.1484 9.75368 25.5032V16.7032C9.75368 16.0452 10.0316 15.8 10.5621 15.8H21.4379C21.9684 15.8 22.2337 16.0452 22.2337 16.7032V25.5032C22.2337 26.1484 21.9684 26.4065 21.4379 26.4065H10.5621Z" fill="black"/>
</svg>
