<svg width="24" height="24" viewBox="0 0 24 24" fill="none" xmlns="http://www.w3.org/2000/svg">
<path d="M0.778859 1.71998H23.2211C23.6773 1.71998 24 1.35548 24 0.854295C24 0.353109 23.6773 0 23.2211 0H0.778859C0.311544 0 0 0.353109 0 0.854295C0 1.35548 0.311544 1.71998 0.778859 1.71998ZM2.12517 10.9236H4.63978C6.05285 10.9236 6.76495 10.1946 6.76495 8.69103V6.21927C6.76495 4.71571 6.05285 3.9981 4.63978 3.9981H2.12517C0.7121 3.9981 0 4.71571 0 6.21927V8.69103C0 10.1946 0.7121 10.9236 2.12517 10.9236ZM10.7371 10.9236H13.2517C14.6648 10.9236 15.3769 10.1946 15.3769 8.69103V6.21927C15.3769 4.71571 14.6648 3.9981 13.2517 3.9981H10.7371C9.32406 3.9981 8.61196 4.71571 8.61196 6.21927V8.69103C8.61196 10.1946 9.32406 10.9236 10.7371 10.9236ZM19.3491 10.9236H21.8526C23.2656 10.9236 23.9777 10.1946 23.9777 8.69103V6.21927C23.9777 4.71571 23.2656 3.9981 21.8526 3.9981H19.3491C17.9249 3.9981 17.2128 4.71571 17.2128 6.21927V8.69103C17.2128 10.1946 17.9249 10.9236 19.3491 10.9236ZM2.14743 9.31751C1.758 9.31751 1.56885 9.11248 1.56885 8.69103V6.20788C1.56885 5.80921 1.758 5.60418 2.14743 5.60418H4.6064C4.99583 5.60418 5.19611 5.80921 5.19611 6.20788V8.69103C5.19611 9.11248 4.99583 9.31751 4.6064 9.31751H2.14743ZM10.7594 9.31751C10.37 9.31751 10.1808 9.11248 10.1808 8.69103V6.20788C10.1808 5.80921 10.37 5.60418 10.7594 5.60418H13.2295C13.6189 5.60418 13.8081 5.80921 13.8081 6.20788V8.69103C13.8081 9.11248 13.6189 9.31751 13.2295 9.31751H10.7594ZM19.3602 9.31751C18.9708 9.31751 18.7816 9.11248 18.7816 8.69103V6.20788C18.7816 5.80921 18.9708 5.60418 19.3602 5.60418H21.8303C22.2197 5.60418 22.4089 5.80921 22.4089 6.20788V8.69103C22.4089 9.11248 22.2197 9.31751 21.8303 9.31751H19.3602ZM0.778859 14.7964H23.2211C23.6773 14.7964 24 14.4433 24 13.9421C24 13.4409 23.6773 13.0764 23.2211 13.0764H0.778859C0.311544 13.0764 0 13.4409 0 13.9421C0 14.4433 0.311544 14.7964 0.778859 14.7964ZM2.1363 24H4.6509C6.06398 24 6.77608 23.2824 6.77608 21.7788V19.2957C6.77608 17.7921 6.06398 17.0745 4.6509 17.0745H2.1363C0.723227 17.0745 0.0111266 17.7921 0.0111266 19.2957V21.7788C0.0111266 23.2824 0.723227 24 2.1363 24ZM10.7483 24H13.2629C14.6759 24 15.388 23.2824 15.388 21.7788V19.2957C15.388 17.7921 14.6759 17.0745 13.2629 17.0745H10.7483C9.33519 17.0745 8.62309 17.7921 8.62309 19.2957V21.7788C8.62309 23.2824 9.33519 24 10.7483 24ZM19.3602 24H21.8637C23.2879 24 24 23.2824 24 21.7788V19.2957C24 17.7921 23.2879 17.0745 21.8637 17.0745H19.3602C17.9471 17.0745 17.235 17.7921 17.235 19.2957V21.7788C17.235 23.2824 17.9471 24 19.3602 24ZM2.15855 22.3939C1.76912 22.3939 1.57997 22.1889 1.57997 21.7788V19.3071C1.57997 18.8856 1.76912 18.6806 2.15855 18.6806H4.61752C5.00695 18.6806 5.20723 18.8856 5.20723 19.3071V21.7788C5.20723 22.1889 5.00695 22.3939 4.61752 22.3939H2.15855ZM10.7816 22.3939C10.3811 22.3939 10.1919 22.1889 10.1919 21.7788V19.3071C10.1919 18.8856 10.3811 18.6806 10.7816 18.6806H13.2406C13.63 18.6806 13.8192 18.8856 13.8192 19.3071V21.7788C13.8192 22.1889 13.63 22.3939 13.2406 22.3939H10.7816ZM19.3713 22.3939C18.993 22.3939 18.8039 22.1889 18.8039 21.7788V19.3071C18.8039 18.8856 18.993 18.6806 19.3713 18.6806H21.8414C22.242 18.6806 22.4312 18.8856 22.4312 19.3071V21.7788C22.4312 22.1889 22.242 22.3939 21.8414 22.3939H19.3713Z" fill="#62D3B4"/>
</svg>
