<svg width="18" height="18" viewBox="0 0 18 18" fill="none" xmlns="http://www.w3.org/2000/svg">
<path d="M4.73193 15.1063H6.26026C6.40112 15.1063 6.50677 15.1486 6.61241 15.2542L7.69704 16.3318C8.58446 17.2263 9.4085 17.2192 10.2959 16.3318L11.3805 15.2542C11.4932 15.1486 11.5918 15.1063 11.7397 15.1063H13.261C14.5217 15.1063 15.1063 14.5288 15.1063 13.261V11.7397C15.1063 11.5918 15.1486 11.4932 15.2542 11.3805L16.3318 10.2959C17.2263 9.4085 17.2192 8.58446 16.3318 7.69704L15.2542 6.61241C15.1486 6.50677 15.1063 6.40112 15.1063 6.26026V4.73193C15.1063 3.47827 14.5288 2.88665 13.261 2.88665H11.7397C11.5918 2.88665 11.4932 2.85144 11.3805 2.74579L10.2959 1.66821C9.4085 0.773745 8.58446 0.780788 7.69704 1.66821L6.61241 2.74579C6.50677 2.85144 6.40112 2.88665 6.26026 2.88665H4.73193C3.47122 2.88665 2.88665 3.46418 2.88665 4.73193V6.26026C2.88665 6.40112 2.85144 6.50677 2.74579 6.61241L1.66821 7.69704C0.773745 8.58446 0.780788 9.4085 1.66821 10.2959L2.74579 11.3805C2.85144 11.4932 2.88665 11.5918 2.88665 11.7397V13.261C2.88665 14.5217 3.47122 15.1063 4.73193 15.1063ZM8.21118 12.437C7.97172 12.437 7.77451 12.3454 7.5914 12.0989L5.8236 9.92968C5.71795 9.78882 5.65456 9.62683 5.65456 9.47188C5.65456 9.1479 5.90107 8.88731 6.22505 8.88731C6.42225 8.88731 6.5772 8.95774 6.75328 9.19016L8.18301 11.0354L11.1904 6.20392C11.3242 5.98559 11.5073 5.87994 11.6975 5.87994C12.0003 5.87994 12.2891 6.09123 12.2891 6.41521C12.2891 6.5772 12.1975 6.73919 12.113 6.88005L8.8028 12.0989C8.65489 12.3243 8.45064 12.437 8.21118 12.437Z" fill="#B3EFDE"/>
<path d="M8.20896 12.436C7.9695 12.436 7.77229 12.3444 7.58918 12.0979L5.82138 9.92865C5.71573 9.78779 5.65234 9.6258 5.65234 9.47085C5.65234 9.14687 5.89885 8.88628 6.22283 8.88628C6.42003 8.88628 6.57498 8.95671 6.75106 9.18913L8.18079 11.0344L11.1882 6.20289C11.322 5.98455 11.5051 5.87891 11.6953 5.87891C11.9981 5.87891 12.2869 6.0902 12.2869 6.41418C12.2869 6.57617 12.1953 6.73816 12.1108 6.87902L8.80058 12.0979C8.65267 12.3233 8.44843 12.436 8.20896 12.436Z" fill="white"/>
</svg>
