<svg width="25" height="24" viewBox="0 0 25 24" fill="none" xmlns="http://www.w3.org/2000/svg">
<path d="M7.64209 11.9832C7.64209 12.5156 8.01145 12.8741 8.5655 12.8741H11.7594V16.0788C11.7594 16.622 12.1288 17.0023 12.6611 17.0023C13.2043 17.0023 13.5845 16.6329 13.5845 16.0788V12.8741H16.7893C17.3325 12.8741 17.7127 12.5156 17.7127 11.9832C17.7127 11.4401 17.3325 11.0598 16.7893 11.0598H13.5845V7.86592C13.5845 7.31187 13.2043 6.93164 12.6611 6.93164C12.1288 6.93164 11.7594 7.31187 11.7594 7.86592V11.0598H8.5655C8.01145 11.0598 7.64209 11.4401 7.64209 11.9832Z" fill="white"/>
<path d="M10.1665 2H15.1665V3.6H10.1665V2Z" fill="white"/>
<path d="M17.3332 3.6H16.8332V2H17.3332C19.2 2 20.1334 2 20.8465 2.34878C21.4737 2.65557 21.9836 3.14511 22.3032 3.74723C22.6665 4.43175 22.6665 5.32783 22.6665 7.12V7.6H20.9998V7.12C20.9998 6.19752 20.9985 5.60188 20.96 5.14854C20.923 4.71388 20.8602 4.55273 20.8182 4.47362C20.6584 4.17256 20.4034 3.92779 20.0898 3.77439C20.0074 3.73408 19.8395 3.6738 19.3868 3.63828C18.9145 3.60124 18.2941 3.6 17.3332 3.6Z" fill="white"/>
<path d="M20.9998 9.2H22.6665V14.8H20.9998V9.2Z" fill="white"/>
<path d="M20.9998 16.4H22.6665V16.88C22.6665 18.6722 22.6665 19.5683 22.3032 20.2528C21.9836 20.8549 21.4737 21.3444 20.8465 21.6512C20.1334 22 19.2 22 17.3332 22H16.8332V20.4H17.3332C18.2941 20.4 18.9145 20.3988 19.3868 20.3617C19.8395 20.3262 20.0074 20.2659 20.0898 20.2256C20.4034 20.0722 20.6584 19.8274 20.8182 19.5264C20.8602 19.4473 20.923 19.2861 20.96 18.8515C20.9985 18.3981 20.9998 17.8025 20.9998 16.88V16.4Z" fill="white"/>
<path d="M15.1665 20.4H10.1665V22H15.1665V20.4Z" fill="white"/>
<path d="M7.99984 2H8.49984V3.6H7.99984C7.03892 3.6 6.41846 3.60124 5.94623 3.63828C5.49346 3.6738 5.32559 3.73408 5.24319 3.77439C4.92958 3.92779 4.67462 4.17256 4.51483 4.47362C4.47284 4.55273 4.41004 4.71388 4.37305 5.14854C4.33447 5.60188 4.33317 6.19751 4.33317 7.12V7.6H2.6665V7.12C2.6665 5.32783 2.6665 4.43175 3.02982 3.74723C3.34939 3.14511 3.85933 2.65557 4.48654 2.34878C5.19957 2 6.133 2 7.99984 2Z" fill="white"/>
<path d="M2.6665 16.4V16.88C2.6665 18.6722 2.6665 19.5683 3.02982 20.2528C3.34939 20.8549 3.85933 21.3444 4.48654 21.6512C5.19957 22 6.133 22 7.99984 22H8.49984V20.4H7.99984C7.03891 20.4 6.41846 20.3988 5.94623 20.3617C5.49346 20.3262 5.32559 20.2659 5.24319 20.2256C4.92958 20.0722 4.67462 19.8274 4.51483 19.5264C4.47284 19.4473 4.41004 19.2861 4.37305 18.8515C4.33447 18.3981 4.33317 17.8025 4.33317 16.88V16.4H2.6665Z" fill="white"/>
<path d="M2.6665 14.8H4.33317V9.2H2.6665V14.8Z" fill="white"/>
</svg>
