<svg width="16" height="24" viewBox="0 0 16 24" fill="none" xmlns="http://www.w3.org/2000/svg">
<path d="M4.22642 18.7024H11.7632C12.1171 18.7024 12.3461 18.4847 12.3461 18.1322V16.4734C12.3461 13.9646 16 12.3473 16 7.86868C16 3.15162 12.7938 0 7.9948 0C3.19584 0 0 3.15162 0 7.86868C0 12.3473 3.65387 13.9646 3.65387 16.4734V18.1322C3.65387 18.4847 3.88289 18.7024 4.22642 18.7024ZM4.6324 21.5015H11.3884C11.9193 21.5015 12.3461 21.0661 12.3461 20.527C12.3461 19.9879 11.9193 19.5525 11.3884 19.5525H4.6324C4.1015 19.5525 3.66428 19.9879 3.66428 20.527C3.66428 21.0661 4.1015 21.5015 4.6324 21.5015ZM8.00521 24C9.44177 24 10.4619 23.3469 10.5556 22.3413H5.45478C5.54847 23.3469 6.55823 24 8.00521 24Z" fill="white"/>
</svg>
