<svg width="40" height="40" viewBox="0 0 40 40" fill="none" xmlns="http://www.w3.org/2000/svg">
<path d="M20 32C26.5634 32 32 26.575 32 20C32 13.4366 26.5634 8 19.9884 8C13.425 8 8 13.4366 8 20C8 26.575 13.4366 32 20 32ZM20 21.9051C17.7231 21.8935 15.9574 19.9884 15.9574 17.4792C15.9458 15.1094 17.7348 13.1346 20 13.1346C22.2536 13.1346 24.031 15.1094 24.031 17.4792C24.031 19.9884 22.2652 21.9284 20 21.9051ZM20 30.0368C17.3979 30.0368 14.6331 28.9564 12.879 27.0629C14.2033 25.0649 16.8635 23.9148 20 23.9148C23.1016 23.9148 25.7735 25.0416 27.1094 27.0629C25.3553 28.9564 22.6021 30.0368 20 30.0368Z" fill="white"/>
</svg>
