<svg width="23" height="9" viewBox="0 0 23 9" fill="none" xmlns="http://www.w3.org/2000/svg">
<path d="M3.80509 4.00146C4.10294 4.00146 4.37149 3.93066 4.61075 3.78906C4.85489 3.64746 5.04776 3.45703 5.18936 3.21777C5.33097 2.97363 5.40177 2.70264 5.40177 2.40479C5.40177 2.11182 5.33097 1.8457 5.18936 1.60645C5.04776 1.3623 4.85489 1.16943 4.61075 1.02783C4.37149 0.881348 4.10294 0.808105 3.80509 0.808105C3.51212 0.808105 3.24356 0.881348 2.99942 1.02783C2.76017 1.16943 2.56974 1.3623 2.42813 1.60645C2.28653 1.8457 2.21573 2.11182 2.21573 2.40479C2.21573 2.70264 2.28653 2.97363 2.42813 3.21777C2.56974 3.45703 2.76017 3.64746 2.99942 3.78906C3.24356 3.93066 3.51212 4.00146 3.80509 4.00146ZM8.59513 8.41797H10.6899C11.266 8.41797 11.7128 8.32031 12.0302 8.125C12.3525 7.92969 12.5673 7.6709 12.6747 7.34863C12.787 7.02148 12.8188 6.66992 12.7699 6.29395L12.2865 2.44873H16.0439C16.2538 2.44873 16.432 2.37549 16.5785 2.229C16.725 2.07764 16.7983 1.89697 16.7983 1.68701C16.7983 1.47705 16.725 1.30127 16.5785 1.15967C16.432 1.01318 16.2538 0.939941 16.0439 0.939941H11.3564C11.1415 0.939941 10.9608 1.01318 10.8144 1.15967C10.6679 1.30127 10.5946 1.49902 10.5946 1.75293V5.63477H9.3422C9.01017 5.63477 8.70743 5.57373 8.43399 5.45166C8.16544 5.32959 7.95059 5.13916 7.78946 4.88037C7.69669 4.73389 7.71866 4.58252 7.85538 4.42627L9.7377 2.19238C9.88419 2.02148 9.95011 1.83838 9.93546 1.64307C9.92081 1.44775 9.84513 1.28174 9.70841 1.14502C9.57657 1.0083 9.40323 0.939941 9.18839 0.939941H6.54434C6.33438 0.939941 6.15616 1.01318 6.00968 1.15967C5.86319 1.30127 5.78995 1.47705 5.78995 1.68701C5.78995 1.90186 5.86075 2.08252 6.00235 2.229C6.14884 2.37549 6.3295 2.44873 6.54434 2.44873H7.61368L6.51505 3.74512C6.12442 4.20898 5.73136 4.60938 5.33585 4.94629C4.94034 5.2832 4.44962 5.58105 3.86368 5.83984L2.7211 6.35254L3.07999 5.08545C3.13858 4.87549 3.10929 4.68262 2.9921 4.50684C2.87979 4.32617 2.72843 4.21387 2.538 4.16992C2.33292 4.11621 2.14005 4.14307 1.95938 4.25049C1.77872 4.35791 1.66397 4.50928 1.61515 4.70459L0.904696 7.48047C0.84122 7.72949 0.85831 7.93457 0.955966 8.0957C1.0585 8.25195 1.20743 8.35205 1.40274 8.396C1.59806 8.43994 1.80313 8.41553 2.01798 8.32275L4.3837 7.27539C4.50577 7.22656 4.60587 7.20703 4.68399 7.2168C4.767 7.22168 4.85489 7.26074 4.94767 7.33398C5.32852 7.65625 5.82169 7.91748 6.42716 8.11768C7.03751 8.31787 7.76017 8.41797 8.59513 8.41797ZM16.6811 6.71875H22.123C22.3329 6.71875 22.5111 6.64551 22.6576 6.49902C22.8041 6.35254 22.8774 6.17188 22.8774 5.95703C22.8774 5.74707 22.8041 5.56885 22.6576 5.42236C22.5111 5.27588 22.3329 5.20264 22.123 5.20264H16.6078C16.5785 5.20264 16.5443 5.20264 16.5053 5.20264C16.4711 5.20264 16.4345 5.20508 16.3954 5.20996L13.3778 5.45898L13.4804 6.19141C13.5341 6.63086 13.5194 7.02393 13.4364 7.37061L16.6811 6.71875Z" fill="black"/>
</svg>
