<svg width="32" height="27" viewBox="0 0 32 27" fill="none" xmlns="http://www.w3.org/2000/svg">
<path d="M3.99205 20.1132H28.0079C30.6524 20.1132 32 18.7893 32 16.1669V3.93352C32 1.3239 30.6524 0 28.0079 0H3.99205C1.32221 0 0 1.31117 0 3.93352V16.1669C0 18.7893 1.32221 20.1132 3.99205 20.1132ZM4.01748 18.0637C2.74613 18.0637 2.04688 17.3762 2.04688 16.0523V4.04809C2.04688 2.72419 2.74613 2.0495 4.01748 2.0495H27.9698C29.2284 2.0495 29.9531 2.72419 29.9531 4.04809V16.0523C29.9531 17.3762 29.2284 18.0637 27.9698 18.0637H4.01748ZM5.1617 7.09052H6.33135C6.68733 7.09052 6.90346 6.87412 6.90346 6.53041V5.35926C6.90346 5.00283 6.68733 4.78642 6.33135 4.78642H5.1617C4.81843 4.78642 4.6023 5.00283 4.6023 5.35926V6.53041C4.6023 6.87412 4.81843 7.09052 5.1617 7.09052ZM9.25546 7.09052H10.4251C10.7684 7.09052 10.9845 6.87412 10.9845 6.53041V5.35926C10.9845 5.00283 10.7684 4.78642 10.4251 4.78642H9.25546C8.89948 4.78642 8.68335 5.00283 8.68335 5.35926V6.53041C8.68335 6.87412 8.89948 7.09052 9.25546 7.09052ZM13.3492 7.09052H14.5062C14.8621 7.09052 15.0783 6.87412 15.0783 6.53041V5.35926C15.0783 5.00283 14.8621 4.78642 14.5062 4.78642H13.3492C12.9932 4.78642 12.7771 5.00283 12.7771 5.35926V6.53041C12.7771 6.87412 12.9932 7.09052 13.3492 7.09052ZM17.4303 7.09052H18.5999C18.9559 7.09052 19.172 6.87412 19.172 6.53041V5.35926C19.172 5.00283 18.9559 4.78642 18.5999 4.78642H17.4303C17.087 4.78642 16.8709 5.00283 16.8709 5.35926V6.53041C16.8709 6.87412 17.087 7.09052 17.4303 7.09052ZM21.524 7.09052H22.6937C23.0369 7.09052 23.2531 6.87412 23.2531 6.53041V5.35926C23.2531 5.00283 23.0369 4.78642 22.6937 4.78642H21.524C21.1681 4.78642 20.9519 5.00283 20.9519 5.35926V6.53041C20.9519 6.87412 21.1681 7.09052 21.524 7.09052ZM25.6178 7.09052H26.7747C27.1307 7.09052 27.3468 6.87412 27.3468 6.53041V5.35926C27.3468 5.00283 27.1307 4.78642 26.7747 4.78642H25.6178C25.2618 4.78642 25.0457 5.00283 25.0457 5.35926V6.53041C25.0457 6.87412 25.2618 7.09052 25.6178 7.09052ZM5.1617 11.1895H6.33135C6.68733 11.1895 6.90346 10.9731 6.90346 10.6167V9.45827C6.90346 9.10184 6.68733 8.88543 6.33135 8.88543H5.1617C4.81843 8.88543 4.6023 9.10184 4.6023 9.45827V10.6167C4.6023 10.9731 4.81843 11.1895 5.1617 11.1895ZM9.25546 11.1895H10.4251C10.7684 11.1895 10.9845 10.9731 10.9845 10.6167V9.45827C10.9845 9.10184 10.7684 8.88543 10.4251 8.88543H9.25546C8.89948 8.88543 8.68335 9.10184 8.68335 9.45827V10.6167C8.68335 10.9731 8.89948 11.1895 9.25546 11.1895ZM13.3492 11.1895H14.5062C14.8621 11.1895 15.0783 10.9731 15.0783 10.6167V9.45827C15.0783 9.10184 14.8621 8.88543 14.5062 8.88543H13.3492C12.9932 8.88543 12.7771 9.10184 12.7771 9.45827V10.6167C12.7771 10.9731 12.9932 11.1895 13.3492 11.1895ZM17.4303 11.1895H18.5999C18.9559 11.1895 19.172 10.9731 19.172 10.6167V9.45827C19.172 9.10184 18.9559 8.88543 18.5999 8.88543H17.4303C17.087 8.88543 16.8709 9.10184 16.8709 9.45827V10.6167C16.8709 10.9731 17.087 11.1895 17.4303 11.1895ZM21.524 11.1895H22.6937C23.0369 11.1895 23.2531 10.9731 23.2531 10.6167V9.45827C23.2531 9.10184 23.0369 8.88543 22.6937 8.88543H21.524C21.1681 8.88543 20.9519 9.10184 20.9519 9.45827V10.6167C20.9519 10.9731 21.1681 11.1895 21.524 11.1895ZM25.6178 11.1895H26.7747C27.1307 11.1895 27.3468 10.9731 27.3468 10.6167V9.45827C27.3468 9.10184 27.1307 8.88543 26.7747 8.88543H25.6178C25.2618 8.88543 25.0457 9.10184 25.0457 9.45827V10.6167C25.0457 10.9731 25.2618 11.1895 25.6178 11.1895ZM5.1617 15.2885H6.33135C6.68733 15.2885 6.90346 15.0721 6.90346 14.7157V13.5446C6.90346 13.2008 6.68733 12.9844 6.33135 12.9844H5.1617C4.81843 12.9844 4.6023 13.2008 4.6023 13.5446V14.7157C4.6023 15.0721 4.81843 15.2885 5.1617 15.2885ZM9.3826 15.2885H22.5665C22.9988 15.2885 23.2531 15.0339 23.2531 14.5884V13.6719C23.2531 13.239 22.9988 12.9844 22.5665 12.9844H9.3826C8.93762 12.9844 8.68335 13.239 8.68335 13.6719V14.5884C8.68335 15.0339 8.93762 15.2885 9.3826 15.2885ZM25.6178 15.2885H26.7747C27.1307 15.2885 27.3468 15.0721 27.3468 14.7157V13.5446C27.3468 13.2008 27.1307 12.9844 26.7747 12.9844H25.6178C25.2618 12.9844 25.0457 13.2008 25.0457 13.5446V14.7157C25.0457 15.0721 25.2618 15.2885 25.6178 15.2885ZM15.9936 27C16.4895 27 17.1251 26.7327 17.6337 26.5545L24.2447 24.1231C24.7406 23.9448 24.9313 23.4993 24.9313 23.2065C24.9313 22.5955 24.499 22.0736 23.8252 22.0736C23.5073 22.0736 23.0497 22.2518 22.7572 22.3663L16.0064 24.8868L9.24275 22.3663C8.95034 22.2518 8.51808 22.0736 8.18752 22.0736C7.55185 22.0736 7.08145 22.57 7.08145 23.2065C7.08145 23.4993 7.25944 23.9448 7.76798 24.1231L14.3663 26.5545C14.9003 26.7454 15.5105 27 15.9936 27Z" fill="black"/>
</svg>
