<svg width="26" height="59" viewBox="0 0 26 59" fill="none" xmlns="http://www.w3.org/2000/svg">
<g clip-path="url(#clip0_767_98378)">
<rect width="26" height="59" fill="white"/>
<path d="M0 54H7.68191C9.66136 54 10.6511 54 11.6132 53.8426C12.4674 53.7029 13.3039 53.4712 14.1082 53.1516C15.0142 52.7915 15.8629 52.2823 17.5602 51.2639L23.1217 47.927C26.7133 45.772 28.5091 44.6945 30.4261 44.2736C32.1218 43.9012 33.8782 43.9012 35.5739 44.2736C37.4909 44.6945 39.2867 45.772 42.8783 47.927L48.4398 51.2639C50.1371 52.2823 50.9858 52.7915 51.8918 53.1516C52.6961 53.4712 53.5326 53.7029 54.3868 53.8426C55.3489 54 56.3386 54 58.3181 54H66" stroke="#FDD8FB"/>
</g>
<defs>
<clipPath id="clip0_767_98378">
<rect width="26" height="59" fill="white"/>
</clipPath>
</defs>
</svg>
