<svg width="12" height="22" viewBox="0 0 12 22" fill="none" xmlns="http://www.w3.org/2000/svg">
<path d="M4.28418 4.54053C4.61621 4.54053 4.91781 4.46029 5.18896 4.2998C5.46566 4.13379 5.68701 3.91243 5.85303 3.63574C6.01904 3.35905 6.10205 3.05469 6.10205 2.72266C6.10205 2.39062 6.01904 2.08903 5.85303 1.81787C5.68701 1.54118 5.46566 1.32259 5.18896 1.16211C4.91781 0.996094 4.61621 0.913086 4.28418 0.913086C3.95215 0.913086 3.64779 0.996094 3.37109 1.16211C3.09993 1.32259 2.88135 1.54118 2.71533 1.81787C2.55485 2.08903 2.47461 2.39062 2.47461 2.72266C2.47461 3.05469 2.55485 3.35905 2.71533 3.63574C2.88135 3.91243 3.09993 4.13379 3.37109 4.2998C3.64779 4.46029 3.95215 4.54053 4.28418 4.54053ZM8.60059 17.7139C8.77767 17.6309 8.90771 17.4897 8.99072 17.2905C9.07373 17.0968 9.0599 16.8589 8.94922 16.5767L7.48828 12.916C7.44954 12.8109 7.34717 12.6974 7.18115 12.5757L4.5083 10.6001L4.70752 7.65332C4.71305 7.57031 4.74349 7.51497 4.79883 7.4873C4.85417 7.45964 4.92057 7.45964 4.99805 7.4873L6.73291 8.07666C6.90999 8.132 7.09538 8.1486 7.28906 8.12646L10.5098 7.76953C10.7975 7.73633 11.0023 7.62842 11.124 7.4458C11.2458 7.26318 11.2928 7.0612 11.2651 6.83984C11.2375 6.61849 11.1434 6.43311 10.9829 6.28369C10.8224 6.12874 10.6011 6.0651 10.3188 6.09277L7.19775 6.44971L4.01855 5.39551C3.63118 5.2627 3.27148 5.24056 2.93945 5.3291C2.60742 5.41764 2.3335 5.59196 2.11768 5.85205C1.90739 6.11214 1.78564 6.43587 1.75244 6.82324L1.52002 9.72852C1.48128 10.1602 1.56429 10.5724 1.76904 10.9653C1.97933 11.3582 2.27262 11.6626 2.64893 11.8784L6.04395 13.8457L7.38867 17.1992C7.50488 17.4925 7.68473 17.6751 7.92822 17.7471C8.17725 17.8245 8.40137 17.8135 8.60059 17.7139ZM0.831055 19.208C1.0026 19.291 1.18522 19.3104 1.37891 19.2661C1.57812 19.2274 1.75244 19.0973 1.90186 18.876L4.10156 15.5972C4.13477 15.5418 4.16244 15.4782 4.18457 15.4062C4.21224 15.3343 4.22884 15.2513 4.23438 15.1572L4.32568 13.6797L2.44141 12.584L2.54932 14.8999L0.523926 17.938C0.346842 18.2091 0.302572 18.4637 0.391113 18.7017C0.479655 18.9396 0.626302 19.1084 0.831055 19.208ZM7.26416 20.3369L10.5181 19.2578C10.7616 19.1748 10.8833 18.9977 10.8833 18.7266V8.5083C10.8335 8.51937 10.7809 8.5332 10.7256 8.5498C10.6702 8.56087 10.6149 8.56917 10.5596 8.57471L9.96191 8.64111V18.4692L6.99023 19.457C6.82422 19.5124 6.71631 19.6009 6.6665 19.7227C6.62223 19.8499 6.625 19.9689 6.6748 20.0796C6.70801 20.1792 6.77718 20.2594 6.88232 20.3203C6.98747 20.3812 7.11475 20.3867 7.26416 20.3369ZM0.57373 21.0923H3.97705C4.10433 21.0923 4.21501 21.0452 4.30908 20.9512C4.40316 20.8626 4.4502 20.7547 4.4502 20.6274C4.4502 20.5002 4.40316 20.3923 4.30908 20.3037C4.21501 20.2152 4.10433 20.1709 3.97705 20.1709H0.57373C0.446452 20.1709 0.338542 20.2152 0.25 20.3037C0.161458 20.3923 0.117188 20.5002 0.117188 20.6274C0.117188 20.7547 0.161458 20.8626 0.25 20.9512C0.338542 21.0452 0.446452 21.0923 0.57373 21.0923Z" fill="black"/>
</svg>
