<svg width="24" height="24" viewBox="0 0 24 24" fill="none" xmlns="http://www.w3.org/2000/svg">
<path d="M4.60477 23.3011C5.04785 23.6479 5.60981 23.5287 6.27983 23.041L11.9967 18.8254L17.7243 23.041C18.3943 23.5287 18.9455 23.6479 19.3994 23.3011C19.8425 22.9652 19.9397 22.4125 19.6695 21.6214L17.4109 14.8807L23.1818 10.7193C23.8518 10.2425 24.122 9.74398 23.9491 9.20213C23.7762 8.68195 23.2682 8.42187 22.4361 8.4327L15.3576 8.47605L13.207 1.70291C12.9477 0.90097 12.5586 0.5 11.9967 0.5C11.4455 0.5 11.0565 0.90097 10.7971 1.70291L8.64654 8.47605L1.56804 8.4327C0.735906 8.42187 0.227983 8.68195 0.0550731 9.20213C-0.128644 9.74398 0.152335 10.2425 0.822361 10.7193L6.59323 14.8807L4.33459 21.6214C4.06442 22.4125 4.16168 22.9652 4.60477 23.3011Z" fill="white"/>
</svg>
