<svg width="200" height="200" viewBox="0 0 200 200" fill="none" xmlns="http://www.w3.org/2000/svg">
<path d="M36.2442 100C36.2442 64.789 64.7886 36.2446 99.9999 36.2446C135.211 36.2446 163.756 64.789 163.756 100C163.756 135.211 135.211 163.756 99.9999 163.756C64.7886 163.756 36.2442 135.211 36.2442 100Z" stroke="url(#paint0_linear_774_132743)" stroke-width="55"/>
<path d="M75.9324 100C75.9324 104.76 77.344 109.413 79.9885 113.371C82.6331 117.329 86.3919 120.414 90.7897 122.235C95.1874 124.057 100.027 124.534 104.695 123.605C109.364 122.676 113.652 120.384 117.018 117.018C120.384 113.652 122.676 109.364 123.605 104.695C124.533 100.027 124.057 95.1876 122.235 90.7898C120.414 86.3921 117.329 82.6333 113.371 79.9887C109.413 77.3441 104.76 75.9326 99.9999 75.9326C93.6168 75.9326 87.4951 78.4683 82.9816 82.9818C78.4681 87.4953 75.9324 93.617 75.9324 100Z" fill="#C2F19C"/>
<path d="M99.9999 57.8822C111.17 57.8822 121.883 62.3196 129.782 70.2182C137.68 78.1169 142.118 88.8298 142.118 100C142.118 111.171 137.68 121.883 129.782 129.782C121.883 137.681 111.17 142.118 99.9999 142.118" stroke="#B276FF" stroke-width="4" stroke-linecap="round"/>
<path d="M99.9999 57.8822C111.17 57.8822 121.883 62.3196 129.782 70.2182C137.68 78.1169 142.118 88.8298 142.118 100C142.118 111.171 137.68 121.883 129.782 129.782C121.883 137.681 111.17 142.118 99.9999 142.118" stroke="#B276FF" stroke-width="4" stroke-linecap="round"/>
<path d="M137.582 62.4181C142.517 67.3534 146.432 73.2125 149.103 79.6608C151.774 86.1091 153.149 93.0204 153.149 100C153.149 106.98 151.774 113.891 149.103 120.339C146.432 126.788 142.517 132.647 137.582 137.582C132.647 142.517 126.788 146.432 120.339 149.103C113.891 151.774 106.98 153.149 100 153.149C93.0204 153.149 86.1092 151.774 79.6609 149.103C73.2125 146.432 67.3534 142.517 62.4181 137.582" stroke="#9DF40F" stroke-width="4" stroke-linecap="round"/>
<path d="M137.582 62.4181C142.517 67.3534 146.432 73.2125 149.103 79.6608C151.774 86.1091 153.149 93.0204 153.149 100C153.149 106.98 151.774 113.891 149.103 120.339C146.432 126.788 142.517 132.647 137.582 137.582C132.647 142.517 126.788 146.432 120.339 149.103C113.891 151.774 106.98 153.149 100 153.149C93.0204 153.149 86.1092 151.774 79.6609 149.103C73.2125 146.432 67.3534 142.517 62.4181 137.582" stroke="#9DF40F" stroke-width="4" stroke-linecap="round"/>
<path d="M163.177 100C163.177 116.756 156.521 132.825 144.673 144.673C132.825 156.521 116.755 163.177 99.9999 163.177C83.2443 163.177 67.175 156.521 55.327 144.673C43.479 132.825 36.8229 116.756 36.8229 100" stroke="#DBB365" stroke-width="4" stroke-linecap="round"/>
<path d="M163.177 100C163.177 116.756 156.521 132.825 144.673 144.673C132.825 156.521 116.755 163.177 99.9999 163.177C83.2443 163.177 67.175 156.521 55.327 144.673C43.479 132.825 36.8229 116.756 36.8229 100" stroke="#DBB365" stroke-width="4" stroke-linecap="round"/>
<path d="M36.6025 136.603C46.3101 153.417 62.2995 165.686 81.0531 170.711C99.8068 175.736 119.788 173.105 136.603 163.397C153.417 153.69 165.686 137.701 170.711 118.947C175.736 100.193 173.105 80.2115 163.397 63.3975" stroke="#03BFBF" stroke-width="4" stroke-linecap="round"/>
<path d="M36.6025 136.603C46.3101 153.417 62.2995 165.686 81.0531 170.711C99.8068 175.736 119.788 173.105 136.603 163.397C153.417 153.69 165.686 137.701 170.711 118.947C175.736 100.193 173.105 80.2115 163.397 63.3975" stroke="#03BFBF" stroke-width="4" stroke-linecap="round"/>
<path d="M184.236 99.9997C184.236 111.062 182.057 122.015 177.824 132.235C173.591 142.455 167.386 151.741 159.564 159.563C151.742 167.386 142.456 173.59 132.236 177.824C122.016 182.057 111.062 184.236 99.9999 184.236C88.9378 184.236 77.9841 182.057 67.7642 177.824C57.5442 173.59 48.2581 167.386 40.436 159.563C32.614 151.741 26.4092 142.455 22.176 132.235C17.9427 122.015 15.7639 111.062 15.7639 99.9996" stroke="#FF0000" stroke-width="4" stroke-linecap="round"/>
<path d="M184.236 99.9997C184.236 111.062 182.057 122.015 177.824 132.235C173.591 142.455 167.386 151.741 159.564 159.563C151.742 167.386 142.456 173.59 132.236 177.824C122.016 182.057 111.062 184.236 99.9999 184.236C88.9378 184.236 77.9841 182.057 67.7642 177.824C57.5442 173.59 48.2581 167.386 40.436 159.563C32.614 151.741 26.4092 142.455 22.176 132.235C17.9427 122.015 15.7639 111.062 15.7639 99.9996" stroke="#FF0000" stroke-width="4" stroke-linecap="round"/>
<defs>
<linearGradient id="paint0_linear_774_132743" x1="101.645" y1="193.623" x2="89.5998" y2="68.2888" gradientUnits="userSpaceOnUse">
<stop offset="0.169791" stop-color="white"/>
<stop offset="0.878124" stop-color="white" stop-opacity="0"/>
</linearGradient>
</defs>
</svg>
