<svg width="64" height="64" viewBox="0 0 64 64" fill="none" xmlns="http://www.w3.org/2000/svg">
<path d="M31.4922 44C37.1969 44 41 40.0388 41 34.0693C41 24.1387 32.7671 20 27.0516 20C26.036 20 25.3878 20.3662 25.3878 21.0763C25.3878 21.3537 25.5066 21.6422 25.7335 21.9085C27.0192 23.4841 28.3049 25.3592 28.3265 27.5451C28.3265 27.8225 28.3049 28.0888 28.2293 28.3773C27.6351 27.0791 26.5222 26.2136 25.5282 26.2136C25.0852 26.2136 24.7827 26.5465 24.7827 27.0458C24.7827 27.3343 24.8583 28.0111 24.8583 28.4993C24.8583 30.9847 23 32.4383 23 36.4438C23 40.982 26.3818 44 31.4922 44ZM31.7407 40.8821C29.7203 40.8821 28.3806 39.6283 28.3806 37.7642C28.3806 35.8114 29.7311 35.1123 29.904 33.8585C29.9256 33.7587 29.9904 33.7254 30.066 33.792C30.563 34.2469 30.8872 34.8017 31.1573 35.4452C31.7299 34.6463 32 32.9598 31.8163 31.1401C31.8055 31.0402 31.8703 30.9847 31.9676 31.018C34.3337 32.1609 35.5654 34.5798 35.5654 36.7434C35.5654 38.9404 34.3121 40.8821 31.7407 40.8821Z" fill="#FF764B"/>
</svg>
