<svg width="14" height="20" viewBox="0 0 14 20" fill="none" xmlns="http://www.w3.org/2000/svg">
<path d="M11.3232 3.89746C11.6497 3.89746 11.9485 3.81722 12.2197 3.65674C12.4963 3.49072 12.7149 3.26937 12.8754 2.99268C13.0414 2.71598 13.1244 2.40885 13.1244 2.07129C13.1244 1.73926 13.0414 1.43766 12.8754 1.1665C12.7149 0.895345 12.4963 0.679525 12.2197 0.519043C11.9485 0.353027 11.6497 0.27002 11.3232 0.27002C10.9856 0.27002 10.6785 0.353027 10.4018 0.519043C10.1251 0.679525 9.90374 0.895345 9.73772 1.1665C9.57724 1.43766 9.497 1.73926 9.497 2.07129C9.497 2.40885 9.57724 2.71598 9.73772 2.99268C9.90374 3.26937 10.1251 3.49072 10.4018 3.65674C10.6785 3.81722 10.9856 3.89746 11.3232 3.89746ZM7.15618 16.7139C7.39413 16.7139 7.59889 16.6281 7.77044 16.4565C7.94199 16.2905 8.02776 16.0913 8.02776 15.8589V11.5093C8.02776 11.3045 7.96135 11.1247 7.82854 10.9697L5.86126 8.5542C5.80038 8.47673 5.77825 8.40202 5.79485 8.33008C5.81145 8.2526 5.85849 8.19173 5.93596 8.14746L8.32659 6.90234C8.41513 6.85807 8.49814 6.85254 8.57561 6.88574C8.65309 6.91341 8.69736 6.97982 8.70842 7.08496L8.91594 8.5542C8.96021 8.86409 9.15113 9.10205 9.4887 9.26807L11.8544 10.4551C12.1754 10.6156 12.4521 10.6488 12.6845 10.5547C12.9225 10.4606 13.0829 10.3112 13.1659 10.1064C13.2434 9.91829 13.2462 9.71354 13.1742 9.49219C13.1023 9.27083 12.9335 9.09375 12.6679 8.96094L10.5595 7.88184L10.2192 5.375C10.1528 4.92676 9.96461 4.55322 9.65471 4.25439C9.34482 3.95003 8.96575 3.76188 8.51751 3.68994C8.0748 3.618 7.61826 3.70654 7.14788 3.95557L4.02678 5.58252C3.55087 5.83154 3.21054 6.15804 3.00579 6.56201C2.80657 6.96598 2.74293 7.38932 2.81487 7.83203C2.89234 8.27474 3.11093 8.67594 3.47063 9.03564L6.3178 11.8745V15.8589C6.3178 16.0913 6.40081 16.2905 6.56682 16.4565C6.73284 16.6281 6.92929 16.7139 7.15618 16.7139ZM0.515554 11.3433C0.676035 11.631 0.894623 11.8247 1.17132 11.9243C1.44801 12.0184 1.73577 12.0322 2.0346 11.9658L3.82757 11.5674C3.95484 11.5452 4.05445 11.4899 4.12639 11.4014C4.19833 11.3128 4.2343 11.2021 4.2343 11.0693C4.2343 10.9421 4.1928 10.8369 4.10979 10.7539C4.03232 10.6654 3.93271 10.61 3.81096 10.5879L0.747975 10.0566C0.493418 10.0124 0.310801 10.0732 0.200124 10.2393C0.0894468 10.4053 0.0922137 10.5934 0.208425 10.8037L0.515554 11.3433ZM1.96819 11.4263L4.2094 18.0835L5.11419 17.7681L2.90618 11.144L1.96819 11.4263ZM7.13958 19.7104C7.75383 19.7104 8.30722 19.5638 8.79973 19.2705C9.29778 18.9772 9.69345 18.5815 9.98674 18.0835C10.28 17.591 10.4267 17.0404 10.4267 16.4316C10.4267 15.8063 10.2662 15.2391 9.94524 14.73C9.62981 14.2209 9.21201 13.8252 8.69182 13.543V14.7881C8.91871 14.9928 9.09303 15.2363 9.21477 15.5186C9.33652 15.8008 9.39739 16.1051 9.39739 16.4316C9.39739 16.8467 9.29501 17.223 9.09026 17.5605C8.88551 17.9036 8.61158 18.1748 8.26848 18.374C7.93092 18.5788 7.55462 18.6812 7.13958 18.6812C6.73007 18.6812 6.35377 18.5788 6.01067 18.374C5.67311 18.1693 5.40195 17.8953 5.19719 17.5522C4.99244 17.2147 4.89007 16.8411 4.89007 16.4316C4.89007 16.1051 4.95647 15.798 5.08928 15.5103C5.22763 15.217 5.41301 14.9652 5.64544 14.7549V13.5264C5.11972 13.792 4.69085 14.1849 4.35882 14.7051C4.02678 15.2253 3.86077 15.8008 3.86077 16.4316C3.86077 17.0404 4.00742 17.591 4.30071 18.0835C4.59954 18.5815 4.99798 18.9772 5.49602 19.2705C5.99407 19.5638 6.54192 19.7104 7.13958 19.7104ZM9.14837 17.8594L10.0781 18.1748L12.1699 11.8164C12.2141 11.6947 12.2058 11.5729 12.1449 11.4512C12.0896 11.3239 12.0038 11.2437 11.8876 11.2104C11.7493 11.1662 11.622 11.1772 11.5058 11.2437C11.3951 11.3045 11.3204 11.3958 11.2817 11.5176L9.14837 17.8594ZM2.57415 19.0049C2.46347 19.0768 2.39706 19.1709 2.37493 19.2871C2.35833 19.4033 2.38046 19.5057 2.44133 19.5942C2.50221 19.6883 2.59905 19.7354 2.73186 19.7354H11.539C11.6718 19.7354 11.7686 19.6883 11.8295 19.5942C11.8959 19.5002 11.9181 19.395 11.8959 19.2788C11.8793 19.1626 11.8185 19.0713 11.7133 19.0049L9.76262 17.7266L7.99456 18.9468H6.2846L4.51653 17.7266L2.57415 19.0049Z" fill="black"/>
</svg>
