<svg width="20" height="12" viewBox="0 0 20 12" fill="none" xmlns="http://www.w3.org/2000/svg">
<path d="M1.90723 9.51318C2.20508 9.51318 2.4541 9.41309 2.6543 9.21289C2.85449 9.0127 2.95459 8.76855 2.95459 8.48047V2.94336C2.95459 2.65039 2.85449 2.40381 2.6543 2.20361C2.4541 1.99854 2.20508 1.896 1.90723 1.896C1.61426 1.896 1.36768 1.99854 1.16748 2.20361C0.967285 2.40381 0.867188 2.65039 0.867188 2.94336V8.48047C0.867188 8.76855 0.967285 9.0127 1.16748 9.21289C1.36768 9.41309 1.61426 9.51318 1.90723 9.51318ZM5.38623 11.1318C5.87451 11.1318 6.27246 10.9854 6.58008 10.6924C6.8877 10.3994 7.0415 10.021 7.0415 9.55713V1.87402C7.0415 1.40527 6.8877 1.02441 6.58008 0.731445C6.27246 0.438477 5.87451 0.291992 5.38623 0.291992C4.90283 0.291992 4.50732 0.438477 4.19971 0.731445C3.89209 1.02441 3.73828 1.40527 3.73828 1.87402V9.55713C3.73828 10.021 3.89209 10.3994 4.19971 10.6924C4.50732 10.9854 4.90283 11.1318 5.38623 11.1318ZM7.89111 7.12549H12.4395V4.29834H7.89111V7.12549ZM14.9443 11.1318C15.4326 11.1318 15.8306 10.9854 16.1382 10.6924C16.4458 10.3994 16.5996 10.021 16.5996 9.55713V1.87402C16.5996 1.40527 16.4458 1.02441 16.1382 0.731445C15.8306 0.438477 15.4326 0.291992 14.9443 0.291992C14.4609 0.291992 14.0654 0.438477 13.7578 0.731445C13.4502 1.02441 13.2964 1.40527 13.2964 1.87402V9.55713C13.2964 10.021 13.4502 10.3994 13.7578 10.6924C14.0654 10.9854 14.4609 11.1318 14.9443 11.1318ZM18.3501 9.51318C18.6431 9.51318 18.8896 9.41309 19.0898 9.21289C19.2949 9.0127 19.3975 8.76855 19.3975 8.48047V2.94336C19.3975 2.65039 19.2949 2.40381 19.0898 2.20361C18.8896 1.99854 18.6431 1.896 18.3501 1.896C18.0571 1.896 17.8105 1.99854 17.6104 2.20361C17.4102 2.40381 17.3101 2.65039 17.3101 2.94336V8.48047C17.3101 8.76855 17.4102 9.0127 17.6104 9.21289C17.8105 9.41309 18.0571 9.51318 18.3501 9.51318Z" fill="black"/>
</svg>
