<svg width="132" height="132" viewBox="0 0 132 132" fill="none" xmlns="http://www.w3.org/2000/svg">
<g filter="url(#filter0_dd_3518_425068)">
<rect x="10" y="6" width="112" height="112" rx="16" fill="white"/>
<rect x="52" y="10" width="28" height="16" rx="8" fill="#C2F19C"/>
<circle cx="31" cy="27.0003" r="9.33333" fill="#E1E1E1"/>
<circle cx="31" cy="97.0003" r="9.33333" fill="#E1E1E1"/>
<circle cx="101" cy="27.0003" r="9.33333" fill="#E1E1E1"/>
<circle cx="101" cy="97.0003" r="9.33333" fill="#E1E1E1"/>
<g style="mix-blend-mode:multiply">
<path d="M88.9179 21.3268C88.09 20.9875 87.3346 20.9258 86.662 21.08C83.9404 21.6763 82.5641 25.6346 83.1229 28.1638C83.6817 30.6724 85.9686 33.2324 88.1314 32.7595C90.0873 32.3277 92.8917 28.5647 92.0948 24.9766C91.7533 23.4344 90.7496 22.0773 88.9179 21.3268Z" fill="#EBEBEB"/>
<path d="M99.587 22.4461C99.0385 22.1069 98.4383 22.1583 97.8588 22.4153C95.6132 23.4331 94.1852 26.5792 95.3649 29.1598C96.0065 30.558 97.2586 30.8253 98.4383 30.2907C100.498 29.3551 101.553 25.5819 100.684 23.7004C100.456 23.2069 100.104 22.7751 99.587 22.4461Z" fill="#EBEBEB"/>
<path d="M105.434 26.6426C103.561 27.3417 101.905 29.6138 102.36 31.6495C102.671 33.0478 103.706 33.4487 104.916 33.1814C107.069 32.7085 107.741 29.655 107.514 28.6166C107.296 27.6604 106.458 26.9613 105.444 26.6426H105.434Z" fill="#EBEBEB"/>
<path d="M110.608 31.5978C108.828 31.9885 107.783 33.726 108.114 35.1962C108.362 36.3169 109.387 36.4917 110.08 36.3374C111.601 36.0084 112.543 34.0859 112.367 33.2222C112.077 31.8034 110.815 31.5464 110.608 31.5978Z" fill="#EBEBEB"/>
<path d="M114.789 37.2934C114.675 37.314 114.571 37.3448 114.458 37.3757C113.381 37.7047 112.533 38.9178 112.771 40.0179C112.967 40.9124 113.764 41.4265 114.768 41.2106C116.103 40.9227 117.189 39.3291 116.972 38.3421C116.807 37.5916 116.062 37.0055 114.789 37.2934Z" fill="#EBEBEB"/>
<path d="M109.708 40.9235C105.196 36.6671 98.9868 32.5957 92.6433 33.9837C83.1953 36.0605 84.4061 48.84 84.6544 49.9812C86.1446 56.6743 94.8061 60.1082 96.8861 69.4641C99.349 80.5679 84.375 88.8237 86.6931 99.2488C87.6037 103.33 90.5219 105.86 94.9717 104.883C106.934 102.261 103.395 88.2479 104.523 81.7091C107.472 64.6731 115.399 57.1781 113.143 47.0408C112.636 44.7584 111.56 42.6507 109.718 40.9132L109.708 40.9235Z" fill="#EBEBEB"/>
</g>
<g style="mix-blend-mode:multiply">
<path d="M42.0821 21.3268C42.91 20.9875 43.6654 20.9258 44.338 21.08C47.0596 21.6763 48.4359 25.6346 47.8771 28.1638C47.3183 30.6724 45.0314 33.2324 42.8686 32.7595C40.9127 32.3277 38.1083 28.5647 38.9052 24.9766C39.2467 23.4344 40.2504 22.0773 42.0821 21.3268Z" fill="#EBEBEB"/>
<path d="M31.413 22.4461C31.9615 22.1069 32.5617 22.1583 33.1412 22.4153C35.3868 23.4331 36.8148 26.5792 35.6351 29.1598C34.9935 30.558 33.7414 30.8253 32.5617 30.2907C30.5024 29.3551 29.4468 25.5819 30.3161 23.7004C30.5438 23.2069 30.8956 22.7751 31.413 22.4461Z" fill="#EBEBEB"/>
<path d="M25.5662 26.6426C27.4393 27.3417 29.095 29.6138 28.6397 31.6495C28.3292 33.0478 27.2944 33.4487 26.0836 33.1814C23.9312 32.7085 23.2585 29.655 23.4862 28.6166C23.7035 27.6604 24.5417 26.9613 25.5559 26.6426H25.5662Z" fill="#EBEBEB"/>
<path d="M20.392 31.5978C22.1719 31.9885 23.2171 33.726 22.886 35.1962C22.6376 36.3169 21.6131 36.4917 20.9198 36.3374C19.3986 36.0084 18.4569 34.0859 18.6328 33.2222C18.9226 31.8034 20.1851 31.5464 20.392 31.5978Z" fill="#EBEBEB"/>
<path d="M16.2113 37.2934C16.3251 37.314 16.4286 37.3448 16.5425 37.3757C17.6187 37.7047 18.4672 38.9178 18.2292 40.0179C18.0326 40.9124 17.2358 41.4265 16.232 41.2106C14.8971 40.9227 13.8105 39.3291 14.0278 38.3421C14.1934 37.5916 14.9385 37.0055 16.2113 37.2934Z" fill="#EBEBEB"/>
<path d="M21.2923 40.9235C25.8042 36.6671 32.0132 32.5957 38.3567 33.9837C47.8047 36.0605 46.5939 48.84 46.3456 49.9812C44.8554 56.6743 36.1939 60.1082 34.1139 69.4641C31.651 80.5679 46.625 88.8237 44.3069 99.2488C43.3963 103.33 40.4781 105.86 36.0283 104.883C24.0657 102.261 27.6048 88.2479 26.4768 81.7091C23.5276 64.6731 15.6008 57.1781 17.8567 47.0408C18.3638 44.7584 19.44 42.6507 21.282 40.9132L21.2923 40.9235Z" fill="#EBEBEB"/>
</g>
</g>
<defs>
<filter id="filter0_dd_3518_425068" x="0" y="0" width="132" height="132" filterUnits="userSpaceOnUse" color-interpolation-filters="sRGB">
<feFlood flood-opacity="0" result="BackgroundImageFix"/>
<feColorMatrix in="SourceAlpha" type="matrix" values="0 0 0 0 0 0 0 0 0 0 0 0 0 0 0 0 0 0 127 0" result="hardAlpha"/>
<feOffset dy="0.5"/>
<feGaussianBlur stdDeviation="1"/>
<feComposite in2="hardAlpha" operator="out"/>
<feColorMatrix type="matrix" values="0 0 0 0 0.3375 0 0 0 0 0.3375 0 0 0 0 0.3375 0 0 0 0.25 0"/>
<feBlend mode="normal" in2="BackgroundImageFix" result="effect1_dropShadow_3518_425068"/>
<feColorMatrix in="SourceAlpha" type="matrix" values="0 0 0 0 0 0 0 0 0 0 0 0 0 0 0 0 0 0 127 0" result="hardAlpha"/>
<feOffset dy="4"/>
<feGaussianBlur stdDeviation="5"/>
<feComposite in2="hardAlpha" operator="out"/>
<feColorMatrix type="matrix" values="0 0 0 0 0.6625 0 0 0 0 0.6625 0 0 0 0 0.6625 0 0 0 0.2 0"/>
<feBlend mode="normal" in2="effect1_dropShadow_3518_425068" result="effect2_dropShadow_3518_425068"/>
<feBlend mode="normal" in="SourceGraphic" in2="effect2_dropShadow_3518_425068" result="shape"/>
</filter>
</defs>
</svg>
