<svg width="24" height="24" viewBox="0 0 24 24" fill="none" xmlns="http://www.w3.org/2000/svg">
<path d="M5.07284 11.2432H9.17033C10.5587 11.2432 11.2432 10.5683 11.2432 9.1414V5.10177C11.2432 3.67488 10.5587 3 9.17033 3H5.07284C3.68452 3 3 3.67488 3 5.10177V9.1414C3 10.5683 3.68452 11.2432 5.07284 11.2432ZM14.8297 11.2432H18.9272C20.3155 11.2432 21 10.5683 21 9.1414V5.10177C21 3.67488 20.3155 3 18.9272 3H14.8297C13.4317 3 12.7568 3.67488 12.7568 5.10177V9.1414C12.7568 10.5683 13.4317 11.2432 14.8297 11.2432ZM5.08249 9.66202C4.74505 9.66202 4.58115 9.48848 4.58115 9.1414V5.10177C4.58115 4.75469 4.74505 4.58115 5.08249 4.58115H9.15104C9.48848 4.58115 9.66202 4.75469 9.66202 5.10177V9.1414C9.66202 9.48848 9.48848 9.66202 9.15104 9.66202H5.08249ZM14.8393 9.66202C14.5019 9.66202 14.338 9.48848 14.338 9.1414V5.10177C14.338 4.75469 14.5019 4.58115 14.8393 4.58115H18.9175C19.255 4.58115 19.4092 4.75469 19.4092 5.10177V9.1414C19.4092 9.48848 19.255 9.66202 18.9175 9.66202H14.8393ZM5.07284 21H9.17033C10.5587 21 11.2432 20.3251 11.2432 18.8886V14.8586C11.2432 13.4317 10.5587 12.7568 9.17033 12.7568H5.07284C3.68452 12.7568 3 13.4317 3 14.8586V18.8886C3 20.3251 3.68452 21 5.07284 21ZM14.8297 21H18.9272C20.3155 21 21 20.3251 21 18.8886V14.8586C21 13.4317 20.3155 12.7568 18.9272 12.7568H14.8297C13.4317 12.7568 12.7568 13.4317 12.7568 14.8586V18.8886C12.7568 20.3251 13.4317 21 14.8297 21ZM5.08249 19.4092C4.74505 19.4092 4.58115 19.2453 4.58115 18.8982V14.8586C4.58115 14.5115 4.74505 14.338 5.08249 14.338H9.15104C9.48848 14.338 9.66202 14.5115 9.66202 14.8586V18.8982C9.66202 19.2453 9.48848 19.4092 9.15104 19.4092H5.08249ZM14.8393 19.4092C14.5019 19.4092 14.338 19.2453 14.338 18.8982V14.8586C14.338 14.5115 14.5019 14.338 14.8393 14.338H18.9175C19.255 14.338 19.4092 14.5115 19.4092 14.8586V18.8982C19.4092 19.2453 19.255 19.4092 18.9175 19.4092H14.8393Z" fill="#7A948F"/>
</svg>
