<svg width="32" height="32" viewBox="0 0 32 32" fill="none" xmlns="http://www.w3.org/2000/svg">
<path d="M16 28C22.581 28 28 22.581 28 16C28 9.43049 22.5695 4 15.9885 4C9.41898 4 4 9.43049 4 16C4 22.581 9.41898 28 16 28ZM16 25.3653C10.8111 25.3653 6.64621 21.1889 6.64621 16C6.64621 10.8111 10.7996 6.63471 15.9885 6.63471C21.1889 6.63471 25.3653 10.8111 25.3653 16C25.3653 21.1889 21.1889 25.3653 16 25.3653ZM15.954 12.3873C16.8399 12.3873 17.5532 11.674 17.5532 10.7996C17.5532 9.8907 16.8399 9.18888 15.954 9.18888C15.0796 9.18888 14.3547 9.8907 14.3547 10.7996C14.3547 11.674 15.0796 12.3873 15.954 12.3873ZM13.9866 22.2474H18.5887C19.1179 22.2474 19.5436 21.8562 19.5436 21.3039C19.5436 20.7977 19.1179 20.3835 18.5887 20.3835H17.4036V15.2752C17.4036 14.5503 17.047 14.0786 16.3682 14.0786H14.1937C13.6529 14.0786 13.2387 14.4813 13.2387 14.999C13.2387 15.5513 13.6529 15.931 14.1937 15.931H15.3097V20.3835H13.9866C13.4573 20.3835 13.0316 20.7977 13.0316 21.3039C13.0316 21.8562 13.4573 22.2474 13.9866 22.2474Z" fill="black"/>
</svg>
