<svg width="21" height="13" viewBox="0 0 21 13" fill="none" xmlns="http://www.w3.org/2000/svg">
<path d="M2.47119 9.59033C2.76416 9.59033 3.03027 9.51953 3.26953 9.37793C3.51367 9.23633 3.70654 9.04346 3.84814 8.79932C3.99463 8.55518 4.06787 8.28662 4.06787 7.99365C4.06787 7.6958 3.99463 7.42725 3.84814 7.18799C3.70654 6.94385 3.51367 6.75098 3.26953 6.60938C3.03027 6.46289 2.76416 6.38965 2.47119 6.38965C2.17334 6.38965 1.90234 6.46289 1.6582 6.60938C1.41895 6.75098 1.22607 6.94385 1.07959 7.18799C0.937988 7.42725 0.867188 7.6958 0.867188 7.99365C0.867188 8.28662 0.937988 8.55518 1.07959 8.79932C1.22607 9.04346 1.41895 9.23633 1.6582 9.37793C1.90234 9.51953 2.17334 9.59033 2.47119 9.59033ZM4.21436 10.103C4.07275 10.4692 4.06055 10.8257 4.17773 11.1724C4.2998 11.519 4.51221 11.7998 4.81494 12.0146C5.31299 12.3564 5.81592 12.5981 6.32373 12.7397C6.83643 12.8862 7.46143 12.9595 8.19873 12.9595H10.5352C11.1357 12.9595 11.5923 12.8252 11.9048 12.5566C12.2222 12.2881 12.4028 11.9536 12.4468 11.5532C12.4907 11.1528 12.4102 10.7549 12.2051 10.3594L10.3228 6.72656V1.2334C10.3228 1.01855 10.2471 0.837891 10.0957 0.691406C9.94922 0.544922 9.76611 0.47168 9.54639 0.47168C9.33643 0.47168 9.1582 0.544922 9.01172 0.691406C8.87012 0.837891 8.79932 1.01855 8.79932 1.2334V6.90967C8.79932 6.96338 8.80176 7.01221 8.80664 7.05615C8.81152 7.09521 8.81885 7.13184 8.82861 7.16602L9.89062 10.2056H8.51367C8.06934 10.2056 7.6958 10.147 7.39307 10.0298C7.09033 9.9126 6.76562 9.74902 6.41895 9.53906C6.32617 9.48047 6.26514 9.41211 6.23584 9.33398C6.21143 9.25098 6.22119 9.15576 6.26514 9.04834L7.97168 4.68311C8.0498 4.48779 8.04492 4.29248 7.95703 4.09717C7.86914 3.90186 7.72754 3.76758 7.53223 3.69434C7.32715 3.61621 7.12939 3.62109 6.93896 3.70898C6.75342 3.79199 6.62158 3.93359 6.54346 4.13379L4.21436 10.103ZM13.2085 11.7729L15.9185 10.8867L20.2471 10.103C20.457 10.0688 20.6206 9.96631 20.7378 9.79541C20.8599 9.62451 20.9038 9.43164 20.8696 9.2168C20.8257 9.00684 20.7183 8.84326 20.5474 8.72607C20.3765 8.60889 20.186 8.56738 19.9761 8.60156L12.835 9.89795L12.8936 10.0005C13.0693 10.2935 13.1768 10.5938 13.2158 10.9014C13.2598 11.209 13.2573 11.4995 13.2085 11.7729Z" fill="black"/>
</svg>
