<svg width="17" height="20" viewBox="0 0 17 20" fill="none" xmlns="http://www.w3.org/2000/svg">
<path d="M1.94336 3.78125C2.27539 3.78125 2.57699 3.70101 2.84814 3.54053C3.1193 3.37451 3.33512 3.15316 3.49561 2.87646C3.66162 2.59977 3.74463 2.29264 3.74463 1.95508C3.74463 1.62305 3.66162 1.32145 3.49561 1.05029C3.33512 0.7736 3.1193 0.555013 2.84814 0.394531C2.57699 0.234049 2.27539 0.153809 1.94336 0.153809C1.60579 0.153809 1.29867 0.234049 1.02197 0.394531C0.74528 0.555013 0.523926 0.7736 0.35791 1.05029C0.197428 1.32145 0.117188 1.62305 0.117188 1.95508C0.117188 2.29264 0.197428 2.59977 0.35791 2.87646C0.523926 3.15316 0.74528 3.37451 1.02197 3.54053C1.29867 3.70101 1.60579 3.78125 1.94336 3.78125ZM0.98877 10.5381H4.42529L4.63281 10.7456C4.8431 10.9504 5.08105 11.1053 5.34668 11.2104C5.6123 11.3156 5.88346 11.3682 6.16016 11.3682C6.38704 11.3682 6.6084 11.335 6.82422 11.2686C7.04557 11.1966 7.25309 11.0859 7.44678 10.9365L11.5972 7.83203L15.7227 5.3501C15.9219 5.23389 16.0492 5.0651 16.1045 4.84375C16.1654 4.61686 16.1405 4.40381 16.0298 4.20459C15.9025 4.00537 15.7254 3.87809 15.4985 3.82275C15.2772 3.76742 15.0669 3.80062 14.8677 3.92236L7.00684 8.62891L4.82373 6.4375C4.79606 6.41536 4.78776 6.39046 4.79883 6.36279C4.8099 6.32959 4.8348 6.31299 4.87354 6.31299H6.87402C7.10645 6.31299 7.30566 6.23275 7.47168 6.07227C7.6377 5.90625 7.7207 5.70703 7.7207 5.47461V1.80566C7.7207 1.56771 7.6377 1.36849 7.47168 1.20801C7.30566 1.04199 7.10645 0.958984 6.87402 0.958984C6.6416 0.958984 6.44238 1.04199 6.27637 1.20801C6.11589 1.36849 6.03564 1.56771 6.03564 1.80566V4.64453H1.81885C1.51449 4.64453 1.23503 4.72201 0.980469 4.87695C0.725911 5.02637 0.523926 5.22835 0.374512 5.48291C0.225098 5.73193 0.150391 6.00863 0.150391 6.31299V9.69971C0.150391 9.92659 0.230632 10.123 0.391113 10.2891C0.551595 10.4551 0.750814 10.5381 0.98877 10.5381ZM1.76074 8.89453V8.09766C1.76074 8.04232 1.78564 8.00358 1.83545 7.98145C1.88525 7.95378 1.93229 7.96208 1.97656 8.00635L2.86475 8.89453H1.76074ZM6.28467 19.7852C6.50049 19.8239 6.70801 19.7796 6.90723 19.6523C7.11198 19.5306 7.23926 19.3535 7.28906 19.1211L8.12744 14.9126C8.14404 14.8241 8.14681 14.7217 8.13574 14.6055L7.97803 11.5425C7.69027 11.7583 7.39144 11.916 7.08154 12.0156C6.77718 12.1152 6.47005 12.165 6.16016 12.165C6.12142 12.165 6.07992 12.165 6.03564 12.165C5.99691 12.165 5.95817 12.1623 5.91943 12.1567L6.43408 14.7466L5.62891 18.7891C5.58464 19.016 5.62614 19.2262 5.75342 19.4199C5.88623 19.6191 6.06331 19.7409 6.28467 19.7852ZM7.29736 3.05908C7.646 3.05908 7.94482 2.93734 8.19385 2.69385C8.44287 2.45036 8.56738 2.1543 8.56738 1.80566C8.56738 1.45703 8.44287 1.16097 8.19385 0.91748C7.94482 0.668457 7.646 0.543945 7.29736 0.543945C6.94873 0.543945 6.6499 0.668457 6.40088 0.91748C6.15739 1.16097 6.03564 1.45703 6.03564 1.80566C6.03564 2.1543 6.15739 2.45036 6.40088 2.69385C6.6499 2.93734 6.94873 3.05908 7.29736 3.05908Z" fill="black"/>
</svg>
