<svg width="18" height="22" viewBox="0 0 18 22" fill="none" xmlns="http://www.w3.org/2000/svg">
<path d="M7.9943 6.20068C8.32633 6.20068 8.62792 6.12044 8.89908 5.95996C9.17577 5.79395 9.39436 5.57536 9.55484 5.3042C9.72086 5.02751 9.80387 4.72314 9.80387 4.39111C9.80387 4.05908 9.72086 3.75749 9.55484 3.48633C9.39436 3.20964 9.17577 2.99105 8.89908 2.83057C8.62792 2.66455 8.32633 2.58154 7.9943 2.58154C7.66226 2.58154 7.3579 2.66455 7.08121 2.83057C6.81005 2.99105 6.59146 3.20964 6.42545 3.48633C6.26497 3.75749 6.18473 4.05908 6.18473 4.39111C6.18473 4.72314 6.26497 5.02751 6.42545 5.3042C6.59146 5.57536 6.81005 5.79395 7.08121 5.95996C7.3579 6.12044 7.66226 6.20068 7.9943 6.20068ZM3.61148 18.8096H7.48795C7.64843 18.8096 7.80338 18.7708 7.95279 18.6934C8.10221 18.6214 8.21842 18.5052 8.30142 18.3447L10.0695 15.0908C10.0972 15.0299 10.1414 15.0023 10.2023 15.0078C10.2687 15.0078 10.313 15.0382 10.3351 15.0991L11.2648 17.5894L7.91129 19.8223C7.7176 19.9551 7.59586 20.1377 7.54605 20.3701C7.50178 20.6025 7.54605 20.8211 7.67887 21.0259C7.80615 21.2251 7.986 21.3468 8.21842 21.3911C8.45637 21.4409 8.67496 21.3966 8.87418 21.2583L12.6842 18.7349C12.8724 18.6021 13.008 18.4388 13.091 18.2451C13.1795 18.0514 13.1961 17.8439 13.1408 17.6226L10.8166 8.38379C10.7446 8.1071 10.8221 7.91064 11.049 7.79443L17.0587 4.78955C17.2746 4.68441 17.4184 4.51562 17.4904 4.2832C17.5679 4.05078 17.554 3.82943 17.4489 3.61914C17.3437 3.40332 17.175 3.25667 16.9425 3.1792C16.7156 3.10173 16.4943 3.11833 16.2785 3.229L3.7941 9.47949L1.80191 7.4873C1.70784 7.39323 1.60269 7.30745 1.48648 7.22998L3.42057 3.83496L2.61539 3.37842L0.233066 7.54541C0.13899 7.71696 0.105787 7.89128 0.133456 8.06836C0.161125 8.23991 0.2469 8.39486 0.39078 8.5332L2.99723 11.1479C3.11344 11.2586 3.26838 11.3361 3.46207 11.3804C3.65575 11.4246 3.86051 11.3914 4.07633 11.2808L7.03141 9.79492C7.13655 9.74512 7.23062 9.73958 7.31363 9.77832C7.39664 9.81152 7.44921 9.8724 7.47135 9.96094L8.35953 13.5303L6.9401 17.0664H3.61148C3.36799 17.0664 3.16047 17.1494 2.98892 17.3154C2.82291 17.487 2.7399 17.6945 2.7399 17.938C2.7399 18.1759 2.82291 18.3807 2.98892 18.5522C3.16047 18.7238 3.36799 18.8096 3.61148 18.8096ZM3.66959 4.10059C4.00162 4.10059 4.30322 4.02034 4.57437 3.85986C4.85107 3.69385 5.06965 3.47526 5.23014 3.2041C5.39615 2.92741 5.47916 2.62305 5.47916 2.29102C5.47916 1.95345 5.39615 1.64909 5.23014 1.37793C5.06965 1.10677 4.85107 0.890951 4.57437 0.730469C4.30322 0.564453 4.00162 0.481445 3.66959 0.481445C3.33202 0.481445 3.02489 0.564453 2.7482 0.730469C2.47704 0.890951 2.26122 1.10677 2.10074 1.37793C1.94026 1.64909 1.86002 1.95345 1.86002 2.29102C1.86002 2.62305 1.94026 2.92741 2.10074 3.2041C2.26122 3.47526 2.47704 3.69385 2.7482 3.85986C3.02489 4.02034 3.33202 4.10059 3.66959 4.10059ZM3.66959 3.1792C3.41503 3.1792 3.20198 3.09619 3.03043 2.93018C2.86441 2.75863 2.78141 2.54557 2.78141 2.29102C2.78141 2.03646 2.86441 1.82617 3.03043 1.66016C3.20198 1.48861 3.41503 1.40283 3.66959 1.40283C3.91861 1.40283 4.1289 1.48861 4.30045 1.66016C4.472 1.82617 4.55777 2.03646 4.55777 2.29102C4.55777 2.54557 4.472 2.75863 4.30045 2.93018C4.1289 3.09619 3.91861 3.1792 3.66959 3.1792Z" fill="black"/>
</svg>
