<svg width="32" height="32" viewBox="0 0 32 32" fill="none" xmlns="http://www.w3.org/2000/svg">
<path d="M20.4032 28H26.926C27.6269 28 28 27.689 28 27.1226C28 26.5562 27.6269 26.2564 26.926 26.2564H24.7103V5.74364H26.926C27.6269 5.74364 28 5.43267 28 4.86627C28 4.29986 27.6269 4 26.926 4H20.4032C19.7023 4 19.3406 4.29986 19.3406 4.86627C19.3406 5.43267 19.7023 5.74364 20.4032 5.74364H22.6755V26.2564H20.4032C19.7023 26.2564 19.3406 26.5562 19.3406 27.1226C19.3406 27.689 19.7023 28 20.4032 28ZM5.46962 24.4239C6.34008 24.4239 6.80358 24.0574 7.06359 23.1578L8.17146 20.0592H14.4343L15.5422 23.1578C15.8022 24.0574 16.2657 24.4239 17.1361 24.4239C18.0631 24.4239 18.6623 23.8686 18.6623 23.0245C18.6623 22.7025 18.6171 22.4359 18.4927 22.0916L13.7334 9.31976C13.3264 8.20916 12.569 7.66497 11.3255 7.66497C10.1272 7.66497 9.36976 8.20916 8.97409 9.31976L4.16957 22.1694C4.04522 22.5025 4 22.7802 4 23.0578C4 23.9019 4.55393 24.4239 5.46962 24.4239ZM8.87235 17.727L11.2803 10.7413H11.3481L13.756 17.727H8.87235Z" fill="black"/>
</svg>
