<svg width="32" height="32" viewBox="0 0 32 32" fill="none" xmlns="http://www.w3.org/2000/svg">
<path d="M8.4811 8.29051C7.90322 8.82838 7.91354 9.56663 8.33663 10.0096C8.77004 10.4736 9.45112 10.5475 10.0703 9.98849C11.5666 8.40652 13.6717 7.41515 16.0142 7.41515C20.2658 7.41515 23.7021 10.5896 24.3007 14.629H22.7218C21.8963 14.629 21.6589 15.2934 22.1542 15.9895L24.7341 19.6702C25.1262 20.2397 25.7557 20.2397 26.1581 19.6702L28.738 16C29.2333 15.2934 29.0166 14.629 28.1704 14.629H26.7051C26.0653 9.29243 21.5144 5 16.0142 5C13.0526 5 10.3592 6.28667 8.4811 8.29051ZM3.25951 15.9895C2.76418 16.6961 2.99121 17.3605 3.82708 17.3605H5.31306C5.95286 22.697 10.5037 27 16.0142 27C18.9759 27 21.6692 25.7028 23.5474 23.6989C24.1149 23.1505 24.1046 22.4017 23.6918 21.9693C23.2584 21.4947 22.5773 21.442 21.9582 21.9904C20.4722 23.5829 18.3567 24.5743 16.0142 24.5743C11.7523 24.5743 8.31599 21.3998 7.71747 17.3605H9.27569C10.1012 17.3605 10.3386 16.7066 9.84326 16L7.27374 12.3298C6.87128 11.7603 6.2418 11.7603 5.83935 12.3298L3.25951 15.9895Z" fill="black"/>
</svg>
