<svg width="270" height="132" viewBox="0 0 270 132" fill="none" xmlns="http://www.w3.org/2000/svg">
<g filter="url(#filter0_dd_3514_350732)">
<g clip-path="url(#clip0_3514_350732)">
<rect x="10" y="6" width="250" height="112" rx="16" fill="#FFFEEA"/>
<path d="M109.261 66.8242C109.038 67.0527 108.728 67.167 108.329 67.167C107.931 67.167 107.617 67.0527 107.389 66.8242C107.166 66.5898 107.055 66.2617 107.055 65.8398V55.4688C107.055 55.0469 107.172 54.7217 107.406 54.4932C107.641 54.2588 107.969 54.1416 108.391 54.1416C108.66 54.1416 108.895 54.2031 109.094 54.3262C109.299 54.4434 109.504 54.6396 109.709 54.915L115.193 62.5791H115.264V55.4775C115.264 55.0557 115.375 54.7275 115.598 54.4932C115.82 54.2588 116.134 54.1416 116.538 54.1416C116.937 54.1416 117.247 54.2588 117.47 54.4932C117.692 54.7217 117.804 55.0498 117.804 55.4775V65.875C117.804 66.291 117.689 66.6104 117.461 66.833C117.238 67.0557 116.919 67.167 116.503 67.167C116.216 67.167 115.973 67.1113 115.773 67C115.574 66.8828 115.375 66.6836 115.176 66.4023L109.674 58.6943H109.595V65.8398C109.595 66.2617 109.483 66.5898 109.261 66.8242ZM130.488 65.4531C129.393 66.625 127.904 67.2109 126.024 67.2109C124.143 67.2109 122.651 66.625 121.55 65.4531C120.454 64.2754 119.906 62.6787 119.906 60.6631C119.906 58.6416 120.454 57.042 121.55 55.8643C122.651 54.6865 124.143 54.0977 126.024 54.0977C127.904 54.0977 129.393 54.6865 130.488 55.8643C131.59 57.042 132.141 58.6416 132.141 60.6631C132.141 62.6787 131.59 64.2754 130.488 65.4531ZM126.024 64.9961C127.061 64.9961 127.887 64.6064 128.502 63.8271C129.117 63.042 129.425 61.9873 129.425 60.6631C129.425 59.333 129.117 58.2754 128.502 57.4902C127.887 56.7051 127.061 56.3125 126.024 56.3125C124.986 56.3125 124.157 56.7051 123.536 57.4902C122.921 58.2754 122.613 59.333 122.613 60.6631C122.613 61.9873 122.921 63.042 123.536 63.8271C124.151 64.6064 124.981 64.9961 126.024 64.9961ZM138.866 66.8066C138.632 67.0469 138.307 67.167 137.891 67.167C137.475 67.167 137.15 67.0469 136.915 66.8066C136.681 66.5605 136.564 66.2207 136.564 65.7871V56.5146H133.945C133.581 56.5146 133.288 56.418 133.066 56.2246C132.849 56.0254 132.74 55.7559 132.74 55.416C132.74 55.0762 132.849 54.8096 133.066 54.6162C133.282 54.417 133.575 54.3174 133.945 54.3174H141.846C142.209 54.3174 142.499 54.417 142.716 54.6162C142.933 54.8096 143.041 55.0762 143.041 55.416C143.041 55.7559 142.93 56.0254 142.707 56.2246C142.49 56.418 142.203 56.5146 141.846 56.5146H139.218V65.7871C139.218 66.2207 139.101 66.5605 138.866 66.8066ZM146.067 67C145.651 67 145.326 66.8799 145.091 66.6396C144.857 66.3936 144.74 66.0508 144.74 65.6113V55.6973C144.74 55.2637 144.857 54.9268 145.091 54.6865C145.326 54.4404 145.651 54.3174 146.067 54.3174H152.096C152.465 54.3174 152.758 54.417 152.975 54.6162C153.192 54.8096 153.3 55.0762 153.3 55.416C153.3 55.7559 153.189 56.0254 152.966 56.2246C152.749 56.418 152.459 56.5146 152.096 56.5146H147.394V59.5645H151.868C152.202 59.5645 152.468 59.6582 152.667 59.8457C152.872 60.0273 152.975 60.2734 152.975 60.584C152.975 60.9004 152.872 61.1494 152.667 61.3311C152.468 61.5127 152.202 61.6035 151.868 61.6035H147.394V64.8027H152.096C152.459 64.8027 152.749 64.9023 152.966 65.1016C153.189 65.2949 153.3 65.5615 153.3 65.9014C153.3 66.2412 153.192 66.5107 152.975 66.71C152.758 66.9033 152.465 67 152.096 67H146.067Z" fill="#FFFEEA"/>
<rect x="22" y="45" width="226" height="1" rx="0.5" fill="#D9D9D9"/>
<rect x="22" y="62" width="226" height="1" rx="0.5" fill="#D9D9D9"/>
<rect x="22" y="79" width="226" height="1" rx="0.5" fill="#D9D9D9"/>
<rect x="22" y="96" width="226" height="1" rx="0.5" fill="#D9D9D9"/>
<path d="M27.6426 32.3252C30.5518 32.3252 32.6611 30.7168 32.6611 28.4932C32.6611 26.7969 31.5801 25.5928 29.8662 25.3994V25.3291C31.29 25.0303 32.2568 23.8613 32.2568 22.4287C32.2568 20.3896 30.4111 18.9922 27.6953 18.9922C25.0059 18.9922 23.5205 20.3281 23.1689 21.585C23.0986 21.7871 23.0723 21.9805 23.0723 22.165C23.0723 22.8242 23.4854 23.2197 24.1885 23.2197C24.6719 23.2197 24.9971 23.0176 25.2959 22.5078C25.7178 21.5762 26.4561 21.0576 27.6426 21.0576C28.9258 21.0576 29.7256 21.6992 29.7256 22.7363C29.7256 23.7822 28.8643 24.4854 27.5898 24.4854H26.8691C26.1924 24.4854 25.7529 24.8809 25.7529 25.5225C25.7529 26.1641 26.1924 26.5508 26.8691 26.5508H27.6162C29.0664 26.5508 29.9365 27.21 29.9365 28.3174C29.9365 29.4248 29.0225 30.1807 27.6602 30.1807C26.3594 30.1807 25.498 29.6533 25.0674 28.7656C24.7422 28.2646 24.4346 28.0713 23.9512 28.0713C23.2568 28.0713 22.8438 28.4932 22.8438 29.1172C22.8438 29.2842 22.8701 29.4688 22.9229 29.6533C23.2832 30.875 24.8564 32.3252 27.6426 32.3252ZM35.4405 32.167C36.1437 32.167 36.5392 31.8154 36.7853 30.9717L37.4532 28.9941H42.0323L42.7003 30.998C42.9376 31.8242 43.3331 32.167 44.0802 32.167C44.8536 32.167 45.4073 31.6484 45.4073 30.9189C45.4073 30.6553 45.3634 30.418 45.2404 30.0752L41.7599 20.6357C41.382 19.5986 40.7667 19.1416 39.7296 19.1416C38.7277 19.1416 38.1036 19.6162 37.7345 20.6445L34.2716 30.0752C34.1573 30.4004 34.0958 30.6992 34.0958 30.9189C34.0958 31.6836 34.6144 32.167 35.4405 32.167ZM38.0333 26.9375L39.6769 21.7432H39.7384L41.4171 26.9375H38.0333ZM48.7668 32.167C49.5139 32.167 49.9446 31.71 49.9446 30.9277V23.4395H50.0149L53.1526 31.1211C53.3723 31.666 53.7414 31.9209 54.3039 31.9209C54.8577 31.9209 55.2092 31.6748 55.4377 31.1123L58.5754 23.4395H58.6457V30.9277C58.6457 31.71 59.0764 32.167 59.8235 32.167C60.5705 32.167 61.01 31.71 61.01 30.9277V20.8555C61.01 19.7744 60.3772 19.1416 59.3049 19.1416C58.3733 19.1416 57.8547 19.5371 57.468 20.5127L54.3303 28.3086H54.26L51.1135 20.5127C50.7268 19.5283 50.217 19.1416 49.2942 19.1416C48.2131 19.1416 47.5803 19.7832 47.5803 20.8555V30.9277C47.5803 31.71 48.0198 32.167 48.7668 32.167ZM65.0023 32H71.0316C71.7611 32 72.2357 31.5869 72.2357 30.9014C72.2357 30.2158 71.7523 29.8027 71.0316 29.8027H66.3295V26.6035H70.8031C71.4711 26.6035 71.9105 26.2168 71.9105 25.584C71.9105 24.9512 71.4623 24.5645 70.8031 24.5645H66.3295V21.5146H71.0316C71.7523 21.5146 72.2357 21.1016 72.2357 20.416C72.2357 19.7305 71.7611 19.3174 71.0316 19.3174H65.0023C64.1673 19.3174 63.6752 19.8271 63.6752 20.6973V30.6113C63.6752 31.4902 64.1673 32 65.0023 32ZM78.9263 32.167C79.7612 32.167 80.2534 31.6572 80.2534 30.7871V21.5146H82.8813C83.5932 21.5146 84.0766 21.1016 84.0766 20.416C84.0766 19.7305 83.602 19.3174 82.8813 19.3174H74.98C74.2505 19.3174 73.7759 19.7305 73.7759 20.416C73.7759 21.1016 74.2593 21.5146 74.98 21.5146H77.5991V30.7871C77.5991 31.6572 78.0913 32.167 78.9263 32.167ZM87.2779 32.167C88.1129 32.167 88.6051 31.6572 88.6051 30.7871V26.4277H88.6754L93.5533 31.4814C94.0543 32.0088 94.3268 32.167 94.8014 32.167C95.5221 32.167 96.0494 31.6309 96.0494 30.9014C96.0494 30.5498 95.9439 30.3213 95.6539 29.9961L91.1012 25.3203L95.3551 21.084C95.6363 20.8027 95.7506 20.5391 95.7506 20.1963C95.7506 19.6162 95.232 19.1416 94.5816 19.1416C94.1861 19.1416 93.9488 19.2734 93.4918 19.748L88.6754 24.6875H88.6051V20.5303C88.6051 19.6602 88.1129 19.1416 87.2779 19.1416C86.4518 19.1416 85.9508 19.6602 85.9508 20.5303V30.7871C85.9508 31.6572 86.4518 32.167 87.2779 32.167ZM99.2507 32.167C99.9538 32.167 100.349 31.8154 100.595 30.9717L101.263 28.9941H105.842L106.51 30.998C106.748 31.8242 107.143 32.167 107.89 32.167C108.664 32.167 109.217 31.6484 109.217 30.9189C109.217 30.6553 109.174 30.418 109.051 30.0752L105.57 20.6357C105.192 19.5986 104.577 19.1416 103.54 19.1416C102.538 19.1416 101.914 19.6162 101.545 20.6445L98.0818 30.0752C97.9675 30.4004 97.906 30.6992 97.906 30.9189C97.906 31.6836 98.4245 32.167 99.2507 32.167ZM101.843 26.9375L103.487 21.7432H103.549L105.227 26.9375H101.843Z" fill="#C07036"/>
<g clip-path="url(#clip1_3514_350732)">
<path d="M123.381 21.8672L126.632 25.1177L119.574 32.1761L116.675 32.496C116.287 32.5389 115.96 32.2109 116.003 31.8229L116.325 28.9228L123.381 21.8672ZM128.642 21.3833L127.116 19.8571C126.64 19.381 125.868 19.381 125.392 19.8571L123.956 21.2929L127.206 24.5434L128.642 23.1076C129.118 22.6312 129.118 21.8594 128.642 21.3833Z" fill="#C07036"/>
</g>
<rect width="42" height="23" transform="translate(29 85)" fill="#FFFEEA"/>
<path d="M58.0666 86.2332C54.6395 86.3093 51.6546 88.0061 49.8387 90.5702C47.873 88.0904 44.7913 86.5279 41.4035 86.6031C35.6521 86.7308 31.1399 91.4124 31.3071 97.0381C31.4742 102.664 36.2584 107.139 41.9705 107.012C45.3976 106.936 48.3431 105.24 50.159 102.676C52.1247 105.156 55.2064 106.718 58.6336 106.642C64.3454 106.515 68.8578 101.834 68.6906 96.2082C68.5628 90.5815 63.7785 86.1064 58.0666 86.2332ZM41.9083 104.917C37.378 105.018 33.5669 101.453 33.4343 96.9909C33.3017 92.5291 36.8963 88.7997 41.4264 88.6991C45.9567 88.5985 49.8072 92.1626 49.9398 96.6244C50.0723 101.086 46.4777 104.816 41.9083 104.917ZM58.6107 104.546C55.5774 104.614 52.8504 103.044 51.3596 100.631C51.8742 99.3766 52.149 98.0118 52.1064 96.5764C52.0637 95.141 51.7082 93.7899 51.1198 92.5607C52.4653 90.0848 55.0955 88.3958 58.1288 88.3284C62.6589 88.2279 66.4703 91.7928 66.6028 96.2546C66.7357 100.716 63.1411 104.446 58.6107 104.546L58.6107 104.546Z" fill="#D9D9D9"/>
<path d="M63.0509 94.0503C63.077 94.9994 62.3269 95.7912 61.3752 95.8184C60.4235 95.8456 59.631 95.0978 59.6049 94.1486C59.5788 93.1993 60.329 92.4077 61.2806 92.3805C62.2323 92.3534 63.0248 93.1009 63.0509 94.0503Z" fill="#D9D9D9"/>
<path d="M58.3851 97.993C57.0826 98.018 55.874 98.5446 55.0713 99.4503C54.7276 99.8441 54.7459 100.463 55.1507 100.804C55.3527 100.955 55.5929 101.066 55.8296 101.062C56.106 101.057 56.3394 100.936 56.5308 100.739C56.9512 100.266 57.692 99.9422 58.4419 99.9278C59.1918 99.9134 59.9101 100.171 60.3987 100.664C60.7653 101.045 61.398 101.071 61.7814 100.676C62.1659 100.321 62.187 99.7008 61.7807 99.3213C60.9258 98.4472 59.6875 97.9679 58.385 97.993L58.3851 97.993Z" fill="#D9D9D9"/>
<path d="M57.1496 94.0854C57.1757 95.0345 56.4255 95.8264 55.4738 95.8536C54.5225 95.8807 53.7296 95.1329 53.7035 94.1838C53.6774 93.2344 54.4279 92.4428 55.3793 92.4157C56.3309 92.3885 57.1235 93.136 57.1496 94.0854Z" fill="#D9D9D9"/>
<path d="M46.3029 94.1499C46.329 95.099 45.5785 95.8909 44.6271 95.918C43.6755 95.9452 42.8829 95.1974 42.8568 94.2482C42.8307 93.2989 43.5809 92.5073 44.5326 92.4801C45.4839 92.453 46.2768 93.2005 46.3029 94.1499Z" fill="#D9D9D9"/>
<path d="M44.2822 98.5168C44.0057 98.5221 43.7724 98.6427 43.581 98.84C43.1606 99.3125 42.4198 99.6365 41.6699 99.6509C40.92 99.6653 40.2016 99.408 39.713 98.9144C39.3465 98.5342 38.7138 98.5077 38.3304 98.9023C37.9459 99.2581 37.9248 99.8779 38.331 100.257C39.1863 101.131 40.4246 101.611 41.7271 101.586C43.0295 101.561 44.2381 101.034 45.0408 100.128C45.3845 99.7345 45.3663 99.1157 44.9614 98.7749C44.7581 98.5852 44.519 98.5122 44.2823 98.5168L44.2822 98.5168Z" fill="#D9D9D9"/>
<path d="M40.4015 94.1851C40.4276 95.1341 39.6775 95.926 38.7258 95.9532C37.7741 95.9803 36.9816 95.2325 36.9555 94.2834C36.9294 93.334 37.6796 92.5424 38.6312 92.5153C39.5829 92.4881 40.3754 93.2356 40.4015 94.1851Z" fill="#D9D9D9"/>
<rect width="48" height="48" transform="translate(204 14)" fill="#FFFEEA"/>
<rect x="205.612" y="22.3575" width="26.0598" height="28.3148" rx="1.5" transform="rotate(-15 205.612 22.3575)" stroke="#D9D9D9"/>
<rect x="208.374" y="23.9512" width="21.5498" height="21.5498" rx="1.5" transform="rotate(-15 208.374 23.9512)" stroke="#D9D9D9"/>
<rect x="223.691" y="43.8418" width="2.25498" height="1.12749" rx="0.563746" transform="rotate(-15 223.691 43.8418)" fill="#D9D9D9"/>
<rect x="226.959" y="42.9668" width="6.76495" height="1.12749" rx="0.563746" transform="rotate(-15 226.959 42.9668)" fill="#D9D9D9"/>
<path d="M220.888 30.7322C222.764 30.2294 223.924 28.2524 223.385 26.2411C222.859 24.2779 220.864 23.2064 219.005 23.7046C217.145 24.2028 215.951 26.1546 216.484 28.1075C217.018 30.1028 219.02 31.2327 220.888 30.7322ZM217.178 39.7135L228.582 36.6578C229.542 36.4007 230.011 35.8199 229.822 35.1147C229.268 33.0473 225.706 30.9613 221.268 32.1505C216.821 33.3421 214.788 36.9272 215.342 38.9946C215.531 39.6998 216.219 39.9706 217.178 39.7135Z" fill="#D9D9D9"/>
<rect x="225.036" y="23.7716" width="28.0447" height="30.0851" rx="2.5" transform="rotate(19.5649 225.036 23.7716)" fill="#FFFEEA" stroke="#FFFEEA"/>
<rect x="225.603" y="25.0643" width="26.0598" height="28.3148" rx="1.5" transform="rotate(19.5649 225.603 25.0643)" fill="#FFFEEA" stroke="#D9D9D9"/>
<rect x="226.972" y="27.9433" width="21.5498" height="21.5498" rx="1.5" transform="rotate(19.5649 226.972 27.9433)" stroke="#D9D9D9"/>
<rect x="228.301" y="53.0137" width="2.25498" height="1.12749" rx="0.563746" transform="rotate(19.5649 228.301 53.0137)" fill="#D9D9D9"/>
<rect x="231.488" y="54.1465" width="6.76495" height="1.12749" rx="0.563746" transform="rotate(19.5649 231.488 54.1465)" fill="#D9D9D9"/>
<mask id="mask0_3514_350732" style="mask-type:alpha" maskUnits="userSpaceOnUse" x="219" y="27" width="29" height="29">
<rect x="226.668" y="27.3047" width="22.5498" height="21.4223" transform="rotate(19.5649 226.668 27.3047)" fill="#D9D9D9"/>
</mask>
<g mask="url(#mask0_3514_350732)">
<path d="M234.759 38.2158C236.099 38.692 237.574 37.9608 238.066 36.5762C238.562 35.1803 237.88 33.6825 236.54 33.2063C235.189 32.7263 233.725 33.4613 233.229 34.8572C232.737 36.2418 233.409 37.7357 234.759 38.2158ZM230.835 49.259C231.26 49.41 231.315 49.772 231.288 50.6755C231.251 51.9553 230.669 57.112 230.544 58.6395C230.484 59.4296 230.746 59.8652 231.28 60.0549C231.999 60.3104 232.697 59.7976 232.754 58.9811C232.774 58.6462 233.632 51.1916 233.912 49.6806C234.159 48.399 234.975 45.9632 235.415 44.725C235.471 44.5674 235.681 44.5656 235.727 44.7468C236.133 46.2607 236.829 48.9296 237.006 49.3982C237.204 49.9122 237.709 50.1807 238.259 50.0844C238.952 49.9632 239.311 49.368 239.231 48.8325C239.204 48.6327 239.148 48.41 239.096 48.2137L237.787 42.8164C237.378 41.1368 236.49 40.1116 234.355 39.3527C232.22 38.5939 230.885 38.8294 229.508 39.8741L225.086 43.2349C224.921 43.3538 224.738 43.4913 224.59 43.6292C224.18 43.9904 224.093 44.6824 224.555 45.2141C224.909 45.6317 225.482 45.7465 225.96 45.4725C226.382 45.2168 228.602 43.5967 229.877 42.6678C230.023 42.5676 230.199 42.6935 230.139 42.8624C229.703 44.0894 228.788 46.4904 228.171 47.6403C227.445 48.9925 223.395 55.3128 223.211 55.5896C222.74 56.259 222.946 57.0932 223.676 57.3526C224.21 57.5423 224.688 57.37 225.141 56.7192C226.007 55.455 228.81 51.0881 229.589 50.0715C230.128 49.35 230.41 49.108 230.835 49.259Z" fill="#D9D9D9"/>
</g>
</g>
</g>
<defs>
<filter id="filter0_dd_3514_350732" x="0" y="0" width="270" height="132" filterUnits="userSpaceOnUse" color-interpolation-filters="sRGB">
<feFlood flood-opacity="0" result="BackgroundImageFix"/>
<feColorMatrix in="SourceAlpha" type="matrix" values="0 0 0 0 0 0 0 0 0 0 0 0 0 0 0 0 0 0 127 0" result="hardAlpha"/>
<feOffset dy="0.5"/>
<feGaussianBlur stdDeviation="1"/>
<feComposite in2="hardAlpha" operator="out"/>
<feColorMatrix type="matrix" values="0 0 0 0 0.0724169 0 0 0 0 0.243082 0 0 0 0 0.366667 0 0 0 0.25 0"/>
<feBlend mode="normal" in2="BackgroundImageFix" result="effect1_dropShadow_3514_350732"/>
<feColorMatrix in="SourceAlpha" type="matrix" values="0 0 0 0 0 0 0 0 0 0 0 0 0 0 0 0 0 0 127 0" result="hardAlpha"/>
<feOffset dy="4"/>
<feGaussianBlur stdDeviation="5"/>
<feComposite in2="hardAlpha" operator="out"/>
<feColorMatrix type="matrix" values="0 0 0 0 0.0226116 0 0 0 0 0.733333 0 0 0 0 0.733333 0 0 0 0.2 0"/>
<feBlend mode="normal" in2="effect1_dropShadow_3514_350732" result="effect2_dropShadow_3514_350732"/>
<feBlend mode="normal" in="SourceGraphic" in2="effect2_dropShadow_3514_350732" result="shape"/>
</filter>
<clipPath id="clip0_3514_350732">
<path d="M10 31.6C10 22.6392 10 18.1587 11.7439 14.7362C13.2779 11.7256 15.7256 9.27787 18.7362 7.7439C22.1587 6 26.6392 6 35.6 6H234.4C243.361 6 247.841 6 251.264 7.7439C254.274 9.27787 256.722 11.7256 258.256 14.7362C260 18.1587 260 22.6392 260 31.6V92.4C260 101.361 260 105.841 258.256 109.264C256.722 112.274 254.274 114.722 251.264 116.256C247.841 118 243.361 118 234.4 118H35.6C26.6392 118 22.1587 118 18.7362 116.256C15.7256 114.722 13.2779 112.274 11.7439 109.264C10 105.841 10 101.361 10 92.4V31.6Z" fill="white"/>
</clipPath>
<clipPath id="clip1_3514_350732">
<rect width="13" height="13" fill="white" transform="translate(116 19.5)"/>
</clipPath>
</defs>
</svg>
