<svg width="227" height="100" viewBox="0 0 227 100" fill="none" xmlns="http://www.w3.org/2000/svg">
<rect width="227" height="100" rx="16" fill="#FFFEEA"/>
<path d="M99.2607 60.8242C99.0381 61.0527 98.7275 61.167 98.3291 61.167C97.9307 61.167 97.6172 61.0527 97.3887 60.8242C97.166 60.5898 97.0547 60.2617 97.0547 59.8398V49.4688C97.0547 49.0469 97.1719 48.7217 97.4062 48.4932C97.6406 48.2588 97.9688 48.1416 98.3906 48.1416C98.6602 48.1416 98.8945 48.2031 99.0938 48.3262C99.2988 48.4434 99.5039 48.6396 99.709 48.915L105.193 56.5791H105.264V49.4775C105.264 49.0557 105.375 48.7275 105.598 48.4932C105.82 48.2588 106.134 48.1416 106.538 48.1416C106.937 48.1416 107.247 48.2588 107.47 48.4932C107.692 48.7217 107.804 49.0498 107.804 49.4775V59.875C107.804 60.291 107.689 60.6104 107.461 60.833C107.238 61.0557 106.919 61.167 106.503 61.167C106.216 61.167 105.973 61.1113 105.773 61C105.574 60.8828 105.375 60.6836 105.176 60.4023L99.6738 52.6943H99.5947V59.8398C99.5947 60.2617 99.4834 60.5898 99.2607 60.8242ZM120.488 59.4531C119.393 60.625 117.904 61.2109 116.024 61.2109C114.143 61.2109 112.651 60.625 111.55 59.4531C110.454 58.2754 109.906 56.6787 109.906 54.6631C109.906 52.6416 110.454 51.042 111.55 49.8643C112.651 48.6865 114.143 48.0977 116.024 48.0977C117.904 48.0977 119.393 48.6865 120.488 49.8643C121.59 51.042 122.141 52.6416 122.141 54.6631C122.141 56.6787 121.59 58.2754 120.488 59.4531ZM116.024 58.9961C117.061 58.9961 117.887 58.6064 118.502 57.8271C119.117 57.042 119.425 55.9873 119.425 54.6631C119.425 53.333 119.117 52.2754 118.502 51.4902C117.887 50.7051 117.061 50.3125 116.024 50.3125C114.986 50.3125 114.157 50.7051 113.536 51.4902C112.921 52.2754 112.613 53.333 112.613 54.6631C112.613 55.9873 112.921 57.042 113.536 57.8271C114.151 58.6064 114.981 58.9961 116.024 58.9961ZM128.866 60.8066C128.632 61.0469 128.307 61.167 127.891 61.167C127.475 61.167 127.15 61.0469 126.915 60.8066C126.681 60.5605 126.564 60.2207 126.564 59.7871V50.5146H123.945C123.581 50.5146 123.288 50.418 123.066 50.2246C122.849 50.0254 122.74 49.7559 122.74 49.416C122.74 49.0762 122.849 48.8096 123.066 48.6162C123.282 48.417 123.575 48.3174 123.945 48.3174H131.846C132.209 48.3174 132.499 48.417 132.716 48.6162C132.933 48.8096 133.041 49.0762 133.041 49.416C133.041 49.7559 132.93 50.0254 132.707 50.2246C132.49 50.418 132.203 50.5146 131.846 50.5146H129.218V59.7871C129.218 60.2207 129.101 60.5605 128.866 60.8066ZM136.067 61C135.651 61 135.326 60.8799 135.091 60.6396C134.857 60.3936 134.74 60.0508 134.74 59.6113V49.6973C134.74 49.2637 134.857 48.9268 135.091 48.6865C135.326 48.4404 135.651 48.3174 136.067 48.3174H142.096C142.465 48.3174 142.758 48.417 142.975 48.6162C143.192 48.8096 143.3 49.0762 143.3 49.416C143.3 49.7559 143.189 50.0254 142.966 50.2246C142.749 50.418 142.459 50.5146 142.096 50.5146H137.394V53.5645H141.868C142.202 53.5645 142.468 53.6582 142.667 53.8457C142.872 54.0273 142.975 54.2734 142.975 54.584C142.975 54.9004 142.872 55.1494 142.667 55.3311C142.468 55.5127 142.202 55.6035 141.868 55.6035H137.394V58.8027H142.096C142.459 58.8027 142.749 58.9023 142.966 59.1016C143.189 59.2949 143.3 59.5615 143.3 59.9014C143.3 60.2412 143.192 60.5107 142.975 60.71C142.758 60.9033 142.465 61 142.096 61H136.067Z" fill="#FFFEEA"/>
<rect x="12" y="41" width="203" height="0.826923" rx="0.413462" fill="#D9D9D9"/>
<rect x="12" y="55.0586" width="203" height="0.826922" rx="0.413461" fill="#D9D9D9"/>
<rect x="12" y="69.1172" width="203" height="0.826923" rx="0.413462" fill="#D9D9D9"/>
<rect x="12" y="83.1719" width="203" height="0.826923" rx="0.413462" fill="#D9D9D9"/>
<path d="M14.8984 25.8438C14.7005 26.0469 14.4245 26.1484 14.0703 26.1484C13.7161 26.1484 13.4375 26.0469 13.2344 25.8438C13.0365 25.6354 12.9375 25.3438 12.9375 24.9688V15.75C12.9375 15.375 13.0417 15.0859 13.25 14.8828C13.4583 14.6745 13.75 14.5703 14.125 14.5703C14.3646 14.5703 14.5729 14.625 14.75 14.7344C14.9323 14.8385 15.1146 15.013 15.2969 15.2578L20.1719 22.0703H20.2344V15.7578C20.2344 15.3828 20.3333 15.0911 20.5312 14.8828C20.7292 14.6745 21.0078 14.5703 21.3672 14.5703C21.7214 14.5703 21.9974 14.6745 22.1953 14.8828C22.3932 15.0859 22.4922 15.3776 22.4922 15.7578V25C22.4922 25.3698 22.3906 25.6536 22.1875 25.8516C21.9896 26.0495 21.7057 26.1484 21.3359 26.1484C21.0807 26.1484 20.8646 26.099 20.6875 26C20.5104 25.8958 20.3333 25.7188 20.1562 25.4688L15.2656 18.6172H15.1953V24.9688C15.1953 25.3438 15.0964 25.6354 14.8984 25.8438ZM33.8097 24.625C32.8357 25.6667 31.5128 26.1875 29.8409 26.1875C28.1691 26.1875 26.8435 25.6667 25.8644 24.625C24.8904 23.5781 24.4034 22.1589 24.4034 20.3672C24.4034 18.5703 24.8904 17.1484 25.8644 16.1016C26.8435 15.0547 28.1691 14.5312 29.8409 14.5312C31.5128 14.5312 32.8357 15.0547 33.8097 16.1016C34.7889 17.1484 35.2784 18.5703 35.2784 20.3672C35.2784 22.1589 34.7889 23.5781 33.8097 24.625ZM29.8409 24.2188C30.7628 24.2188 31.4972 23.8724 32.0441 23.1797C32.5909 22.4818 32.8644 21.5443 32.8644 20.3672C32.8644 19.1849 32.5909 18.2448 32.0441 17.5469C31.4972 16.849 30.7628 16.5 29.8409 16.5C28.9191 16.5 28.1821 16.849 27.63 17.5469C27.0831 18.2448 26.8097 19.1849 26.8097 20.3672C26.8097 21.5443 27.0831 22.4818 27.63 23.1797C28.1769 23.8724 28.9139 24.2188 29.8409 24.2188ZM41.2991 25.8281C41.0907 26.0417 40.8017 26.1484 40.4319 26.1484C40.0621 26.1484 39.773 26.0417 39.5647 25.8281C39.3564 25.6094 39.2522 25.3073 39.2522 24.9219V16.6797H36.9241C36.6011 16.6797 36.3407 16.5938 36.1428 16.4219C35.9501 16.2448 35.8538 16.0052 35.8538 15.7031C35.8538 15.401 35.9501 15.1641 36.1428 14.9922C36.3355 14.8151 36.5959 14.7266 36.9241 14.7266H43.9475C44.2704 14.7266 44.5282 14.8151 44.7209 14.9922C44.9136 15.1641 45.01 15.401 45.01 15.7031C45.01 16.0052 44.911 16.2448 44.7131 16.4219C44.5204 16.5938 44.2652 16.6797 43.9475 16.6797H41.6116V24.9219C41.6116 25.3073 41.5074 25.6094 41.2991 25.8281ZM47.7416 26C47.3718 26 47.0827 25.8932 46.8744 25.6797C46.666 25.4609 46.5619 25.1562 46.5619 24.7656V15.9531C46.5619 15.5677 46.666 15.2682 46.8744 15.0547C47.0827 14.8359 47.3718 14.7266 47.7416 14.7266H53.1009C53.4291 14.7266 53.6895 14.8151 53.8822 14.9922C54.0749 15.1641 54.1712 15.401 54.1712 15.7031C54.1712 16.0052 54.0723 16.2448 53.8744 16.4219C53.6817 16.5938 53.4239 16.6797 53.1009 16.6797H48.9212V19.3906H52.8978C53.1947 19.3906 53.4317 19.474 53.6087 19.6406C53.791 19.8021 53.8822 20.0208 53.8822 20.2969C53.8822 20.5781 53.791 20.7995 53.6087 20.9609C53.4317 21.1224 53.1947 21.2031 52.8978 21.2031H48.9212V24.0469H53.1009C53.4239 24.0469 53.6817 24.1354 53.8744 24.3125C54.0723 24.4844 54.1712 24.7214 54.1712 25.0234C54.1712 25.3255 54.0749 25.5651 53.8822 25.7422C53.6895 25.9141 53.4291 26 53.1009 26H47.7416Z" fill="#C07036"/>
<g clip-path="url(#clip0_759_86327)">
<path d="M68.3819 15.8672L71.6324 19.1177L64.574 26.1761L61.6759 26.496C61.288 26.5389 60.9602 26.2109 61.0033 25.8229L61.3258 22.9228L68.3819 15.8672ZM73.6428 15.3833L72.1166 13.8571C71.6405 13.381 70.8684 13.381 70.3923 13.8571L68.9564 15.2929L72.207 18.5434L73.6428 17.1076C74.1189 16.6312 74.1189 15.8594 73.6428 15.3833Z" fill="#C07036"/>
</g>
<rect width="42" height="23" transform="translate(19 73)" fill="#FFFEEA"/>
<path d="M48.0666 74.2312C44.6395 74.3073 41.6546 76.0042 39.8387 78.5682C37.873 76.0884 34.7913 74.5259 31.4035 74.6011C25.6521 74.7288 21.1399 79.4104 21.3071 85.0361C21.4742 90.6619 26.2584 95.1371 31.9705 95.0103C35.3976 94.9342 38.3431 93.2381 40.159 90.6741C42.1247 93.1539 45.2064 94.7164 48.6336 94.6403C54.3454 94.5135 58.8578 89.8322 58.6906 84.2062C58.5628 78.5796 53.7785 74.1044 48.0666 74.2312ZM31.9083 92.9151C27.378 93.0157 23.5669 89.4507 23.4343 84.9889C23.3017 80.5271 26.8963 76.7977 31.4264 76.6972C35.9567 76.5966 39.8072 80.1607 39.9398 84.6225C40.0723 89.0843 36.4777 92.8137 31.9083 92.9151ZM48.6107 92.5443C45.5774 92.6116 42.8504 91.0416 41.3596 88.6286C41.8742 87.3747 42.149 86.0099 42.1064 84.5745C42.0637 83.139 41.7082 81.7879 41.1198 80.5587C42.4653 78.0829 45.0955 76.3938 48.1288 76.3265C52.6589 76.2259 56.4703 79.7909 56.6028 84.2527C56.7357 88.7144 53.1411 92.4439 48.6107 92.5444L48.6107 92.5443Z" fill="#D9D9D9"/>
<path d="M53.0509 82.0503C53.077 82.9994 52.3269 83.7912 51.3752 83.8184C50.4235 83.8456 49.631 83.0978 49.6049 82.1486C49.5788 81.1993 50.329 80.4077 51.2806 80.3805C52.2323 80.3534 53.0248 81.1009 53.0509 82.0503Z" fill="#D9D9D9"/>
<path d="M48.3851 85.993C47.0826 86.018 45.874 86.5446 45.0713 87.4503C44.7276 87.8441 44.7459 88.463 45.1507 88.8038C45.3527 88.9547 45.5929 89.0665 45.8296 89.0619C46.106 89.0566 46.3394 88.936 46.5308 88.7387C46.9512 88.2662 47.692 87.9422 48.4419 87.9278C49.1918 87.9134 49.9101 88.1707 50.3987 88.6643C50.7653 89.0445 51.398 89.071 51.7814 88.6764C52.1659 88.3206 52.187 87.7008 51.7807 87.3213C50.9258 86.4472 49.6875 85.9679 48.385 85.993L48.3851 85.993Z" fill="#D9D9D9"/>
<path d="M47.1501 82.0854C47.1762 83.0345 46.426 83.8264 45.4743 83.8536C44.523 83.8807 43.7301 83.1329 43.704 82.1838C43.6779 81.2344 44.4284 80.4428 45.3798 80.4157C46.3314 80.3885 47.124 81.136 47.1501 82.0854Z" fill="#D9D9D9"/>
<path d="M36.3029 82.1479C36.329 83.097 35.5785 83.8889 34.6271 83.9161C33.6755 83.9432 32.8829 83.1954 32.8568 82.2463C32.8307 81.2969 33.5809 80.5053 34.5326 80.4782C35.4839 80.451 36.2768 81.1985 36.3029 82.1479Z" fill="#D9D9D9"/>
<path d="M34.2822 86.5129C34.0057 86.5182 33.7724 86.6388 33.581 86.8361C33.1606 87.3086 32.4198 87.6326 31.6699 87.647C30.92 87.6614 30.2016 87.4041 29.713 86.9104C29.3465 86.5303 28.7138 86.5038 28.3304 86.8984C27.9459 87.2541 27.9248 87.874 28.331 88.2535C29.1863 89.1273 30.4246 89.6068 31.7271 89.5818C33.0295 89.5568 34.2381 89.0302 35.0408 88.1245C35.3845 87.7306 35.3663 87.1118 34.9614 86.771C34.7581 86.5812 34.519 86.5083 34.2823 86.5129L34.2822 86.5129Z" fill="#D9D9D9"/>
<path d="M30.4015 82.1831C30.4276 83.1322 29.6775 83.924 28.7258 83.9512C27.7741 83.9784 26.9816 83.2306 26.9555 82.2814C26.9294 81.3321 27.6796 80.5405 28.6312 80.5133C29.5829 80.4862 30.3754 81.2337 30.4015 82.1831Z" fill="#D9D9D9"/>
<rect width="48" height="48" transform="translate(171 4)" fill="#FFFEEA"/>
<rect x="172.612" y="12.3575" width="26.0598" height="28.3148" rx="1.5" transform="rotate(-15 172.612 12.3575)" stroke="#D9D9D9"/>
<rect x="175.375" y="13.9512" width="21.5498" height="21.5498" rx="1.5" transform="rotate(-15 175.375 13.9512)" stroke="#D9D9D9"/>
<rect x="190.692" y="33.8438" width="2.25498" height="1.12749" rx="0.563746" transform="rotate(-15 190.692 33.8438)" fill="#D9D9D9"/>
<rect x="193.958" y="32.9688" width="6.76495" height="1.12749" rx="0.563746" transform="rotate(-15 193.958 32.9688)" fill="#D9D9D9"/>
<path d="M187.888 20.7322C189.765 20.2294 190.925 18.2524 190.386 16.2411C189.86 14.2779 187.864 13.2064 186.005 13.7046C184.146 14.2028 182.952 16.1546 183.484 18.1075C184.019 20.1028 186.02 21.2327 187.888 20.7322ZM184.179 29.7135L195.583 26.6578C196.542 26.4007 197.011 25.8199 196.822 25.1147C196.268 23.0473 192.706 20.9613 188.268 22.1505C183.821 23.3421 181.788 26.9272 182.342 28.9946C182.531 29.6998 183.219 29.9706 184.179 29.7135Z" fill="#D9D9D9"/>
<rect x="192.037" y="13.7716" width="28.0447" height="30.0851" rx="2.5" transform="rotate(19.5649 192.037 13.7716)" fill="#FFFEEA" stroke="#FFFEEA"/>
<rect x="192.603" y="15.0643" width="26.0598" height="28.3148" rx="1.5" transform="rotate(19.5649 192.603 15.0643)" fill="#FFFEEA" stroke="#D9D9D9"/>
<rect x="193.972" y="17.9433" width="21.5498" height="21.5498" rx="1.5" transform="rotate(19.5649 193.972 17.9433)" stroke="#D9D9D9"/>
<rect x="195.301" y="43.0156" width="2.25498" height="1.12749" rx="0.563746" transform="rotate(19.5649 195.301 43.0156)" fill="#D9D9D9"/>
<rect x="198.488" y="44.1484" width="6.76495" height="1.12749" rx="0.563746" transform="rotate(19.5649 198.488 44.1484)" fill="#D9D9D9"/>
<mask id="mask0_759_86327" style="mask-type:alpha" maskUnits="userSpaceOnUse" x="186" y="17" width="29" height="29">
<rect x="193.668" y="17.3047" width="22.5498" height="21.4223" transform="rotate(19.5649 193.668 17.3047)" fill="#D9D9D9"/>
</mask>
<g mask="url(#mask0_759_86327)">
<path d="M201.76 28.2158C203.1 28.692 204.574 27.9608 205.066 26.5762C205.563 25.1803 204.88 23.6825 203.54 23.2063C202.189 22.7263 200.726 23.4613 200.23 24.8572C199.738 26.2418 200.409 27.7357 201.76 28.2158ZM197.835 39.259C198.26 39.41 198.315 39.772 198.289 40.6755C198.251 41.9553 197.67 47.112 197.544 48.6395C197.484 49.4296 197.747 49.8652 198.28 50.0549C198.999 50.3104 199.697 49.7976 199.754 48.9811C199.775 48.6462 200.633 41.1916 200.912 39.6806C201.159 38.399 201.976 35.9632 202.416 34.725C202.472 34.5674 202.681 34.5656 202.727 34.7468C203.134 36.2607 203.829 38.9296 204.006 39.3982C204.204 39.9122 204.71 40.1807 205.259 40.0844C205.953 39.9632 206.312 39.368 206.232 38.8325C206.205 38.6327 206.149 38.41 206.096 38.2137L204.787 32.8164C204.378 31.1368 203.491 30.1116 201.356 29.3527C199.221 28.5939 197.886 28.8294 196.508 29.8741L192.087 33.2349C191.922 33.3538 191.738 33.4913 191.591 33.6292C191.18 33.9904 191.094 34.6824 191.555 35.2141C191.91 35.6317 192.483 35.7465 192.96 35.4725C193.382 35.2168 195.602 33.5967 196.877 32.6678C197.023 32.5676 197.199 32.6935 197.139 32.8624C196.703 34.0894 195.789 36.4904 195.171 37.6403C194.445 38.9925 190.396 45.3128 190.211 45.5896C189.74 46.259 189.947 47.0932 190.677 47.3526C191.211 47.5423 191.689 47.37 192.141 46.7192C193.008 45.455 195.811 41.0881 196.589 40.0715C197.128 39.35 197.41 39.108 197.835 39.259Z" fill="#D9D9D9"/>
</g>
<defs>
<clipPath id="clip0_759_86327">
<rect width="13" height="13" fill="white" transform="translate(61 13.5)"/>
</clipPath>
</defs>
</svg>
