<svg width="24" height="14" viewBox="0 0 24 14" fill="none" xmlns="http://www.w3.org/2000/svg">
<path d="M12 14C12.461 14 12.8542 13.821 13.2068 13.4494L23.5525 2.7119C23.8508 2.42281 24 2.03736 24 1.59685C24 0.702065 23.322 -6.57642e-08 22.4271 -2.66462e-08C21.9932 -7.67992e-09 21.6 0.178958 21.3017 0.48181L12 10.1593L2.6983 0.48181C2.38644 0.178959 1.99322 8.66548e-07 1.55932 8.85514e-07C0.677966 9.24039e-07 -5.81271e-07 0.702066 -5.42159e-07 1.59686C-5.22903e-07 2.03737 0.149152 2.42281 0.447457 2.7119L10.7932 13.4494C11.1458 13.821 11.539 13.9862 12 14Z" fill="black"/>
</svg>
