<svg width="24" height="24" viewBox="0 0 24 24" fill="none" xmlns="http://www.w3.org/2000/svg">
<path d="M2.11729 7.08381H4.82203C6.15604 7.08381 6.93932 6.28423 6.93932 4.87246V2.21135C6.93932 0.799584 6.15604 0 4.82203 0H2.11729C0.783274 0 0 0.799584 0 2.21135V4.87246C0 6.28423 0.783274 7.08381 2.11729 7.08381ZM10.6354 7.08381H13.3524C14.6864 7.08381 15.4574 6.28423 15.4574 4.87246V2.21135C15.4574 0.799584 14.6864 0 13.3524 0H10.6354C9.30138 0 8.53034 0.799584 8.53034 2.21135V4.87246C8.53034 6.28423 9.30138 7.08381 10.6354 7.08381ZM19.178 7.08381H21.8827C23.2167 7.08381 24 6.28423 24 4.87246V2.21135C24 0.799584 23.2167 0 21.8827 0H19.178C17.844 0 17.0607 0.799584 17.0607 2.21135V4.87246C17.0607 6.28423 17.844 7.08381 19.178 7.08381ZM2.34982 5.3722C1.90923 5.3722 1.68893 5.13483 1.68893 4.66007V2.42374C1.68893 1.96148 1.90923 1.7241 2.34982 1.7241H4.5895C5.01785 1.7241 5.26262 1.96148 5.26262 2.42374V4.66007C5.26262 5.13483 5.01785 5.3722 4.5895 5.3722H2.34982ZM10.8679 5.3722C10.4273 5.3722 10.207 5.13483 10.207 4.66007V2.42374C10.207 1.96148 10.4273 1.7241 10.8679 1.7241H13.1198C13.5482 1.7241 13.7807 1.96148 13.7807 2.42374V4.66007C13.7807 5.13483 13.5482 5.3722 13.1198 5.3722H10.8679ZM19.4105 5.3722C18.9699 5.3722 18.7374 5.13483 18.7374 4.66007V2.42374C18.7374 1.96148 18.9699 1.7241 19.4105 1.7241H21.6502C22.0785 1.7241 22.3111 1.96148 22.3111 2.42374V4.66007C22.3111 5.13483 22.0785 5.3722 21.6502 5.3722H19.4105ZM2.11729 15.5419H4.82203C6.15604 15.5419 6.93932 14.7548 6.93932 13.3431V10.6694C6.93932 9.25768 6.15604 8.4581 4.82203 8.4581H2.11729C0.783274 8.4581 0 9.25768 0 10.6694V13.3431C0 14.7548 0.783274 15.5419 2.11729 15.5419ZM10.6354 15.5419H13.3524C14.6864 15.5419 15.4574 14.7548 15.4574 13.3431V10.6694C15.4574 9.25768 14.6864 8.4581 13.3524 8.4581H10.6354C9.30138 8.4581 8.53034 9.25768 8.53034 10.6694V13.3431C8.53034 14.7548 9.30138 15.5419 10.6354 15.5419ZM19.178 15.5419H21.8827C23.2167 15.5419 24 14.7548 24 13.3431V10.6694C24 9.25768 23.2167 8.4581 21.8827 8.4581H19.178C17.844 8.4581 17.0607 9.25768 17.0607 10.6694V13.3431C17.0607 14.7548 17.844 15.5419 19.178 15.5419ZM2.34982 13.8303C1.90923 13.8303 1.68893 13.5929 1.68893 13.1182V10.8693C1.68893 10.4071 1.90923 10.1697 2.34982 10.1697H4.5895C5.01785 10.1697 5.26262 10.4071 5.26262 10.8693V13.1182C5.26262 13.5929 5.01785 13.8303 4.5895 13.8303H2.34982ZM10.8679 13.8303C10.4273 13.8303 10.207 13.5929 10.207 13.1182V10.8693C10.207 10.4071 10.4273 10.1697 10.8679 10.1697H13.1198C13.5482 10.1697 13.7807 10.4071 13.7807 10.8693V13.1182C13.7807 13.5929 13.5482 13.8303 13.1198 13.8303H10.8679ZM19.4105 13.8303C18.9699 13.8303 18.7374 13.5929 18.7374 13.1182V10.8693C18.7374 10.4071 18.9699 10.1697 19.4105 10.1697H21.6502C22.0785 10.1697 22.3111 10.4071 22.3111 10.8693V13.1182C22.3111 13.5929 22.0785 13.8303 21.6502 13.8303H19.4105ZM2.11729 24H4.82203C6.15604 24 6.93932 23.2004 6.93932 21.7887V19.1275C6.93932 17.7158 6.15604 16.9162 4.82203 16.9162H2.11729C0.783274 16.9162 0 17.7158 0 19.1275V21.7887C0 23.2004 0.783274 24 2.11729 24ZM10.6354 24H13.3524C14.6864 24 15.4574 23.2004 15.4574 21.7887V19.1275C15.4574 17.7158 14.6864 16.9162 13.3524 16.9162H10.6354C9.30138 16.9162 8.53034 17.7158 8.53034 19.1275V21.7887C8.53034 23.2004 9.30138 24 10.6354 24ZM19.178 24H21.8827C23.2167 24 24 23.2004 24 21.7887V19.1275C24 17.7158 23.2167 16.9162 21.8827 16.9162H19.178C17.844 16.9162 17.0607 17.7158 17.0607 19.1275V21.7887C17.0607 23.2004 17.844 24 19.178 24ZM2.34982 22.2759C1.90923 22.2759 1.68893 22.0385 1.68893 21.5763V19.3399C1.68893 18.8652 1.90923 18.6278 2.34982 18.6278H4.5895C5.01785 18.6278 5.26262 18.8652 5.26262 19.3399V21.5763C5.26262 22.0385 5.01785 22.2759 4.5895 22.2759H2.34982ZM10.8679 22.2759C10.4273 22.2759 10.207 22.0385 10.207 21.5763V19.3399C10.207 18.8652 10.4273 18.6278 10.8679 18.6278H13.1198C13.5482 18.6278 13.7807 18.8652 13.7807 19.3399V21.5763C13.7807 22.0385 13.5482 22.2759 13.1198 22.2759H10.8679ZM19.4105 22.2759C18.9699 22.2759 18.7374 22.0385 18.7374 21.5763V19.3399C18.7374 18.8652 18.9699 18.6278 19.4105 18.6278H21.6502C22.0785 18.6278 22.3111 18.8652 22.3111 19.3399V21.5763C22.3111 22.0385 22.0785 22.2759 21.6502 22.2759H19.4105Z" fill="#62D3B4"/>
</svg>
