<svg width="12" height="15" viewBox="0 0 12 15" fill="none" xmlns="http://www.w3.org/2000/svg">
<path d="M5.37305 14.7861C8.98242 14.7861 11.3887 12.3457 11.3887 8.66797C11.3887 2.5498 6.17969 0 2.56348 0C1.9209 0 1.51074 0.225586 1.51074 0.663086C1.51074 0.833984 1.58594 1.01172 1.72949 1.17578C2.54297 2.14648 3.35645 3.30176 3.37012 4.64844C3.37012 4.81934 3.35645 4.9834 3.30859 5.16113C2.93262 4.36133 2.22852 3.82812 1.59961 3.82812C1.31934 3.82812 1.12793 4.0332 1.12793 4.34082C1.12793 4.51855 1.17578 4.93555 1.17578 5.23633C1.17578 6.76758 0 7.66309 0 10.1309C0 12.9268 2.13965 14.7861 5.37305 14.7861ZM5.53027 12.8652C4.25195 12.8652 3.4043 12.0928 3.4043 10.9443C3.4043 9.74121 4.25879 9.31055 4.36816 8.53809C4.38184 8.47656 4.42285 8.45605 4.4707 8.49707C4.78516 8.77734 4.99023 9.11914 5.16113 9.51562C5.52344 9.02344 5.69434 7.98438 5.57812 6.86328C5.57129 6.80176 5.6123 6.76758 5.67383 6.78809C7.1709 7.49219 7.9502 8.98242 7.9502 10.3154C7.9502 11.6689 7.15723 12.8652 5.53027 12.8652Z" fill="#FF764B"/>
</svg>
