<svg width="15" height="22" viewBox="0 0 15 22" fill="none" xmlns="http://www.w3.org/2000/svg">
<path d="M6.65791 6.15088C6.98994 6.15088 7.29154 6.07064 7.5627 5.91016C7.83385 5.74967 8.04967 5.53109 8.21016 5.25439C8.37617 4.9777 8.45918 4.67334 8.45918 4.34131C8.45918 4.00928 8.37617 3.70768 8.21016 3.43652C8.04967 3.15983 7.83385 2.94124 7.5627 2.78076C7.29154 2.62028 6.98994 2.54004 6.65791 2.54004C6.32035 2.54004 6.01322 2.62028 5.73652 2.78076C5.46536 2.94124 5.24678 3.15983 5.08076 3.43652C4.92028 3.70768 4.84004 4.00928 4.84004 4.34131C4.84004 4.67334 4.92028 4.9777 5.08076 5.25439C5.24678 5.53109 5.46536 5.74967 5.73652 5.91016C6.01322 6.07064 6.32035 6.15088 6.65791 6.15088ZM2.07588 21.0093C2.3083 21.048 2.51859 21.001 2.70674 20.8682C2.89489 20.7354 3.01387 20.5472 3.06367 20.3037L3.85225 16.062L7.15596 14.269C7.25557 14.2082 7.32751 14.2275 7.37178 14.3271L9.04023 18.353C9.09004 18.4637 9.15091 18.555 9.22285 18.627C9.30033 18.7044 9.3861 18.7681 9.48018 18.8179L13.2321 20.9014C13.4701 21.0342 13.6997 21.0591 13.9211 20.9761C14.1424 20.8986 14.3029 20.7658 14.4025 20.5776C14.5188 20.3729 14.5437 20.1543 14.4772 19.9219C14.4164 19.6895 14.2808 19.5151 14.0705 19.3989L10.5759 17.4648L8.21016 7.99365C8.13822 7.71143 7.9888 7.479 7.76191 7.29639C7.54056 7.11377 7.2777 7.02246 6.97334 7.02246H1.90156L4.27559 1.97559C4.38073 1.7487 4.4084 1.55225 4.35859 1.38623C4.30879 1.21468 4.21195 1.08187 4.06807 0.987793C3.92972 0.893717 3.77754 0.84668 3.61152 0.84668C3.47318 0.84668 3.34036 0.885417 3.21309 0.962891C3.08581 1.04036 2.9862 1.16488 2.91426 1.33643L0.175 8.4751C0.108594 8.64111 0.097526 8.8016 0.141797 8.95654C0.186068 9.10596 0.258008 9.23324 0.357617 9.33838L2.47432 11.4634C2.6348 11.6239 2.83402 11.7041 3.07197 11.7041C3.30993 11.7041 3.51191 11.6239 3.67793 11.4634L4.61592 10.5171C4.67679 10.4562 4.74596 10.4285 4.82344 10.4341C4.90091 10.4396 4.95348 10.4867 4.98115 10.5752L5.4875 12.6089L2.55732 14.8086C2.45218 14.8861 2.37194 14.9829 2.3166 15.0991C2.2668 15.2153 2.23083 15.3315 2.20869 15.4478L1.38691 20.0049C1.34264 20.2318 1.38691 20.4421 1.51973 20.6357C1.65807 20.835 1.84346 20.9595 2.07588 21.0093ZM3.95186 8.73242L3.07197 9.6123L2.19209 8.73242H3.95186Z" fill="black"/>
</svg>
