<svg width="19" height="22" viewBox="0 0 19 22" fill="none" xmlns="http://www.w3.org/2000/svg">
<path d="M13.7388 4.43262C14.0653 4.43262 14.3669 4.35238 14.6436 4.19189C14.9202 4.02588 15.1388 3.80729 15.2993 3.53613C15.4653 3.25944 15.5483 2.95508 15.5483 2.62305C15.5483 2.29102 15.4653 1.98942 15.2993 1.71826C15.1388 1.44157 14.9202 1.22021 14.6436 1.0542C14.3669 0.888184 14.0653 0.805176 13.7388 0.805176C13.4067 0.805176 13.1024 0.888184 12.8257 1.0542C12.549 1.22021 12.3276 1.44157 12.1616 1.71826C12.0011 1.98942 11.9209 2.29102 11.9209 2.62305C11.9209 2.95508 12.0011 3.25944 12.1616 3.53613C12.3276 3.80729 12.549 4.02588 12.8257 4.19189C13.1024 4.35238 13.4067 4.43262 13.7388 4.43262ZM10.5181 16.0786C10.756 16.0786 10.9552 15.9956 11.1157 15.8296C11.2817 15.6636 11.3647 15.4644 11.3647 15.2319V11.231C11.3647 10.9764 11.2873 10.7772 11.1323 10.6333L8.93262 8.44189L10.8916 6.47461C10.9525 6.41374 11.0272 6.3833 11.1157 6.3833C11.2098 6.3833 11.2873 6.41374 11.3481 6.47461L12.7178 7.85254C12.7897 7.93001 12.8783 7.99089 12.9834 8.03516C13.0885 8.07389 13.1965 8.09326 13.3071 8.09326H17.3081C17.5461 8.09326 17.7453 8.01025 17.9058 7.84424C18.0718 7.67822 18.1548 7.47624 18.1548 7.23828C18.1548 7.00586 18.0718 6.80664 17.9058 6.64062C17.7453 6.47461 17.5461 6.3916 17.3081 6.3916H13.6558L10.6841 3.40332C10.4959 3.20964 10.2718 3.06299 10.0117 2.96338C9.75716 2.85824 9.49707 2.80566 9.23145 2.80566H6.10205C5.81982 2.80566 5.60677 2.89144 5.46289 3.06299C5.31901 3.229 5.24984 3.42822 5.25537 3.66064C5.26644 3.88753 5.36051 4.08952 5.5376 4.2666L6.93213 5.65283L5.81152 6.74854C5.5791 6.98096 5.42415 7.25488 5.34668 7.57031C5.26921 7.88021 5.26921 8.19287 5.34668 8.5083C5.42415 8.8182 5.5791 9.08936 5.81152 9.32178L7.28906 10.7827V15.4312C7.28906 15.6636 7.3693 15.8628 7.52979 16.0288C7.6958 16.1948 7.89779 16.2778 8.13574 16.2778C8.36816 16.2778 8.56738 16.1948 8.7334 16.0288C8.89941 15.8628 8.98242 15.6636 8.98242 15.4312V10.8989L9.67139 11.5796V15.2319C9.67139 15.4644 9.75439 15.6636 9.92041 15.8296C10.0864 15.9956 10.2856 16.0786 10.5181 16.0786ZM0.582031 6.59912H8.62549V5.67773H0.582031C0.454753 5.67773 0.344076 5.72477 0.25 5.81885C0.161458 5.90739 0.117188 6.0153 0.117188 6.14258C0.117188 6.26432 0.161458 6.37223 0.25 6.46631C0.344076 6.55485 0.454753 6.59912 0.582031 6.59912ZM17.6733 15.6719C17.8006 15.6719 17.9085 15.6276 17.9971 15.5391C18.0911 15.445 18.1382 15.3343 18.1382 15.207V7.26318H17.2168V15.207C17.2168 15.3343 17.2611 15.445 17.3496 15.5391C17.4437 15.6276 17.5516 15.6719 17.6733 15.6719ZM13.7056 21.3247C13.8328 21.3247 13.9408 21.2777 14.0293 21.1836C14.1234 21.0951 14.1704 20.9871 14.1704 20.8599C14.1704 20.7326 14.1234 20.6247 14.0293 20.5361C13.9408 20.4476 13.8328 20.4033 13.7056 20.4033C13.4233 20.4033 13.2103 20.3673 13.0664 20.2954C12.9225 20.2235 12.7316 20.0685 12.4937 19.8306L3.65332 10.9819C3.55924 10.8879 3.44857 10.8408 3.32129 10.8408C3.19401 10.8408 3.0861 10.8879 2.99756 10.9819C2.90902 11.0705 2.86475 11.1784 2.86475 11.3057C2.86475 11.4329 2.90902 11.5409 2.99756 11.6294L11.9707 20.6025C12.2308 20.8626 12.5047 21.048 12.7925 21.1587C13.0802 21.2694 13.3846 21.3247 13.7056 21.3247ZM15.8555 20.8765C15.9827 20.8765 16.0907 20.8322 16.1792 20.7437C16.2677 20.6551 16.312 20.5444 16.312 20.4116C16.312 20.2843 16.2677 20.1764 16.1792 20.0879C16.0907 19.9993 15.9827 19.9551 15.8555 19.9551C15.5677 19.9551 15.3519 19.9191 15.208 19.8472C15.0697 19.7752 14.8787 19.6203 14.6353 19.3823L5.79492 10.542C5.70085 10.4424 5.59017 10.3926 5.46289 10.3926C5.33561 10.3926 5.2277 10.4396 5.13916 10.5337C5.05062 10.6222 5.00635 10.7301 5.00635 10.8574C5.00635 10.9847 5.05062 11.0926 5.13916 11.1812L14.1123 20.1543C14.3724 20.4144 14.6463 20.5998 14.9341 20.7104C15.2218 20.8211 15.529 20.8765 15.8555 20.8765Z" fill="black"/>
</svg>
