<svg width="32" height="32" viewBox="0 0 32 32" fill="none" xmlns="http://www.w3.org/2000/svg">
<path d="M16 28C22.5647 28 28 22.5529 28 16C28 9.43529 22.5529 4 15.9882 4C9.43529 4 4 9.43529 4 16C4 22.5529 9.44706 28 16 28ZM16 26C10.4471 26 6.01176 21.5529 6.01176 16C6.01176 10.4471 10.4353 6 15.9882 6C21.5412 6 26 10.4471 26 16C26 21.5529 21.5529 26 16 26Z" fill="#62D3B4"/>
<path d="M14.7059 21.5884C15.0941 21.5884 15.4235 21.4002 15.6588 21.0355L21.0353 12.5767C21.1647 12.3414 21.3176 12.0825 21.3176 11.8237C21.3176 11.2943 20.847 10.9531 20.3529 10.9531C20.0588 10.9531 19.7647 11.1414 19.5412 11.4825L14.6588 19.3178L12.3412 16.3178C12.0588 15.9414 11.8 15.8472 11.4706 15.8472C10.9647 15.8472 10.5647 16.259 10.5647 16.7767C10.5647 17.0355 10.6706 17.2825 10.8353 17.5061L13.7059 21.0355C14 21.4237 14.3176 21.5884 14.7059 21.5884Z" fill="#0C695E"/>
</svg>
