<svg width="50" height="37" viewBox="0 0 50 37" fill="none" xmlns="http://www.w3.org/2000/svg">
<path d="M6.39251 37H43.6075C47.842 37 50 34.9822 50 30.9853V10.6712C50 6.67436 47.842 4.67593 43.6075 4.67593H37.785C36.1767 4.67593 35.6881 4.3655 34.772 3.39539L33.1433 1.64919C32.1254 0.582066 31.0871 0 28.9902 0H20.8673C18.7704 0 17.7321 0.582066 16.7142 1.64919L15.0855 3.39539C14.1694 4.34609 13.6604 4.67593 12.0725 4.67593H6.39251C2.13762 4.67593 0 6.67436 0 10.6712V30.9853C0 34.9822 2.13762 37 6.39251 37ZM25 31.2764C18.8314 31.2764 13.8844 26.581 13.8844 20.6633C13.8844 14.7651 18.8314 10.0697 25 10.0697C31.1686 10.0697 36.0953 14.7651 36.0953 20.6633C36.0953 26.581 31.1482 31.2764 25 31.2764ZM37.4593 13.5233C37.4593 12.204 38.6808 11.0399 40.1059 11.0399C41.5106 11.0399 42.7117 12.204 42.7117 13.5233C42.7117 14.9009 41.5106 16.0068 40.1059 16.0262C38.6808 16.0262 37.4593 14.9203 37.4593 13.5233ZM25 28.3272C29.4381 28.3272 33.0212 24.9318 33.0212 20.6633C33.0212 16.4143 29.4381 12.9995 25 12.9995C20.5619 12.9995 16.9585 16.4143 16.9585 20.6633C16.9585 24.9318 20.5822 28.3272 25 28.3272Z" fill="white"/>
</svg>
