<svg width="48" height="48" viewBox="0 0 48 48" fill="none" xmlns="http://www.w3.org/2000/svg">
<circle cx="16" cy="16" r="1" fill="white"/>
<path d="M12.828 35.7566H31.9678C31.2973 34.6229 30.9194 33.3341 30.9194 31.9379C30.9194 27.6659 34.5279 24.1814 38.9411 24.2411V19.5632C38.9411 17.105 37.6488 15.8759 35.1131 15.8759H31.6265C30.6634 15.8759 30.3708 15.685 29.8222 15.0883L28.8469 14.0143C28.2374 13.358 27.6156 13 26.36 13H21.4958C20.2401 13 19.6184 13.358 19.0088 14.0143L18.0335 15.0883C17.4849 15.673 17.1802 15.8759 16.2293 15.8759H12.828C10.2801 15.8759 9 17.105 9 19.5632V32.0573C9 34.5155 10.2801 35.7566 12.828 35.7566ZM23.9705 32.2363C20.2767 32.2363 17.3143 29.3484 17.3143 25.7088C17.3143 22.0811 20.2767 19.1933 23.9705 19.1933C27.6644 19.1933 30.6146 22.0811 30.6146 25.7088C30.6146 29.3484 27.6522 32.2363 23.9705 32.2363ZM31.4314 21.3174C31.4314 20.506 32.1629 19.79 33.0163 19.79C33.8574 19.79 34.5767 20.506 34.5767 21.3174C34.5767 22.1647 33.8574 22.8449 33.0163 22.8568C32.1629 22.8568 31.4314 22.1766 31.4314 21.3174ZM23.9705 30.4224C26.6282 30.4224 28.7738 28.3341 28.7738 25.7088C28.7738 23.0955 26.6282 20.9952 23.9705 20.9952C21.3129 20.9952 19.1551 23.0955 19.1551 25.7088C19.1551 28.3341 21.3251 30.4224 23.9705 30.4224ZM38.807 38C42.1595 38 45 35.2554 45 31.9379C45 28.6205 42.1961 25.8759 38.807 25.8759C35.4057 25.8759 32.614 28.6205 32.614 31.9379C32.614 35.2792 35.4057 38 38.807 38ZM35.4057 32.8807C34.8937 32.8807 34.467 32.4511 34.467 31.9379C34.467 31.4368 34.8937 31.0072 35.4057 31.0072C35.9421 31.0072 36.3688 31.4368 36.3688 31.9379C36.3688 32.4511 35.9299 32.8807 35.4057 32.8807ZM38.807 32.8807C38.295 32.8807 37.8561 32.4511 37.8561 31.9379C37.8561 31.4368 38.295 31.0072 38.807 31.0072C39.3312 31.0072 39.7701 31.4368 39.7701 31.9379C39.7701 32.4511 39.319 32.8807 38.807 32.8807ZM42.1961 32.8807C41.6719 32.8807 41.2452 32.4511 41.2452 31.9379C41.2452 31.4368 41.6719 31.0072 42.1961 31.0072C42.7081 31.0072 43.147 31.4368 43.1348 31.9379C43.1348 32.4511 42.7081 32.8807 42.1961 32.8807Z" fill="white"/>
</svg>
