<svg width="24" height="24" viewBox="0 0 24 24" fill="none" xmlns="http://www.w3.org/2000/svg">
<path d="M15.5984 8.4676C16.646 8.4676 17.5383 7.82007 17.9069 6.90193H21.1174C21.5926 6.90193 22 6.48636 22 5.9838C22 5.48124 21.6023 5.06566 21.1174 5.06566H17.9166C17.548 4.14753 16.646 3.5 15.5984 3.5C14.5509 3.5 13.6489 4.14753 13.2803 5.06566H2.91174C2.39767 5.06566 2 5.48124 2 5.9838C2 6.48636 2.40737 6.90193 2.91174 6.90193H13.2803C13.6489 7.82007 14.5509 8.4676 15.5984 8.4676ZM15.5984 7.16288C14.9389 7.16288 14.4054 6.64099 14.4054 5.9838C14.4054 5.30728 14.9389 4.79505 15.5984 4.79505C16.2677 4.79505 16.7818 5.30728 16.7818 5.9838C16.7818 6.64099 16.2677 7.16288 15.5984 7.16288ZM2.87294 11.0867C2.39767 11.0867 2 11.4926 2 12.0048C2 12.4977 2.40737 12.9133 2.87294 12.9133H6.19981C6.55868 13.8314 7.46072 14.4886 8.51794 14.4886C9.55577 14.4886 10.4578 13.8314 10.8264 12.9133H21.0883C21.5926 12.9133 22 12.5074 22 12.0048C22 11.4926 21.6023 11.0867 21.0883 11.0867H10.8264C10.4578 10.1686 9.55577 9.52103 8.51794 9.52103C7.47042 9.52103 6.56838 10.1686 6.19981 11.0867H2.87294ZM8.51794 13.1839C7.84869 13.1839 7.32493 12.662 7.32493 12.0048C7.32493 11.3283 7.84869 10.8161 8.51794 10.8161C9.1872 10.8161 9.70126 11.3283 9.70126 12.0048C9.70126 12.662 9.1872 13.1839 8.51794 13.1839ZM15.5984 20.5C16.646 20.5 17.548 19.8525 17.9166 18.9343H21.1174C21.5926 18.9343 22 18.5188 22 18.0162C22 17.504 21.6023 17.0981 21.1174 17.0981H17.9069C17.548 16.1799 16.646 15.5324 15.5984 15.5324C14.5509 15.5324 13.6489 16.1799 13.2803 17.0981H2.91174C2.39767 17.0981 2 17.5136 2 18.0162C2 18.5188 2.40737 18.9343 2.91174 18.9343H13.2803C13.6489 19.8525 14.5509 20.5 15.5984 20.5ZM15.5984 19.2049C14.9389 19.2049 14.4054 18.6734 14.4054 18.0162C14.4054 17.3493 14.9389 16.8275 15.5984 16.8275C16.2677 16.8275 16.7818 17.3493 16.7818 18.0162C16.7818 18.6734 16.2677 19.2049 15.5984 19.2049Z" fill="#7A948F"/>
</svg>
