<svg width="40" height="40" viewBox="0 0 40 40" fill="none" xmlns="http://www.w3.org/2000/svg">
<g clip-path="url(#clip0_3127_126392)">
<path d="M9 9C10.3807 9 11.5 7.88071 11.5 6.5C11.5 5.11929 10.3807 4 9 4C7.61929 4 6.5 5.11929 6.5 6.5C6.5 7.88071 7.61929 9 9 9Z" fill="#7A948F"/>
<path d="M20 9C21.3807 9 22.5 7.88071 22.5 6.5C22.5 5.11929 21.3807 4 20 4C18.6193 4 17.5 5.11929 17.5 6.5C17.5 7.88071 18.6193 9 20 9Z" fill="#7A948F"/>
<path d="M31 9C32.3807 9 33.5 7.88071 33.5 6.5C33.5 5.11929 32.3807 4 31 4C29.6193 4 28.5 5.11929 28.5 6.5C28.5 7.88071 29.6193 9 31 9Z" fill="#7A948F"/>
<path d="M9 19C10.3807 19 11.5 17.8807 11.5 16.5C11.5 15.1193 10.3807 14 9 14C7.61929 14 6.5 15.1193 6.5 16.5C6.5 17.8807 7.61929 19 9 19Z" fill="#7A948F"/>
<path d="M9 29C10.3807 29 11.5 27.8807 11.5 26.5C11.5 25.1193 10.3807 24 9 24C7.61929 24 6.5 25.1193 6.5 26.5C6.5 27.8807 7.61929 29 9 29Z" fill="#7A948F"/>
<path d="M20 19C21.3807 19 22.5 17.8807 22.5 16.5C22.5 15.1193 21.3807 14 20 14C18.6193 14 17.5 15.1193 17.5 16.5C17.5 17.8807 18.6193 19 20 19Z" fill="#7A948F"/>
<path d="M31 19C32.3807 19 33.5 17.8807 33.5 16.5C33.5 15.1193 32.3807 14 31 14C29.6193 14 28.5 15.1193 28.5 16.5C28.5 17.8807 29.6193 19 31 19Z" fill="#7A948F"/>
<path d="M31 29C32.3807 29 33.5 27.8807 33.5 26.5C33.5 25.1193 32.3807 24 31 24C29.6193 24 28.5 25.1193 28.5 26.5C28.5 27.8807 29.6193 29 31 29Z" fill="#7A948F"/>
<path d="M24.399 25.0289C23.9336 24.3492 23.377 23.7361 22.7445 23.2068C22.1384 22.7166 21.4764 22.2991 20.7723 21.963C20.1049 21.6407 19.4028 21.3954 18.6795 21.232C18.0211 21.0852 17.349 21.0084 16.6743 21.0028C16.3931 20.9858 16.1126 21.0462 15.8635 21.1774C15.7661 21.2305 15.6857 21.3098 15.6315 21.4063C15.5772 21.5028 15.5513 21.6125 15.5567 21.7229C15.5575 21.8177 15.58 21.911 15.6225 21.9957C15.6583 22.0967 15.7142 22.1895 15.7868 22.2685C16.0717 22.6285 16.3456 22.9995 16.6086 23.3596C16.8774 23.7618 17.098 24.1938 17.266 24.6471C17.4424 25.0916 17.5317 25.5657 17.529 26.0436C17.5453 26.2069 17.5453 26.3714 17.529 26.5346C17.529 26.5346 17.529 26.5346 17.529 26.6001C17.4429 26.4041 17.3364 26.2176 17.2112 26.0436C17.0229 25.7817 16.7846 25.5593 16.51 25.389C16.2786 25.2375 16.0089 25.1543 15.732 25.149C15.6642 25.1463 15.5966 25.1586 15.5341 25.185C15.4716 25.2114 15.4157 25.2513 15.3705 25.3017C15.2805 25.4168 15.2339 25.5597 15.239 25.7054C15.2303 25.8508 15.2303 25.9965 15.239 26.1418C15.239 26.3382 15.239 26.5128 15.239 26.6765C15.2388 26.9931 15.1983 27.3084 15.1185 27.6148C15.034 27.9117 14.9315 28.2032 14.8117 28.4877C14.6802 28.7932 14.5596 29.0987 14.4391 29.4369C14.3085 29.7921 14.206 30.1569 14.1323 30.528C14.0394 30.995 13.9954 31.4704 14.0008 31.9464C13.9838 32.8812 14.2265 33.8025 14.7021 34.6087C15.1833 35.369 15.8709 35.9781 16.6853 36.3653C17.6153 36.8058 18.6361 37.0225 19.6656 36.9981C20.5501 37.012 21.4287 36.8526 22.2515 36.529C23.0079 36.2233 23.6911 35.7623 24.2566 35.176C24.8274 34.5735 25.2675 33.8604 25.5495 33.0811C25.8617 32.2097 26.0138 31.2894 25.9988 30.3643C26.0149 29.3489 25.8745 28.3369 25.5824 27.3639C25.3092 26.5303 24.9102 25.7429 24.399 25.0289ZM22.0542 33.5721C21.8711 33.9806 21.5794 34.3315 21.2105 34.5868C20.7844 34.8521 20.2885 34.9851 19.7861 34.9687C19.4906 34.9864 19.1946 34.9443 18.9159 34.8449C18.6372 34.7455 18.3816 34.5909 18.1645 34.3905C17.9577 34.199 17.7948 33.9654 17.687 33.7055C17.5793 33.4457 17.5291 33.1657 17.54 32.8848C17.537 32.5985 17.5852 32.314 17.6824 32.0446C17.7742 31.825 17.8841 31.6133 18.0111 31.4118C18.1426 31.2154 18.2522 31.0408 18.3617 30.8553C18.4631 30.6765 18.53 30.4804 18.559 30.2771C18.5514 30.2559 18.5514 30.2328 18.559 30.2116C18.5692 30.2067 18.5805 30.2042 18.5918 30.2042C18.6032 30.2042 18.6144 30.2067 18.6247 30.2116C18.7874 30.3618 18.9276 30.5345 19.0411 30.7244C19.1605 30.9114 19.2632 31.1086 19.3479 31.3136C19.5763 30.9582 19.7188 30.5548 19.7642 30.1352C19.836 29.5738 19.836 29.0055 19.7642 28.444C19.755 28.4194 19.755 28.3923 19.7642 28.3677C19.7775 28.36 19.7927 28.356 19.808 28.356C19.8234 28.356 19.8386 28.36 19.8519 28.3677C20.3571 28.6149 20.8078 28.9599 21.1777 29.3824C21.5201 29.7844 21.7907 30.2421 21.9775 30.7353C22.1522 31.2035 22.2448 31.698 22.2515 32.1974C22.2798 32.6571 22.2127 33.1176 22.0542 33.5503V33.5721Z" fill="#7A948F"/>
</g>
<defs>
<clipPath id="clip0_3127_126392">
<rect width="40" height="40" fill="white"/>
</clipPath>
</defs>
</svg>
