<svg width="32" height="32" viewBox="0 0 32 32" fill="none" xmlns="http://www.w3.org/2000/svg">
<g filter="url(#filter0_d_3210_172875)">
<path d="M9.59789 25.1595H11.8904C12.1017 25.1595 12.2602 25.2228 12.4186 25.3813L14.0456 26.9977C15.3767 28.3394 16.6127 28.3288 17.9439 26.9977L19.5708 25.3813C19.7398 25.2228 19.8877 25.1595 20.1096 25.1595H22.3915C24.2826 25.1595 25.1595 24.2932 25.1595 22.3915V20.1096C25.1595 19.8877 25.2228 19.7398 25.3813 19.5708L26.9977 17.9439C28.3394 16.6127 28.3288 15.3767 26.9977 14.0456L25.3813 12.4186C25.2228 12.2602 25.1595 12.1017 25.1595 11.8904V9.59789C25.1595 7.7174 24.2932 6.82998 22.3915 6.82998H20.1096C19.8877 6.82998 19.7398 6.77716 19.5708 6.61869L17.9439 5.00231C16.6127 3.66062 15.3767 3.67118 14.0456 5.00231L12.4186 6.61869C12.2602 6.77716 12.1017 6.82998 11.8904 6.82998H9.59789C7.70684 6.82998 6.82998 7.69627 6.82998 9.59789V11.8904C6.82998 12.1017 6.77716 12.2602 6.61869 12.4186L5.00231 14.0456C3.66062 15.3767 3.67118 16.6127 5.00231 17.9439L6.61869 19.5708C6.77716 19.7398 6.82998 19.8877 6.82998 20.1096V22.3915C6.82998 24.2826 7.70684 25.1595 9.59789 25.1595ZM14.8168 21.1555C14.4576 21.1555 14.1618 21.0182 13.8871 20.6484L11.2354 17.3945C11.0769 17.1832 10.9818 16.9402 10.9818 16.7078C10.9818 16.2219 11.3516 15.831 11.8376 15.831C12.1334 15.831 12.3658 15.9366 12.6299 16.2852L14.7745 19.0532L19.2856 11.8059C19.4863 11.4784 19.761 11.3199 20.0462 11.3199C20.5005 11.3199 20.9336 11.6368 20.9336 12.1228C20.9336 12.3658 20.7963 12.6088 20.6695 12.8201L15.7042 20.6484C15.4823 20.9865 15.176 21.1555 14.8168 21.1555Z" fill="#62D3B4"/>
</g>
<path d="M14.8142 21.152C14.455 21.152 14.1592 21.0147 13.8845 20.6449L11.2328 17.391C11.0743 17.1797 10.9792 16.9367 10.9792 16.7043C10.9792 16.2184 11.349 15.8275 11.835 15.8275C12.1308 15.8275 12.3632 15.9331 12.6273 16.2817L14.7719 19.0496L19.283 11.8024C19.4837 11.4749 19.7584 11.3164 20.0436 11.3164C20.4979 11.3164 20.931 11.6333 20.931 12.1193C20.931 12.3623 20.7937 12.6053 20.6669 12.8166L15.7016 20.6449C15.4797 20.983 15.1734 21.152 14.8142 21.152Z" fill="white"/>
<defs>
<filter id="filter0_d_3210_172875" x="3" y="3.5" width="26" height="26" filterUnits="userSpaceOnUse" color-interpolation-filters="sRGB">
<feFlood flood-opacity="0" result="BackgroundImageFix"/>
<feColorMatrix in="SourceAlpha" type="matrix" values="0 0 0 0 0 0 0 0 0 0 0 0 0 0 0 0 0 0 127 0" result="hardAlpha"/>
<feOffset dy="0.5"/>
<feGaussianBlur stdDeviation="0.5"/>
<feComposite in2="hardAlpha" operator="out"/>
<feColorMatrix type="matrix" values="0 0 0 0 0.0724169 0 0 0 0 0.243082 0 0 0 0 0.366667 0 0 0 0.75 0"/>
<feBlend mode="normal" in2="BackgroundImageFix" result="effect1_dropShadow_3210_172875"/>
<feBlend mode="normal" in="SourceGraphic" in2="effect1_dropShadow_3210_172875" result="shape"/>
</filter>
</defs>
</svg>
