<svg width="66" height="59" viewBox="0 0 66 59" fill="none" xmlns="http://www.w3.org/2000/svg">
<rect width="66" height="59" fill="white"/>
<path d="M48.5214 41.7958L48.052 41.9681L48.5214 41.7958ZM52.1078 49.6189L52.4941 49.3015L52.1078 49.6189ZM57.4202 53.3283L57.2553 53.8003L57.4202 53.3283ZM30.6573 9.59624L30.8916 10.038L30.6573 9.59624ZM40.5103 19.9655L40.0409 20.1377L40.5103 19.9655ZM35.3427 9.59624L35.5769 9.15452L35.3427 9.59624ZM8.57977 53.3283L8.41483 52.8563L8.57977 53.3283ZM13.8922 49.6189L14.2785 49.9364L13.8922 49.6189ZM17.948 41.9681L25.9591 20.1377L25.0203 19.7932L17.0092 41.6236L17.948 41.9681ZM40.0409 20.1377L48.052 41.9681L48.9908 41.6236L40.9797 19.7932L40.0409 20.1377ZM48.052 41.9681C49.568 46.0993 50.3618 48.2818 51.7215 49.9364L52.4941 49.3015C51.2681 47.8097 50.5328 45.8256 48.9908 41.6236L48.052 41.9681ZM66 53.5C61.524 53.5 59.408 53.4932 57.5852 52.8563L57.2553 53.8003C59.277 54.5068 61.5994 54.5 66 54.5V53.5ZM51.7215 49.9364C53.1769 51.7074 55.0913 53.0441 57.2553 53.8003L57.5852 52.8563C55.5943 52.1606 53.8331 50.9308 52.4941 49.3015L51.7215 49.9364ZM25.9591 20.1377C27.1211 16.9712 27.9816 14.6277 28.7611 12.9611C29.5506 11.273 30.2053 10.402 30.8916 10.038L30.4231 9.15452C29.4178 9.68766 28.6473 10.8439 27.8553 12.5374C27.0532 14.2525 26.1757 16.645 25.0203 19.7932L25.9591 20.1377ZM40.9797 19.7932C39.8243 16.645 38.9468 14.2525 38.1447 12.5374C37.3527 10.8439 36.5822 9.68766 35.5769 9.15452L35.1084 10.038C35.7947 10.402 36.4494 11.273 37.2389 12.9611C38.0184 14.6277 38.8789 16.9712 40.0409 20.1377L40.9797 19.7932ZM30.8916 10.038C32.2102 9.33863 33.7898 9.33863 35.1084 10.038L35.5769 9.15452C33.9653 8.29978 32.0347 8.29978 30.4231 9.15452L30.8916 10.038ZM0 54.5C4.4006 54.5 6.72297 54.5068 8.74471 53.8003L8.41483 52.8563C6.59195 53.4932 4.47602 53.5 0 53.5V54.5ZM17.0092 41.6236C15.4672 45.8256 14.7319 47.8097 13.5059 49.3015L14.2785 49.9364C15.6382 48.2818 16.432 46.0993 17.948 41.9681L17.0092 41.6236ZM8.74471 53.8003C10.9087 53.0441 12.8231 51.7074 14.2785 49.9364L13.5059 49.3015C12.1669 50.9308 10.4057 52.1606 8.41483 52.8563L8.74471 53.8003Z" fill="#FDD8FB"/>
</svg>
