<svg width="40" height="40" viewBox="0 0 40 40" fill="none" xmlns="http://www.w3.org/2000/svg">
<g clip-path="url(#clip0_3127_126499)">
<path d="M24.0607 15.1882L29.8115 20.9392L17.324 33.4273L12.1967 33.9933C11.5103 34.0692 10.9304 33.4888 11.0068 32.8024L11.5773 27.6713L24.0607 15.1882ZM33.3683 14.332L30.6681 11.6317C29.8259 10.7894 28.4598 10.7894 27.6176 11.6317L25.0773 14.1721L30.828 19.9231L33.3683 17.3827C34.2106 16.54 34.2106 15.1743 33.3683 14.332Z" fill="#7A948F"/>
<path d="M11.7113 6.02351C11.7935 5.73211 12.2065 5.73211 12.2887 6.02351L13.1531 9.0875C13.202 9.26105 13.3919 9.3525 13.5582 9.28257L16.4926 8.04798C16.7717 7.93057 17.0292 8.25351 16.8526 8.49946L14.996 11.0856C14.8909 11.2321 14.9378 11.4376 15.0961 11.5239L17.8909 13.0484C18.1567 13.1934 18.0648 13.5961 17.7624 13.6114L14.5829 13.7723C14.4028 13.7814 14.2714 13.9462 14.3026 14.1238L14.8532 17.2594C14.9056 17.5576 14.5335 17.7368 14.333 17.5099L12.2248 15.1244C12.1054 14.9893 11.8946 14.9893 11.7752 15.1244L9.66704 17.5099C9.46654 17.7368 9.09439 17.5576 9.14676 17.2594L9.69743 14.1238C9.72862 13.9462 9.5972 13.7814 9.41711 13.7723L6.2376 13.6114C5.93522 13.5961 5.8433 13.1934 6.10911 13.0484L8.90394 11.5239C9.06224 11.4376 9.10914 11.2321 9.00398 11.0856L7.14737 8.49946C6.9708 8.25351 7.22834 7.93057 7.50741 8.04798L10.4418 9.28257C10.6081 9.3525 10.798 9.26105 10.8469 9.0875L11.7113 6.02351Z" fill="#7A948F"/>
</g>
<defs>
<clipPath id="clip0_3127_126499">
<rect width="40" height="40" fill="white"/>
</clipPath>
</defs>
</svg>
