<svg width="32" height="32" viewBox="0 0 32 32" fill="none" xmlns="http://www.w3.org/2000/svg">
<path d="M8.09343 28H23.9066C26.6442 28 28 26.6442 28 23.9587V8.04128C28 5.35579 26.6442 4 23.9066 4H8.09343C5.36882 4 4 5.34275 4 8.04128V23.9587C4 26.6573 5.36882 28 8.09343 28ZM8.1195 25.9011C6.81586 25.9011 6.09886 25.2102 6.09886 23.8544V8.14557C6.09886 6.78979 6.81586 6.09886 8.1195 6.09886H23.8805C25.1711 6.09886 25.9011 6.78979 25.9011 8.14557V23.8544C25.9011 25.2102 25.1711 25.9011 23.8805 25.9011H8.1195Z" fill="white"/>
<path d="M10 16.0619C10 16.7007 10.4432 17.1309 11.1081 17.1309H14.9408V20.9766C14.9408 21.6285 15.384 22.0847 16.0228 22.0847C16.6746 22.0847 17.1309 21.6415 17.1309 20.9766V17.1309H20.9766C21.6285 17.1309 22.0847 16.7007 22.0847 16.0619C22.0847 15.4101 21.6285 14.9538 20.9766 14.9538H17.1309V11.1211C17.1309 10.4563 16.6746 10 16.0228 10C15.384 10 14.9408 10.4563 14.9408 11.1211V14.9538H11.1081C10.4432 14.9538 10 15.4101 10 16.0619Z" fill="white"/>
</svg>
