<svg width="18" height="20" viewBox="0 0 18 20" fill="none" xmlns="http://www.w3.org/2000/svg">
<path d="M8.42577 4.02197C8.7578 4.02197 9.05939 3.94173 9.33055 3.78125C9.60724 3.61523 9.82583 3.39665 9.98631 3.12549C10.1468 2.8488 10.227 2.54167 10.227 2.2041C10.227 1.87207 10.1468 1.57048 9.98631 1.29932C9.82583 1.02816 9.60724 0.812337 9.33055 0.651855C9.05939 0.48584 8.7578 0.402832 8.42577 0.402832C8.0882 0.402832 7.78107 0.48584 7.50438 0.651855C7.23322 0.812337 7.01463 1.02816 6.84862 1.29932C6.68814 1.57048 6.60789 1.87207 6.60789 2.2041C6.60789 2.54167 6.68814 2.8488 6.84862 3.12549C7.01463 3.39665 7.23322 3.61523 7.50438 3.78125C7.78107 3.94173 8.0882 4.02197 8.42577 4.02197ZM0.780746 19.2539C0.941228 19.4033 1.13491 19.4863 1.3618 19.5029C1.59422 19.5195 1.80174 19.4365 1.98436 19.2539L5.6201 15.6265C5.73631 15.5213 5.80825 15.4162 5.83592 15.311C5.86359 15.2059 5.87189 15.0731 5.86082 14.9126L5.6533 12.5718C5.64777 12.4998 5.66991 12.45 5.71971 12.4224C5.77505 12.3892 5.82762 12.3975 5.87743 12.4473L8.48387 14.6885L9.8369 18.897C9.91437 19.1405 10.061 19.3092 10.2768 19.4033C10.4927 19.4974 10.7057 19.514 10.916 19.4531C11.154 19.3812 11.3255 19.2401 11.4306 19.0298C11.5358 18.8195 11.5496 18.6009 11.4722 18.374L10.0693 13.9414C10.0472 13.875 10.0167 13.8114 9.97801 13.7505C9.94481 13.6896 9.9033 13.6343 9.8535 13.5845L7.04784 10.812L8.8491 7.20947C8.88784 7.132 8.94318 7.08773 9.01512 7.07666C9.09259 7.06006 9.16453 7.08496 9.23094 7.15137L11.248 9.18506C11.3421 9.2736 11.4611 9.34277 11.605 9.39258L15.6474 10.6045C15.8135 10.6543 16.0099 10.6377 16.2368 10.5547C16.4637 10.4717 16.6214 10.2918 16.7099 10.0151C16.7764 9.78825 16.7514 9.56966 16.6352 9.35938C16.5246 9.14909 16.3558 9.01074 16.1289 8.94434L12.3022 7.81543L10.1191 5.60742C9.64321 5.13151 9.05939 4.89355 8.36766 4.89355H2.59032C2.4243 4.89355 2.27212 4.93783 2.13377 5.02637C2.00096 5.10938 1.89858 5.22282 1.82664 5.3667L0.207992 8.5874C0.102849 8.79769 0.0834803 9.01628 0.149887 9.24316C0.221827 9.46452 0.368474 9.62777 0.589828 9.73291C0.811182 9.83252 1.02977 9.84912 1.24559 9.78271C1.46694 9.71077 1.63296 9.56413 1.74364 9.34277L3.11327 6.61182H4.82323C4.92284 6.61182 4.99478 6.65055 5.03905 6.72803C5.08332 6.8055 5.08332 6.88851 5.03905 6.97705L3.78563 9.49219C3.56427 9.94043 3.42316 10.4163 3.36229 10.9199C3.30695 11.418 3.34015 11.9105 3.4619 12.3975L4.05955 14.7466L0.764144 18.0254C0.598129 18.1859 0.515121 18.3879 0.515121 18.6313C0.520655 18.8748 0.609196 19.0824 0.780746 19.2539ZM15.8882 15.4771C16.2534 15.4771 16.5854 15.3885 16.8843 15.2114C17.1831 15.0288 17.421 14.7909 17.5981 14.4976C17.7752 14.1987 17.8638 13.8667 17.8638 13.5015C17.8638 13.1418 17.7752 12.8125 17.5981 12.5137C17.421 12.2148 17.1831 11.9769 16.8843 11.7998C16.5854 11.6227 16.2534 11.5342 15.8882 11.5342C15.5285 11.5342 15.1992 11.6227 14.9004 11.7998C14.6015 11.9769 14.3636 12.2148 14.1865 12.5137C14.0094 12.8125 13.9209 13.1418 13.9209 13.5015C13.9209 13.8667 14.0094 14.1987 14.1865 14.4976C14.3636 14.7909 14.6015 15.0288 14.9004 15.2114C15.1992 15.3885 15.5285 15.4771 15.8882 15.4771Z" fill="black"/>
</svg>
