<svg width="15" height="20" viewBox="0 0 15 20" fill="none" xmlns="http://www.w3.org/2000/svg">
<path d="M8.79084 4.4707C9.12287 4.4707 9.42447 4.39046 9.69563 4.22998C9.97232 4.06396 10.1909 3.84538 10.3514 3.57422C10.5174 3.29753 10.6004 2.99316 10.6004 2.66113C10.6004 2.32357 10.5174 2.01921 10.3514 1.74805C10.1909 1.47689 9.97232 1.26107 9.69563 1.10059C9.42447 0.93457 9.12287 0.851562 8.79084 0.851562C8.45328 0.851562 8.14891 0.93457 7.87776 1.10059C7.6066 1.26107 7.38801 1.47689 7.22199 1.74805C7.06151 2.01921 6.98127 2.32357 6.98127 2.66113C6.98127 2.99316 7.06151 3.29753 7.22199 3.57422C7.38801 3.84538 7.6066 4.06396 7.87776 4.22998C8.14891 4.39046 8.45328 4.4707 8.79084 4.4707ZM5.95197 11.6924L9.13117 13.4771L7.08088 15.2368C6.85953 15.425 6.74332 15.6297 6.73225 15.8511C6.72118 16.0669 6.78205 16.2495 6.91486 16.3989C7.05321 16.5539 7.23306 16.6396 7.45442 16.6562C7.6813 16.6729 7.90819 16.5843 8.13508 16.3906L10.9988 13.9502C11.1317 13.8395 11.2119 13.6984 11.2396 13.5269C11.2728 13.3498 11.2562 13.1755 11.1898 13.0039C11.1234 12.8324 11.0127 12.6968 10.8577 12.5972L7.74494 10.5552L8.3592 8.40527C8.40347 8.25033 8.49478 8.16455 8.63313 8.14795C8.77147 8.13135 8.88768 8.18945 8.98176 8.32227L9.89485 9.65869C9.99999 9.81364 10.1411 9.91878 10.3182 9.97412C10.5008 10.0239 10.6807 10.0073 10.8577 9.92432L13.4891 8.75391C13.7215 8.64876 13.8765 8.50212 13.9539 8.31396C14.0369 8.12581 14.0286 7.9266 13.929 7.71631C13.8239 7.50602 13.6772 7.37321 13.4891 7.31787C13.3009 7.257 13.0906 7.27913 12.8582 7.38428L10.7747 8.30566L9.33869 6.32178C8.96239 5.80713 8.52522 5.44189 8.02717 5.22607C7.52912 5.01025 6.89826 4.93001 6.13459 4.98535L3.22102 5.19287C2.9886 5.20947 2.79768 5.28971 2.64826 5.43359C2.49885 5.57747 2.40754 5.76839 2.37434 6.00635L1.9842 8.96143C1.951 9.22152 1.9925 9.43457 2.10871 9.60059C2.22492 9.7666 2.39647 9.86068 2.62336 9.88281C2.85578 9.90495 3.04393 9.85238 3.18781 9.7251C3.33169 9.59782 3.42024 9.40413 3.45344 9.14404L3.81037 6.72852L4.98078 6.64551C5.1136 6.63444 5.22704 6.67318 5.32111 6.76172C5.42072 6.84473 5.44839 6.96647 5.40412 7.12695L4.72346 9.50098C4.62385 9.85514 4.59618 10.1512 4.64045 10.3892C4.69026 10.6216 4.78433 10.818 4.92268 10.9785C5.06102 11.1335 5.22151 11.2663 5.40412 11.377C5.59227 11.4876 5.77489 11.5928 5.95197 11.6924ZM0.398751 18.8643C0.553699 18.9915 0.739083 19.0552 0.954904 19.0552C1.17626 19.0552 1.39208 18.9528 1.60236 18.748L4.29182 16.0835C4.40249 15.9728 4.47997 15.8843 4.52424 15.8179C4.57404 15.7515 4.63492 15.6325 4.70686 15.4609L5.83576 12.5391L5.56184 12.3896C5.24641 12.2181 4.97525 12.0465 4.74836 11.875C4.52701 11.6979 4.34162 11.5153 4.19221 11.3271L3.20442 14.8218L0.415353 17.6025C0.199533 17.8184 0.0999233 18.0452 0.116525 18.2832C0.13866 18.5212 0.232736 18.7148 0.398751 18.8643Z" fill="#FDD8FB"/>
</svg>
