<svg width="40" height="41" viewBox="0 0 40 41" fill="none" xmlns="http://www.w3.org/2000/svg">
<path d="M10.1168 35.5H29.8832C33.3053 35.5 35 33.8053 35 30.4484V10.5516C35 7.19473 33.3053 5.5 29.8832 5.5H10.1168C6.71103 5.5 5 7.17844 5 10.5516V30.4484C5 33.8216 6.71103 35.5 10.1168 35.5ZM10.1494 32.8764C8.51983 32.8764 7.62357 32.0128 7.62357 30.318V10.682C7.62357 8.98724 8.51983 8.12357 10.1494 8.12357H29.8506C31.4639 8.12357 32.3764 8.98724 32.3764 10.682V30.318C32.3764 32.0128 31.4639 32.8764 29.8506 32.8764H10.1494ZM12.4633 20.4756C12.4633 21.274 13.0174 21.8118 13.8485 21.8118H18.6393V26.619C18.6393 27.4337 19.1934 28.0041 19.9919 28.0041C20.8066 28.0041 21.377 27.45 21.377 26.619V21.8118H26.1841C26.9989 21.8118 27.5693 21.274 27.5693 20.4756C27.5693 19.6608 26.9989 19.0904 26.1841 19.0904H21.377V14.2996C21.377 13.4685 20.8066 12.8982 19.9919 12.8982C19.1934 12.8982 18.6393 13.4685 18.6393 14.2996V19.0904H13.8485C13.0174 19.0904 12.4633 19.6608 12.4633 20.4756Z" fill="#B3EFDE"/>
</svg>
