<svg width="66" height="59" viewBox="0 0 66 59" fill="none" xmlns="http://www.w3.org/2000/svg">
<rect width="66" height="59" fill="white"/>
<path d="M48.4398 51.2639L48.1825 51.6926L48.4398 51.2639ZM51.8918 53.1516L51.7071 53.6162L51.8918 53.1516ZM54.3868 53.8426L54.3061 54.3361L54.3868 53.8426ZM30.4261 44.2736L30.3189 43.7852L30.4261 44.2736ZM42.8783 47.927L42.6211 48.3557L42.8783 47.927ZM11.6132 53.8426L11.5325 53.3492L11.6132 53.8426ZM14.1082 53.1516L14.2929 53.6162L14.1082 53.1516ZM7.68191 53.5H0V54.5H7.68191V53.5ZM17.8175 51.6926L23.3789 48.3557L22.8644 47.4982L17.303 50.8351L17.8175 51.6926ZM42.6211 48.3557L48.1825 51.6926L48.697 50.8351L43.1356 47.4982L42.6211 48.3557ZM58.3181 54.5H66V53.5H58.3181V54.5ZM48.1825 51.6926C49.8664 52.7029 50.7547 53.2377 51.7071 53.6162L52.0765 52.6869C51.2169 52.3453 50.4079 51.8616 48.697 50.8351L48.1825 51.6926ZM58.3181 53.5C56.3229 53.5 55.3803 53.4985 54.4675 53.3492L54.3061 54.3361C55.3175 54.5015 56.3544 54.5 58.3181 54.5V53.5ZM51.7071 53.6162C52.5449 53.9492 53.4163 54.1905 54.3061 54.3361L54.4675 53.3492C53.6489 53.2153 52.8473 52.9933 52.0765 52.6869L51.7071 53.6162ZM23.3789 48.3557C27.0007 46.1827 28.7152 45.1612 30.5334 44.7619L30.3189 43.7852C28.3029 44.2279 26.4259 45.3614 22.8644 47.4982L23.3789 48.3557ZM43.1356 47.4982C39.5741 45.3614 37.6971 44.2279 35.6811 43.7852L35.4666 44.7619C37.2848 45.1612 38.9993 46.1827 42.6211 48.3557L43.1356 47.4982ZM30.5334 44.7619C32.1584 44.4051 33.8416 44.4051 35.4666 44.7619L35.6811 43.7852C33.9147 43.3973 32.0853 43.3973 30.3189 43.7852L30.5334 44.7619ZM7.68191 54.5C9.64565 54.5 10.6825 54.5015 11.6939 54.3361L11.5325 53.3492C10.6197 53.4985 9.67707 53.5 7.68191 53.5V54.5ZM17.303 50.8351C15.5921 51.8616 14.7831 52.3453 13.9235 52.6869L14.2929 53.6162C15.2453 53.2377 16.1336 52.7029 17.8175 51.6926L17.303 50.8351ZM11.6939 54.3361C12.5837 54.1905 13.4551 53.9492 14.2929 53.6162L13.9235 52.6869C13.1527 52.9933 12.3511 53.2153 11.5325 53.3492L11.6939 54.3361Z" fill="#FDD8FB"/>
</svg>
