<svg width="32" height="32" viewBox="0 0 32 32" fill="none" xmlns="http://www.w3.org/2000/svg">
<path d="M12.1976 26.5H19.8679C21.5142 26.5 22.5992 25.4135 22.5992 23.793V8.19759C22.5992 6.58653 21.5142 5.5 19.8679 5.5H12.1976C10.5232 5.5 9.39141 6.58653 9.39141 8.19759V23.8024C9.39141 25.4135 10.5232 26.5 12.1976 26.5ZM12.5998 24.3176C11.8889 24.3176 11.4773 23.9335 11.4773 23.2404V8.75959C11.4773 8.06646 11.8889 7.68243 12.5998 7.68243H13.8439C13.9936 7.68243 14.0778 7.75736 14.0778 7.90723V8.16949C14.0778 8.58162 14.349 8.87199 14.77 8.87199H17.2394C17.651 8.87199 17.9316 8.58162 17.9316 8.16949V7.90723C17.9316 7.75736 18.0064 7.68243 18.1561 7.68243H19.4002C20.1017 7.68243 20.5227 8.07583 20.5227 8.75959V23.2404C20.5227 23.9242 20.1017 24.3176 19.4002 24.3176H12.5998ZM3.77901 22.4068C4.11576 22.0134 4.00351 21.5169 3.6387 21.1048C2.45075 19.7748 1.77726 17.9764 1.77726 16.0094C1.77726 14.0424 2.44139 12.2346 3.6387 10.9139C4.01286 10.5018 4.11576 10.0054 3.77901 9.61195C3.43291 9.19982 2.81555 9.16236 2.35721 9.65879C0.860567 11.2698 0 13.574 0 16.0094C0 18.4541 0.823151 20.7208 2.35721 22.3599C2.82491 22.8564 3.43291 22.8189 3.77901 22.4068ZM28.2116 22.4068C28.5671 22.8189 29.1657 22.8564 29.6334 22.3599C31.1768 20.7208 32 18.4541 32 16.0094C32 13.574 31.1301 11.2698 29.6334 9.65879C29.1751 9.16236 28.5671 9.19982 28.2116 9.61195C27.8842 10.0054 27.9871 10.5018 28.3613 10.9139C29.5586 12.244 30.2134 14.0424 30.2134 16.0094C30.2134 17.9764 29.5493 19.7748 28.3613 21.1048C27.9871 21.5169 27.8842 22.0134 28.2116 22.4068ZM6.59456 19.7092C6.9126 19.3252 6.791 18.8475 6.47296 18.4166C5.99591 17.7984 5.71529 16.8992 5.71529 16.0094C5.71529 15.1195 5.99591 14.2203 6.47296 13.5928C6.791 13.1619 6.9126 12.6936 6.59456 12.3002C6.24847 11.888 5.59369 11.8693 5.17276 12.3564C4.37767 13.3024 3.93803 14.6137 3.93803 16.0094C3.93803 17.405 4.37767 18.7163 5.17276 19.653C5.59369 20.1494 6.24847 20.1307 6.59456 19.7092ZM25.4054 19.7092C25.7515 20.1307 26.4063 20.1494 26.8272 19.653C27.6223 18.7163 28.062 17.405 28.062 16.0094C28.062 14.6137 27.6223 13.3024 26.8272 12.3564C26.4063 11.8693 25.7515 11.888 25.4054 12.3002C25.0874 12.6936 25.209 13.1619 25.5177 13.5928C26.0041 14.2203 26.2847 15.1195 26.2847 16.0094C26.2847 16.8992 26.0041 17.7984 25.5177 18.4166C25.209 18.8475 25.0874 19.3252 25.4054 19.7092ZM13.9655 23.5495H18.0438C18.3338 23.5495 18.5396 23.3528 18.5396 23.0531C18.5396 22.7533 18.3338 22.5473 18.0438 22.5473H13.9655C13.6755 22.5473 13.4604 22.7533 13.4604 23.0531C13.4604 23.3528 13.6755 23.5495 13.9655 23.5495Z" fill="black"/>
</svg>
