<svg width="11" height="21" viewBox="0 0 11 21" fill="none" xmlns="http://www.w3.org/2000/svg">
<path d="M5.79639 6.16357C6.08447 6.16357 6.3457 6.09277 6.58008 5.95117C6.81934 5.80957 7.00977 5.61914 7.15137 5.37988C7.29297 5.14062 7.36377 4.87451 7.36377 4.58154C7.36377 4.29346 7.29297 4.03223 7.15137 3.79785C7.00977 3.55859 6.81934 3.36816 6.58008 3.22656C6.3457 3.08496 6.08447 3.01416 5.79639 3.01416C5.50342 3.01416 5.2373 3.08496 4.99805 3.22656C4.75879 3.36816 4.56836 3.55859 4.42676 3.79785C4.28516 4.03223 4.21436 4.29346 4.21436 4.58154C4.21436 4.87451 4.28516 5.14062 4.42676 5.37988C4.56836 5.61914 4.75879 5.80957 4.99805 5.95117C5.2373 6.09277 5.50342 6.16357 5.79639 6.16357ZM4.73438 20.6729C4.9248 20.6729 5.09082 20.6021 5.23242 20.4604C5.37402 20.3188 5.44482 20.1528 5.44482 19.9624V16.1245L5.79639 13.2754L6.14062 16.1245V19.9624C6.14062 20.1528 6.21143 20.3188 6.35303 20.4604C6.49463 20.6021 6.66064 20.6729 6.85107 20.6729C7.04639 20.6729 7.2124 20.6021 7.34912 20.4604C7.49072 20.3188 7.56152 20.1528 7.56152 19.9624V9.74512C7.56152 9.70117 7.58105 9.67676 7.62012 9.67188C7.66406 9.66211 7.6958 9.67676 7.71533 9.71582C8.01318 10.2676 8.26953 10.7925 8.48438 11.2905C8.7041 11.7837 8.88477 12.2207 9.02637 12.6016C9.17285 12.9824 9.28027 13.2803 9.34863 13.4951C9.41699 13.6758 9.53662 13.8101 9.70752 13.8979C9.8833 13.9858 10.064 13.998 10.2495 13.9346C10.396 13.8857 10.5107 13.8003 10.5938 13.6782C10.6816 13.5513 10.7256 13.4146 10.7256 13.2681C10.7256 13.1851 10.7134 13.1094 10.689 13.041C10.6792 13.0117 10.6255 12.8604 10.5278 12.5869C10.4302 12.3086 10.2959 11.957 10.125 11.5322C9.9541 11.1025 9.75146 10.6436 9.51709 10.1553C9.2876 9.66211 9.03369 9.18359 8.75537 8.71973C8.48193 8.25586 8.19385 7.85059 7.89111 7.50391C7.72998 7.31836 7.53467 7.17432 7.30518 7.07178C7.08057 6.96924 6.83887 6.91797 6.58008 6.91797H5.00537C4.75146 6.91797 4.50977 6.96924 4.28027 7.07178C4.05078 7.17432 3.85791 7.31836 3.70166 7.50391C3.39404 7.85059 3.10107 8.25586 2.82275 8.71973C2.54932 9.18359 2.29785 9.66211 2.06836 10.1553C1.83887 10.6436 1.63867 11.1025 1.46777 11.5322C1.29688 11.957 1.1626 12.3086 1.06494 12.5869C0.967285 12.8604 0.913574 13.0117 0.903809 13.041C0.879395 13.1094 0.867188 13.1875 0.867188 13.2754C0.867188 13.4219 0.908691 13.5562 0.991699 13.6782C1.07959 13.8003 1.19678 13.8857 1.34326 13.9346C1.52393 13.998 1.70215 13.9858 1.87793 13.8979C2.05371 13.8101 2.17334 13.6758 2.23682 13.4951C2.31006 13.2803 2.41748 12.9824 2.55908 12.6016C2.70068 12.2207 2.87891 11.7837 3.09375 11.2905C3.31348 10.7925 3.57471 10.2676 3.87744 9.71582C3.89209 9.67676 3.92139 9.66211 3.96533 9.67188C4.00928 9.67676 4.03125 9.70117 4.03125 9.74512V19.9624C4.03125 20.1528 4.09961 20.3188 4.23633 20.4604C4.37793 20.6021 4.54395 20.6729 4.73438 20.6729ZM5.79639 1.57129C6.67041 1.57129 7.4126 1.83252 8.02295 2.35498C8.63818 2.87256 9.10693 3.62451 9.4292 4.61084C9.75146 5.59229 9.9126 6.78125 9.9126 8.17773V13.2754H10.7256V8.17773C10.7256 6.60547 10.5327 5.26758 10.147 4.16406C9.76611 3.05566 9.20703 2.21094 8.46973 1.62988C7.7373 1.04883 6.84619 0.758301 5.79639 0.758301C4.74658 0.758301 3.85547 1.04883 3.12305 1.62988C2.39062 2.21094 1.83154 3.05566 1.4458 4.16406C1.06494 5.26758 0.874512 6.60547 0.874512 8.17773V13.2827H1.6875V8.17773C1.6875 6.78125 1.84619 5.59229 2.16357 4.61084C2.48584 3.62451 2.95215 2.87256 3.5625 2.35498C4.17773 1.83252 4.92236 1.57129 5.79639 1.57129Z" fill="black"/>
</svg>
