<svg width="24" height="24" viewBox="0 0 24 24" fill="none" xmlns="http://www.w3.org/2000/svg">
<path d="M2.98263 6.97869H4.6799C5.22581 6.97869 5.67246 6.53125 5.67246 5.99432C5.67246 5.4375 5.22581 5 4.6799 5H2.98263C2.43672 5 2 5.4375 2 5.99432C2 6.53125 2.43672 6.97869 2.98263 6.97869ZM8.63027 6.78977H21.196C21.6427 6.78977 22 6.44176 22 5.99432C22 5.53693 21.6427 5.18892 21.196 5.18892H8.63027C8.1737 5.18892 7.8263 5.53693 7.8263 5.99432C7.8263 6.44176 8.1737 6.78977 8.63027 6.78977ZM2.98263 12.9943H4.6799C5.22581 12.9943 5.67246 12.5469 5.67246 12C5.67246 11.4531 5.22581 11.0156 4.6799 11.0156H2.98263C2.43672 11.0156 2 11.4531 2 12C2 12.5469 2.43672 12.9943 2.98263 12.9943ZM8.63027 12.8054H21.196C21.6427 12.8054 22 12.4474 22 12C22 11.5526 21.6427 11.2045 21.196 11.2045H8.63027C8.1737 11.2045 7.8263 11.5526 7.8263 12C7.8263 12.4474 8.1737 12.8054 8.63027 12.8054ZM2.98263 19H4.6799C5.22581 19 5.67246 18.5526 5.67246 18.0156C5.67246 17.4588 5.22581 17.0213 4.6799 17.0213H2.98263C2.43672 17.0213 2 17.4588 2 18.0156C2 18.5526 2.43672 19 2.98263 19ZM8.63027 18.8111H21.196C21.6427 18.8111 22 18.4631 22 18.0156C22 17.5582 21.6427 17.2102 21.196 17.2102H8.63027C8.1737 17.2102 7.8263 17.5582 7.8263 18.0156C7.8263 18.4631 8.1737 18.8111 8.63027 18.8111Z" fill="#4A4A4A"/>
</svg>
