<svg width="32" height="32" viewBox="0 0 32 32" fill="none" xmlns="http://www.w3.org/2000/svg">
<path d="M31 12.9779C31 11.0185 29.8594 10 27.6639 10H4.31153C2.11611 10 1 11.0185 1 12.9779V19.0221C1 20.9816 2.12837 22 4.32379 22H27.6762C29.8716 22 31 20.9816 31 19.0221V12.9779ZM29.0131 13.2989V18.7011C29.0131 19.6974 28.4244 20.2177 27.3573 20.2177H4.61815C3.57563 20.2177 2.97465 19.6974 2.97465 18.7011V13.2989C2.97465 12.3026 3.57563 11.7823 4.63042 11.7823H4.69174V16.9963C4.69174 17.2509 4.91251 17.4391 5.1946 17.4391C5.48896 17.4391 5.6852 17.2399 5.6852 16.9852V11.7823H6.86263V15.048C6.86263 15.3137 7.0834 15.4908 7.35323 15.4908C7.65985 15.4908 7.85609 15.3026 7.85609 15.0369V11.7823H9.00899V15.048C9.00899 15.3137 9.24203 15.4908 9.51186 15.4908C9.80621 15.4908 10.0147 15.3026 10.0147 15.0369V11.7823H11.1676V15.048C11.1676 15.3137 11.3884 15.4908 11.6705 15.4908C11.9648 15.4908 12.1611 15.3026 12.1611 15.0369V11.7823H13.3385V15.048C13.3385 15.3137 13.5593 15.4908 13.8291 15.4908C14.1357 15.4908 14.332 15.3026 14.332 15.0369V11.7823H15.5094V16.9963C15.5094 17.2509 15.7302 17.4391 16 17.4391C16.3066 17.4391 16.5029 17.2399 16.5029 16.9852V11.7823H17.668V15.048C17.668 15.3137 17.8888 15.4908 18.1586 15.4908C18.453 15.4908 18.6615 15.3026 18.6615 15.0369V11.7823H19.8267V15.048C19.8267 15.3137 20.0474 15.4908 20.3295 15.4908C20.6239 15.4908 20.8201 15.3026 20.8201 15.0369V11.7823H21.9853V15.048C21.9853 15.3137 22.206 15.4908 22.4759 15.4908C22.7825 15.4908 22.9787 15.3026 22.9787 15.0369V11.7823H24.1562V15.048C24.1562 15.3137 24.3769 15.4908 24.6468 15.4908C24.9411 15.4908 25.1496 15.3026 25.1496 15.0369V11.7823H26.3148V16.9963C26.3148 17.2509 26.5356 17.4391 26.8177 17.4391C27.112 17.4391 27.3083 17.2399 27.3083 16.9852V11.7823H27.3696C28.4244 11.7823 29.0131 12.3026 29.0131 13.2989Z" fill="black"/>
</svg>
