<svg width="75" height="75" viewBox="0 0 75 75" fill="none" xmlns="http://www.w3.org/2000/svg">
<path d="M0 22.4647C0 14.6014 0 10.6697 1.53032 7.66623C2.87643 5.02435 5.02435 2.87643 7.66623 1.53032C10.6697 0 14.6014 0 22.4648 0H52.4178C60.2812 0 64.2129 0 67.2163 1.53032C69.8582 2.87643 72.0061 5.02435 73.3522 7.66623C74.8825 10.6697 74.8825 14.6014 74.8825 22.4648V52.4178C74.8825 60.2812 74.8825 64.2129 73.3522 67.2163C72.0061 69.8582 69.8582 72.0061 67.2163 73.3522C64.2129 74.8825 60.2812 74.8825 52.4178 74.8825H22.4647C14.6014 74.8825 10.6697 74.8825 7.66623 73.3522C5.02435 72.0061 2.87643 69.8582 1.53032 67.2163C0 64.2129 0 60.2812 0 52.4178V22.4647Z" fill="white"/>
<path d="M21.646 26.9112C24.5539 26.9112 26.9112 24.5539 26.9112 21.646C26.9112 18.7382 24.5539 16.3809 21.646 16.3809C18.7382 16.3809 16.3809 18.7382 16.3809 21.646C16.3809 24.5539 18.7382 26.9112 21.646 26.9112Z" fill="#FF0000"/>
<path d="M21.646 42.7061C24.5539 42.7061 26.9112 40.3488 26.9112 37.441C26.9112 34.5331 24.5539 32.1758 21.646 32.1758C18.7382 32.1758 16.3809 34.5331 16.3809 37.441C16.3809 40.3488 18.7382 42.7061 21.646 42.7061Z" fill="#FF0000"/>
<path d="M37.4419 26.9112C40.3498 26.9112 42.7071 24.5539 42.7071 21.646C42.7071 18.7382 40.3498 16.3809 37.4419 16.3809C34.5341 16.3809 32.1768 18.7382 32.1768 21.646C32.1768 24.5539 34.5341 26.9112 37.4419 26.9112Z" fill="#FF0000"/>
<path d="M37.4419 42.7061C40.3498 42.7061 42.7071 40.3488 42.7071 37.441C42.7071 34.5331 40.3498 32.1758 37.4419 32.1758C34.5341 32.1758 32.1768 34.5331 32.1768 37.441C32.1768 40.3488 34.5341 42.7061 37.4419 42.7061Z" fill="#FF0000"/>
<path d="M53.2369 26.9112C56.1447 26.9112 58.502 24.5539 58.502 21.646C58.502 18.7382 56.1447 16.3809 53.2369 16.3809C50.329 16.3809 47.9717 18.7382 47.9717 21.646C47.9717 24.5539 50.329 26.9112 53.2369 26.9112Z" fill="#FED002"/>
<path d="M53.2369 42.7061C56.1447 42.7061 58.502 40.3488 58.502 37.441C58.502 34.5331 56.1447 32.1758 53.2369 32.1758C50.329 32.1758 47.9717 34.5331 47.9717 37.441C47.9717 40.3488 50.329 42.7061 53.2369 42.7061Z" fill="#FED002"/>
<path d="M53.2369 58.502C56.1447 58.502 58.502 56.1447 58.502 53.2369C58.502 50.329 56.1447 47.9717 53.2369 47.9717C50.329 47.9717 47.9717 50.329 47.9717 53.2369C47.9717 56.1447 50.329 58.502 53.2369 58.502Z" fill="#FED002"/>
<path d="M37.4295 47.9717H21.6582C20.9651 47.9717 20.2789 48.1078 19.6386 48.3724C18.9983 48.637 18.4166 49.025 17.9265 49.5139C17.4365 50.0028 17.0478 50.5831 16.7826 51.2219C16.5174 51.8608 16.3809 52.5456 16.3809 53.237C16.3809 53.9284 16.5174 54.613 16.7826 55.2518C17.0478 55.8906 17.4365 56.4712 17.9265 56.9601C18.4166 57.449 18.9983 57.8367 19.6386 58.1013C20.2789 58.3659 20.9651 58.502 21.6582 58.502H37.4295C38.1225 58.502 38.8087 58.3659 39.449 58.1013C40.0893 57.8367 40.6711 57.449 41.1611 56.9601C41.6511 56.4712 42.0398 55.8906 42.305 55.2518C42.5703 54.613 42.7067 53.9284 42.7067 53.237C42.7067 52.5456 42.5703 51.8608 42.305 51.2219C42.0398 50.5831 41.6511 50.0028 41.1611 49.5139C40.6711 49.025 40.0893 48.637 39.449 48.3724C38.8087 48.1078 38.1225 47.9717 37.4295 47.9717Z" fill="#87CB00"/>
</svg>
