<svg width="62" height="68" viewBox="0 0 62 68" fill="none" xmlns="http://www.w3.org/2000/svg">
<path d="M14.1266 0.000637037C14.0988 0.000637037 14.071 0.00937241 14.0436 0.0135896C13.8257 0.0394944 13.6193 0.147331 13.4768 0.310291C13.4768 0.310291 10.1363 4.18606 6.78685 9.11872C3.4371 14.0518 0 19.9752 0 24.6181C0 32.0557 6.36657 38 14.1541 38C21.9418 38 28.3082 32.0558 28.3082 24.6181C28.3082 19.9751 24.871 14.0515 21.5213 9.11872C18.1719 4.18568 14.8314 0.310291 14.8314 0.310291C14.6604 0.110279 14.3929 -0.00719207 14.1264 0.000341704L14.1266 0.000637037Z" fill="#00AED3" fill-opacity="0.2"/>
<path d="M36.856 0.00112947C36.8068 0.00112947 36.7576 0.0166173 36.7089 0.0240945C36.3227 0.0700238 35.9567 0.261219 35.704 0.550147C35.704 0.550147 29.7812 7.4219 23.8427 16.1675C17.9036 24.9138 11.8096 35.4162 11.8096 43.648C11.8096 56.8349 23.0975 67.3742 36.9048 67.3742C50.7125 67.3742 62 56.8351 62 43.648C62 35.416 55.906 24.9134 49.9669 16.1675C44.0284 7.42122 38.1057 0.550147 38.1057 0.550147C37.8026 0.195526 37.3283 -0.0127516 36.8557 0.000605842L36.856 0.00112947Z" fill="url(#paint0_linear_789_169042)"/>
<path d="M29.0156 49.375C27.6641 49.375 26.4688 49.0625 25.4297 48.4375C24.3984 47.8047 23.5742 46.8711 22.957 45.6367C22.293 44.2852 21.9609 42.6328 21.9609 40.6797C21.9609 37.8828 22.5898 35.6875 23.8477 34.0938C25.1055 32.5 26.832 31.7031 29.0273 31.7031C30.3789 31.7031 31.5469 31.9609 32.5312 32.4766C33.5234 32.9844 34.2266 33.6484 34.6406 34.4688C34.8047 34.7969 34.8867 35.1133 34.8867 35.418C34.8867 35.8242 34.7539 36.1602 34.4883 36.4258C34.2227 36.6836 33.8633 36.8125 33.4102 36.8125C33.0742 36.8125 32.7852 36.7422 32.543 36.6016C32.3008 36.4609 32.043 36.2305 31.7695 35.9102C31.3789 35.418 30.9648 35.0625 30.5273 34.8438C30.0977 34.6172 29.5938 34.5039 29.0156 34.5039C27.8359 34.5039 26.9336 35.0273 26.3086 36.0742C25.6836 37.1211 25.3633 38.5664 25.3477 40.4102V40.5859H25.418C25.7539 39.7734 26.3281 39.1172 27.1406 38.6172C27.9531 38.1172 28.9141 37.8672 30.0234 37.8672C31.6484 37.8672 32.9727 38.3867 33.9961 39.4258C35.0195 40.457 35.5312 41.7734 35.5312 43.375C35.5312 45.125 34.918 46.5625 33.6914 47.6875C32.4648 48.8125 30.9062 49.375 29.0156 49.375ZM26.7656 45.6719C27.3672 46.2656 28.1016 46.5625 28.9688 46.5625C29.8359 46.5625 30.5703 46.2695 31.1719 45.6836C31.7734 45.0977 32.0781 44.3789 32.0859 43.5273C32.0859 42.6367 31.793 41.9062 31.207 41.3359C30.6289 40.7656 29.8945 40.4805 29.0039 40.4805C28.1055 40.4805 27.3594 40.7617 26.7656 41.3242C26.1719 41.8867 25.875 42.5977 25.875 43.457C25.875 44.332 26.1719 45.0703 26.7656 45.6719ZM44.5128 49.375C43.1769 49.375 41.9698 49.0938 40.8917 48.5312C39.8136 47.9688 39.0636 47.2344 38.6417 46.3281C38.4542 45.9297 38.3605 45.543 38.3605 45.168C38.3605 44.7148 38.4894 44.3633 38.7472 44.1133C39.0128 43.8555 39.3761 43.7266 39.837 43.7266C40.1886 43.7266 40.4855 43.7969 40.7277 43.9375C40.9698 44.0703 41.1886 44.293 41.3839 44.6055C42.0323 45.9102 43.0753 46.5625 44.5128 46.5625C45.4347 46.5625 46.1925 46.2656 46.7863 45.6719C47.38 45.0781 47.6769 44.3242 47.6769 43.4102C47.6769 42.5195 47.38 41.7891 46.7863 41.2188C46.2003 40.6484 45.4464 40.3633 44.5245 40.3633C43.5948 40.3633 42.7784 40.6992 42.0753 41.3711C41.7238 41.6992 41.4269 41.918 41.1847 42.0273C40.9503 42.1367 40.6378 42.1914 40.2472 42.1914C39.6925 42.1914 39.2706 42.0234 38.9816 41.6875C38.6925 41.3516 38.5597 40.9336 38.5831 40.4336C38.5831 40.3789 38.587 40.332 38.5948 40.293L39.087 34.0938C39.1417 33.3906 39.3527 32.8828 39.7198 32.5703C40.087 32.25 40.6183 32.0898 41.3136 32.0898H48.7316C49.1691 32.0898 49.5206 32.2188 49.7863 32.4766C50.0519 32.7266 50.1847 33.0664 50.1847 33.4961C50.1847 33.9258 50.0519 34.2695 49.7863 34.5273C49.5284 34.7773 49.1769 34.9023 48.7316 34.9023H42.0519L41.6534 39.6016H41.7238C42.0753 39.0469 42.5831 38.6133 43.2472 38.3008C43.9113 37.9883 44.6691 37.832 45.5206 37.832C47.1378 37.832 48.462 38.3477 49.4933 39.3789C50.5323 40.4023 51.0519 41.7188 51.0519 43.3281C51.0519 45.125 50.4425 46.582 49.2238 47.6992C48.0128 48.8164 46.4425 49.375 44.5128 49.375Z" fill="white"/>
<path d="M35.4678 62.1333C35.2943 62.1333 35.1462 62.0825 35.0234 61.981C34.9007 61.8794 34.8394 61.7461 34.8394 61.5811C34.8394 61.4287 34.888 61.2806 34.9854 61.1367L37.7212 57.1313L40.4443 53.0942C40.5459 52.9461 40.6411 52.8446 40.73 52.7896C40.8231 52.7303 40.9437 52.7007 41.0918 52.7007C41.2611 52.7007 41.4028 52.7536 41.5171 52.8594C41.6313 52.9652 41.6885 53.0985 41.6885 53.2593C41.6885 53.3989 41.6398 53.5428 41.5425 53.6909L38.8955 57.5757L36.0708 61.7524C35.9777 61.8921 35.8867 61.9894 35.7979 62.0444C35.709 62.1037 35.599 62.1333 35.4678 62.1333ZM34.96 57.6455C34.321 57.6455 33.8153 57.4255 33.4429 56.9854C33.0705 56.5452 32.8843 55.9401 32.8843 55.1699C32.8843 54.3997 33.0705 53.7988 33.4429 53.3672C33.8153 52.9313 34.321 52.7134 34.96 52.7134C35.599 52.7134 36.1025 52.9313 36.4707 53.3672C36.8431 53.7988 37.0293 54.3997 37.0293 55.1699C37.0293 55.9359 36.8431 56.541 36.4707 56.9854C36.0983 57.4255 35.5947 57.6455 34.96 57.6455ZM34.96 56.6172C35.1842 56.6172 35.3577 56.4966 35.4805 56.2554C35.6074 56.0142 35.6709 55.6523 35.6709 55.1699C35.6709 54.2178 35.4339 53.7417 34.96 53.7417C34.4818 53.7417 34.2427 54.2178 34.2427 55.1699C34.2427 56.1348 34.4818 56.6172 34.96 56.6172ZM43.104 61.4668C42.7316 61.9069 42.2259 62.127 41.5869 62.127C40.9479 62.127 40.4422 61.9069 40.0698 61.4668C39.6974 61.0225 39.5112 60.4152 39.5112 59.645C39.5112 58.8791 39.6974 58.2782 40.0698 57.8423C40.4422 57.4064 40.9479 57.1885 41.5869 57.1885C42.2259 57.1885 42.7316 57.4064 43.104 57.8423C43.4764 58.2739 43.6626 58.8748 43.6626 59.645C43.6626 60.4152 43.4764 61.0225 43.104 61.4668ZM41.0601 60.7368C41.187 60.978 41.3626 61.0986 41.5869 61.0986C41.8112 61.0986 41.9868 60.978 42.1138 60.7368C42.2407 60.4914 42.3042 60.1274 42.3042 59.645C42.3042 58.6929 42.0651 58.2168 41.5869 58.2168C41.1087 58.2168 40.8696 58.695 40.8696 59.6514C40.8696 60.1296 40.9331 60.4914 41.0601 60.7368Z" fill="white"/>
<defs>
<linearGradient id="paint0_linear_789_169042" x1="36.9048" y1="0" x2="36.9048" y2="67.3742" gradientUnits="userSpaceOnUse">
<stop stop-color="#42D7D7" stop-opacity="0"/>
<stop offset="0.544791" stop-color="#42D7D7"/>
<stop offset="0.961458" stop-color="#42D7D7"/>
</linearGradient>
</defs>
</svg>
