<svg width="68" height="73" viewBox="0 0 68 73" fill="none" xmlns="http://www.w3.org/2000/svg">
<path d="M16.1284 0.00069023C16.0983 0.00069023 16.0682 0.010155 16.0385 0.0147244C15.8025 0.0427922 15.5788 0.159634 15.4244 0.3362C15.4244 0.3362 11.8049 4.5356 8.17582 9.88014C4.54637 15.2251 0.822266 21.6432 0.822266 26.6737C0.822266 34.7324 7.72045 41.173 16.1582 41.173C24.5963 41.173 31.4942 34.7325 31.4942 26.6737C31.4942 21.6431 27.7701 15.2249 24.1406 9.88014C20.5115 4.53519 16.8921 0.3362 16.8921 0.3362C16.7069 0.119488 16.417 -0.00779262 16.1282 0.000370236L16.1284 0.00069023Z" fill="#00AED3" fill-opacity="0.2"/>
<path d="M40.757 0.00122378C40.7037 0.00122378 40.6503 0.0180049 40.5976 0.0261064C40.1791 0.0758708 39.7826 0.283031 39.5087 0.596085C39.5087 0.596085 33.0915 8.04164 26.657 17.5175C20.222 26.9942 13.6191 38.3735 13.6191 47.2927C13.6191 61.5807 25.8497 73 40.8099 73C55.7705 73 68.0006 61.5809 68.0006 47.2927C68.0006 38.3733 61.3977 26.9937 54.9627 17.5175C48.5283 8.0409 42.111 0.596085 42.111 0.596085C41.7826 0.211852 41.2687 -0.0138164 40.7566 0.00065643L40.757 0.00122378Z" fill="url(#paint0_linear_4865_185909)"/>
<defs>
<linearGradient id="paint0_linear_4865_185909" x1="40.8099" y1="0" x2="40.8099" y2="73" gradientUnits="userSpaceOnUse">
<stop stop-color="#42D7D7" stop-opacity="0"/>
<stop offset="0.544791" stop-color="#42D7D7"/>
<stop offset="0.961458" stop-color="#42D7D7"/>
</linearGradient>
</defs>
</svg>
