<svg width="40" height="40" viewBox="0 0 40 40" fill="none" xmlns="http://www.w3.org/2000/svg">
<path d="M10.1168 35H29.8832C33.3053 35 35 33.3053 35 29.9484V10.0516C35 6.69473 33.3053 5 29.8832 5H10.1168C6.71103 5 5 6.67844 5 10.0516V29.9484C5 33.3216 6.71103 35 10.1168 35ZM10.1494 32.3764C8.51983 32.3764 7.62357 31.5128 7.62357 29.818V10.182C7.62357 8.48724 8.51983 7.62357 10.1494 7.62357H29.8506C31.4639 7.62357 32.3764 8.48724 32.3764 10.182V29.818C32.3764 31.5128 31.4639 32.3764 29.8506 32.3764H10.1494ZM12.4633 19.9756C12.4633 20.774 13.0174 21.3118 13.8485 21.3118H18.6393V26.119C18.6393 26.9337 19.1934 27.5041 19.9919 27.5041C20.8066 27.5041 21.377 26.95 21.377 26.119V21.3118H26.1841C26.9989 21.3118 27.5693 20.774 27.5693 19.9756C27.5693 19.1608 26.9989 18.5904 26.1841 18.5904H21.377V13.7996C21.377 12.9685 20.8066 12.3982 19.9919 12.3982C19.1934 12.3982 18.6393 12.9685 18.6393 13.7996V18.5904H13.8485C13.0174 18.5904 12.4633 19.1608 12.4633 19.9756Z" fill="#5BAA1C"/>
</svg>
