<svg width="22" height="24" viewBox="0 0 22 24" fill="none" xmlns="http://www.w3.org/2000/svg">
<path d="M16.7419 7.875C18.9454 7.875 20.7875 6.10227 20.7875 3.94318C20.7875 1.77273 18.9454 0 16.7419 0C14.5151 0 12.6963 1.77273 12.6963 3.94318C12.6963 6.10227 14.5151 7.875 16.7419 7.875ZM1.76047 19.4432H20.2395C21.3355 19.4432 22 18.8977 22 18.0682C22 16.9318 20.8108 15.9091 19.8082 14.8977C19.0387 14.1136 18.8288 12.5 18.7356 11.1932C18.7239 10.4545 18.6773 9.75 18.6073 9.07955C18.0244 9.30682 17.3948 9.43182 16.7303 9.43182C13.6407 9.43182 11.0991 6.95455 11.0991 3.94318C11.0991 2.59091 11.6121 1.35227 12.4399 0.397727C12.0201 0.193182 11.5305 0.0795455 10.9942 0.0795455C9.28034 0.0795455 8.06783 1.25 7.63646 2.73864C4.53524 3.82955 3.34605 6.82955 3.26444 11.1932C3.17117 12.5 2.96131 14.1136 2.19184 14.8977C1.17753 15.9091 0 16.9318 0 18.0682C0 18.8977 0.652888 19.4432 1.76047 19.4432ZM10.9942 24C12.9762 24 14.4218 22.5909 14.5734 21H7.4266C7.57817 22.5909 9.02385 24 10.9942 24Z" fill="white"/>
</svg>
