<svg width="64" height="64" viewBox="0 0 64 64" fill="none" xmlns="http://www.w3.org/2000/svg">
<path d="M17 32.9322C17 41.1752 23.8088 48 32 48C40.2059 48 47 41.1752 47 32.9322C47 25.6642 41.7206 19.5041 34.8382 18.1451V16.0474C34.8382 14.9986 34.1176 14.7179 33.3235 15.294L28.6324 18.5882C27.9559 19.061 27.9412 19.77 28.6324 20.2575L33.3088 23.5665C34.1176 24.1574 34.8382 23.8767 34.8382 22.8131V20.7155C40.3971 21.9859 44.4853 26.9494 44.4853 32.9322C44.4853 39.9047 38.9412 45.4887 32 45.4887C25.0588 45.4887 19.4853 39.9047 19.5 32.9322C19.5147 28.7368 21.5441 25.029 24.6765 22.7836C25.2794 22.3256 25.4706 21.6313 25.1029 21.0109C24.7353 20.4052 23.9265 20.2427 23.2794 20.745C19.5 23.5074 17 27.9687 17 32.9322ZM25 30.5243H31.6029C32 31.6913 33.1176 32.5333 34.4118 32.5333C35.7059 32.5333 36.8088 31.6913 37.2206 30.5243H39.0588C39.5588 30.5243 40 30.0959 40 29.5493C40 29.0175 39.5588 28.5744 39.0588 28.5744H37.2206C36.8235 27.3926 35.7059 26.5505 34.4118 26.5505C33.1029 26.5505 31.9853 27.3926 31.5882 28.5744H25C24.4412 28.5744 24 29.0175 24 29.5493C24 30.0959 24.4412 30.5243 25 30.5243ZM34.4118 31.0118C33.5735 31.0118 32.9559 30.3618 32.9559 29.5346C32.9559 28.6925 33.5735 28.0721 34.4118 28.0721C35.2206 28.0721 35.8676 28.6925 35.8676 29.5346C35.8676 30.3618 35.2206 31.0118 34.4118 31.0118ZM24.9412 38.5161H26.7941C27.1912 39.6832 28.3088 40.5252 29.5882 40.5252C30.8971 40.5252 32.0147 39.6832 32.4118 38.5161H39C39.5588 38.5161 40 38.073 40 37.5264C40 36.9946 39.5588 36.5662 39 36.5662H32.4265C32.0294 35.3844 30.9118 34.5276 29.5882 34.5276C28.2941 34.5276 27.1765 35.3844 26.7794 36.5662H24.9412C24.4412 36.5662 24 36.9946 24 37.5264C24 38.073 24.4412 38.5161 24.9412 38.5161ZM29.5882 39.0036C28.7794 39.0036 28.1324 38.3537 28.1324 37.5116C28.1324 36.6844 28.7794 36.0492 29.5882 36.0492C30.4265 36.0492 31.0735 36.6844 31.0735 37.5116C31.0735 38.3537 30.4265 39.0036 29.5882 39.0036Z" fill="#0C695E"/>
</svg>
