<svg width="66" height="59" viewBox="0 0 66 59" fill="none" xmlns="http://www.w3.org/2000/svg">
<rect width="66" height="59" fill="white"/>
<path d="M47.2387 46.3662L46.8396 46.6674L47.2387 46.3662ZM51.7439 51.5748L51.4425 51.9737L51.7439 51.5748ZM55.6925 53.5416L55.8294 53.0607L55.6925 53.5416ZM29.3865 34.7758L29.2058 34.3095L29.3865 34.7758ZM36.6135 34.7758L36.4328 35.242L36.6135 34.7758ZM10.3075 53.5416L10.1706 53.0607L10.3075 53.5416ZM18.7613 46.3662L18.3623 46.065L18.7613 46.3662ZM14.2561 51.5748L13.9547 51.1758L14.2561 51.5748ZM3.43612 53.5H0V54.5H3.43612V53.5ZM19.1604 46.6674L20.6281 44.7228L19.8299 44.1204L18.3623 46.065L19.1604 46.6674ZM45.3719 44.7228L46.8396 46.6674L47.6377 46.065L46.1701 44.1204L45.3719 44.7228ZM62.5639 54.5H66V53.5H62.5639V54.5ZM46.8396 46.6674C48.935 49.4438 50.0377 50.9124 51.4425 51.9737L52.0453 51.1758C50.778 50.2184 49.7679 48.8875 47.6377 46.065L46.8396 46.6674ZM62.5639 53.5C59.0277 53.5 57.357 53.4955 55.8294 53.0607L55.5556 54.0225C57.249 54.5045 59.0855 54.5 62.5639 54.5V53.5ZM51.4425 51.9737C52.6752 52.905 54.0697 53.5996 55.5556 54.0225L55.8294 53.0607C54.4624 52.6717 53.1793 52.0326 52.0453 51.1758L51.4425 51.9737ZM20.6281 44.7228C22.8016 41.8429 24.412 39.7098 25.8092 38.1655C27.2043 36.6235 28.3469 35.7149 29.5672 35.242L29.2058 34.3095C27.7723 34.8651 26.504 35.907 25.0677 37.4946C23.6336 39.0798 21.9922 41.2554 19.8299 44.1204L20.6281 44.7228ZM46.1701 44.1204C44.0078 41.2554 42.3664 39.0798 40.9323 37.4946C39.496 35.907 38.2277 34.8651 36.7942 34.3095L36.4328 35.242C37.6531 35.7149 38.7957 36.6235 40.1908 38.1655C41.588 39.7098 43.1984 41.8429 45.3719 44.7228L46.1701 44.1204ZM29.5672 35.242C31.7757 34.3861 34.2243 34.3861 36.4328 35.242L36.7942 34.3095C34.3532 33.3636 31.6468 33.3636 29.2058 34.3095L29.5672 35.242ZM3.43612 54.5C6.91452 54.5 8.75103 54.5045 10.4444 54.0225L10.1706 53.0607C8.64302 53.4955 6.97226 53.5 3.43612 53.5V54.5ZM18.3623 46.065C16.2321 48.8875 15.222 50.2184 13.9547 51.1758L14.5575 51.9737C15.9623 50.9124 17.065 49.4438 19.1604 46.6674L18.3623 46.065ZM10.4444 54.0225C11.9303 53.5996 13.3248 52.905 14.5575 51.9737L13.9547 51.1758C12.8207 52.0326 11.5376 52.6717 10.1706 53.0607L10.4444 54.0225Z" fill="#FDD8FB"/>
</svg>
