<svg width="40" height="40" viewBox="0 0 40 40" fill="none" xmlns="http://www.w3.org/2000/svg">
<path d="M36 20C36 23.1645 35.0616 26.2579 33.3035 28.8891C31.5454 31.5203 29.0466 33.5711 26.1229 34.7821C23.1993 35.9931 19.9823 36.3099 16.8786 35.6926C13.7749 35.0752 10.9239 33.5513 8.68629 31.3137C6.44865 29.0761 4.9248 26.2251 4.30744 23.1214C3.69007 20.0177 4.00693 16.8007 5.21793 13.8771C6.42893 10.9534 8.47969 8.45459 11.1109 6.69649C13.7421 4.93838 16.8355 4 20 4" stroke="#799B8B" stroke-width="2" stroke-linecap="round"/>
<path d="M33 20C33 22.2918 32.3941 24.543 31.2438 26.5252C30.0934 28.5074 28.4394 30.1503 26.4495 31.2873C24.4596 32.4243 22.2045 33.0151 19.9127 32.9997C17.6209 32.9843 15.3739 32.3633 13.3995 31.1997C11.425 30.036 9.79327 28.3711 8.66963 26.3736C7.54599 24.3761 6.97039 22.1171 7.00117 19.8254C7.03195 17.5338 7.66801 15.291 8.84489 13.3244C10.0218 11.3578 11.6976 9.73729 13.7026 8.62709" stroke="#799B8B" stroke-width="2" stroke-linecap="round"/>
<path d="M29 20C29 21.3786 28.6833 22.7387 28.0744 23.9755C27.4654 25.2123 26.5805 26.2926 25.4879 27.1332C24.3953 27.9738 23.1242 28.5522 21.7726 28.8237C20.4211 29.0952 19.0252 29.0526 17.6927 28.6992C16.3602 28.3458 15.1267 27.691 14.0874 26.7854C13.0481 25.8797 12.2307 24.7474 11.6983 23.4758C11.1659 22.2042 10.9327 20.8273 11.0167 19.4513C11.1008 18.0753 11.4998 16.737 12.183 15.5396" stroke="#799B8B" stroke-width="4" stroke-linecap="round"/>
</svg>
