<svg width="66" height="59" viewBox="0 0 66 59" fill="none" xmlns="http://www.w3.org/2000/svg">
<rect width="66" height="59" fill="white"/>
<path d="M48.1723 41.9307L48.6365 41.745L48.1723 41.9307ZM52.2433 50.0701L51.8733 50.4064L52.2433 50.0701ZM56.9298 53.243L56.7551 53.7115L56.9298 53.243ZM30.25 14.8228L30.4792 15.2672L30.25 14.8228ZM41.9134 26.2834L41.4491 26.4691L41.9134 26.2834ZM35.75 14.8228L35.9791 14.3784L35.75 14.8228ZM9.07016 53.243L9.24494 53.7115L9.07016 53.243ZM13.7567 50.0701L14.1267 50.4064L13.7567 50.0701ZM18.292 42.1164L24.5509 26.4691L23.6224 26.0977L17.3635 41.745L18.292 42.1164ZM41.4491 26.4691L47.708 42.1164L48.6365 41.745L42.3776 26.0977L41.4491 26.4691ZM47.708 42.1164C49.4363 46.4371 50.3416 48.7208 51.8733 50.4064L52.6134 49.7339C51.2323 48.214 50.3945 46.1399 48.6365 41.745L47.708 42.1164ZM66 53.5C61.2659 53.5 59.0287 53.4924 57.1046 52.7746L56.7551 53.7115C58.8889 54.5076 61.3458 54.5 66 54.5V53.5ZM51.8733 50.4064C53.2138 51.8815 54.8876 53.0148 56.7551 53.7115L57.1046 52.7746C55.3865 52.1336 53.8466 51.091 52.6134 49.7339L51.8733 50.4064ZM24.5509 26.4691C25.9458 22.9818 26.9799 20.3978 27.9119 18.5548C28.8523 16.6954 29.6375 15.7012 30.4792 15.2672L30.0209 14.3784C28.873 14.9703 27.9678 16.2283 27.0195 18.1035C26.0629 19.9953 25.01 22.6287 23.6224 26.0977L24.5509 26.4691ZM42.3776 26.0977C40.99 22.6287 39.9371 19.9953 38.9805 18.1036C38.0322 16.2283 37.127 14.9703 35.9791 14.3784L35.5208 15.2672C36.3625 15.7012 37.1477 16.6954 38.0881 18.5548C39.0201 20.3978 40.0542 22.9818 41.4491 26.4691L42.3776 26.0977ZM30.4792 15.2672C32.0608 14.4516 33.9392 14.4516 35.5208 15.2672L35.9791 14.3784C34.11 13.4145 31.89 13.4145 30.0209 14.3784L30.4792 15.2672ZM0 54.5C4.65419 54.5 7.11107 54.5076 9.24494 53.7115L8.89539 52.7746C6.97131 53.4924 4.73406 53.5 0 53.5V54.5ZM17.3635 41.745C15.6055 46.1399 14.7677 48.214 13.3866 49.7339L14.1267 50.4064C15.6584 48.7208 16.5637 46.4371 18.292 42.1164L17.3635 41.745ZM9.24494 53.7115C11.1124 53.0148 12.7862 51.8815 14.1267 50.4064L13.3866 49.7339C12.1534 51.091 10.6135 52.1336 8.89539 52.7746L9.24494 53.7115Z" fill="#FDD8FB"/>
</svg>
