<svg width="64" height="64" viewBox="0 0 64 64" fill="none" xmlns="http://www.w3.org/2000/svg">
<path d="M38.96 24.5213C39.2804 24.2982 39.5422 24.0012 39.7232 23.6553C39.9043 23.3094 39.9992 22.925 40 22.5346L40 20.7213C39.9965 20.0788 39.7397 19.4636 39.2854 19.0093C38.831 18.5549 38.2158 18.2981 37.5733 18.2946L36.48 18.2946C37.0046 18.2946 37.5079 18.0872 37.8801 17.7175C38.2523 17.3478 38.4631 16.8459 38.4667 16.3213L38.4667 15.068C38.4631 14.5434 38.2523 14.0415 37.8801 13.6718C37.5079 13.3021 37.0046 13.0946 36.48 13.0946L33.52 13.0946L33.52 11.628L33.7867 11.628C33.8204 11.6299 33.8542 11.6247 33.8859 11.6126C33.9175 11.6006 33.9462 11.582 33.9701 11.5581C33.994 11.5341 34.0126 11.5054 34.0247 11.4738C34.0367 11.4422 34.0419 11.4084 34.04 11.3746C34.0513 11.287 34.0439 11.198 34.0184 11.1134C33.9928 11.0288 33.9497 10.9506 33.8917 10.8838C33.8338 10.8171 33.7624 10.7634 33.6823 10.7262C33.6021 10.689 33.515 10.6691 33.4267 10.668L32 10.668L32 20.0013C32.6613 20.0013 33.2955 20.264 33.7631 20.7316C34.2306 21.1992 34.4933 21.8334 34.4933 22.4946L34.4933 48.0813C34.4933 48.7426 34.2306 49.3768 33.7631 49.8444C33.2955 50.3119 32.6613 50.5746 32 50.5746L32 53.2413L36 53.2413C37.0609 53.2413 38.0783 52.8199 38.8284 52.0697C39.5786 51.3196 40 50.3022 40 49.2413L40 29.9746C39.9982 29.6199 39.9068 29.2713 39.7343 28.9613C39.5618 28.6513 39.3138 28.3899 39.0133 28.2013C38.8477 28.0981 38.7108 27.9549 38.6152 27.7847C38.5197 27.6146 38.4686 27.4231 38.4667 27.228L38.4667 25.4546C38.4658 25.2705 38.5104 25.089 38.5965 24.9262C38.6825 24.7634 38.8074 24.6243 38.96 24.5213Z" fill="#87AFB2"/>
<path d="M34.4933 48.08L34.4933 22.4667C34.4863 21.81 34.2205 21.1827 33.7537 20.7208C33.2869 20.259 32.6567 20 32 20L32 50.6667C32.3354 50.6669 32.6675 50.5994 32.9762 50.4684C33.285 50.3373 33.5641 50.1452 33.7969 49.9037C34.0297 49.6622 34.2113 49.3762 34.331 49.0628C34.4507 48.7495 34.5059 48.4152 34.4933 48.08Z" fill="#2EB7E2"/>
<path d="M29.508 48.0813L29.508 22.468C29.515 21.8113 29.7808 21.184 30.2476 20.7221C30.7145 20.2603 31.3446 20.0013 32.0013 20.0013L32.0013 10.668L30.5746 10.668C30.4131 10.6714 30.259 10.7371 30.1447 10.8514C30.0304 10.9657 29.9647 11.1197 29.9613 11.2813C29.9594 11.3151 29.9646 11.3489 29.9767 11.3805C29.9887 11.4121 30.0073 11.4408 30.0312 11.4647C30.0551 11.4887 30.0838 11.5072 30.1155 11.5193C30.1471 11.5313 30.1809 11.5366 30.2146 11.5346L30.4813 11.5346L30.4813 13.0013L27.508 13.0013C26.9834 13.0013 26.4801 13.2088 26.1079 13.5785C25.7357 13.9482 25.5248 14.4501 25.5213 14.9746L25.5213 16.228C25.5248 16.7526 25.7357 17.2544 26.1079 17.6241C26.4801 17.9938 26.9834 18.2013 27.508 18.2013L26.4146 18.2013C26.0896 18.2047 25.7686 18.273 25.4703 18.4021C25.172 18.5313 24.9026 18.7188 24.6778 18.9535C24.453 19.1883 24.2773 19.4656 24.1611 19.7692C24.045 20.0727 23.9906 20.3964 24.0013 20.7213L24.0013 22.5346C24.0036 22.9262 24.1006 23.3114 24.284 23.6573C24.4674 24.0033 24.7318 24.2997 25.0547 24.5213C25.2048 24.6258 25.3271 24.7656 25.4107 24.9283C25.4944 25.091 25.537 25.2717 25.5346 25.4546L25.5346 27.228C25.5327 27.4231 25.4817 27.6146 25.3861 27.7847C25.2905 27.9549 25.1536 28.0981 24.988 28.2013C24.6875 28.3899 24.4395 28.6513 24.2671 28.9613C24.0946 29.2713 24.0032 29.6199 24.0013 29.9746L24.0013 49.3346C24.0013 50.3955 24.4227 51.4129 25.1729 52.1631C25.923 52.9132 26.9405 53.3346 28.0013 53.3346L32.0013 53.3346L32.0013 50.668C31.6659 50.6682 31.3339 50.6008 31.0251 50.4697C30.7163 50.3386 30.4372 50.1465 30.2044 49.905C29.9716 49.6635 29.79 49.3775 29.6703 49.0641C29.5506 48.7508 29.4954 48.4165 29.508 48.0813Z" fill="#DAE8ED"/>
<path d="M29.5054 22.4686L29.5054 48.082C29.5054 48.7432 29.7681 49.3774 30.2357 49.845C30.7032 50.3126 31.3374 50.5753 31.9987 50.5753L31.9987 20.002C31.342 20.0019 30.7118 20.2609 30.245 20.7228C29.7782 21.1846 29.5124 21.812 29.5054 22.4686Z" fill="#71CEF2"/>
</svg>
