<svg width="13" height="20" viewBox="0 0 13 20" fill="none" xmlns="http://www.w3.org/2000/svg">
<path d="M5.32167 3.88086C5.6537 3.88086 5.95529 3.80062 6.22645 3.64014C6.50314 3.47412 6.72173 3.25553 6.88221 2.98438C7.04823 2.70768 7.13124 2.40609 7.13124 2.07959C7.13124 1.74756 7.04823 1.44596 6.88221 1.1748C6.72173 0.898112 6.50314 0.679525 6.22645 0.519043C5.95529 0.353027 5.6537 0.27002 5.32167 0.27002C4.98963 0.27002 4.68527 0.353027 4.40858 0.519043C4.13742 0.679525 3.91883 0.898112 3.75282 1.1748C3.59234 1.44596 3.5121 1.74756 3.5121 2.07959C3.5121 2.40609 3.59234 2.70768 3.75282 2.98438C3.91883 3.25553 4.13742 3.47412 4.40858 3.64014C4.68527 3.80062 4.98963 3.88086 5.32167 3.88086ZM0.523814 8.13916C0.280325 8.48226 0.144745 8.83919 0.117076 9.20996C0.0949405 9.5752 0.169647 9.91276 0.341197 10.2227C0.512746 10.527 0.767304 10.7594 1.10487 10.9199C1.44797 11.0804 1.86301 11.1247 2.34999 11.0527L5.39637 10.5962L4.21766 14.0991C4.11805 14.3869 4.12359 14.6304 4.23426 14.8296C4.35047 15.0233 4.51372 15.1533 4.72401 15.2197C4.93983 15.2861 5.15012 15.2751 5.35487 15.1865C5.56516 15.098 5.71734 14.9181 5.81141 14.647L7.38026 9.89062C7.47434 9.60286 7.44113 9.34277 7.28065 9.11035C7.1257 8.8724 6.87945 8.75342 6.54188 8.75342H3.537L5.11415 6.65332C5.19162 6.54264 5.26079 6.47624 5.32167 6.4541C5.38807 6.42643 5.47385 6.4126 5.57899 6.4126H11.788C12.0149 6.4126 12.2085 6.33236 12.369 6.17188C12.535 6.01139 12.6181 5.81494 12.6181 5.58252C12.6181 5.35563 12.5378 5.16195 12.3773 5.00146C12.2168 4.83545 12.0204 4.75244 11.788 4.75244H3.89393C3.60064 4.75244 3.32118 4.82438 3.05555 4.96826C2.78993 5.10661 2.56581 5.30029 2.38319 5.54932L0.523814 8.13916ZM1.25428 19.1128C1.25428 19.3009 1.31239 19.4531 1.4286 19.5693C1.55034 19.6855 1.71083 19.7437 1.91004 19.7437H8.13563C8.32932 19.7437 8.48426 19.6855 8.60047 19.5693C8.72222 19.4531 8.78309 19.3009 8.78309 19.1128V16.6143C8.78309 16.4261 8.72222 16.2739 8.60047 16.1577C8.48426 16.047 8.32932 15.9917 8.13563 15.9917H1.91004C1.71083 15.9917 1.55034 16.047 1.4286 16.1577C1.31239 16.2739 1.25428 16.4261 1.25428 16.6143V19.1128Z" fill="black"/>
</svg>
