<svg width="12" height="19" viewBox="0 0 12 19" fill="none" xmlns="http://www.w3.org/2000/svg">
<path d="M1.50323 18.5815L4.00177 15.6099C4.12351 15.466 4.20376 15.3581 4.24249 15.2861C4.28676 15.2087 4.3338 15.0952 4.38361 14.9458L4.56622 14.3813L3.2298 12.7046L2.82306 14.5806L0.357727 17.5024C0.164042 17.7349 0.0810343 17.9562 0.108704 18.1665C0.141907 18.3768 0.238749 18.5483 0.399231 18.6812C0.559713 18.814 0.74233 18.8776 0.947083 18.8721C1.15737 18.8721 1.34275 18.7752 1.50323 18.5815ZM7.57941 18.3325C7.70669 18.5926 7.87823 18.7531 8.09406 18.814C8.31541 18.8804 8.5257 18.8693 8.72491 18.7808C8.92413 18.6922 9.06525 18.5428 9.14825 18.3325C9.23126 18.1278 9.20359 17.8843 9.06525 17.6021L7.37189 14.1738C7.30548 14.0465 7.23077 13.9165 7.14777 13.7837C7.06476 13.6453 6.98452 13.5208 6.90704 13.4102L5.83624 11.8911L5.91095 11.667C6.0493 11.2354 6.15167 10.8618 6.21808 10.5464C6.28448 10.231 6.33429 9.86019 6.36749 9.43408L6.53351 7.03516C6.57225 6.4707 6.4339 5.99756 6.11847 5.61572C5.80857 5.22835 5.36033 5.03467 4.77374 5.03467C4.33657 5.03467 3.9492 5.14258 3.61163 5.3584C3.27407 5.56869 2.9033 5.87028 2.49933 6.26318L1.22931 7.5166C1.02456 7.72135 0.880676 7.91781 0.797668 8.10596C0.714661 8.29411 0.662089 8.52376 0.639954 8.79492L0.49054 10.7539C0.468404 11.0029 0.520976 11.2077 0.648254 11.3682C0.775533 11.5231 0.952616 11.6061 1.1795 11.6172C1.41193 11.6338 1.59731 11.5757 1.73566 11.4429C1.874 11.3101 1.95148 11.1108 1.96808 10.8452L2.159 8.69531L2.76495 8.14746C2.87563 8.04785 2.98631 8.02295 3.09698 8.07275C3.2132 8.11702 3.26853 8.1945 3.263 8.30518L3.13019 10.123C3.09145 10.5824 3.13019 10.9587 3.2464 11.252C3.36814 11.5397 3.58673 11.88 3.90216 12.2729L5.58722 14.3813C5.67023 14.4865 5.72557 14.5695 5.75323 14.6304C5.7809 14.6857 5.81134 14.7466 5.84454 14.813L7.57941 18.3325ZM10.4681 8.27197H8.5506L7.34698 6.93555L7.20587 8.93604L7.68732 9.41748C7.82013 9.55029 7.95571 9.6416 8.09406 9.69141C8.23794 9.74121 8.43439 9.76611 8.68341 9.76611H10.4681C10.7171 9.76611 10.9163 9.69971 11.0657 9.56689C11.2207 9.43408 11.2982 9.25146 11.2982 9.01904C11.2982 8.79769 11.2207 8.61784 11.0657 8.47949C10.9163 8.34115 10.7171 8.27197 10.4681 8.27197ZM5.70343 4.2876C6.03546 4.2876 6.33706 4.20736 6.60822 4.04688C6.88491 3.88086 7.1035 3.66227 7.26398 3.39111C7.42446 3.11442 7.5047 2.81006 7.5047 2.47803C7.5047 2.14046 7.42446 1.8361 7.26398 1.56494C7.1035 1.28825 6.88491 1.06966 6.60822 0.90918C6.33706 0.748698 6.03546 0.668457 5.70343 0.668457C5.36587 0.668457 5.05874 0.748698 4.78204 0.90918C4.51088 1.06966 4.29506 1.28825 4.13458 1.56494C3.9741 1.8361 3.89386 2.14046 3.89386 2.47803C3.89386 2.81006 3.9741 3.11442 4.13458 3.39111C4.29506 3.66227 4.51088 3.88086 4.78204 4.04688C5.05874 4.20736 5.36587 4.2876 5.70343 4.2876Z" fill="black"/>
</svg>
