<svg width="40" height="40" viewBox="0 0 40 40" fill="none" xmlns="http://www.w3.org/2000/svg">
<g clip-path="url(#clip0_3022_238130)">
<path d="M16.5299 15.09C16.1512 13.6765 16.0359 12.2053 16.1899 10.75C14.659 11.3674 13.3046 12.3543 12.2478 13.6225C11.1911 14.8907 10.4647 16.4008 10.1335 18.018C9.8023 19.6353 9.87664 21.3093 10.3499 22.8909C10.8231 24.4724 11.6805 25.9121 12.8455 27.0817C14.0106 28.2512 15.4471 29.1141 17.0268 29.5934C18.6064 30.0727 20.2802 30.1535 21.8987 29.8285C23.5172 29.5036 25.0301 28.783 26.3023 27.731C27.5746 26.6791 28.5666 25.3286 29.1899 23.8C26.3883 24.0932 23.5739 23.3771 21.2532 21.7804C18.9324 20.1838 17.2576 17.8114 16.5299 15.09Z" fill="#AE8AEA"/>
<path d="M5 21.9805C6.10457 21.9805 7 21.085 7 19.9805C7 18.8759 6.10457 17.9805 5 17.9805C3.89543 17.9805 3 18.8759 3 19.9805C3 21.085 3.89543 21.9805 5 21.9805Z" fill="#AE8AEA"/>
<path d="M7 14.4883C8.10457 14.4883 9 13.5929 9 12.4883C9 11.3837 8.10457 10.4883 7 10.4883C5.89543 10.4883 5 11.3837 5 12.4883C5 13.5929 5.89543 14.4883 7 14.4883Z" fill="#AE8AEA"/>
<path d="M12.5 9.01172C13.6046 9.01172 14.5 8.11629 14.5 7.01172C14.5 5.90715 13.6046 5.01172 12.5 5.01172C11.3954 5.01172 10.5 5.90715 10.5 7.01172C10.5 8.11629 11.3954 9.01172 12.5 9.01172Z" fill="#AE8AEA"/>
<path d="M19.9902 7C21.0948 7 21.9902 6.10457 21.9902 5C21.9902 3.89543 21.0948 3 19.9902 3C18.8857 3 17.9902 3.89543 17.9902 5C17.9902 6.10457 18.8857 7 19.9902 7Z" fill="#AE8AEA"/>
<path d="M27.4902 9.01172C28.5948 9.01172 29.4902 8.11629 29.4902 7.01172C29.4902 5.90715 28.5948 5.01172 27.4902 5.01172C26.3857 5.01172 25.4902 5.90715 25.4902 7.01172C25.4902 8.11629 26.3857 9.01172 27.4902 9.01172Z" fill="#AE8AEA"/>
<path d="M32.9702 14.5C34.0748 14.5 34.9702 13.6046 34.9702 12.5C34.9702 11.3954 34.0748 10.5 32.9702 10.5C31.8656 10.5 30.9702 11.3954 30.9702 12.5C30.9702 13.6046 31.8656 14.5 32.9702 14.5Z" fill="#AE8AEA"/>
<path d="M35 22C36.1046 22 37 21.1046 37 20C37 18.8954 36.1046 18 35 18C33.8954 18 33 18.8954 33 20C33 21.1046 33.8954 22 35 22Z" fill="#AE8AEA"/>
<path d="M20.0002 37.0008C17.0116 36.9923 14.0771 36.2025 11.4879 34.7097C8.8988 33.2169 6.74499 31.073 5.24021 28.4908C5.10889 28.263 5.02373 28.0115 4.9896 27.7508C4.95546 27.49 4.97302 27.2251 5.04127 26.9711C5.17911 26.4582 5.51506 26.0211 5.97521 25.7558C6.43536 25.4906 6.98202 25.4191 7.49493 25.5569C8.00785 25.6947 8.44499 26.0307 8.71021 26.4908C9.84756 28.4797 11.4903 30.1326 13.472 31.2822C15.4538 32.4318 17.7042 33.0373 19.9952 33.0373C22.2863 33.0373 24.5366 32.4318 26.5184 31.2822C28.5001 30.1326 30.1429 28.4797 31.2802 26.4908C31.4115 26.263 31.5864 26.0633 31.795 25.903C32.0035 25.7428 32.2415 25.6252 32.4955 25.5569C32.7495 25.4887 33.0144 25.4711 33.2751 25.5052C33.5359 25.5394 33.7874 25.6245 34.0152 25.7558C34.2431 25.8872 34.4428 26.0621 34.603 26.2706C34.7633 26.4791 34.8809 26.7171 34.9491 26.9711C35.0174 27.2251 35.035 27.49 35.0008 27.7508C34.9667 28.0115 34.8815 28.263 34.7502 28.4908C33.2486 31.0736 31.0969 33.2182 28.5091 34.7112C25.9213 36.2042 22.9878 36.9936 20.0002 37.0008Z" fill="#AE8AEA"/>
</g>
<defs>
<clipPath id="clip0_3022_238130">
<rect width="40" height="40" fill="white"/>
</clipPath>
</defs>
</svg>
