<svg width="144" height="147" viewBox="0 0 144 147" fill="none" xmlns="http://www.w3.org/2000/svg">
<circle cx="74" cy="74" r="19" stroke="black" stroke-opacity="0.2" stroke-width="12"/>
<g filter="url(#filter0_dd_6101_339059)">
<circle cx="74" cy="74" r="61" stroke="black" stroke-opacity="0.2" stroke-width="12" shape-rendering="crispEdges"/>
</g>
<circle cx="74" cy="74" r="33" stroke="black" stroke-opacity="0.2" stroke-width="12"/>
<circle cx="74" cy="74" r="47" stroke="black" stroke-opacity="0.2" stroke-width="12"/>
<path d="M74 55C76.4951 55 78.9658 55.4914 81.271 56.4463C83.5762 57.4011 85.6707 58.8007 87.435 60.565C89.1993 62.3293 90.5989 64.4238 91.5537 66.729C92.5086 69.0342 93 71.5049 93 74C93 76.4951 92.5085 78.9658 91.5537 81.271C90.5989 83.5762 89.1993 85.6707 87.435 87.435C85.6707 89.1993 83.5762 90.5989 81.271 91.5537C78.9658 92.5086 76.4951 93 74 93C71.5049 93 69.0342 92.5085 66.729 91.5537C64.4238 90.5989 62.3293 89.1993 60.565 87.435C58.8007 85.6707 57.4011 83.5762 56.4463 81.271C55.4914 78.9658 55 76.4951 55 74C55 71.5049 55.4915 69.0342 56.4463 66.729C57.4011 64.4238 58.8007 62.3293 60.565 60.565C62.3293 58.8007 64.4238 57.4011 66.729 56.4463C69.0342 55.4914 71.5049 55 74 55L74 55Z" stroke="#4BE9FF" stroke-width="12" stroke-linecap="round"/>
<path d="M74 13C82.0106 13 89.9428 14.5778 97.3437 17.6433C104.745 20.7089 111.469 25.2021 117.134 30.8665C122.798 36.5309 127.291 43.2555 130.357 50.6563C133.422 58.0572 135 65.9894 135 74C135 82.0106 133.422 89.9428 130.357 97.3437C127.291 104.745 122.798 111.469 117.134 117.134C111.469 122.798 104.745 127.291 97.3437 130.357C89.9428 133.422 82.0106 135 74 135C65.9893 135 58.0571 133.422 50.6563 130.357C43.2554 127.291 36.5308 122.798 30.8665 117.133C25.2021 111.469 20.7089 104.745 17.6433 97.3437C14.5778 89.9428 13 82.0106 13 74C13 65.9893 14.5778 58.0571 17.6434 50.6563C20.7089 43.2554 25.2021 36.5308 30.8665 30.8665C36.5309 25.2021 43.2555 20.7089 50.6563 17.6433C58.0572 14.5778 65.9894 13 74 13L74 13Z" stroke="#FF764B" stroke-width="12" stroke-linecap="round"/>
<path d="M74 41C78.3336 41 82.6248 41.8536 86.6286 43.512C90.6323 45.1704 94.2702 47.6011 97.3345 50.6655C100.399 53.7298 102.83 57.3677 104.488 61.3715C106.146 65.3752 107 69.6664 107 74C107 78.3336 106.146 82.6248 104.488 86.6286C102.83 90.6323 100.399 94.2702 97.3345 97.3345C94.2702 100.399 90.6323 102.83 86.6285 104.488C82.6248 106.146 78.3336 107 74 107C69.6664 107 65.3752 106.146 61.3714 104.488C57.3677 102.83 53.7298 100.399 50.6655 97.3345C47.6011 94.2702 45.1704 90.6323 43.512 86.6285C41.8536 82.6248 41 78.3336 41 74C41 69.6664 41.8536 65.3752 43.512 61.3714C45.1704 57.3677 47.6012 53.7298 50.6655 50.6655C53.7298 47.6011 57.3677 45.1704 61.3715 43.512C65.3752 41.8536 69.6664 41 74 41L74 41Z" stroke="#4BFF52" stroke-width="12" stroke-linecap="round"/>
<path d="M74 27C80.1721 27 86.2838 28.2157 91.9861 30.5777C97.6884 32.9396 102.87 36.4016 107.234 40.766C111.598 45.1303 115.06 50.3116 117.422 56.0139C119.784 61.7162 121 67.8279 121 74C121 80.1721 119.784 86.2838 117.422 91.9861C115.06 97.6884 111.598 102.87 107.234 107.234C102.87 111.598 97.6884 115.06 91.9861 117.422C86.2838 119.784 80.1721 121 74 121C67.8279 121 61.7162 119.784 56.0139 117.422C50.3116 115.06 45.1303 111.598 40.766 107.234C36.4016 102.87 32.9396 97.6884 30.5777 91.9861C28.2157 86.2838 27 80.1721 27 74C27 67.8278 28.2157 61.7162 30.5777 56.0139C32.9396 50.3116 36.4016 45.1303 40.766 40.766C45.1304 36.4016 50.3116 32.9396 56.0139 30.5777C61.7162 28.2157 67.8279 27 74 27L74 27Z" stroke="#FFE769" stroke-width="12" stroke-linecap="round"/>
<circle cx="74" cy="13" r="6" fill="#FF764B"/>
<circle cx="74" cy="27" r="6" fill="#FFE769"/>
<circle cx="74" cy="41" r="6" fill="#4BFF52"/>
<circle cx="74" cy="55" r="6" fill="#4BE9FF"/>
<path d="M73.2969 58.8633C73.1406 59.026 72.9209 59.1074 72.6377 59.1074C72.3545 59.1074 72.1331 59.026 71.9736 58.8633C71.8174 58.7005 71.7393 58.471 71.7393 58.1748V52.8916C71.7393 52.5954 71.8174 52.3659 71.9736 52.2031C72.1331 52.0371 72.3545 51.9541 72.6377 51.9541H75.8311C76.0752 51.9541 76.2689 52.0176 76.4121 52.1445C76.5553 52.2715 76.627 52.4489 76.627 52.6768C76.627 52.9014 76.5537 53.0788 76.4072 53.209C76.264 53.3359 76.0719 53.3994 75.8311 53.3994H73.5312V55.001H75.6016C75.8294 55.001 76.0101 55.0628 76.1436 55.1865C76.2803 55.307 76.3486 55.4746 76.3486 55.6895C76.3486 55.9043 76.2819 56.0719 76.1484 56.1924C76.015 56.3128 75.8327 56.373 75.6016 56.373H73.5312V58.1748C73.5312 58.471 73.4531 58.7005 73.2969 58.8633Z" fill="#00899C"/>
<path d="M73.3965 44.8633C73.2402 45.026 73.0205 45.1074 72.7373 45.1074C72.4541 45.1074 72.2327 45.026 72.0732 44.8633C71.917 44.7005 71.8389 44.471 71.8389 44.1748V38.8916C71.8389 38.5954 71.917 38.3659 72.0732 38.2031C72.2327 38.0371 72.4541 37.9541 72.7373 37.9541H74.8906C75.6491 37.9541 76.2611 38.182 76.7266 38.6377C77.1953 39.0902 77.4297 39.694 77.4297 40.4492C77.4297 41.1979 77.1855 41.8001 76.6973 42.2559C76.209 42.7083 75.571 42.9346 74.7832 42.9346H73.6309V44.1748C73.6309 44.471 73.5527 44.7005 73.3965 44.8633ZM73.6309 41.5869H74.4072C74.7913 41.5869 75.0892 41.4893 75.3008 41.2939C75.5124 41.0986 75.6182 40.8187 75.6182 40.4541C75.6182 40.0895 75.5124 39.8112 75.3008 39.6191C75.0924 39.4238 74.7979 39.3262 74.417 39.3262H73.6309V41.5869Z" fill="#03B50A"/>
<path d="M74.166 31.1221C73.0788 31.1221 72.2292 30.8014 71.6172 30.1602C71.0085 29.5189 70.7041 28.6237 70.7041 27.4746C70.7041 26.332 71.0085 25.4401 71.6172 24.7988C72.2292 24.1543 73.0592 23.832 74.1074 23.832C74.7715 23.832 75.3493 23.9655 75.8408 24.2324C76.3324 24.4961 76.71 24.8786 76.9736 25.3799C77.0941 25.6012 77.1543 25.8193 77.1543 26.0342C77.1543 26.262 77.0827 26.446 76.9395 26.5859C76.7962 26.7227 76.6074 26.791 76.373 26.791C76.1745 26.791 76.0101 26.7487 75.8799 26.6641C75.7497 26.5762 75.6357 26.4346 75.5381 26.2393C75.2223 25.5915 74.752 25.2676 74.127 25.2676C73.6354 25.2676 73.2464 25.4645 72.96 25.8584C72.6735 26.2523 72.5303 26.7894 72.5303 27.4697C72.5303 28.1598 72.6735 28.7018 72.96 29.0957C73.2464 29.4896 73.637 29.6865 74.1318 29.6865C74.7861 29.6865 75.2614 29.361 75.5576 28.71C75.652 28.5179 75.7578 28.3796 75.875 28.2949C75.9954 28.2103 76.1501 28.168 76.3389 28.168C76.5928 28.168 76.7962 28.2412 76.9492 28.3877C77.1022 28.5309 77.1787 28.7214 77.1787 28.959C77.1787 29.1283 77.1413 29.3008 77.0664 29.4766C76.8548 29.9779 76.487 30.3783 75.9629 30.6777C75.4388 30.974 74.8398 31.1221 74.166 31.1221Z" fill="#B89F1B"/>
<path d="M73.8307 17C75.7323 17 77 15.6796 77 13.6898C77 10.3796 74.2557 9 72.3505 9C72.012 9 71.7959 9.12205 71.7959 9.35876C71.7959 9.45123 71.8355 9.54739 71.9112 9.63615C72.3397 10.1614 72.7683 10.7864 72.7755 11.515C72.7755 11.6075 72.7683 11.6963 72.7431 11.7924C72.545 11.3597 72.1741 11.0712 71.8427 11.0712C71.6951 11.0712 71.5942 11.1822 71.5942 11.3486C71.5942 11.4448 71.6194 11.6704 71.6194 11.8331C71.6194 12.6616 71 13.1461 71 14.4813C71 15.994 72.1273 17 73.8307 17ZM73.9136 15.9607C73.2401 15.9607 72.7935 15.5428 72.7935 14.9214C72.7935 14.2705 73.2437 14.0374 73.3013 13.6195C73.3085 13.5862 73.3301 13.5751 73.3553 13.5973C73.521 13.749 73.6291 13.9339 73.7191 14.1484C73.91 13.8821 74 13.3199 73.9388 12.7134C73.9352 12.6801 73.9568 12.6616 73.9892 12.6727C74.7779 13.0536 75.1885 13.8599 75.1885 14.5811C75.1885 15.3135 74.7707 15.9607 73.9136 15.9607Z" fill="white"/>
<defs>
<filter id="filter0_dd_6101_339059" x="0" y="0" width="144" height="147" filterUnits="userSpaceOnUse" color-interpolation-filters="sRGB">
<feFlood flood-opacity="0" result="BackgroundImageFix"/>
<feColorMatrix in="SourceAlpha" type="matrix" values="0 0 0 0 0 0 0 0 0 0 0 0 0 0 0 0 0 0 127 0" result="hardAlpha"/>
<feOffset dx="-3" dy="-3"/>
<feGaussianBlur stdDeviation="2"/>
<feComposite in2="hardAlpha" operator="out"/>
<feColorMatrix type="matrix" values="0 0 0 0 1 0 0 0 0 1 0 0 0 0 1 0 0 0 0.04 0"/>
<feBlend mode="normal" in2="BackgroundImageFix" result="effect1_dropShadow_6101_339059"/>
<feColorMatrix in="SourceAlpha" type="matrix" values="0 0 0 0 0 0 0 0 0 0 0 0 0 0 0 0 0 0 127 0" result="hardAlpha"/>
<feOffset dy="3"/>
<feGaussianBlur stdDeviation="1.5"/>
<feComposite in2="hardAlpha" operator="out"/>
<feColorMatrix type="matrix" values="0 0 0 0 0 0 0 0 0 0 0 0 0 0 0 0 0 0 0.15 0"/>
<feBlend mode="normal" in2="effect1_dropShadow_6101_339059" result="effect2_dropShadow_6101_339059"/>
<feBlend mode="normal" in="SourceGraphic" in2="effect2_dropShadow_6101_339059" result="shape"/>
</filter>
</defs>
</svg>
