<svg width="7" height="8" viewBox="0 0 7 8" fill="none" xmlns="http://www.w3.org/2000/svg">
<path d="M3.33073 8C5.23229 8 6.5 6.67961 6.5 4.68978C6.5 1.37957 3.7557 0 1.85054 0C1.512 0 1.29592 0.122053 1.29592 0.358761C1.29592 0.451225 1.33553 0.547388 1.41116 0.636154C1.83974 1.16135 2.26831 1.78641 2.27551 2.51503C2.27551 2.60749 2.26831 2.69626 2.2431 2.79242C2.04502 2.35969 1.67407 2.0712 1.34274 2.0712C1.19508 2.0712 1.09424 2.18215 1.09424 2.34859C1.09424 2.44475 1.11945 2.67037 1.11945 2.8331C1.11945 3.66158 0.5 4.14609 0.5 5.48128C0.5 6.99399 1.62725 8 3.33073 8ZM3.41357 6.9607C2.7401 6.9607 2.29352 6.54276 2.29352 5.92141C2.29352 5.27046 2.7437 5.03745 2.80132 4.61951C2.80852 4.58622 2.83013 4.57513 2.85534 4.59732C3.02101 4.74896 3.12905 4.93389 3.21909 5.14841C3.40996 4.88211 3.5 4.31993 3.43878 3.71336C3.43517 3.68007 3.45678 3.66158 3.4892 3.67268C4.27791 4.05363 4.68848 4.85992 4.68848 5.58114C4.68848 6.31345 4.27071 6.9607 3.41357 6.9607Z" fill="#FF764B"/>
</svg>
