<svg width="40" height="40" viewBox="0 0 40 40" fill="none" xmlns="http://www.w3.org/2000/svg">
<g clip-path="url(#clip0_3022_113889)">
<path d="M25.9201 21.1396C27.1926 21.8775 28.3154 22.8477 29.2301 23.9996C30.1648 21.7364 30.2516 19.212 29.4745 16.89C28.6974 14.568 27.1087 12.6043 25.0001 11.3596C23.8629 10.6953 22.6048 10.2639 21.2992 10.0904C19.9937 9.91694 18.6666 10.0049 17.3954 10.3493C16.1241 10.6936 14.9341 11.2874 13.8945 12.0961C12.8549 12.9047 11.9866 13.9121 11.3401 15.0596C10.571 16.4081 10.1199 17.9144 10.0212 19.4637C9.92238 21.013 10.1785 22.5643 10.7701 23.9996C12.5263 21.7766 15.0266 20.2629 17.8105 19.7374C20.5943 19.2119 23.4743 19.7098 25.9201 21.1396Z" fill="#FCD779"/>
<path d="M27.5098 9.05078C28.6143 9.05078 29.5098 8.15535 29.5098 7.05078C29.5098 5.94621 28.6143 5.05078 27.5098 5.05078C26.4052 5.05078 25.5098 5.94621 25.5098 7.05078C25.5098 8.15535 26.4052 9.05078 27.5098 9.05078Z" fill="#FCD779"/>
<path d="M33 14.5312C34.1046 14.5312 35 13.6358 35 12.5312C35 11.4267 34.1046 10.5312 33 10.5312C31.8954 10.5312 31 11.4267 31 12.5312C31 13.6358 31.8954 14.5312 33 14.5312Z" fill="#FCD779"/>
<path d="M35 22.0195C36.1046 22.0195 37 21.1241 37 20.0195C37 18.915 36.1046 18.0195 35 18.0195C33.8954 18.0195 33 18.915 33 20.0195C33 21.1241 33.8954 22.0195 35 22.0195Z" fill="#FCD779"/>
<path d="M33 29.5195C34.1046 29.5195 35 28.6241 35 27.5195C35 26.415 34.1046 25.5195 33 25.5195C31.8954 25.5195 31 26.415 31 27.5195C31 28.6241 31.8954 29.5195 33 29.5195Z" fill="#FCD779"/>
<path d="M27.5098 35C28.6143 35 29.5098 34.1046 29.5098 33C29.5098 31.8954 28.6143 31 27.5098 31C26.4052 31 25.5098 31.8954 25.5098 33C25.5098 34.1046 26.4052 35 27.5098 35Z" fill="#FCD779"/>
<path d="M20.02 37C21.1246 37 22.02 36.1046 22.02 35C22.02 33.8954 21.1246 33 20.02 33C18.9154 33 18.02 33.8954 18.02 35C18.02 36.1046 18.9154 37 20.02 37Z" fill="#FCD779"/>
<path d="M12.5098 35C13.6143 35 14.5098 34.1046 14.5098 33C14.5098 31.8954 13.6143 31 12.5098 31C11.4052 31 10.5098 31.8954 10.5098 33C10.5098 34.1046 11.4052 35 12.5098 35Z" fill="#FCD779"/>
<path d="M6.99999 29.54C6.64926 29.5397 6.3048 29.4471 6.00115 29.2716C5.6975 29.096 5.44535 28.8438 5.26999 28.54C3.76762 25.9541 2.97401 23.0177 2.96926 20.027C2.96451 17.0364 3.74879 14.0974 5.24293 11.5067C6.73708 8.91605 8.88821 6.7654 11.4792 5.27182C14.0702 3.77825 17.0093 2.99462 20 3.00003C20.5304 3.00003 21.0391 3.21074 21.4142 3.58581C21.7893 3.96089 22 4.46959 22 5.00003C22 5.53046 21.7893 6.03917 21.4142 6.41424C21.0391 6.78931 20.5304 7.00003 20 7.00003C17.712 6.99565 15.4634 7.59521 13.4813 8.73813C11.4992 9.88105 9.85382 11.5269 8.71144 13.5093C7.56907 15.4917 6.97014 17.7405 6.97515 20.0285C6.98016 22.3165 7.58894 24.5626 8.73999 26.54C8.87066 26.7679 8.95518 27.0192 8.98871 27.2797C9.02224 27.5402 9.00413 27.8048 8.93542 28.0583C8.8667 28.3118 8.74872 28.5493 8.58822 28.7572C8.42772 28.9651 8.22784 29.1394 7.99999 29.27C7.69615 29.4463 7.35125 29.5394 6.99999 29.54Z" fill="#FCD779"/>
</g>
<defs>
<clipPath id="clip0_3022_113889">
<rect width="40" height="40" fill="white"/>
</clipPath>
</defs>
</svg>
