<svg width="15" height="22" viewBox="0 0 15 22" fill="none" xmlns="http://www.w3.org/2000/svg">
<path d="M7.32154 4.44092C7.65357 4.44092 7.95517 4.35791 8.22633 4.19189C8.50302 4.02588 8.72161 3.80729 8.88209 3.53613C9.0481 3.25944 9.13111 2.95508 9.13111 2.62305C9.13111 2.29102 9.0481 1.98942 8.88209 1.71826C8.72161 1.44157 8.50302 1.22021 8.22633 1.0542C7.95517 0.888184 7.65357 0.805176 7.32154 0.805176C6.98951 0.805176 6.68515 0.888184 6.40845 1.0542C6.1373 1.22021 5.91871 1.44157 5.75269 1.71826C5.58668 1.98942 5.50367 2.29102 5.50367 2.62305C5.50367 2.95508 5.58668 3.25944 5.75269 3.53613C5.91871 3.80729 6.1373 4.02588 6.40845 4.19189C6.68515 4.35791 6.98951 4.44092 7.32154 4.44092ZM0.788826 10.791C1.00465 10.8298 1.21217 10.7965 1.41138 10.6914C1.6106 10.5863 1.73788 10.4064 1.79322 10.1519L2.49879 6.99756H3.7522C3.82968 6.99756 3.89332 7.02799 3.94312 7.08887C3.99293 7.14421 4.00676 7.21061 3.98463 7.28809L3.14625 10.5171C3.03004 10.9543 3.0411 11.3665 3.17945 11.7539C3.32333 12.1413 3.57512 12.4318 3.93482 12.6255C4.30006 12.8192 4.75937 12.8468 5.31275 12.7085L8.35914 11.9531L7.76978 14.8916C7.71998 15.1185 7.75872 15.3315 7.88599 15.5308C8.01881 15.7244 8.19866 15.8462 8.42554 15.896C8.61923 15.9347 8.82122 15.896 9.0315 15.7798C9.24179 15.6636 9.3746 15.481 9.42994 15.2319L10.2766 10.9902C10.3154 10.7855 10.2932 10.6029 10.2102 10.4424C10.1272 10.2819 10.0082 10.1574 9.85328 10.0688C9.69833 9.98031 9.53508 9.94434 9.36353 9.96094L6.65748 10.2266L7.45435 7.20508C7.47095 7.14421 7.50693 7.09717 7.56226 7.06396C7.62314 7.03076 7.68401 7.02523 7.74488 7.04736L10.8494 8.22607C11.1316 8.33122 11.3917 8.31462 11.6296 8.17627C11.8676 8.03792 11.9866 7.8221 11.9866 7.52881V3.61084C11.9866 3.37842 11.9036 3.1792 11.7376 3.01318C11.5771 2.84717 11.3751 2.76416 11.1316 2.76416C10.8992 2.76416 10.7 2.84717 10.5339 3.01318C10.3679 3.1792 10.2849 3.37842 10.2849 3.61084V6.20068L8.69947 5.58643C8.43938 5.49235 8.17099 5.42041 7.89429 5.37061C7.6176 5.3208 7.33814 5.2959 7.05592 5.2959H1.80982C1.6106 5.2959 1.43352 5.35954 1.27857 5.48682C1.12916 5.6141 1.03232 5.77181 0.988045 5.95996L0.141365 9.77832C0.0860263 10.0107 0.121996 10.2293 0.249275 10.4341C0.376554 10.6333 0.556404 10.7523 0.788826 10.791ZM4.61549 20.9844C4.8147 21.0231 5.01669 20.9816 5.22144 20.8599C5.43173 20.7437 5.56178 20.5638 5.61158 20.3203L6.45826 16.0786C6.46379 16.0454 6.46656 16.0067 6.46656 15.9624C6.47209 15.9181 6.47486 15.8766 6.47486 15.8379V13.2563L5.50367 13.4888C5.31552 13.5386 5.1329 13.5718 4.95582 13.5884C4.78427 13.5994 4.61825 13.5994 4.45777 13.5884L4.7732 15.8711L3.95142 19.9717C3.90715 20.2041 3.94866 20.4172 4.07594 20.6108C4.20321 20.8101 4.38306 20.9346 4.61549 20.9844ZM7.85279 19.3159H13.3645C13.4918 19.3159 13.5997 19.2716 13.6882 19.1831C13.7823 19.0946 13.8294 18.9839 13.8294 18.8511C13.8294 18.7238 13.7823 18.6159 13.6882 18.5273C13.5997 18.4388 13.4918 18.3945 13.3645 18.3945H7.85279C7.71998 18.3945 7.6093 18.4388 7.52076 18.5273C7.43222 18.6159 7.38795 18.7238 7.38795 18.8511C7.38795 18.9839 7.43222 19.0946 7.52076 19.1831C7.6093 19.2716 7.71998 19.3159 7.85279 19.3159ZM6.99781 21.1836H14.2029C14.3302 21.1836 14.4381 21.1366 14.5266 21.0425C14.6207 20.9539 14.6677 20.846 14.6677 20.7188C14.6677 20.5915 14.6207 20.4836 14.5266 20.395C14.4381 20.3065 14.3302 20.2622 14.2029 20.2622H6.99781C6.87053 20.2622 6.76262 20.3065 6.67408 20.395C6.58554 20.4836 6.54127 20.5915 6.54127 20.7188C6.54127 20.846 6.58554 20.9539 6.67408 21.0425C6.76262 21.1366 6.87053 21.1836 6.99781 21.1836Z" fill="black"/>
</svg>
