<svg width="24" height="24" viewBox="0 0 24 24" fill="none" xmlns="http://www.w3.org/2000/svg">
<path d="M2.32636 21.6736C2.76779 22.1025 3.49931 22.1025 3.92812 21.6736L12 13.6004L20.0719 21.6736C20.5007 22.1025 21.2448 22.1151 21.6736 21.6736C22.1025 21.2321 22.1025 20.5131 21.6736 20.0842L13.6018 11.9984L21.6736 3.92527C22.1025 3.49639 22.1151 2.76476 21.6736 2.33587C21.2322 1.89437 20.5007 1.89437 20.0719 2.33587L12 10.409L3.92812 2.33587C3.49931 1.89437 2.75518 1.88176 2.32636 2.33587C1.89754 2.77737 1.89754 3.49639 2.32636 3.92527L10.3982 11.9984L2.32636 20.0842C1.89754 20.5131 1.88493 21.2447 2.32636 21.6736Z" fill="#FF0000"/>
</svg>
