<svg width="20" height="16" viewBox="0 0 20 16" fill="none" xmlns="http://www.w3.org/2000/svg">
<path d="M10.4014 6.00635C10.7389 6.00635 11.0433 5.92611 11.3145 5.76562C11.5911 5.59961 11.8097 5.38102 11.9702 5.10986C12.1362 4.83317 12.2192 4.52881 12.2192 4.19678C12.2192 3.85921 12.1362 3.55485 11.9702 3.28369C11.8097 3.007 11.5911 2.78841 11.3145 2.62793C11.0433 2.46191 10.7389 2.37891 10.4014 2.37891C10.0693 2.37891 9.76497 2.46191 9.48828 2.62793C9.21712 2.78841 8.99854 3.007 8.83252 3.28369C8.67204 3.55485 8.5918 3.85921 8.5918 4.19678C8.5918 4.52881 8.67204 4.83317 8.83252 5.10986C8.99854 5.38102 9.21712 5.59961 9.48828 5.76562C9.76497 5.92611 10.0693 6.00635 10.4014 6.00635ZM6.4502 9.97412C6.92057 10.0295 7.30241 10.1291 7.5957 10.2729C7.89453 10.4113 8.15739 10.5607 8.38428 10.7212C8.61117 10.8761 8.84082 11.009 9.07324 11.1196C9.3112 11.2303 9.60173 11.2856 9.94482 11.2856C10.0002 11.2856 10.0444 11.2829 10.0776 11.2773L10.8911 8.99463C10.9797 8.75114 11.154 8.62939 11.4141 8.62939H18.7935C19.0369 8.62939 19.2445 8.54085 19.416 8.36377C19.5931 8.18669 19.6816 7.9764 19.6816 7.73291C19.6816 7.49495 19.5931 7.2902 19.416 7.11865C19.2445 6.94157 19.0369 6.85303 18.7935 6.85303H4.88965L3.73584 3.08447C3.6639 2.84652 3.52279 2.66943 3.3125 2.55322C3.10221 2.43148 2.88086 2.40658 2.64844 2.47852C2.41602 2.55046 2.2417 2.69434 2.12549 2.91016C2.01481 3.12598 1.99268 3.34456 2.05908 3.56592L3.354 7.89062C3.41488 8.09538 3.52002 8.26969 3.66943 8.41357C3.82438 8.55745 4.00977 8.62939 4.22559 8.62939H6.59961C6.68815 8.62939 6.75456 8.6626 6.79883 8.729C6.84863 8.78988 6.8597 8.86182 6.83203 8.94482L6.4502 9.97412ZM5.4707 2.83545C5.8304 2.83545 6.13477 2.70817 6.38379 2.45361C6.63835 2.19906 6.76562 1.89469 6.76562 1.54053C6.76562 1.18083 6.63835 0.873698 6.38379 0.619141C6.13477 0.364583 5.8304 0.237305 5.4707 0.237305C5.111 0.237305 4.80387 0.364583 4.54932 0.619141C4.30029 0.873698 4.17578 1.18083 4.17578 1.54053C4.17578 1.89469 4.30029 2.19906 4.54932 2.45361C4.80387 2.70817 5.111 2.83545 5.4707 2.83545ZM0.589844 13.4771H1.42822C1.98161 13.4771 2.44368 13.4079 2.81445 13.2695C3.19076 13.1312 3.52279 12.9735 3.81055 12.7964C4.10384 12.6138 4.39437 12.4561 4.68213 12.3232C4.96989 12.1849 5.30469 12.1157 5.68652 12.1157C6.07389 12.1157 6.41146 12.1849 6.69922 12.3232C6.98698 12.4561 7.27474 12.6138 7.5625 12.7964C7.85026 12.9735 8.17952 13.1312 8.55029 13.2695C8.92659 13.4079 9.39144 13.4771 9.94482 13.4771C10.5037 13.4771 10.9686 13.4079 11.3394 13.2695C11.7157 13.1312 12.0477 12.9735 12.3354 12.7964C12.6232 12.6138 12.911 12.4561 13.1987 12.3232C13.4865 12.1849 13.8241 12.1157 14.2114 12.1157C14.5933 12.1157 14.9281 12.1849 15.2158 12.3232C15.5036 12.4561 15.7913 12.6138 16.0791 12.7964C16.3669 12.9735 16.6961 13.1312 17.0669 13.2695C17.4432 13.4079 17.9108 13.4771 18.4697 13.4771H19.3081C19.4409 13.4771 19.5516 13.4328 19.6401 13.3442C19.7287 13.2557 19.7729 13.1478 19.7729 13.0205C19.7729 12.8877 19.7287 12.777 19.6401 12.6885C19.5516 12.5999 19.4409 12.5557 19.3081 12.5557H18.4697C18.0713 12.5557 17.7227 12.4865 17.4238 12.3481C17.125 12.2098 16.8289 12.0521 16.5356 11.875C16.2479 11.6924 15.9214 11.5347 15.5562 11.4019C15.1909 11.2635 14.7427 11.1943 14.2114 11.1943C13.6746 11.1943 13.2236 11.2635 12.8584 11.4019C12.4932 11.5347 12.1639 11.6924 11.8706 11.875C11.5828 12.0521 11.2896 12.2098 10.9907 12.3481C10.6919 12.4865 10.3433 12.5557 9.94482 12.5557C9.54639 12.5557 9.19775 12.4865 8.89893 12.3481C8.6001 12.2098 8.30404 12.0521 8.01074 11.875C7.72298 11.6924 7.39648 11.5347 7.03125 11.4019C6.66602 11.2635 6.21777 11.1943 5.68652 11.1943C5.15527 11.1943 4.70703 11.2635 4.3418 11.4019C3.97656 11.5347 3.6473 11.6924 3.354 11.875C3.06624 12.0521 2.77295 12.2098 2.47412 12.3481C2.17529 12.4865 1.82666 12.5557 1.42822 12.5557H0.589844C0.457031 12.5557 0.346354 12.5999 0.257812 12.6885C0.169271 12.777 0.125 12.8877 0.125 13.0205C0.125 13.1478 0.169271 13.2557 0.257812 13.3442C0.346354 13.4328 0.457031 13.4771 0.589844 13.4771ZM0.805664 15.7847C0.94401 15.7847 1.06022 15.7376 1.1543 15.6436C1.24837 15.5495 1.29541 15.4333 1.29541 15.2949C1.29541 15.1621 1.24837 15.0487 1.1543 14.9546C1.06022 14.8605 0.94401 14.8135 0.805664 14.8135C0.672852 14.8135 0.559408 14.8605 0.465332 14.9546C0.371257 15.0487 0.324219 15.1621 0.324219 15.2949C0.324219 15.4333 0.371257 15.5495 0.465332 15.6436C0.559408 15.7376 0.672852 15.7847 0.805664 15.7847ZM2.36621 15.5024C2.49902 15.5024 2.61247 15.4554 2.70654 15.3613C2.80062 15.2673 2.84766 15.1538 2.84766 15.021C2.84766 14.8826 2.80062 14.7664 2.70654 14.6724C2.61247 14.5783 2.49902 14.5312 2.36621 14.5312C2.22786 14.5312 2.11165 14.5783 2.01758 14.6724C1.9235 14.7664 1.87646 14.8826 1.87646 15.021C1.87646 15.1538 1.9235 15.2673 2.01758 15.3613C2.11165 15.4554 2.22786 15.5024 2.36621 15.5024ZM3.81885 14.8135C3.95719 14.8135 4.07341 14.7664 4.16748 14.6724C4.26156 14.5838 4.30859 14.4704 4.30859 14.332C4.30859 14.1992 4.26156 14.0858 4.16748 13.9917C4.07341 13.8976 3.95719 13.8506 3.81885 13.8506C3.68604 13.8506 3.57259 13.8976 3.47852 13.9917C3.38444 14.0858 3.3374 14.1992 3.3374 14.332C3.3374 14.4704 3.38444 14.5838 3.47852 14.6724C3.57259 14.7664 3.68604 14.8135 3.81885 14.8135ZM5.3877 14.4482C5.52604 14.4482 5.64225 14.4012 5.73633 14.3071C5.8304 14.2131 5.87744 14.0968 5.87744 13.9585C5.87744 13.8257 5.8304 13.7122 5.73633 13.6182C5.64225 13.5241 5.52604 13.4771 5.3877 13.4771C5.25488 13.4771 5.14144 13.5241 5.04736 13.6182C4.95329 13.7122 4.90625 13.8257 4.90625 13.9585C4.90625 14.0968 4.95329 14.2131 5.04736 14.3071C5.14144 14.4012 5.25488 14.4482 5.3877 14.4482ZM6.95654 14.8135C7.08936 14.8135 7.2028 14.7664 7.29688 14.6724C7.39095 14.5838 7.43799 14.4704 7.43799 14.332C7.43799 14.1992 7.39095 14.0858 7.29688 13.9917C7.2028 13.8976 7.08936 13.8506 6.95654 13.8506C6.8182 13.8506 6.70199 13.8976 6.60791 13.9917C6.51937 14.0858 6.4751 14.1992 6.4751 14.332C6.4751 14.4704 6.51937 14.5838 6.60791 14.6724C6.70199 14.7664 6.8182 14.8135 6.95654 14.8135ZM8.42578 15.5024C8.56413 15.5024 8.68034 15.4554 8.77441 15.3613C8.86849 15.2673 8.91553 15.1538 8.91553 15.021C8.91553 14.8826 8.86849 14.7664 8.77441 14.6724C8.68034 14.5783 8.56413 14.5312 8.42578 14.5312C8.29297 14.5312 8.17952 14.5783 8.08545 14.6724C7.99137 14.7664 7.94434 14.8826 7.94434 15.021C7.94434 15.1538 7.99137 15.2673 8.08545 15.3613C8.17952 15.4554 8.29297 15.5024 8.42578 15.5024ZM9.96143 15.7847C10.0942 15.7847 10.2077 15.7376 10.3018 15.6436C10.3958 15.5495 10.4429 15.4333 10.4429 15.2949C10.4429 15.1621 10.3958 15.0487 10.3018 14.9546C10.2077 14.8605 10.0942 14.8135 9.96143 14.8135C9.82308 14.8135 9.70687 14.8605 9.61279 14.9546C9.51872 15.0487 9.47168 15.1621 9.47168 15.2949C9.47168 15.4333 9.51872 15.5495 9.61279 15.6436C9.70687 15.7376 9.82308 15.7847 9.96143 15.7847ZM11.4888 15.5024C11.6271 15.5024 11.7406 15.4554 11.8291 15.3613C11.9232 15.2673 11.9702 15.1538 11.9702 15.021C11.9702 14.8826 11.9232 14.7664 11.8291 14.6724C11.7406 14.5783 11.6271 14.5312 11.4888 14.5312C11.356 14.5312 11.2425 14.5783 11.1484 14.6724C11.0544 14.7664 11.0073 14.8826 11.0073 15.021C11.0073 15.1538 11.0544 15.2673 11.1484 15.3613C11.2425 15.4554 11.356 15.5024 11.4888 15.5024ZM12.958 14.8135C13.0964 14.8135 13.2126 14.7664 13.3066 14.6724C13.4007 14.5838 13.4478 14.4704 13.4478 14.332C13.4478 14.1992 13.4007 14.0858 13.3066 13.9917C13.2126 13.8976 13.0964 13.8506 12.958 13.8506C12.8252 13.8506 12.7118 13.8976 12.6177 13.9917C12.5236 14.0858 12.4766 14.1992 12.4766 14.332C12.4766 14.4704 12.5236 14.5838 12.6177 14.6724C12.7118 14.7664 12.8252 14.8135 12.958 14.8135ZM14.5269 14.4482C14.6652 14.4482 14.7786 14.4012 14.8672 14.3071C14.9613 14.2131 15.0083 14.0968 15.0083 13.9585C15.0083 13.8257 14.9613 13.7122 14.8672 13.6182C14.7786 13.5241 14.6652 13.4771 14.5269 13.4771C14.394 13.4771 14.2806 13.5241 14.1865 13.6182C14.0924 13.7122 14.0454 13.8257 14.0454 13.9585C14.0454 14.0968 14.0924 14.2131 14.1865 14.3071C14.2806 14.4012 14.394 14.4482 14.5269 14.4482ZM16.0957 14.8135C16.234 14.8135 16.3475 14.7664 16.436 14.6724C16.5301 14.5838 16.5771 14.4704 16.5771 14.332C16.5771 14.1992 16.5301 14.0858 16.436 13.9917C16.3475 13.8976 16.234 13.8506 16.0957 13.8506C15.9629 13.8506 15.8494 13.8976 15.7554 13.9917C15.6613 14.0858 15.6143 14.1992 15.6143 14.332C15.6143 14.4704 15.6613 14.5838 15.7554 14.6724C15.8494 14.7664 15.9629 14.8135 16.0957 14.8135ZM17.5566 15.5024C17.6895 15.5024 17.8029 15.4554 17.897 15.3613C17.991 15.2673 18.0381 15.1538 18.0381 15.021C18.0381 14.8826 17.991 14.7664 17.897 14.6724C17.8029 14.5783 17.6895 14.5312 17.5566 14.5312C17.4183 14.5312 17.3021 14.5783 17.208 14.6724C17.1195 14.7664 17.0752 14.8826 17.0752 15.021C17.0752 15.1538 17.1195 15.2673 17.208 15.3613C17.3021 15.4554 17.4183 15.5024 17.5566 15.5024ZM19.1006 15.7847C19.2389 15.7847 19.3551 15.7376 19.4492 15.6436C19.5433 15.5495 19.5903 15.4333 19.5903 15.2949C19.5903 15.1621 19.5433 15.0487 19.4492 14.9546C19.3551 14.8605 19.2389 14.8135 19.1006 14.8135C18.9678 14.8135 18.8543 14.8605 18.7603 14.9546C18.6662 15.0487 18.6191 15.1621 18.6191 15.2949C18.6191 15.4333 18.6662 15.5495 18.7603 15.6436C18.8543 15.7376 18.9678 15.7847 19.1006 15.7847Z" fill="black"/>
</svg>
