<svg width="24" height="24" viewBox="0 0 24 24" fill="none" xmlns="http://www.w3.org/2000/svg">
<path d="M5.41119 22H18.5888C20.8702 22 22 20.8702 22 18.6323V5.36773C22 3.12982 20.8702 2 18.5888 2H5.41119C3.14068 2 2 3.11896 2 5.36773V18.6323C2 20.881 3.14068 22 5.41119 22ZM5.43292 20.2509C4.34655 20.2509 3.74905 19.6752 3.74905 18.5454V5.45464C3.74905 4.32482 4.34655 3.74905 5.43292 3.74905H18.5671C19.6426 3.74905 20.2509 4.32482 20.2509 5.45464V18.5454C20.2509 19.6752 19.6426 20.2509 18.5671 20.2509H5.43292ZM6.97556 11.9837C6.97556 12.516 7.34492 12.8745 7.89897 12.8745H11.0929V16.0793C11.0929 16.6225 11.4622 17.0027 11.9946 17.0027C12.5378 17.0027 12.918 16.6334 12.918 16.0793V12.8745H16.1228C16.6659 12.8745 17.0462 12.516 17.0462 11.9837C17.0462 11.4405 16.6659 11.0603 16.1228 11.0603H12.918V7.86638C12.918 7.31233 12.5378 6.9321 11.9946 6.9321C11.4622 6.9321 11.0929 7.31233 11.0929 7.86638V11.0603H7.89897C7.34492 11.0603 6.97556 11.4405 6.97556 11.9837Z" fill="#AFBEB8"/>
</svg>
