<svg width="40" height="40" viewBox="0 0 40 40" fill="none" xmlns="http://www.w3.org/2000/svg">
<path d="M8.98219 31H31.0178C33.6402 31 35 29.666 35 27.129V14.6344C35 12.0974 33.6402 10.7633 31.0178 10.7633H27.6912C26.7442 10.7633 26.4407 10.6085 25.858 10.001L24.8867 8.9767C24.2554 8.33351 23.624 8 22.3857 8H17.5536C16.3153 8 15.6839 8.33351 15.0526 8.9767L14.0813 10.001C13.5107 10.5966 13.1951 10.7633 12.2481 10.7633H8.98219C6.35977 10.7633 5 12.0974 5 14.6344V27.129C5 29.666 6.35977 31 8.98219 31ZM9.12788 28.6655C8.01093 28.6655 7.3796 28.0818 7.3796 26.9265V14.8369C7.3796 13.6815 8.01093 13.0979 9.12788 13.0979H12.9401C14.0206 13.0979 14.5913 12.9192 15.1983 12.2522L16.1331 11.2517C16.813 10.5251 17.1773 10.3345 18.2456 10.3345H21.6936C22.762 10.3345 23.1263 10.5251 23.8062 11.2398L24.741 12.2522C25.348 12.9073 25.9187 13.0979 26.9992 13.0979H30.8843C32.0012 13.0979 32.6204 13.6815 32.6204 14.8369V26.9265C32.6204 28.0818 32.0012 28.6655 30.8843 28.6655H9.12788ZM20.0061 27.0813C23.6362 27.0813 26.5621 24.2227 26.5621 20.6375C26.5621 17.0523 23.6483 14.1818 20.0061 14.1818C16.3638 14.1818 13.45 17.0523 13.45 20.6375C13.45 24.2227 16.3638 27.0813 20.0061 27.0813ZM26.9749 16.3496C26.9749 17.2191 27.6912 17.8861 28.5654 17.8861C29.4031 17.8861 30.1315 17.2071 30.1315 16.3496C30.1315 15.5277 29.4031 14.8131 28.5654 14.8131C27.7034 14.8131 26.9749 15.5277 26.9749 16.3496ZM20.0061 24.9492C17.5779 24.9492 15.6111 23.0316 15.6111 20.6375C15.6111 18.2315 17.5779 16.3138 20.0061 16.3138C22.4342 16.3138 24.4011 18.2315 24.4011 20.6375C24.4011 23.0316 22.4342 24.9492 20.0061 24.9492Z" fill="#C07036"/>
</svg>
