<svg width="10" height="10" viewBox="0 0 10 10" fill="none" xmlns="http://www.w3.org/2000/svg">
<path d="M8.43581 3.47088C9.26953 3.47088 9.96651 2.78276 9.96651 1.94467C9.96651 1.10218 9.26953 0.414062 8.43581 0.414062C7.59768 0.414062 6.90511 1.10218 6.90511 1.94467C6.90511 2.78276 7.59768 3.47088 8.43581 3.47088ZM4.99946 9.50069C7.46093 9.50069 9.49892 7.45841 9.49892 5.00149C9.49892 4.60891 9.44598 4.22957 9.34011 3.86786C9.11514 3.96932 8.87252 4.03107 8.61667 4.03989C8.70048 4.34425 8.74901 4.67066 8.74901 5.00149C8.75342 7.08347 7.08156 8.75083 4.99946 8.75083C2.91736 8.75083 1.25432 7.08347 1.25432 5.00149C1.25432 2.9195 2.91295 1.25215 4.99505 1.25215C5.48028 1.25215 5.93905 1.34037 6.36253 1.50799C6.40664 1.25656 6.49928 1.02278 6.6272 0.815462C6.12432 0.612557 5.57292 0.502282 4.99505 0.502282C2.53799 0.502282 0.5 2.54016 0.5 5.00149C0.5 7.45841 2.5424 9.50069 4.99946 9.50069ZM2.69238 5.47787H4.99505C5.16709 5.47787 5.30383 5.34554 5.30383 5.16911V2.1961C5.30383 2.02407 5.16709 1.89174 4.99505 1.89174C4.82301 1.89174 4.69067 2.02407 4.69067 2.1961V4.86475H2.69238C2.51593 4.86475 2.3836 4.99708 2.3836 5.16911C2.3836 5.34554 2.51593 5.47787 2.69238 5.47787Z" fill="#7A948F"/>
</svg>
