<svg width="66" height="59" viewBox="0 0 66 59" fill="none" xmlns="http://www.w3.org/2000/svg">
<rect width="66" height="59" fill="white"/>
<path d="M51.8738 50.9995L52.2046 50.6245L51.8738 50.9995ZM56.1536 53.4288L56.306 52.9526L56.1536 53.4288ZM29.3875 29.814L29.5882 30.272L29.3875 29.814ZM36.6125 29.814L36.4118 30.272L36.6125 29.814ZM9.84639 53.4288L9.99881 53.905L9.84639 53.4288ZM14.1262 50.9995L14.4569 51.3744L14.1262 50.9995ZM2.10126 53.5H0V54.5H2.10126V53.5ZM19.0161 44.8984L21.0652 41.4663L20.2065 40.9536L18.1575 44.3858L19.0161 44.8984ZM44.9348 41.4663L46.9839 44.8984L47.8425 44.3858L45.7935 40.9536L44.9348 41.4663ZM63.8987 54.5H66V53.5H63.8987V54.5ZM46.9839 44.8984C49.0039 48.2819 50.0655 50.0712 51.5431 51.3744L52.2046 50.6245C50.8719 49.449 49.8965 47.8262 47.8425 44.3858L46.9839 44.8984ZM63.8987 53.5C59.8918 53.5 57.9985 53.4944 56.306 52.9526L56.0012 53.905C57.8776 54.5056 59.9581 54.5 63.8987 54.5V53.5ZM51.5431 51.3744C52.8383 52.5169 54.3563 53.3785 56.0012 53.905L56.306 52.9526C54.7927 52.4683 53.3962 51.6755 52.2046 50.6245L51.5431 51.3744ZM21.0652 41.4663C23.1079 38.0446 24.6227 35.5083 25.9547 33.6801C27.2876 31.8506 28.3924 30.796 29.5882 30.272L29.1868 29.3561C27.7442 29.9883 26.5109 31.2185 25.1465 33.0913C23.7811 34.9653 22.2393 37.5488 20.2065 40.9536L21.0652 41.4663ZM45.7935 40.9536C43.7607 37.5489 42.2189 34.9653 40.8535 33.0913C39.4891 31.2185 38.2558 29.9883 36.8132 29.3561L36.4118 30.272C37.6076 30.796 38.7124 31.8506 40.0453 33.6801C41.3773 35.5083 42.8921 38.0446 44.9348 41.4663L45.7935 40.9536ZM29.5882 30.272C31.7629 29.319 34.2371 29.319 36.4118 30.272L36.8132 29.3561C34.3826 28.2909 31.6174 28.2909 29.1868 29.3561L29.5882 30.272ZM2.10126 54.5C6.04191 54.5 8.12237 54.5056 9.99881 53.905L9.69397 52.9526C8.00149 53.4944 6.10817 53.5 2.10126 53.5V54.5ZM18.1575 44.3858C16.1035 47.8262 15.1281 49.449 13.7954 50.6245L14.4569 51.3744C15.9345 50.0712 16.9961 48.2819 19.0161 44.8984L18.1575 44.3858ZM9.99881 53.905C11.6437 53.3785 13.1617 52.5169 14.4569 51.3744L13.7954 50.6245C12.6038 51.6755 11.2073 52.4683 9.69397 52.9526L9.99881 53.905Z" fill="#FDD8FB"/>
</svg>
