<svg width="66" height="59" viewBox="0 0 66 59" fill="none" xmlns="http://www.w3.org/2000/svg">
<rect width="66" height="59" fill="white"/>
<path d="M52.0208 49.255L52.4191 48.9527L52.0208 49.255ZM57.8066 53.3915L57.6494 53.8662L57.8066 53.3915ZM31.0944 4.34794L31.3326 4.78756L31.0944 4.34794ZM39.0559 13.2134L38.5828 13.3752L39.0559 13.2134ZM34.9056 4.34794L34.6674 4.78756L34.9056 4.34794ZM8.19338 53.3915L8.03618 52.9169L8.19338 53.3915ZM13.9792 49.255L13.5809 48.9527L13.9792 49.255ZM17.6786 41.8608L27.4172 13.3752L26.471 13.0517L16.7323 41.5373L17.6786 41.8608ZM38.5828 13.3752L48.3214 41.8608L49.2677 41.5373L39.529 13.0517L38.5828 13.3752ZM48.3214 41.8608C49.6806 45.8363 50.3919 47.9358 51.6226 49.5573L52.4191 48.9527C51.3095 47.4908 50.6501 45.5809 49.2677 41.5373L48.3214 41.8608ZM66 53.5C61.7266 53.5 59.706 53.4939 57.9638 52.9169L57.6494 53.8662C59.5818 54.5061 61.7986 54.5 66 54.5V53.5ZM51.6226 49.5573C53.1499 51.5696 55.2512 53.0719 57.6494 53.8662L57.9638 52.9169C55.7575 52.1861 53.8243 50.804 52.4191 48.9527L51.6226 49.5573ZM27.4172 13.3752C28.3458 10.6591 29.0321 8.653 29.6561 7.23039C30.2915 5.78166 30.8104 5.07052 31.3326 4.78756L30.8562 3.90833C30.0046 4.36976 29.3738 5.38433 28.7403 6.82872C28.0953 8.29924 27.3934 10.3537 26.471 13.0517L27.4172 13.3752ZM39.529 13.0517C38.6066 10.3537 37.9047 8.29924 37.2597 6.82872C36.6262 5.38433 35.9954 4.36976 35.1438 3.90833L34.6674 4.78756C35.1896 5.07052 35.7085 5.78166 36.3439 7.23039C36.9679 8.653 37.6542 10.6591 38.5828 13.3752L39.529 13.0517ZM31.3326 4.78756C32.3728 4.22397 33.6272 4.22397 34.6674 4.78756L35.1438 3.90833C33.8064 3.18372 32.1936 3.18372 30.8562 3.90833L31.3326 4.78756ZM0 54.5C4.20141 54.5 6.4182 54.5061 8.35058 53.8662L8.03618 52.9169C6.29397 53.4939 4.27336 53.5 0 53.5V54.5ZM16.7323 41.5373C15.3499 45.5809 14.6905 47.4908 13.5809 48.9527L14.3774 49.5573C15.6081 47.9358 16.3194 45.8363 17.6786 41.8608L16.7323 41.5373ZM8.35058 53.8662C10.7488 53.0719 12.8501 51.5696 14.3774 49.5573L13.5809 48.9527C12.1757 50.804 10.2425 52.1861 8.03618 52.9169L8.35058 53.8662Z" fill="#FDD8FB"/>
</svg>
