<svg width="32" height="32" viewBox="0 0 32 32" fill="none" xmlns="http://www.w3.org/2000/svg">
<rect width="32" height="32" rx="8" fill="white"/>
<path d="M8.09343 28H23.9066C26.6442 28 28 26.6442 28 23.9587V8.04128C28 5.35578 26.6442 4 23.9066 4H8.09343C5.36882 4 4 5.34275 4 8.04128V23.9587C4 26.6573 5.36882 28 8.09343 28ZM8.1195 25.9011C6.81586 25.9011 6.09886 25.2102 6.09886 23.8544V8.14557C6.09886 6.78979 6.81586 6.09886 8.1195 6.09886H23.8805C25.1711 6.09886 25.9011 6.78979 25.9011 8.14557V23.8544C25.9011 25.2102 25.1711 25.9011 23.8805 25.9011H8.1195ZM14.5856 22.1727C15.0158 22.1727 15.3808 21.9641 15.6415 21.56L21.5991 12.1869C21.7556 11.9261 21.912 11.6393 21.912 11.3525C21.912 10.7659 21.3905 10.3878 20.8561 10.3878C20.5171 10.3878 20.1912 10.5964 19.9435 10.9745L14.5334 19.6567L11.9652 16.3324C11.6524 15.9153 11.3656 15.811 11.0136 15.811C10.44 15.811 9.99674 16.2672 9.99674 16.8408C9.99674 17.1276 10.1141 17.4014 10.2966 17.6491L13.4775 21.56C13.8034 21.9902 14.1554 22.1727 14.5856 22.1727Z" fill="#192621"/>
</svg>
