<svg width="80" height="80" viewBox="0 0 80 80" fill="none" xmlns="http://www.w3.org/2000/svg">
<path d="M0.625 24C0.625 19.7893 0.625486 16.6689 0.827287 14.1989C1.02849 11.7363 1.42671 9.97543 2.19178 8.47389C3.56996 5.76906 5.76906 3.56996 8.47389 2.19178C9.97543 1.42671 11.7363 1.02849 14.1989 0.827287C16.6689 0.625486 19.7893 0.625 24 0.625H56C60.2107 0.625 63.3312 0.625486 65.8011 0.827287C68.2637 1.02849 70.0246 1.42671 71.5261 2.19178C74.2309 3.56996 76.43 5.76906 77.8082 8.47389C78.5733 9.97543 78.9715 11.7363 79.1727 14.1989C79.3745 16.6689 79.375 19.7893 79.375 24V56C79.375 60.2107 79.3745 63.3312 79.1727 65.8011C78.9715 68.2637 78.5733 70.0246 77.8082 71.5261C76.43 74.2309 74.2309 76.43 71.5261 77.8082C70.0246 78.5733 68.2637 78.9715 65.8011 79.1727C63.3312 79.3745 60.2107 79.375 56 79.375H24C19.7893 79.375 16.6689 79.3745 14.1989 79.1727C11.7363 78.9715 9.97543 78.5733 8.47389 77.8082C5.76906 76.43 3.56996 74.2309 2.19178 71.5261C1.42671 70.0246 1.02849 68.2637 0.827287 65.8011C0.625486 63.3312 0.625 60.2107 0.625 56V24Z" fill="white"/>
<path d="M23.125 28.75C26.2316 28.75 28.75 26.2316 28.75 23.125C28.75 20.0184 26.2316 17.5 23.125 17.5C20.0184 17.5 17.5 20.0184 17.5 23.125C17.5 26.2316 20.0184 28.75 23.125 28.75Z" fill="#FF291D"/>
<path d="M23.125 45.625C26.2316 45.625 28.75 43.1066 28.75 40C28.75 36.8934 26.2316 34.375 23.125 34.375C20.0184 34.375 17.5 36.8934 17.5 40C17.5 43.1066 20.0184 45.625 23.125 45.625Z" fill="#FF291D"/>
<path d="M40 28.75C43.1066 28.75 45.625 26.2316 45.625 23.125C45.625 20.0184 43.1066 17.5 40 17.5C36.8934 17.5 34.375 20.0184 34.375 23.125C34.375 26.2316 36.8934 28.75 40 28.75Z" fill="#FF291D"/>
<path d="M40 45.625C43.1066 45.625 45.625 43.1066 45.625 40C45.625 36.8934 43.1066 34.375 40 34.375C36.8934 34.375 34.375 36.8934 34.375 40C34.375 43.1066 36.8934 45.625 40 45.625Z" fill="#FF291D"/>
<path d="M56.875 28.75C59.9816 28.75 62.5 26.2316 62.5 23.125C62.5 20.0184 59.9816 17.5 56.875 17.5C53.7684 17.5 51.25 20.0184 51.25 23.125C51.25 26.2316 53.7684 28.75 56.875 28.75Z" fill="#FCAA0A"/>
<path d="M56.875 45.625C59.9816 45.625 62.5 43.1066 62.5 40C62.5 36.8934 59.9816 34.375 56.875 34.375C53.7684 34.375 51.25 36.8934 51.25 40C51.25 43.1066 53.7684 45.625 56.875 45.625Z" fill="#FCAA0A"/>
<path d="M56.875 62.5C59.9816 62.5 62.5 59.9816 62.5 56.875C62.5 53.7684 59.9816 51.25 56.875 51.25C53.7684 51.25 51.25 53.7684 51.25 56.875C51.25 59.9816 53.7684 62.5 56.875 62.5Z" fill="#FCAA0A"/>
<path d="M39.9871 51.25H23.1379C22.3976 51.25 21.6644 51.3954 20.9804 51.6781C20.2964 51.9608 19.6748 52.3753 19.1513 52.8976C18.6277 53.42 18.2125 54.0399 17.9292 54.7224C17.6458 55.4049 17.5 56.1365 17.5 56.8752C17.5 57.6138 17.6458 58.3451 17.9292 59.0276C18.2125 59.7101 18.6277 60.3303 19.1513 60.8527C19.6748 61.375 20.2964 61.7892 20.9804 62.0719C21.6644 62.3546 22.3976 62.5 23.1379 62.5H39.9871C40.7274 62.5 41.4606 62.3546 42.1446 62.0719C42.8286 61.7892 43.4502 61.375 43.9737 60.8527C44.4973 60.3303 44.9125 59.7101 45.1958 59.0276C45.4792 58.3451 45.625 57.6138 45.625 56.8752C45.625 56.1365 45.4792 55.4049 45.1958 54.7224C44.9125 54.0399 44.4973 53.42 43.9737 52.8976C43.4502 52.3753 42.8286 51.9608 42.1446 51.6781C41.4606 51.3954 40.7274 51.25 39.9871 51.25Z" fill="#00C94D"/>
<path d="M0.625 24C0.625 19.7893 0.625486 16.6689 0.827287 14.1989C1.02849 11.7363 1.42671 9.97543 2.19178 8.47389C3.56996 5.76906 5.76906 3.56996 8.47389 2.19178C9.97543 1.42671 11.7363 1.02849 14.1989 0.827287C16.6689 0.625486 19.7893 0.625 24 0.625H56C60.2107 0.625 63.3312 0.625486 65.8011 0.827287C68.2637 1.02849 70.0246 1.42671 71.5261 2.19178C74.2309 3.56996 76.43 5.76906 77.8082 8.47389C78.5733 9.97543 78.9715 11.7363 79.1727 14.1989C79.3745 16.6689 79.375 19.7893 79.375 24V56C79.375 60.2107 79.3745 63.3312 79.1727 65.8011C78.9715 68.2637 78.5733 70.0246 77.8082 71.5261C76.43 74.2309 74.2309 76.43 71.5261 77.8082C70.0246 78.5733 68.2637 78.9715 65.8011 79.1727C63.3312 79.3745 60.2107 79.375 56 79.375H24C19.7893 79.375 16.6689 79.3745 14.1989 79.1727C11.7363 78.9715 9.97543 78.5733 8.47389 77.8082C5.76906 76.43 3.56996 74.2309 2.19178 71.5261C1.42671 70.0246 1.02849 68.2637 0.827287 65.8011C0.625486 63.3312 0.625 60.2107 0.625 56V24Z" stroke="url(#paint0_linear_5555_326616)" stroke-width="1.25"/>
<defs>
<linearGradient id="paint0_linear_5555_326616" x1="40" y1="0" x2="40" y2="80" gradientUnits="userSpaceOnUse">
<stop stop-color="#0C695E"/>
<stop offset="0.508333" stop-color="#FF291D"/>
<stop offset="1" stop-color="#FCAA0A"/>
</linearGradient>
</defs>
</svg>
