<svg width="24" height="24" viewBox="0 0 24 24" fill="none" xmlns="http://www.w3.org/2000/svg">
<path d="M21.9517 3.60225L22.7029 2.82011C23.0836 2.41901 23.1036 1.87752 22.733 1.49648L22.4726 1.22573C22.132 0.884796 21.571 0.944962 21.2004 1.30595L20.4291 2.06804L21.9517 3.60225ZM10.0718 14.3116L12.1152 13.4493L21.2205 4.32424L19.6979 2.81008L10.5927 11.9351L9.69119 13.9105C9.59102 14.1412 9.84144 14.4019 10.0718 14.3116ZM6.28549 21H17.965C19.8782 21 21.0001 19.8869 21.0001 17.7511V7.152L19.0368 9.11739V17.5806C19.0368 18.5533 18.5159 19.0446 17.8448 19.0446H6.40569C5.47414 19.0446 4.96328 18.5533 4.96328 17.5806V6.41999C4.96328 5.44732 5.47414 4.95597 6.40569 4.95597H14.97L16.9333 2.99058H6.28549C4.13189 2.99058 3 4.10363 3 6.24952V17.7511C3 19.897 4.13189 21 6.28549 21Z" fill="white"/>
</svg>
