<svg width="41" height="41" viewBox="0 0 41 41" fill="none" xmlns="http://www.w3.org/2000/svg">
<path d="M10.6168 35.5H30.3832C33.8053 35.5 35.5 33.8053 35.5 30.4484V10.5516C35.5 7.19473 33.8053 5.5 30.3832 5.5H10.6168C7.21103 5.5 5.5 7.17844 5.5 10.5516V30.4484C5.5 33.8216 7.21103 35.5 10.6168 35.5ZM12.5559 20.4919C12.5559 19.6445 13.1426 19.0578 13.99 19.0578H19.0904V13.9574C19.0904 13.11 19.6608 12.5071 20.4919 12.5071C21.3392 12.5071 21.9259 13.11 21.9259 13.9574V19.0578H27.0426C27.8737 19.0578 28.4766 19.6445 28.4766 20.4919C28.4766 21.3229 27.8737 21.877 27.0426 21.877H21.9259V26.9938C21.9259 27.8411 21.3392 28.4278 20.4919 28.4278C19.6608 28.4278 19.0904 27.8248 19.0904 26.9938V21.877H13.99C13.1426 21.877 12.5559 21.3229 12.5559 20.4919Z" fill="#B3EFDE"/>
</svg>
