<svg width="40" height="40" viewBox="0 0 40 40" fill="none" xmlns="http://www.w3.org/2000/svg">
<path d="M0 12.8C0 8.31958 0 6.07937 0.871948 4.36808C1.63893 2.86278 2.86278 1.63893 4.36808 0.871948C6.07937 0 8.31958 0 12.8 0H27.2C31.6804 0 33.9206 0 35.6319 0.871948C37.1372 1.63893 38.3611 2.86278 39.1281 4.36808C40 6.07937 40 8.31958 40 12.8V27.2C40 31.6804 40 33.9206 39.1281 35.6319C38.3611 37.1372 37.1372 38.3611 35.6319 39.1281C33.9206 40 31.6804 40 27.2 40H12.8C8.31958 40 6.07937 40 4.36808 39.1281C2.86278 38.3611 1.63893 37.1372 0.871948 35.6319C0 33.9206 0 31.6804 0 27.2V12.8Z" fill="#D930AA"/>
<path d="M10.2101 32H29.7891C31.9365 32 33.2375 30.5095 33.2375 28.5768C33.2375 27.9832 33.0607 27.3642 32.7449 26.8084L22.9428 9.73053C22.2859 8.58105 21.1617 8 19.9996 8C18.8375 8 17.7007 8.58105 17.0565 9.73053L7.25435 26.8084C6.9133 27.3768 6.76172 27.9832 6.76172 28.5768C6.76172 30.5095 8.06277 32 10.2101 32ZM20.0122 23.5621C19.3554 23.5621 18.9891 23.1832 18.9765 22.5137L18.8122 15.6421C18.7996 14.9726 19.2922 14.4926 19.9996 14.4926C20.6817 14.4926 21.2122 14.9853 21.1996 15.6547L21.0101 22.5137C20.9975 23.1958 20.6312 23.5621 20.0122 23.5621ZM20.0122 27.7937C19.2544 27.7937 18.5975 27.1874 18.5975 26.4421C18.5975 25.6842 19.2417 25.0779 20.0122 25.0779C20.7701 25.0779 21.4144 25.6716 21.4144 26.4421C21.4144 27.2 20.7575 27.7937 20.0122 27.7937Z" fill="white"/>
</svg>
