<svg width="33" height="32" viewBox="0 0 33 32" fill="none" xmlns="http://www.w3.org/2000/svg">
<path d="M16.5 28C23.0647 28 28.5 22.5529 28.5 16C28.5 9.43529 23.0529 4 16.4882 4C9.93529 4 4.5 9.43529 4.5 16C4.5 22.5529 9.94706 28 16.5 28ZM16.5 26C10.9471 26 6.51176 21.5529 6.51176 16C6.51176 10.4471 10.9353 6 16.4882 6C22.0412 6 26.5 10.4471 26.5 16C26.5 21.5529 22.0529 26 16.5 26ZM16.5353 22.3176C19.9706 22.3176 22.8294 19.4471 22.8294 16.0118C22.8294 12.5882 19.9588 9.70588 16.5353 9.70588C13.1 9.70588 10.2412 12.5765 10.2412 16.0118C10.2412 19.4353 13.1118 22.3176 16.5353 22.3176ZM16.5353 20.4824C14.1118 20.4824 12.0765 18.4471 12.0765 16.0118C12.0765 13.5647 14.0882 11.5412 16.5353 11.5412C18.9588 11.5412 20.9941 13.5765 20.9941 16.0118C20.9941 18.4588 18.9706 20.4824 16.5353 20.4824Z" fill="white"/>
<circle cx="16.5" cy="16" r="1" fill="white"/>
</svg>
