<svg width="24" height="24" viewBox="0 0 24 24" fill="none" xmlns="http://www.w3.org/2000/svg">
<path d="M2 9.25054C2 13.659 5.59517 17.9951 11.2749 21.7206C11.4864 21.8551 11.7885 22 12 22C12.2115 22 12.5136 21.8551 12.7351 21.7206C18.4048 17.9951 22 13.659 22 9.25054C22 5.58715 19.5529 3 16.29 3C14.427 3 12.9164 3.91068 12 5.30773C11.1037 3.92102 9.57301 3 7.70997 3C4.44713 3 2 5.58715 2 9.25054ZM3.62135 9.25054C3.62135 6.49782 5.35347 4.66612 7.68983 4.66612C9.58308 4.66612 10.6707 5.87691 11.3152 6.91176C11.5871 7.32571 11.7583 7.43954 12 7.43954C12.2417 7.43954 12.3927 7.31536 12.6848 6.91176C13.3797 5.8976 14.427 4.66612 16.3102 4.66612C18.6465 4.66612 20.3787 6.49782 20.3787 9.25054C20.3787 13.1002 16.4209 17.25 12.2115 20.1269C12.1108 20.1993 12.0403 20.2511 12 20.2511C11.9597 20.2511 11.8892 20.1993 11.7986 20.1269C7.57905 17.25 3.62135 13.1002 3.62135 9.25054Z" fill="#547771"/>
</svg>
