<svg width="64" height="64" viewBox="0 0 64 64" fill="none" xmlns="http://www.w3.org/2000/svg">
<path d="M40.7733 23.8263H32V27.8263H40L37.9733 45.333H32V46.6663H38.4C38.611 46.6676 38.8151 46.5906 38.9727 46.4502C39.1303 46.3099 39.2303 46.1161 39.2533 45.9063L41.6267 24.733C41.636 24.6161 41.6207 24.4985 41.5819 24.3878C41.543 24.2772 41.4814 24.1759 41.401 24.0905C41.3206 24.0051 41.2232 23.9374 41.1151 23.8919C41.007 23.8464 40.8906 23.8241 40.7733 23.8263V23.8263Z" fill="#87AFB2"/>
<path d="M37.9733 45.3741L39.9467 27.8008H32V45.3741H37.9733Z" fill="#2EB7E2"/>
<path d="M26.0249 45.3324L23.9982 27.7991H31.9982V23.7991H23.2249C23.1039 23.7962 22.9837 23.8194 22.8725 23.8673C22.7614 23.9152 22.6619 23.9865 22.5808 24.0764C22.4998 24.1663 22.4391 24.2727 22.403 24.3882C22.3669 24.5037 22.3562 24.6257 22.3716 24.7457L24.7449 45.9191C24.768 46.1288 24.868 46.3226 25.0256 46.463C25.1832 46.6034 25.3872 46.6803 25.5982 46.6791H31.9982V45.3324H26.0249Z" fill="#DAE8ED"/>
<path d="M26.0256 45.3741H31.9989V27.8008H24.0522L26.0256 45.3741Z" fill="#71CEF2"/>
</svg>
