<svg width="21" height="16" viewBox="0 0 21 16" fill="none" xmlns="http://www.w3.org/2000/svg">
<path d="M10.8906 12.7422C11.1042 12.7422 11.2865 12.6667 11.4375 12.5156C11.5938 12.3594 11.6719 12.1745 11.6719 11.9609V8.03125C11.6719 7.83854 11.599 7.66146 11.4531 7.5L9.40625 5.21875C9.34375 5.14583 9.32812 5.07031 9.35938 4.99219C9.39583 4.90885 9.46354 4.86719 9.5625 4.86719H12.0703C12.2214 4.86719 12.3255 4.91406 12.3828 5.00781C12.4401 5.09635 12.4688 5.19271 12.4688 5.29688V7.24219C12.4688 7.45573 12.5443 7.63802 12.6953 7.78906C12.8516 7.9401 13.0365 8.01562 13.25 8.01562H16.3984C16.612 8.01562 16.7943 7.9401 16.9453 7.78906C17.0964 7.63802 17.1719 7.45573 17.1719 7.24219C17.1719 7.02344 17.0964 6.83854 16.9453 6.6875C16.7943 6.53646 16.612 6.46094 16.3984 6.46094H14.0312V3.69531C14.0312 3.25781 13.8776 2.88802 13.5703 2.58594C13.2682 2.27865 12.8984 2.125 12.4609 2.125H8.625C8.22396 2.125 7.85938 2.23698 7.53125 2.46094C7.20833 2.67969 6.96875 2.97135 6.8125 3.33594C6.66146 3.70573 6.625 4.08594 6.70312 4.47656C6.78125 4.86198 6.96094 5.19531 7.24219 5.47656L10.1094 8.35938V11.9609C10.1094 12.1745 10.1849 12.3594 10.3359 12.5156C10.487 12.6667 10.6719 12.7422 10.8906 12.7422ZM5.23438 15.8203C5.82812 15.8203 6.38021 15.7109 6.89062 15.4922C7.40625 15.2734 7.85677 14.9688 8.24219 14.5781C8.63281 14.1875 8.9375 13.737 9.15625 13.2266C9.375 12.7109 9.48438 12.1589 9.48438 11.5703C9.48438 10.9818 9.375 10.4323 9.15625 9.92188C8.9375 9.40625 8.63281 8.95312 8.24219 8.5625C7.85677 8.17188 7.40625 7.86719 6.89062 7.64844C6.38021 7.42969 5.82812 7.32031 5.23438 7.32031C4.64583 7.32031 4.09375 7.42969 3.57812 7.64844C3.06771 7.86719 2.61719 8.17188 2.22656 8.5625C1.84115 8.95312 1.53906 9.40625 1.32031 9.92188C1.10156 10.4323 0.992188 10.9818 0.992188 11.5703C0.992188 12.1589 1.10156 12.7109 1.32031 13.2266C1.53906 13.737 1.84115 14.1875 2.22656 14.5781C2.61719 14.9688 3.06771 15.2734 3.57812 15.4922C4.09375 15.7109 4.64583 15.8203 5.23438 15.8203ZM5.23438 14.7188C4.66146 14.7188 4.13542 14.5755 3.65625 14.2891C3.18229 14.0078 2.80208 13.6302 2.51562 13.1562C2.23438 12.6771 2.09375 12.1484 2.09375 11.5703C2.09375 10.9922 2.23438 10.4661 2.51562 9.99219C2.80208 9.51302 3.18229 9.13281 3.65625 8.85156C4.13542 8.5651 4.66146 8.42188 5.23438 8.42188C5.8125 8.42188 6.33854 8.5651 6.8125 8.85156C7.29167 9.13281 7.67188 9.51302 7.95312 9.99219C8.23958 10.4661 8.38281 10.9922 8.38281 11.5703C8.38281 12.1484 8.23958 12.6771 7.95312 13.1562C7.67188 13.6302 7.29167 14.0078 6.8125 14.2891C6.33854 14.5755 5.8125 14.7188 5.23438 14.7188ZM18.6328 9.23438C18.9505 9.52083 19.2031 9.86719 19.3906 10.2734C19.5833 10.6745 19.6797 11.1068 19.6797 11.5703C19.6797 12.1484 19.5365 12.6771 19.25 13.1562C18.9688 13.6302 18.5911 14.0078 18.1172 14.2891C17.6432 14.5755 17.1172 14.7188 16.5391 14.7188C15.9609 14.7188 15.4323 14.5755 14.9531 14.2891C14.4792 14.0078 14.099 13.6302 13.8125 13.1562C13.5312 12.6771 13.3906 12.1484 13.3906 11.5703C13.3906 11.1328 13.474 10.7188 13.6406 10.3281C13.7292 10.1146 13.7396 9.9375 13.6719 9.79688C13.6042 9.65625 13.5026 9.5625 13.3672 9.51562C13.237 9.46354 13.1042 9.46354 12.9688 9.51562C12.8385 9.5625 12.737 9.66927 12.6641 9.83594C12.5443 10.1068 12.4505 10.388 12.3828 10.6797C12.3203 10.9661 12.2891 11.263 12.2891 11.5703C12.2891 12.1589 12.3984 12.7109 12.6172 13.2266C12.8359 13.737 13.138 14.1875 13.5234 14.5781C13.9141 14.9688 14.3672 15.2734 14.8828 15.4922C15.3984 15.7109 15.9505 15.8203 16.5391 15.8203C17.1276 15.8203 17.6771 15.7109 18.1875 15.4922C18.7031 15.2734 19.1536 14.9688 19.5391 14.5781C19.9297 14.1875 20.2344 13.737 20.4531 13.2266C20.6719 12.7109 20.7812 12.1589 20.7812 11.5703C20.7812 10.9297 20.651 10.3359 20.3906 9.78906C20.1302 9.24219 19.776 8.77083 19.3281 8.375C19.1823 8.25 19.0339 8.19792 18.8828 8.21875C18.737 8.23438 18.6146 8.29427 18.5156 8.39844C18.4219 8.5026 18.375 8.63281 18.375 8.78906C18.3802 8.9401 18.4661 9.08854 18.6328 9.23438ZM16.5391 4.22656C16.8516 4.22656 17.1354 4.15104 17.3906 4C17.6458 3.84375 17.849 3.63802 18 3.38281C18.1562 3.1224 18.2344 2.83333 18.2344 2.51562C18.2344 2.20312 18.1562 1.91927 18 1.66406C17.849 1.40365 17.6458 1.19792 17.3906 1.04688C17.1354 0.890625 16.8516 0.8125 16.5391 0.8125C16.2214 0.8125 15.9323 0.890625 15.6719 1.04688C15.4115 1.19792 15.2031 1.40365 15.0469 1.66406C14.8958 1.91927 14.8203 2.20312 14.8203 2.51562C14.8203 2.83333 14.8958 3.1224 15.0469 3.38281C15.2031 3.63802 15.4115 3.84375 15.6719 4C15.9323 4.15104 16.2214 4.22656 16.5391 4.22656Z" fill="black"/>
</svg>
