<svg width="40" height="40" viewBox="0 0 40 40" fill="none" xmlns="http://www.w3.org/2000/svg">
<path d="M14.0801 18.86C12.8076 18.1221 11.6848 17.152 10.7701 16C9.83542 18.2632 9.74865 20.7876 10.5257 23.1096C11.3028 25.4316 12.8915 27.3953 15.0001 28.64C16.1373 29.3043 17.3954 29.7358 18.701 29.9092C20.0066 30.0827 21.3336 29.9947 22.6049 29.6503C23.8761 29.306 25.0662 28.7122 26.1057 27.9035C27.1453 27.0949 28.0136 26.0875 28.6601 24.94C29.4292 23.5915 29.8803 22.0852 29.979 20.5359C30.0778 18.9867 29.8217 17.4353 29.2301 16C27.4739 18.223 24.9736 19.7367 22.1898 20.2622C19.4059 20.7878 16.5259 20.2898 14.0801 18.86V18.86Z" fill="#799B8B"/>
<path d="M12.49 34.9492C13.5946 34.9492 14.49 34.0538 14.49 32.9492C14.49 31.8446 13.5946 30.9492 12.49 30.9492C11.3854 30.9492 10.49 31.8446 10.49 32.9492C10.49 34.0538 11.3854 34.9492 12.49 34.9492Z" fill="#799B8B"/>
<path d="M34.7499 26.4792C34.9255 26.7832 35.0179 27.1281 35.0179 27.4792C35.0179 27.8303 34.9255 28.1752 34.7499 28.4792C33.2609 31.0741 31.1135 33.2302 28.5245 34.7295C25.9355 36.2289 22.9967 37.0184 20.0049 37.0184C17.0131 37.0184 14.0743 36.2289 11.4853 34.7295C8.89636 33.2302 6.74892 31.0741 5.25992 28.4792C5.11521 28.2516 5.01805 27.997 4.97427 27.7308C4.93049 27.4647 4.94101 27.1924 5.00518 26.9304C5.06935 26.6684 5.18586 26.4221 5.34769 26.2063C5.50952 25.9905 5.71334 25.8097 5.94687 25.6747C6.1804 25.5397 6.43882 25.4534 6.70659 25.4208C6.97436 25.3883 7.24594 25.4103 7.505 25.4854C7.76405 25.5606 8.00523 25.6874 8.21402 25.8582C8.42281 26.0289 8.59489 26.2402 8.71992 26.4792C9.85796 28.4656 11.5004 30.1163 13.4811 31.2643C15.4618 32.4123 17.7106 33.0169 19.9999 33.0169C22.2893 33.0169 24.538 32.4123 26.5187 31.2643C28.4995 30.1163 30.1419 28.4656 31.2799 26.4792C31.5454 26.0234 31.9802 25.691 32.4897 25.5543C32.9991 25.4176 33.5419 25.4876 33.9999 25.7492C34.3133 25.9175 34.5732 26.1705 34.7499 26.4792V26.4792Z" fill="#799B8B"/>
<path d="M28 9C26.8954 9 26 9.89543 26 11C26 12.1046 26.8954 13 28 13C29.1046 13 30 12.1046 30 11C30 9.89543 29.1046 9 28 9Z" fill="#799B8B"/>
<path d="M22.4238 14.4031C21.6372 15.1786 21.6282 16.4449 22.4036 17.2315C23.179 18.0181 24.4453 18.0272 25.232 17.2517C26.0186 16.4763 26.0276 15.21 25.2522 14.4234C24.4768 13.6367 23.2105 13.6277 22.4238 14.4031Z" fill="#799B8B"/>
<path d="M14.4238 14.4031C13.6372 15.1786 13.6282 16.4449 14.4036 17.2315C15.179 18.0181 16.4453 18.0272 17.232 17.2517C18.0186 16.4763 18.0276 15.21 17.2522 14.4234C16.4768 13.6367 15.2105 13.6277 14.4238 14.4031Z" fill="#799B8B"/>
<path d="M20 8.82813C18.8954 8.82812 18 9.72356 18 10.8281C18 11.9327 18.8954 12.8281 20 12.8281C21.1046 12.8281 22 11.9327 22 10.8281C22 9.72356 21.1046 8.82813 20 8.82813Z" fill="#799B8B"/>
<path d="M17 3C15.8954 3 15 3.89543 15 5C15 6.10457 15.8954 7 17 7C18.1046 7 19 6.10457 19 5C19 3.89543 18.1046 3 17 3Z" fill="#799B8B"/>
<path d="M23 3C21.8954 3 21 3.89543 21 5C21 6.10457 21.8954 7 23 7C24.1046 7 25 6.10457 25 5C25 3.89543 24.1046 3 23 3Z" fill="#799B8B"/>
<path d="M12 9C10.8954 9 10 9.89543 10 11C10 12.1046 10.8954 13 12 13C13.1046 13 14 12.1046 14 11C14 9.89543 13.1046 9 12 9Z" fill="#799B8B"/>
</svg>
