<svg width="16" height="22" viewBox="0 0 16 22" fill="none" xmlns="http://www.w3.org/2000/svg">
<path d="M11.3058 4.2749C11.6434 4.2749 11.9477 4.19466 12.2189 4.03418C12.4956 3.86816 12.7142 3.64958 12.8746 3.37842C13.0407 3.10173 13.1237 2.7946 13.1237 2.45703C13.1237 2.125 13.0407 1.8234 12.8746 1.55225C12.7142 1.27555 12.4956 1.05697 12.2189 0.896484C11.9477 0.730469 11.6434 0.647461 11.3058 0.647461C10.9738 0.647461 10.6694 0.730469 10.3927 0.896484C10.116 1.05697 9.89743 1.27555 9.73695 1.55225C9.57647 1.8234 9.49622 2.125 9.49622 2.45703C9.49622 2.7946 9.57647 3.10173 9.73695 3.37842C9.89743 3.64958 10.116 3.86816 10.3927 4.03418C10.6694 4.19466 10.9738 4.2749 11.3058 4.2749ZM5.55335 10.8408L8.64954 13.9536V18.8262H10.3512V13.7046C10.3512 13.5773 10.3346 13.4583 10.3014 13.3477C10.2682 13.2314 10.2101 13.118 10.1271 13.0073L8.04359 10.3594L9.81995 7.63672C9.88083 7.54818 9.96107 7.50667 10.0607 7.51221C10.1603 7.51221 10.2322 7.56201 10.2765 7.66162L10.8659 8.84863C10.9378 8.98698 11.0429 9.10042 11.1813 9.18896C11.3196 9.27751 11.469 9.32178 11.6295 9.32178H15.0494C15.2819 9.32178 15.4811 9.23877 15.6471 9.07275C15.8131 8.90674 15.8961 8.70475 15.8961 8.4668C15.8961 8.23438 15.8131 8.03516 15.6471 7.86914C15.4811 7.70312 15.2819 7.62012 15.0494 7.62012H12.1525L11.256 5.80225C11.0789 5.44255 10.8188 5.15755 10.4757 4.94727C10.1326 4.73698 9.75908 4.63184 9.35511 4.63184H4.80628C4.66794 4.63184 4.53236 4.66781 4.39954 4.73975C4.27227 4.80615 4.16989 4.89746 4.09242 5.01367L2.39076 7.57861C2.26348 7.76676 2.22197 7.97705 2.26624 8.20947C2.31051 8.43636 2.43226 8.61621 2.63148 8.74902C2.81963 8.88184 3.02992 8.92611 3.26234 8.88184C3.49476 8.83203 3.67738 8.70752 3.81019 8.5083L5.26283 6.3335H6.66566C6.721 6.3335 6.75973 6.35563 6.78187 6.3999C6.80954 6.43864 6.80677 6.48568 6.77357 6.54102L5.33753 8.69922C5.11618 9.03125 5.02487 9.39925 5.06361 9.80322C5.10234 10.2072 5.26559 10.5531 5.55335 10.8408ZM0.415169 12.0942L3.76038 15.0244C4.02601 15.2624 4.28887 15.3426 4.54896 15.2651C4.81458 15.1821 5.01103 15.041 5.13831 14.8418L6.42493 12.8579L5.0138 11.4468C5.00827 11.4357 4.99997 11.4246 4.9889 11.4136C4.97783 11.4025 4.96676 11.3914 4.9557 11.3804L4.11732 13.0654L1.52747 10.8076C1.35592 10.6582 1.15117 10.589 0.913216 10.6001C0.680794 10.6112 0.487109 10.708 0.332161 10.8906C0.177214 11.0677 0.105273 11.2752 0.116341 11.5132C0.132943 11.7456 0.232552 11.9393 0.415169 12.0942ZM4.64027 19.4653H10.4342C10.8935 19.4653 11.3113 19.4128 11.6876 19.3076C12.0695 19.2025 12.407 19.0226 12.7003 18.7681C12.8165 18.6685 12.8802 18.5605 12.8912 18.4443C12.9023 18.3281 12.8774 18.2257 12.8165 18.1372C12.7501 18.0376 12.6505 17.9712 12.5177 17.938C12.3849 17.9103 12.2493 17.9463 12.111 18.0459C11.8896 18.223 11.6517 18.3503 11.3971 18.4277C11.1425 18.5052 10.8216 18.5439 10.4342 18.5439H4.64027C4.2529 18.5439 3.93193 18.5052 3.67738 18.4277C3.42282 18.3503 3.1821 18.223 2.95521 18.0459C2.83346 17.9518 2.71172 17.9131 2.58997 17.9297C2.46823 17.9518 2.37139 18.0044 2.29945 18.0874C2.21644 18.1704 2.17493 18.2756 2.17493 18.4028C2.17493 18.5356 2.23857 18.6574 2.36585 18.7681C2.66468 19.0226 3.00225 19.2025 3.37855 19.3076C3.75485 19.4128 4.17542 19.4653 4.64027 19.4653ZM4.64027 21.3745C4.83395 21.3745 5.00273 21.3026 5.14661 21.1587C5.29049 21.0203 5.36243 20.8543 5.36243 20.6606C5.36243 20.4614 5.29049 20.2899 5.14661 20.146C5.00273 20.0077 4.83395 19.9385 4.64027 19.9385C4.44658 19.9385 4.2778 20.0077 4.13392 20.146C3.99004 20.2899 3.9181 20.4614 3.9181 20.6606C3.9181 20.8543 3.99004 21.0203 4.13392 21.1587C4.2778 21.3026 4.44658 21.3745 4.64027 21.3745ZM10.4342 21.3745C10.6279 21.3745 10.7939 21.3026 10.9323 21.1587C11.0761 21.0203 11.1481 20.8543 11.1481 20.6606C11.1481 20.4614 11.0761 20.2899 10.9323 20.146C10.7939 20.0077 10.6279 19.9385 10.4342 19.9385C10.235 19.9385 10.0634 20.0077 9.91956 20.146C9.78122 20.2899 9.71204 20.4614 9.71204 20.6606C9.71204 20.8543 9.78122 21.0203 9.91956 21.1587C10.0634 21.3026 10.235 21.3745 10.4342 21.3745Z" fill="black"/>
</svg>
