<svg width="24" height="24" viewBox="0 0 24 24" fill="none" xmlns="http://www.w3.org/2000/svg">
<path d="M4.09343 24H19.9066C22.6442 24 24 22.6442 24 19.9587V4.04128C24 1.35578 22.6442 0 19.9066 0H4.09343C1.36882 0 0 1.34275 0 4.04128V19.9587C0 22.6573 1.36882 24 4.09343 24ZM4.1195 21.9011C2.81586 21.9011 2.09886 21.2102 2.09886 19.8544V4.14557C2.09886 2.78979 2.81586 2.09886 4.1195 2.09886H19.8805C21.1711 2.09886 21.9011 2.78979 21.9011 4.14557V19.8544C21.9011 21.2102 21.1711 21.9011 19.8805 21.9011H4.1195ZM5.97067 11.9804C5.97067 12.6192 6.41391 13.0494 7.07876 13.0494H10.9115V16.8952C10.9115 17.547 11.3547 18.0033 11.9935 18.0033C12.6453 18.0033 13.1016 17.56 13.1016 16.8952V13.0494H16.9473C17.5991 13.0494 18.0554 12.6192 18.0554 11.9804C18.0554 11.3286 17.5991 10.8724 16.9473 10.8724H13.1016V7.03965C13.1016 6.3748 12.6453 5.91852 11.9935 5.91852C11.3547 5.91852 10.9115 6.3748 10.9115 7.03965V10.8724H7.07876C6.41391 10.8724 5.97067 11.3286 5.97067 11.9804Z" fill="#2C6300"/>
</svg>
