<svg width="39" height="66" viewBox="0 0 39 66" fill="none" xmlns="http://www.w3.org/2000/svg">
<path d="M36.9591 31.8314C35.806 30.2313 34.1517 29.0629 32.2592 28.512C30.3667 27.9611 28.3445 28.0594 26.5142 28.791C24.1955 29.6238 21.7462 30.0324 19.2831 29.9975C16.82 30.0324 14.3707 29.6238 12.052 28.791C10.2217 28.0594 8.19951 27.9611 6.307 28.512C4.4145 29.0629 2.76023 30.2313 1.60713 31.8314C0.546887 33.4182 -0.0129232 35.2872 0.000226453 37.1962V56.4037C0.015086 58.9538 1.03743 61.3942 2.84394 63.1922C4.65046 64.9901 7.09431 65.9993 9.64166 65.9993H28.9245C31.4719 65.9993 33.9157 64.9901 35.7222 63.1922C37.5287 61.3942 38.5511 58.9538 38.566 56.4037V37.1962C38.5791 35.2872 38.0193 33.4182 36.9591 31.8314ZM9.64166 33.8261C10.2773 33.8261 10.8987 34.0148 11.4272 34.3683C11.9557 34.7218 12.3676 35.2243 12.6108 35.8122C12.8541 36.4001 12.9177 37.0469 12.7937 37.671C12.6697 38.2951 12.3636 38.8684 11.9142 39.3184C11.4647 39.7683 10.8921 40.0748 10.2686 40.1989C9.64522 40.323 8.99903 40.2594 8.41179 40.0159C7.82454 39.7724 7.32261 39.3599 6.96947 38.8308C6.61634 38.3017 6.42785 37.6798 6.42785 37.0434C6.42785 36.1902 6.76645 35.3719 7.36915 34.7685C7.97186 34.1651 8.7893 33.8261 9.64166 33.8261ZM9.64166 43.4781C10.2773 43.4781 10.8987 43.6667 11.4272 44.0202C11.9557 44.3738 12.3676 44.8763 12.6108 45.4641C12.8541 46.052 12.9177 46.6989 12.7937 47.323C12.6697 47.9471 12.3636 48.5204 11.9142 48.9703C11.4647 49.4203 10.8921 49.7267 10.2686 49.8508C9.64522 49.975 8.99903 49.9113 8.41179 49.6678C7.82454 49.4243 7.32261 49.0118 6.96947 48.4827C6.61634 47.9536 6.42785 47.3317 6.42785 46.6954C6.42785 45.8421 6.76645 45.0238 7.36915 44.4204C7.97186 43.8171 8.7893 43.4781 9.64166 43.4781ZM19.2831 59.5646H9.64166C8.7893 59.5646 7.97186 59.2256 7.36915 58.6223C6.76645 58.0189 6.42785 57.2006 6.42785 56.3473C6.42785 55.494 6.76645 54.6757 7.36915 54.0724C7.97186 53.469 8.7893 53.13 9.64166 53.13H19.2831C20.1354 53.13 20.9529 53.469 21.5556 54.0724C22.1583 54.6757 22.4969 55.494 22.4969 56.3473C22.4969 57.2006 22.1583 58.0189 21.5556 58.6223C20.9529 59.2256 20.1354 59.5646 19.2831 59.5646ZM19.2831 49.9127C18.6475 49.9127 18.0261 49.724 17.4976 49.3705C16.9691 49.017 16.5572 48.5145 16.3139 47.9266C16.0707 47.3387 16.007 46.6919 16.131 46.0678C16.255 45.4437 16.5611 44.8704 17.0106 44.4204C17.46 43.9705 18.0327 43.6641 18.6561 43.5399C19.2795 43.4158 19.9257 43.4794 20.513 43.7229C21.1002 43.9665 21.6021 44.3789 21.9553 44.908C22.3084 45.4371 22.4969 46.0591 22.4969 46.6954C22.4969 47.5487 22.1583 48.367 21.5556 48.9703C20.9529 49.5737 20.1354 49.9127 19.2831 49.9127ZM19.2831 40.2608C18.6475 40.2608 18.0261 40.0721 17.4976 39.7186C16.9691 39.3651 16.5572 38.8626 16.3139 38.2747C16.0707 37.6868 16.007 37.0399 16.131 36.4158C16.255 35.7918 16.5611 35.2185 17.0106 34.7685C17.46 34.3186 18.0327 34.0121 18.6561 33.888C19.2795 33.7638 19.9257 33.8275 20.513 34.071C21.1002 34.3145 21.6021 34.727 21.9553 35.2561C22.3084 35.7852 22.4969 36.4071 22.4969 37.0434C22.4969 37.8967 22.1583 38.715 21.5556 39.3184C20.9529 39.9217 20.1354 40.2608 19.2831 40.2608ZM28.9245 59.5646C28.2889 59.5646 27.6675 59.376 27.139 59.0225C26.6105 58.6689 26.1986 58.1664 25.9554 57.5786C25.7121 56.9907 25.6485 56.3438 25.7725 55.7197C25.8965 55.0956 26.2026 54.5223 26.652 54.0724C27.1015 53.6224 27.6741 53.316 28.2975 53.1919C28.921 53.0677 29.5671 53.1314 30.1544 53.3749C30.7416 53.6184 31.2436 54.0309 31.5967 54.56C31.9499 55.089 32.1383 55.711 32.1383 56.3473C32.1383 57.2006 31.7997 58.0189 31.197 58.6223C30.5943 59.2256 29.7769 59.5646 28.9245 59.5646ZM28.9245 49.9127C28.2889 49.9127 27.6675 49.724 27.139 49.3705C26.6105 49.017 26.1986 48.5145 25.9554 47.9266C25.7121 47.3387 25.6485 46.6919 25.7725 46.0678C25.8965 45.4437 26.2026 44.8704 26.652 44.4204C27.1015 43.9705 27.6741 43.6641 28.2975 43.5399C28.921 43.4158 29.5671 43.4794 30.1544 43.7229C30.7416 43.9665 31.2436 44.3789 31.5967 44.908C31.9499 45.4371 32.1383 46.0591 32.1383 46.6954C32.1383 47.5487 31.7997 48.367 31.197 48.9703C30.5943 49.5737 29.7769 49.9127 28.9245 49.9127ZM28.9245 40.2608C28.2889 40.2608 27.6675 40.0721 27.139 39.7186C26.6105 39.3651 26.1986 38.8626 25.9554 38.2747C25.7121 37.6868 25.6485 37.0399 25.7725 36.4158C25.8965 35.7918 26.2026 35.2185 26.652 34.7685C27.1015 34.3186 27.6741 34.0121 28.2975 33.888C28.921 33.7638 29.5671 33.8275 30.1544 34.071C30.7416 34.3145 31.2436 34.727 31.5967 35.2561C31.9499 35.7852 32.1383 36.4071 32.1383 37.0434C32.1383 37.8967 31.7997 38.715 31.197 39.3184C30.5943 39.9217 29.7769 40.2608 28.9245 40.2608Z" fill="#12834D"/>
<path d="M3.22185 21.8257C5.00122 21.8257 6.44369 20.3817 6.44369 18.6004C6.44369 16.819 5.00122 15.375 3.22185 15.375C1.44247 15.375 0 16.819 0 18.6004C0 20.3817 1.44247 21.8257 3.22185 21.8257Z" fill="#F53F4A"/>
<path d="M19.5002 15.189C21.2795 15.189 22.722 13.745 22.722 11.9636C22.722 10.1823 21.2795 8.73828 19.5002 8.73828C17.7208 8.73828 16.2783 10.1823 16.2783 11.9636C16.2783 13.745 17.7208 15.189 19.5002 15.189Z" fill="#F53F4A"/>
<path d="M35.7785 21.8335C37.5579 21.8335 39.0003 20.3895 39.0003 18.6082C39.0003 16.8269 37.5579 15.3828 35.7785 15.3828C33.9991 15.3828 32.5566 16.8269 32.5566 18.6082C32.5566 20.3895 33.9991 21.8335 35.7785 21.8335Z" fill="#FF9933"/>
<path d="M24.8273 23.5327C26.6067 23.5327 28.0492 22.0887 28.0492 20.3074C28.0492 18.5261 26.6067 17.082 24.8273 17.082C23.0479 17.082 21.6055 18.5261 21.6055 20.3074C21.6055 22.0887 23.0479 23.5327 24.8273 23.5327Z" fill="#F53F4A"/>
<path d="M14.173 23.5327C15.9524 23.5327 17.3949 22.0887 17.3949 20.3074C17.3949 18.5261 15.9524 17.082 14.173 17.082C12.3936 17.082 10.9512 18.5261 10.9512 20.3074C10.9512 22.0887 12.3936 23.5327 14.173 23.5327Z" fill="#FF9933"/>
<path d="M6.02572 9.35869L11.4972 1.39573C11.7367 1.04716 12.0425 0.749217 12.397 0.518941C12.7515 0.288665 13.1479 0.130672 13.5635 0.0537425C13.979 -0.0231869 14.4056 -0.0174988 14.819 0.0706303C15.2323 0.158759 15.6243 0.327477 15.9725 0.567248C16.3207 0.807019 16.6183 1.11308 16.8483 1.46799C17.0783 1.8229 17.2362 2.21978 17.3131 2.6358C17.3899 3.05182 17.3842 3.47897 17.2961 3.89276C17.2081 4.30655 17.0395 4.69884 16.8 5.04741L11.3285 13.0104C10.8448 13.7143 10.1016 14.197 9.26228 14.3524C8.42302 14.5077 7.55647 14.3229 6.85328 13.8387C6.15008 13.3544 5.66784 12.6105 5.51265 11.7703C5.35745 10.9301 5.54201 10.0627 6.02572 9.35869Z" fill="#12834D"/>
<path d="M24.8429 6.46243C26.6223 6.46243 28.0648 5.01839 28.0648 3.23707C28.0648 1.45576 26.6223 0.0117188 24.8429 0.0117188C23.0636 0.0117188 21.6211 1.45576 21.6211 3.23707C21.6211 5.01839 23.0636 6.46243 24.8429 6.46243Z" fill="#FF9933"/>
<path d="M30.3224 14.4195C32.1018 14.4195 33.5443 12.9754 33.5443 11.1941C33.5443 9.41279 32.1018 7.96875 30.3224 7.96875C28.5431 7.96875 27.1006 9.41279 27.1006 11.1941C27.1006 12.9754 28.5431 14.4195 30.3224 14.4195Z" fill="#F53F4A"/>
</svg>
