<svg width="13" height="13" viewBox="0 0 13 13" fill="none" xmlns="http://www.w3.org/2000/svg">
<path d="M10.5811 4.96052C11.6927 4.96052 12.622 4.04303 12.622 2.92558C12.622 1.80225 11.6927 0.884766 10.5811 0.884766C9.46357 0.884766 8.54015 1.80225 8.54015 2.92558C8.54015 4.04303 9.46357 4.96052 10.5811 4.96052ZM5.99928 13.0003C9.28124 13.0003 11.9986 10.2772 11.9986 7.00133C11.9986 6.4779 11.928 5.9721 11.7868 5.48983C11.4869 5.62511 11.1634 5.70744 10.8222 5.71921C10.934 6.12502 10.9987 6.56023 10.9987 7.00133C11.0046 9.77731 8.77542 12.0005 5.99928 12.0005C3.22314 12.0005 1.00576 9.77731 1.00576 7.00133C1.00576 4.22535 3.21726 2.00222 5.9934 2.00222C6.64038 2.00222 7.25207 2.11984 7.81671 2.34333C7.87552 2.0081 7.99904 1.69639 8.16961 1.41997C7.4991 1.14942 6.76389 1.00239 5.9934 1.00239C2.71732 1.00239 0 3.71956 0 7.00133C0 10.2772 2.7232 13.0003 5.99928 13.0003ZM2.92318 7.63651H5.9934C6.22278 7.63651 6.40511 7.46008 6.40511 7.22482V3.26082C6.40511 3.03145 6.22278 2.85501 5.9934 2.85501C5.76401 2.85501 5.58756 3.03145 5.58756 3.26082V6.81901H2.92318C2.68791 6.81901 2.51146 6.99545 2.51146 7.22482C2.51146 7.46008 2.68791 7.63651 2.92318 7.63651Z" fill="#7A948F"/>
</svg>
