<svg width="68" height="73" xmlns="http://www.w3.org/2000/svg" fill="none">
 <defs>
  <linearGradient y2="1" x2="0.5" y1="0" x1="0.5" id="paint0_linear_759_85378">
   <stop stop-opacity="0" stop-color="#42D7D7"/>
   <stop stop-color="#42D7D7" offset="0.54479"/>
   <stop stop-color="#42D7D7" offset="0.96146"/>
  </linearGradient>
 </defs>
 <g>
  <title>Layer 1</title>
  <path id="svg_1" fill-opacity="0.2" fill="#00AED3" d="m16.1289,0.00069c-0.0301,0 -0.0602,0.00947 -0.0899,0.01403c-0.236,0.02807 -0.4597,0.14491 -0.6141,0.32148c0,0 -3.6195,4.1994 -7.24859,9.54394c-3.62945,5.34496 -7.35356,11.76306 -7.35356,16.79356c0,8.0587 6.89819,14.4993 15.33595,14.4993c8.438,0 15.336,-6.4405 15.336,-14.4993c0,-5.0306 -3.7241,-11.4488 -7.3536,-16.79356c-3.6291,-5.34495 -7.2485,-9.54394 -7.2485,-9.54394c-0.1852,-0.21671 -0.4751,-0.34399 -0.7639,-0.33583l0.0002,0.00032z"/>
  <path id="svg_2" fill="url(#paint0_linear_759_85378)" d="m40.757,0.00122c-0.0533,0 -0.1067,0.01678 -0.1594,0.02489c-0.4185,0.04976 -0.815,0.25692 -1.0889,0.56998c0,0 -6.4172,7.44555 -12.8517,16.92141c-6.435,9.4767 -13.0379,20.856 -13.0379,29.7752c0,14.288 12.2306,25.7073 27.1908,25.7073c14.9606,0 27.1907,-11.4191 27.1907,-25.7073c0,-8.9194 -6.6029,-20.299 -13.0379,-29.7752c-6.4344,-9.4766 -12.8517,-16.92141 -12.8517,-16.92141c-0.3284,-0.38424 -0.8423,-0.60991 -1.3544,-0.59543l0.0004,0.00056z"/>
  <path id="svg_4" fill="white" d="m39.0054,66.2251c-0.1735,0 -0.3216,-0.0508 -0.4444,-0.1523c-0.1227,-0.1016 -0.184,-0.2349 -0.184,-0.3999c0,-0.1524 0.0486,-0.3005 0.1459,-0.4444l2.7359,-4.0054l2.7231,-4.0371c0.1016,-0.1481 0.1968,-0.2496 0.2857,-0.3047c0.0931,-0.0592 0.2137,-0.0888 0.3618,-0.0888c0.1693,0 0.311,0.0529 0.4253,0.1587c0.1142,0.1058 0.1714,0.2391 0.1714,0.3999c0,0.1396 -0.0487,0.2835 -0.146,0.4316l-2.647,3.8848l-2.8247,4.1767c-0.0931,0.1397 -0.1841,0.237 -0.273,0.292c-0.0888,0.0593 -0.1988,0.0889 -0.33,0.0889zm-0.5078,-4.4878c-0.639,0 -1.1447,-0.22 -1.5171,-0.6602c-0.3724,-0.4401 -0.5586,-1.0452 -0.5586,-1.8154c0,-0.7702 0.1862,-1.3711 0.5586,-1.8027c0.3724,-0.4359 0.8781,-0.6538 1.5171,-0.6538c0.639,0 1.1425,0.2179 1.5107,0.6538c0.3724,0.4316 0.5586,1.0325 0.5586,1.8027c0,0.766 -0.1862,1.3711 -0.5586,1.8154c-0.3724,0.4402 -0.876,0.6602 -1.5107,0.6602zm0,-1.0283c0.2242,0 0.3977,-0.1206 0.5205,-0.3618c0.1269,-0.2412 0.1904,-0.6031 0.1904,-1.0855c0,-0.9521 -0.237,-1.4282 -0.7109,-1.4282c-0.4782,0 -0.7173,0.4761 -0.7173,1.4282c0,0.9649 0.2391,1.4473 0.7173,1.4473zm8.144,4.8496c-0.3724,0.4401 -0.8781,0.6602 -1.5171,0.6602c-0.639,0 -1.1447,-0.2201 -1.5171,-0.6602c-0.3724,-0.4443 -0.5586,-1.0516 -0.5586,-1.8218c0,-0.7659 0.1862,-1.3668 0.5586,-1.8027c0.3724,-0.4359 0.8781,-0.6538 1.5171,-0.6538c0.639,0 1.1447,0.2179 1.5171,0.6538c0.3724,0.4316 0.5586,1.0325 0.5586,1.8027c0,0.7702 -0.1862,1.3775 -0.5586,1.8218zm-2.0439,-0.73c0.1269,0.2412 0.3025,0.3618 0.5268,0.3618c0.2243,0 0.3999,-0.1206 0.5269,-0.3618c0.1269,-0.2454 0.1904,-0.6094 0.1904,-1.0918c0,-0.9521 -0.2391,-1.4282 -0.7173,-1.4282c-0.4782,0 -0.7173,0.4782 -0.7173,1.4346c0,0.4782 0.0635,0.84 0.1905,1.0854z"/>
 </g>
</svg>