<svg width="66" height="59" viewBox="0 0 66 59" fill="none" xmlns="http://www.w3.org/2000/svg">
<rect width="66" height="59" fill="white"/>
<path d="M51.7027 52.2868L51.4453 52.7155L51.7027 52.2868ZM55.1248 53.679L55.0099 54.1656L55.1248 53.679ZM29.6538 39.3844L29.8059 39.8607L29.6538 39.3844ZM36.3462 39.3844L36.1941 39.8607L36.3462 39.3844ZM10.8752 53.679L10.7603 53.1924L10.8752 53.679ZM14.2973 52.2868L14.0398 51.8582L14.2973 52.2868ZM5.18909 53.5H0V54.5H5.18909V53.5ZM18.9417 48.9052L21.0625 46.8374L20.3644 46.1214L18.2436 48.1892L18.9417 48.9052ZM44.9375 46.8374L47.0583 48.9052L47.7564 48.1892L45.6356 46.1214L44.9375 46.8374ZM60.8109 54.5H66V53.5H60.8109V54.5ZM47.0583 48.9052C49.1067 50.9024 50.186 51.9591 51.4453 52.7155L51.9602 51.8582C50.824 51.1757 49.8382 50.219 47.7564 48.1892L47.0583 48.9052ZM60.8109 53.5C57.9034 53.5 56.5297 53.4969 55.2397 53.1924L55.0099 54.1656C56.4396 54.5031 57.9501 54.5 60.8109 54.5V53.5ZM51.4453 52.7155C52.5515 53.3799 53.754 53.8691 55.0099 54.1656L55.2397 53.1924C54.0842 52.9196 52.9779 52.4695 51.9602 51.8582L51.4453 52.7155ZM21.0625 46.8374C23.2239 44.73 24.8239 43.1705 26.1918 42.0368C27.555 40.9069 28.6552 40.2282 29.8059 39.8607L29.5017 38.9081C28.1787 39.3306 26.9644 40.0976 25.5536 41.2669C24.1475 42.4324 22.5141 44.0254 20.3644 46.1214L21.0625 46.8374ZM45.6356 46.1214C43.4859 44.0254 41.8525 42.4324 40.4464 41.2669C39.0356 40.0976 37.8213 39.3306 36.4983 38.9081L36.1941 39.8607C37.3448 40.2282 38.445 40.9069 39.8082 42.0368C41.1761 43.1705 42.7761 44.73 44.9375 46.8374L45.6356 46.1214ZM29.8059 39.8607C31.8836 39.1973 34.1164 39.1973 36.1941 39.8607L36.4983 38.9081C34.2227 38.1815 31.7773 38.1815 29.5017 38.9081L29.8059 39.8607ZM5.18909 54.5C8.04992 54.5 9.56043 54.5031 10.9901 54.1656L10.7603 53.1924C9.47033 53.4969 8.09664 53.5 5.18909 53.5V54.5ZM18.2436 48.1892C16.1618 50.219 15.176 51.1757 14.0398 51.8582L14.5547 52.7155C15.814 51.9591 16.8933 50.9024 18.9417 48.9052L18.2436 48.1892ZM10.9901 54.1656C12.246 53.8691 13.4485 53.3799 14.5547 52.7155L14.0398 51.8582C13.0221 52.4695 11.9158 52.9196 10.7603 53.1924L10.9901 54.1656Z" fill="#FDD8FB"/>
</svg>
