<svg width="116" height="32" viewBox="0 0 116 32" fill="none" xmlns="http://www.w3.org/2000/svg">
<path d="M89.5897 3.19817C89.5897 1.43187 88.1699 0 86.4184 0C84.6669 0 83.2471 1.43187 83.2471 3.19817V28.7835C83.2471 30.5498 84.6669 31.9816 86.4184 31.9816C88.1699 31.9816 89.5897 30.5498 89.5897 28.7835V3.19817Z" fill="#12834D"/>
<path d="M21.3351 7.31572C21.0405 7.01837 20.6908 6.78254 20.3058 6.62159C19.9208 6.46065 19.5081 6.37779 19.0913 6.37779C18.6746 6.37779 18.2619 6.46065 17.8769 6.62159C17.4919 6.78254 17.1422 7.01837 16.8476 7.31572L6.34264 17.9096V3.19817C6.34264 2.34996 6.00852 1.53634 5.41378 0.936572C4.81904 0.3368 4.01241 0 3.17132 0C2.33023 0 1.5236 0.3368 0.928858 0.936572C0.33412 1.53634 0 2.34996 0 3.19817V28.7835C0 29.6317 0.33412 30.4451 0.928858 31.0449C1.5236 31.6447 2.33023 31.9817 3.17132 31.9817C4.01241 31.9817 4.81904 31.6447 5.41378 31.0449C6.00852 30.4451 6.34264 29.6317 6.34264 28.7835V26.9605L9.51396 23.7623L16.7525 31.0621C17.047 31.3594 17.3968 31.5954 17.7818 31.7564C18.1668 31.9173 18.5794 32 18.9962 32C19.413 32 19.8256 31.9173 20.2106 31.7564C20.5956 31.5954 20.9454 31.3594 21.2399 31.0621C21.5348 30.765 21.7687 30.4124 21.9283 30.0242C22.0879 29.6359 22.17 29.2198 22.17 28.7995C22.17 28.3792 22.0879 27.9629 21.9283 27.5746C21.7687 27.1864 21.5348 26.8338 21.2399 26.5367L14.0014 19.2368L21.3113 11.8651C21.6113 11.5692 21.8501 11.2162 22.0138 10.8266C22.1776 10.437 22.263 10.0186 22.2653 9.59547C22.2675 9.17232 22.1864 8.75293 22.0267 8.36161C21.867 7.97028 21.6319 7.61476 21.3351 7.31572Z" fill="#F53F4A"/>
<path d="M111.472 24.9035C110.617 25.3393 109.675 25.5741 108.717 25.5902C107.759 25.6062 106.809 25.4032 105.94 24.9962C105.071 24.5892 104.305 23.9889 103.699 23.2403C103.092 22.4918 102.662 21.6146 102.441 20.6744C102.219 19.7343 102.211 18.7557 102.419 17.8122C102.626 16.8687 103.042 15.9847 103.637 15.2268C104.231 14.4688 104.988 13.8566 105.851 13.436C106.714 13.0154 107.66 12.7975 108.618 12.7985C109.562 12.7972 110.494 13.0102 111.345 13.422C111.919 13.7155 112.57 13.8217 113.206 13.7257C113.842 13.6297 114.433 13.3364 114.897 12.8863L115.119 12.6624C115.457 12.319 115.709 11.8998 115.856 11.4391C116.002 10.9784 116.038 10.4894 115.96 10.012C115.883 9.53461 115.695 9.08246 115.411 8.69264C115.127 8.30282 114.755 7.98645 114.326 7.76934C112.39 6.78581 110.235 6.31933 108.069 6.41446C105.903 6.50958 103.797 7.16301 101.952 8.31259C100.108 9.46216 98.586 11.0694 97.5327 12.9808C96.4794 14.8922 95.9295 17.044 95.9356 19.2307C95.9417 21.4175 96.5035 23.5663 97.5674 25.4717C98.6313 27.3771 100.162 28.9756 102.013 30.1147C103.864 31.2539 105.973 31.8956 108.14 31.9785C110.307 32.0614 112.459 31.5827 114.39 30.5883C114.798 30.3624 115.149 30.044 115.415 29.6581C115.681 29.2723 115.855 28.8297 115.923 28.3648C115.99 27.8998 115.95 27.4254 115.805 26.9788C115.66 26.5322 115.415 26.1257 115.087 25.791L114.865 25.5671C114.44 25.1126 113.883 24.8041 113.275 24.685C112.666 24.566 112.036 24.6424 111.472 24.9035Z" fill="#12834D"/>
<path d="M64.2187 6.39455C62.2572 6.39086 60.3215 6.84591 58.5638 7.72406C56.8061 8.60222 55.2743 9.87952 54.0887 11.4555C52.9032 13.0315 52.0962 14.8633 51.7313 16.8069C51.3663 18.7506 51.4533 20.7531 51.9853 22.6571C52.5174 24.5611 53.4801 26.3147 54.7977 27.7801C56.1153 29.2456 57.752 30.383 59.5791 31.1028C61.4061 31.8227 63.3739 32.1053 65.3276 31.9287C67.2813 31.7521 69.1679 31.1209 70.8389 30.0849C71.1356 30.7524 71.6504 31.2972 72.2973 31.6283C72.9442 31.9595 73.6841 32.057 74.3936 31.9045C75.1031 31.7521 75.7394 31.3588 76.1962 30.7905C76.653 30.2222 76.9029 29.5133 76.904 28.7817V19.1872C76.904 15.7944 75.5675 12.5405 73.1886 10.1414C70.8096 7.74234 67.5831 6.39455 64.2187 6.39455ZM64.2187 25.5835C62.9643 25.5835 61.738 25.2083 60.695 24.5055C59.6519 23.8026 58.839 22.8036 58.3589 21.6348C57.8788 20.4661 57.7532 19.1801 57.998 17.9393C58.2427 16.6985 58.8468 15.5588 59.7338 14.6642C60.6208 13.7697 61.751 13.1605 62.9813 12.9137C64.2117 12.6669 65.487 12.7936 66.646 13.2777C67.8049 13.7618 68.7955 14.5817 69.4925 15.6336C70.1894 16.6855 70.5614 17.9221 70.5614 19.1872C70.5614 20.8836 69.8931 22.5105 68.7037 23.71C67.5142 24.9096 65.9009 25.5835 64.2187 25.5835Z" fill="#12834D"/>
<path d="M41.7026 24.9035C40.8474 25.3393 39.9053 25.5741 38.9472 25.5902C37.989 25.6062 37.0398 25.4032 36.1706 24.9962C35.3015 24.5892 34.5351 23.9889 33.929 23.2403C33.3229 22.4918 32.8929 21.6146 32.6712 20.6744C32.4495 19.7343 32.442 18.7557 32.6491 17.8122C32.8562 16.8687 33.2727 15.9847 33.8671 15.2268C34.4616 14.4688 35.2186 13.8566 36.0814 13.436C36.9441 13.0154 37.8902 12.7975 38.8484 12.7985C39.7924 12.7972 40.7246 13.0102 41.5758 13.422C42.1497 13.7155 42.8 13.8217 43.4365 13.7257C44.0729 13.6297 44.664 13.3364 45.1276 12.8863L45.3496 12.6624C45.6874 12.319 45.9398 11.8998 46.086 11.4391C46.2322 10.9784 46.2681 10.4894 46.1907 10.012C46.1134 9.53461 45.925 9.08246 45.641 8.69264C45.357 8.30282 44.9854 7.98645 44.5568 7.76934C42.6201 6.78581 40.4658 6.31933 38.2995 6.41446C36.1331 6.50958 34.0271 7.16301 32.1826 8.31259C30.338 9.46216 28.8164 11.0694 27.7631 12.9808C26.7098 14.8922 26.16 17.044 26.1661 19.2307C26.1721 21.4175 26.734 23.5663 27.7979 25.4717C28.8618 27.3771 30.3922 28.9756 32.2432 30.1147C34.0941 31.2539 36.2037 31.8956 38.3705 31.9785C40.5373 32.0614 42.689 31.5827 44.6202 30.5883C45.0288 30.3624 45.3799 30.044 45.6459 29.6581C45.9119 29.2723 46.0856 28.8297 46.1532 28.3648C46.2208 27.8998 46.1805 27.4254 46.0356 26.9788C45.8907 26.5322 45.645 26.1257 45.3179 25.791L45.0959 25.5671C44.6701 25.1126 44.1137 24.8041 43.5051 24.685C42.8964 24.566 42.266 24.6424 41.7026 24.9035Z" fill="#12834D"/>
</svg>
