<svg width="84" height="66" viewBox="0 0 84 66" fill="none" xmlns="http://www.w3.org/2000/svg">
<path d="M54.9265 26.5794C54.6759 25.8116 54.1508 25.2969 53.378 25.0469C53.0349 24.9368 52.6799 24.8952 52.3188 24.8952C50.102 24.8952 47.8852 24.8952 45.6654 24.8952C45.5342 24.8952 45.3999 24.8981 45.2686 24.8862C45.0508 24.8654 44.9345 24.7315 44.9404 24.5173C44.9434 24.4131 44.9613 24.306 44.9792 24.2018C45.1224 23.3121 45.2507 22.4224 45.4178 21.5387C45.5759 20.6906 45.5491 19.8574 45.3402 19.0213C45.024 17.7418 44.5406 16.5277 43.9797 15.3375C43.7947 14.9447 43.5113 14.671 43.1294 14.4835C42.3536 14.1026 41.5421 13.9776 40.6948 14.177C40.3188 14.2663 39.9548 14.3972 39.6386 14.6233C39.1314 14.9834 38.833 15.4446 38.8509 16.0933C38.8778 16.9265 38.8748 17.7626 38.8897 18.5958C38.8957 18.941 38.9136 19.2832 38.9315 19.6283C38.9434 19.8455 38.8986 20.0479 38.7972 20.2413C38.7524 20.3216 38.7166 20.4079 38.6749 20.4913C37.747 22.2826 36.7206 24.0114 35.569 25.6658C35.3332 26.0021 35.0767 26.3234 34.8201 26.6448C34.7753 26.7014 34.7276 26.7519 34.6769 26.8055H29.2676C28.6112 26.8055 28.0771 27.3381 28.0771 27.9928V40.5826C28.0771 41.2372 28.6112 41.7698 29.2676 41.7698C29.2676 41.7698 36.0344 41.9365 36.5864 41.9365C39.4536 41.9246 42.3238 41.9335 45.191 41.9335C46.5187 41.9335 47.8464 41.9365 49.1741 41.9335C49.8156 41.9335 50.4451 41.8442 51.0478 41.6211C51.8982 41.3056 52.5337 40.7552 52.8827 39.9101C53.193 39.1543 53.2676 38.3687 53.0647 37.5742C52.9603 37.1636 52.8947 37.1844 53.2199 36.7411C53.2288 36.7292 53.2348 36.7202 53.2438 36.7083C53.8166 35.7829 54.0344 34.8069 53.6436 33.7535C53.5749 33.572 53.6048 33.4233 53.7182 33.2745C53.9449 32.9799 54.1269 32.6555 54.2582 32.3074C54.4999 31.6676 54.5744 31.01 54.3417 30.3643C54.2075 29.9924 54.2164 29.7037 54.4969 29.43C55.0757 28.5492 55.2607 27.603 54.9295 26.5913L54.9265 26.5794Z" fill="white"/>
<path d="M36.5773 43.0073C35.9418 43.0073 29.6584 42.8526 29.2526 42.8407C28.0085 42.8317 27 41.82 27 40.5762V27.9864C27 26.7396 28.0174 25.722 29.2705 25.722H34.1755C34.3575 25.4928 34.5276 25.2726 34.6857 25.0465C35.7688 23.4873 36.7922 21.7882 37.72 19.9909C37.735 19.9642 37.7469 19.9344 37.7618 19.9076C37.7887 19.8481 37.8185 19.7886 37.8483 19.7321C37.8573 19.7172 37.8603 19.7083 37.8573 19.6815C37.8394 19.3393 37.8215 18.9733 37.8125 18.6103C37.8066 18.2859 37.8036 17.9616 37.8006 17.6343C37.7946 17.1373 37.7887 16.6196 37.7738 16.1197C37.7529 15.4472 37.9498 14.492 39.0149 13.7392C39.4117 13.4595 39.8802 13.2571 40.45 13.1232C41.5152 12.8733 42.5773 13.0042 43.6097 13.5101C44.2183 13.8106 44.6718 14.2688 44.9582 14.8729C45.6325 16.3012 46.086 17.5331 46.3904 18.7561C46.635 19.744 46.6649 20.7438 46.4829 21.7287C46.3695 22.3417 46.268 22.9725 46.1726 23.5855C46.1606 23.6599 46.1487 23.7372 46.1368 23.8116H46.2889C48.2999 23.8116 50.3108 23.8116 52.3218 23.8116C52.829 23.8116 53.2825 23.8771 53.7091 24.0169C54.819 24.374 55.5948 25.1417 55.9528 26.2397C56.3705 27.5133 56.1766 28.8136 55.3978 30.0039L55.374 30.0396C55.6544 30.8549 55.6156 31.7386 55.2666 32.67C55.1353 33.0211 54.9622 33.3544 54.7534 33.6639C55.1025 34.8511 54.9026 36.0592 54.1626 37.2584C54.1477 37.2792 54.1358 37.303 54.1209 37.3239C54.3655 38.3177 54.2879 39.3205 53.8852 40.3025C53.4346 41.4005 52.6082 42.1801 51.4297 42.6145C50.7464 42.8674 50.0125 42.9924 49.183 42.9954C48.2402 42.9984 47.2825 42.9984 46.3576 42.9954H45.194C44.4272 42.9954 43.6604 42.9954 42.8906 42.9954C40.826 42.9954 38.6927 42.9924 36.5923 43.0013H36.5803L36.5773 43.0073ZM29.2675 27.8763C29.2049 27.8763 29.1571 27.9269 29.1571 27.9864V40.5762C29.1571 40.6387 29.2079 40.6863 29.2675 40.6863H29.2944C31.1591 40.7339 36.0671 40.8529 36.5714 40.8529H36.5833C38.6867 40.844 40.826 40.847 42.8906 40.847C43.6574 40.847 44.4242 40.847 45.191 40.847H46.3576C47.2795 40.847 48.2342 40.847 49.1711 40.847C49.7409 40.847 50.2332 40.7637 50.6748 40.6C51.2835 40.3739 51.6684 40.0227 51.8862 39.4871C52.1189 38.9247 52.1606 38.3802 52.0204 37.8238C52.0085 37.7762 51.9965 37.7375 51.9876 37.7018C51.7966 37.0233 51.9488 36.6425 52.3397 36.1039C52.7842 35.3778 52.8737 34.7619 52.6321 34.1132C52.4351 33.5865 52.5187 33.0509 52.8618 32.6046C53.0229 32.3933 53.1542 32.1612 53.2467 31.9142C53.4227 31.447 53.4496 31.0543 53.3242 30.715C52.9871 29.7837 53.2855 29.1469 53.6405 28.7511C54.0254 28.1292 54.1089 27.543 53.9001 26.9092C53.7569 26.4718 53.4943 26.2129 53.0438 26.0671C52.8319 25.9987 52.5962 25.966 52.3188 25.966C50.3078 25.966 48.2969 25.966 46.283 25.966H45.6654H45.5967C45.4714 25.966 45.3282 25.966 45.1671 25.9541C44.3824 25.8827 43.8334 25.2607 43.8603 24.4782C43.8663 24.3145 43.8871 24.1746 43.908 24.0616L43.914 24.0259C43.9558 23.77 43.9945 23.5111 44.0363 23.2552C44.1348 22.6273 44.2362 21.9787 44.3556 21.3359C44.4839 20.6456 44.463 19.9701 44.2899 19.2738C44.0214 18.1937 43.6126 17.0867 43.001 15.7924C42.9234 15.6287 42.822 15.5275 42.6519 15.4442C42.0731 15.1586 41.5122 15.0871 40.9423 15.221C40.647 15.2895 40.4292 15.3787 40.2621 15.4978C39.9458 15.7209 39.9249 15.8846 39.9309 16.0572C39.9458 16.5809 39.9518 17.1076 39.9577 17.6164C39.9607 17.9348 39.9637 18.2562 39.9697 18.5746C39.9756 18.9019 39.9935 19.2322 40.0115 19.5684C40.0353 19.985 39.9458 20.3778 39.7519 20.7438C39.737 20.7735 39.722 20.8033 39.7071 20.833C39.6833 20.8836 39.6594 20.9312 39.6355 20.9818C38.6629 22.8624 37.5918 24.6418 36.455 26.2784C36.2044 26.6355 35.9388 26.9717 35.6823 27.2931L35.6644 27.3139C35.5898 27.4062 35.5152 27.4865 35.4585 27.546L35.1392 27.8793H29.2675V27.8763Z" fill="url(#paint0_linear_5555_323844)"/>
<path d="M34.3996 26.8467H29.0381V40.8916H34.3996V26.8467Z" fill="url(#paint1_linear_5555_323844)"/>
<path d="M33.497 55.3214L33.2 55H32.7624H12C5.92487 55 1 50.0751 1 44V12C1 5.92487 5.92487 1 12 1H72C78.0751 1 83 5.92487 83 12V44C83 50.0751 78.0751 55 72 55H51.2376H50.8L50.5031 55.3214L42 64.5263L33.497 55.3214Z" stroke="#FAA833" stroke-width="2"/>
<defs>
<linearGradient id="paint0_linear_5555_323844" x1="41.5838" y1="12.1353" x2="41.5838" y2="46.2031" gradientUnits="userSpaceOnUse">
<stop stop-color="#FBB03B"/>
<stop offset="0.38" stop-color="#FAAC37"/>
<stop offset="0.73" stop-color="#F8A12C"/>
<stop offset="1" stop-color="#F7931E"/>
</linearGradient>
<linearGradient id="paint1_linear_5555_323844" x1="31.7174" y1="12.1353" x2="31.7174" y2="46.203" gradientUnits="userSpaceOnUse">
<stop stop-color="#FBB03B"/>
<stop offset="0.38" stop-color="#FAAC37"/>
<stop offset="0.73" stop-color="#F8A12C"/>
<stop offset="1" stop-color="#F7931E"/>
</linearGradient>
</defs>
</svg>
