<svg width="24" height="24" viewBox="0 0 24 24" fill="none" xmlns="http://www.w3.org/2000/svg">
<path d="M6.72895 20H17.271C19.0961 20 20 19.0961 20 17.3058V6.69419C20 4.90386 19.0961 4 17.271 4H6.72895C4.91255 4 4 4.89517 4 6.69419V17.3058C4 19.1048 4.91255 20 6.72895 20ZM6.74633 18.6008C5.87724 18.6008 5.39924 18.1401 5.39924 17.2363V6.76372C5.39924 5.85986 5.87724 5.39924 6.74633 5.39924H17.2537C18.1141 5.39924 18.6008 5.85986 18.6008 6.76372V17.2363C18.6008 18.1401 18.1141 18.6008 17.2537 18.6008H6.74633ZM11.9348 8.9799C12.5693 8.9799 13.0646 8.47583 13.0646 7.84139C13.0646 7.20695 12.5693 6.70288 11.9348 6.70288C11.3091 6.70288 10.805 7.20695 10.805 7.84139C10.805 8.47583 11.3091 8.9799 11.9348 8.9799ZM10.4921 16.8539H14.0293C14.3857 16.8539 14.6638 16.5932 14.6638 16.2368C14.6638 15.8979 14.3857 15.6285 14.0293 15.6285H12.9517V11.2048C12.9517 10.7355 12.717 10.4226 12.2738 10.4226H10.6399C10.2835 10.4226 10.0054 10.692 10.0054 11.031C10.0054 11.3873 10.2835 11.648 10.6399 11.648H11.5698V15.6285H10.4921C10.1358 15.6285 9.85769 15.8979 9.85769 16.2368C9.85769 16.5932 10.1358 16.8539 10.4921 16.8539Z" fill="#192621"/>
</svg>
