<svg width="24" height="15" viewBox="0 0 24 15" fill="none" xmlns="http://www.w3.org/2000/svg">
<path d="M12 -2.62268e-06C11.539 -2.72344e-06 11.1458 0.191738 10.7932 0.589968L0.447457 12.0944C0.149152 12.4041 -6.61788e-07 12.8171 -7.64942e-07 13.2891C-9.74473e-07 14.2478 0.677965 15 1.57288 15C2.00678 15 2.4 14.8083 2.6983 14.4838L12 4.11504L21.3017 14.4838C21.6136 14.8083 22.0068 15 22.4407 15C23.322 15 24 14.2478 24 13.2891C24 12.8171 23.8508 12.4041 23.5525 12.0944L13.2068 0.589968C12.8542 0.191738 12.461 0.0147467 12 -2.62268e-06Z" fill="#788985"/>
</svg>
