<svg width="40" height="40" viewBox="0 0 40 40" fill="none" xmlns="http://www.w3.org/2000/svg">
<rect width="40" height="40" fill="white"/>
<path d="M12.998 26.2325H14.1012V13.7695H12.998V26.2325ZM15.4802 26.2325H17.5486V13.7695H15.4802V26.2325ZM18.4679 26.2325H19.7703V13.7695H18.4679V26.2325ZM20.9347 26.2325H22.9419V13.7695H20.9347V26.2325ZM23.7692 26.2325H25.378V13.7695H23.7692V26.2325ZM25.9603 26.2325H26.9868V13.7695H25.9603V26.2325Z" fill="#0C695E"/>
<path d="M33.7592 14.7496C34.5712 14.7496 35.0003 14.2897 35.0003 13.4926V9.73684C35.0003 6.57895 33.3915 5 30.1892 5H26.4354C25.6387 5 25.1943 5.42923 25.1943 6.22637C25.1943 7.02351 25.6387 7.46806 26.4354 7.46806H30.1433C31.6601 7.46806 32.5335 8.28053 32.5335 9.87481V13.4926C32.5335 14.2897 32.9778 14.7496 33.7592 14.7496Z" fill="#0C695E"/>
<path d="M14.7455 6.23983C14.7455 5.42777 14.2858 4.99876 13.489 4.99876L9.73483 4.99876C6.57828 4.99876 5 6.60755 5 9.8098L5 13.5636C5 14.3604 5.42905 14.8047 6.22585 14.8047C7.02265 14.8047 7.46701 14.3604 7.46701 13.5636L7.46701 9.85576C7.46701 8.33891 8.27914 7.46557 9.87274 7.46557L13.489 7.46557C14.2858 7.46557 14.7455 7.02124 14.7455 6.23983Z" fill="#0C695E"/>
<path d="M6.2408 25.2504C5.42875 25.2504 4.99974 25.7103 4.99974 26.5074L4.99974 30.2632C4.99974 33.4211 6.60852 35 9.81077 35L13.5646 35C14.3613 35 14.8057 34.5708 14.8057 33.7736C14.8057 32.9765 14.3613 32.5319 13.5646 32.5319L9.85674 32.5319C8.33988 32.5319 7.46654 31.7195 7.46654 30.1252L7.46654 26.5074C7.46654 25.7103 7.02221 25.2504 6.2408 25.2504Z" fill="#0C695E"/>
<path d="M25.2504 33.7602C25.2504 34.5722 25.7103 35.0012 26.5074 35.0012L30.2632 35.0012C33.4211 35.0012 35 33.3925 35 30.1902L35 26.4364C35 25.6396 34.5708 25.1953 33.7736 25.1953C32.9765 25.1953 32.5319 25.6396 32.5319 26.4364L32.5319 30.1442C32.5319 31.6611 31.7195 32.5344 30.1252 32.5344L26.5074 32.5344C25.7103 32.5344 25.2504 32.9788 25.2504 33.7602Z" fill="#0C695E"/>
</svg>
