<svg width="20" height="22" viewBox="0 0 20 22" fill="none" xmlns="http://www.w3.org/2000/svg">
<path d="M10.0283 4.56543C10.3604 4.56543 10.6647 4.48519 10.9414 4.32471C11.2181 4.15869 11.4367 3.93734 11.5972 3.66064C11.7632 3.38395 11.8462 3.07682 11.8462 2.73926C11.8462 2.40723 11.7632 2.10563 11.5972 1.83447C11.4367 1.56331 11.2181 1.34749 10.9414 1.18701C10.6647 1.021 10.3604 0.937988 10.0283 0.937988C9.69629 0.937988 9.39193 1.021 9.11523 1.18701C8.84408 1.34749 8.62549 1.56331 8.45947 1.83447C8.29899 2.10563 8.21875 2.40723 8.21875 2.73926C8.21875 3.07682 8.29899 3.38395 8.45947 3.66064C8.62549 3.93734 8.84408 4.15869 9.11523 4.32471C9.39193 4.48519 9.69629 4.56543 10.0283 4.56543ZM8.21045 10.7744H11.8628V8.79053C11.8628 8.71859 11.9015 8.67432 11.979 8.65771C12.062 8.63558 12.1257 8.66878 12.1699 8.75732L14.4858 13.4639C14.591 13.6742 14.7515 13.818 14.9673 13.8955C15.1886 13.9674 15.4017 13.9481 15.6064 13.8374C15.8057 13.7378 15.9412 13.5801 16.0132 13.3643C16.0907 13.1429 16.0768 12.9271 15.9717 12.7168L12.9253 6.54932C12.7427 6.18408 12.4854 5.89909 12.1533 5.69434C11.8268 5.48958 11.4505 5.38721 11.0244 5.38721H9.04053C8.61442 5.38721 8.23535 5.48958 7.90332 5.69434C7.57682 5.89909 7.32227 6.18408 7.13965 6.54932L4.09326 12.7168C3.98812 12.9271 3.97152 13.1429 4.04346 13.3643C4.12093 13.5801 4.25928 13.7378 4.4585 13.8374C4.66325 13.9481 4.87354 13.9674 5.08936 13.8955C5.31071 13.818 5.47119 13.6742 5.5708 13.4639L7.90332 8.75732C7.94759 8.66878 8.00846 8.63281 8.08594 8.64941C8.16895 8.66602 8.21045 8.71029 8.21045 8.78223V10.7744ZM6.6665 21.0093C6.86572 21.0535 7.06217 21.0203 7.25586 20.9097C7.45508 20.799 7.58512 20.6025 7.646 20.3203L8.42627 16.751L10.0283 13.7959L11.6387 16.751L12.4189 20.3203C12.4798 20.6136 12.6154 20.8128 12.8257 20.918C13.036 21.0231 13.2435 21.0508 13.4482 21.001C13.6419 20.9456 13.8024 20.8267 13.9297 20.644C14.057 20.467 14.0902 20.2373 14.0293 19.9551L13.2407 16.2778C13.2407 16.2391 13.2352 16.2059 13.2241 16.1782C13.2186 16.145 13.2075 16.1118 13.1909 16.0786L12.2114 13.2979H7.86182L6.86572 16.0786C6.84359 16.134 6.82699 16.2004 6.81592 16.2778L6.02734 19.9551C5.96647 20.2484 6.00521 20.4863 6.14355 20.6689C6.28744 20.8571 6.46175 20.9705 6.6665 21.0093ZM1.81885 14.8252H2.30029C2.46631 14.8252 2.59912 14.7726 2.69873 14.6675C2.80387 14.5623 2.85645 14.4268 2.85645 14.2607V9.80322C2.85645 9.63721 2.80387 9.50439 2.69873 9.40479C2.59912 9.29964 2.46631 9.24707 2.30029 9.24707H1.81885C1.65283 9.24707 1.51725 9.29964 1.41211 9.40479C1.3125 9.50439 1.2627 9.63721 1.2627 9.80322V14.2607C1.2627 14.4268 1.3125 14.5623 1.41211 14.6675C1.51725 14.7726 1.65283 14.8252 1.81885 14.8252ZM17.748 14.8252H18.2378C18.4038 14.8252 18.5366 14.7726 18.6362 14.6675C18.7358 14.5623 18.7856 14.4268 18.7856 14.2607V9.80322C18.7856 9.63721 18.7358 9.50439 18.6362 9.40479C18.5366 9.29964 18.4038 9.24707 18.2378 9.24707H17.748C17.582 9.24707 17.4465 9.29964 17.3413 9.40479C17.2417 9.50439 17.1919 9.63721 17.1919 9.80322V14.2607C17.1919 14.4268 17.2417 14.5623 17.3413 14.6675C17.4465 14.7726 17.582 14.8252 17.748 14.8252ZM0.582031 12.4927H19.4746C19.6019 12.4927 19.7098 12.4484 19.7983 12.3599C19.8869 12.2713 19.9312 12.1634 19.9312 12.0361C19.9312 11.9089 19.8869 11.8009 19.7983 11.7124C19.7098 11.6183 19.6019 11.5713 19.4746 11.5713H0.582031C0.449219 11.5713 0.338542 11.6183 0.25 11.7124C0.161458 11.8009 0.117188 11.9089 0.117188 12.0361C0.117188 12.1634 0.161458 12.2713 0.25 12.3599C0.338542 12.4484 0.449219 12.4927 0.582031 12.4927Z" fill="black"/>
</svg>
