<svg width="15" height="20" viewBox="0 0 15 20" fill="none" xmlns="http://www.w3.org/2000/svg">
<path d="M9.29084 4.4707C9.62287 4.4707 9.92447 4.39046 10.1956 4.22998C10.4723 4.06396 10.6909 3.84538 10.8514 3.57422C11.0174 3.29753 11.1004 2.99316 11.1004 2.66113C11.1004 2.32357 11.0174 2.01921 10.8514 1.74805C10.6909 1.47689 10.4723 1.26107 10.1956 1.10059C9.92447 0.93457 9.62287 0.851562 9.29084 0.851562C8.95328 0.851562 8.64891 0.93457 8.37776 1.10059C8.1066 1.26107 7.88801 1.47689 7.72199 1.74805C7.56151 2.01921 7.48127 2.32357 7.48127 2.66113C7.48127 2.99316 7.56151 3.29753 7.72199 3.57422C7.88801 3.84538 8.1066 4.06396 8.37776 4.22998C8.64891 4.39046 8.95328 4.4707 9.29084 4.4707ZM6.45197 11.6924L9.63117 13.4771L7.58088 15.2368C7.35953 15.425 7.24332 15.6297 7.23225 15.8511C7.22118 16.0669 7.28205 16.2495 7.41486 16.3989C7.55321 16.5539 7.73306 16.6396 7.95442 16.6562C8.1813 16.6729 8.40819 16.5843 8.63508 16.3906L11.4988 13.9502C11.6317 13.8395 11.7119 13.6984 11.7396 13.5269C11.7728 13.3498 11.7562 13.1755 11.6898 13.0039C11.6234 12.8324 11.5127 12.6968 11.3577 12.5972L8.24494 10.5552L8.8592 8.40527C8.90347 8.25033 8.99478 8.16455 9.13313 8.14795C9.27147 8.13135 9.38768 8.18945 9.48176 8.32227L10.3948 9.65869C10.5 9.81364 10.6411 9.91878 10.8182 9.97412C11.0008 10.0239 11.1807 10.0073 11.3577 9.92432L13.9891 8.75391C14.2215 8.64876 14.3765 8.50212 14.4539 8.31396C14.5369 8.12581 14.5286 7.9266 14.429 7.71631C14.3239 7.50602 14.1772 7.37321 13.9891 7.31787C13.8009 7.257 13.5906 7.27913 13.3582 7.38428L11.2747 8.30566L9.83869 6.32178C9.46239 5.80713 9.02522 5.44189 8.52717 5.22607C8.02912 5.01025 7.39826 4.93001 6.63459 4.98535L3.72102 5.19287C3.4886 5.20947 3.29768 5.28971 3.14826 5.43359C2.99885 5.57747 2.90754 5.76839 2.87434 6.00635L2.4842 8.96143C2.451 9.22152 2.4925 9.43457 2.60871 9.60059C2.72492 9.7666 2.89647 9.86068 3.12336 9.88281C3.35578 9.90495 3.54393 9.85238 3.68781 9.7251C3.83169 9.59782 3.92024 9.40413 3.95344 9.14404L4.31037 6.72852L5.48078 6.64551C5.6136 6.63444 5.72704 6.67318 5.82111 6.76172C5.92072 6.84473 5.94839 6.96647 5.90412 7.12695L5.22346 9.50098C5.12385 9.85514 5.09618 10.1512 5.14045 10.3892C5.19026 10.6216 5.28433 10.818 5.42268 10.9785C5.56102 11.1335 5.72151 11.2663 5.90412 11.377C6.09227 11.4876 6.27489 11.5928 6.45197 11.6924ZM0.898751 18.8643C1.0537 18.9915 1.23908 19.0552 1.4549 19.0552C1.67626 19.0552 1.89208 18.9528 2.10236 18.748L4.79182 16.0835C4.90249 15.9728 4.97997 15.8843 5.02424 15.8179C5.07404 15.7515 5.13492 15.6325 5.20686 15.4609L6.33576 12.5391L6.06184 12.3896C5.74641 12.2181 5.47525 12.0465 5.24836 11.875C5.02701 11.6979 4.84162 11.5153 4.69221 11.3271L3.70442 14.8218L0.915353 17.6025C0.699533 17.8184 0.599923 18.0452 0.616525 18.2832C0.63866 18.5212 0.732736 18.7148 0.898751 18.8643Z" fill="white" fill-opacity="0.4"/>
</svg>
