<svg width="40" height="40" viewBox="0 0 40 40" fill="none" xmlns="http://www.w3.org/2000/svg">
<path d="M0 12.8C0 8.31958 0 6.07937 0.871948 4.36808C1.63893 2.86278 2.86278 1.63893 4.36808 0.871948C6.07937 0 8.31958 0 12.8 0H27.2C31.6804 0 33.9206 0 35.6319 0.871948C37.1372 1.63893 38.3611 2.86278 39.1281 4.36808C40 6.07937 40 8.31958 40 12.8V27.2C40 31.6804 40 33.9206 39.1281 35.6319C38.3611 37.1372 37.1372 38.3611 35.6319 39.1281C33.9206 40 31.6804 40 27.2 40H12.8C8.31958 40 6.07937 40 4.36808 39.1281C2.86278 38.3611 1.63893 37.1372 0.871948 35.6319C0 33.9206 0 31.6804 0 27.2V12.8Z" fill="#25D366"/>
<path fill-rule="evenodd" clip-rule="evenodd" d="M20.0503 31.8561H20.0453C18.0445 31.8554 16.0785 31.3534 14.3323 30.401L7.99475 32.0635L9.69078 25.8685C8.64459 24.0554 8.09409 21.9988 8.09498 19.8918C8.09761 13.3002 13.4606 7.9375 20.0501 7.9375C23.2483 7.93888 26.2499 9.18389 28.507 11.4436C30.7641 13.7033 32.0065 16.7069 32.0052 19.9012C32.0026 26.4913 26.6417 31.8534 20.0503 31.8561ZM14.6259 28.2349L14.9887 28.4503C16.5143 29.3556 18.2632 29.8346 20.0462 29.8353H20.0502C25.5269 29.8353 29.9845 25.3777 29.9866 19.8987C29.9877 17.2436 28.9551 14.7472 27.0791 12.869C25.203 10.9907 22.7082 9.95587 20.0541 9.95495C14.5732 9.95495 10.1156 14.4121 10.1134 19.8907C10.1127 21.7682 10.638 23.5967 11.6327 25.1788L11.8689 25.5547L10.8651 29.2215L14.6259 28.2349ZM25.6639 22.4759C25.8723 22.5766 26.013 22.6445 26.073 22.7448C26.1477 22.8694 26.1477 23.4675 25.8989 24.1653C25.6499 24.8631 24.4565 25.4999 23.8825 25.5857C23.3679 25.6626 22.7167 25.6947 22.0011 25.4673C21.5672 25.3296 21.0109 25.1458 20.2982 24.838C17.4978 23.6288 15.6053 20.9147 15.2476 20.4017C15.2225 20.3657 15.205 20.3406 15.1952 20.3275L15.1928 20.3243C15.0347 20.1134 13.9755 18.7001 13.9755 17.2374C13.9755 15.8615 14.6514 15.1403 14.9625 14.8083C14.9838 14.7855 15.0034 14.7646 15.021 14.7455C15.2948 14.4464 15.6184 14.3716 15.8176 14.3716C16.0167 14.3716 16.216 14.3735 16.3901 14.3822C16.4116 14.3833 16.4339 14.3832 16.457 14.383C16.6311 14.382 16.8481 14.3807 17.0622 14.895C17.1445 15.0929 17.2651 15.3863 17.3922 15.6958C17.6492 16.3215 17.9332 17.0129 17.9832 17.113C18.0579 17.2625 18.1076 17.4369 18.0081 17.6363C17.9931 17.6662 17.9793 17.6945 17.9661 17.7214C17.8913 17.8741 17.8363 17.9864 17.7094 18.1346C17.6595 18.1929 17.6079 18.2557 17.5563 18.3185C17.4535 18.4437 17.3508 18.5688 17.2613 18.658C17.1117 18.8069 16.9561 18.9685 17.1303 19.2676C17.3046 19.5667 17.9041 20.5448 18.7921 21.3369C19.7467 22.1884 20.5763 22.5483 20.9969 22.7307C21.079 22.7663 21.1455 22.7952 21.1943 22.8196C21.4929 22.9692 21.6672 22.9441 21.8414 22.7448C22.0157 22.5455 22.5882 21.8725 22.7873 21.5735C22.9864 21.2746 23.1856 21.3244 23.4594 21.424C23.7332 21.5238 25.2019 22.2464 25.5006 22.3959C25.5589 22.4251 25.6134 22.4514 25.6639 22.4759Z" fill="#FDFDFD"/>
</svg>
