<svg width="40" height="40" viewBox="0 0 40 40" fill="none" xmlns="http://www.w3.org/2000/svg">
<g clip-path="url(#clip0_3022_113945)">
<path d="M27.4702 35C28.5748 35 29.4702 34.1046 29.4702 33C29.4702 31.8954 28.5748 31 27.4702 31C26.3656 31 25.4702 31.8954 25.4702 33C25.4702 34.1046 26.3656 35 27.4702 35Z" fill="#FC9581"/>
<path d="M19.98 37.0117C21.0845 37.0117 21.98 36.1163 21.98 35.0117C21.98 33.9071 21.0845 33.0117 19.98 33.0117C18.8754 33.0117 17.98 33.9071 17.98 35.0117C17.98 36.1163 18.8754 37.0117 19.98 37.0117Z" fill="#FC9581"/>
<path d="M12.4902 35C13.5948 35 14.4902 34.1046 14.4902 33C14.4902 31.8954 13.5948 31 12.4902 31C11.3857 31 10.4902 31.8954 10.4902 33C10.4902 34.1046 11.3857 35 12.4902 35Z" fill="#FC9581"/>
<path d="M7 29.5195C8.10457 29.5195 9 28.6241 9 27.5195C9 26.415 8.10457 25.5195 7 25.5195C5.89543 25.5195 5 26.415 5 27.5195C5 28.6241 5.89543 29.5195 7 29.5195Z" fill="#FC9581"/>
<path d="M5 22.0312C6.10457 22.0312 7 21.1358 7 20.0312C7 18.9267 6.10457 18.0312 5 18.0312C3.89543 18.0312 3 18.9267 3 20.0312C3 21.1358 3.89543 22.0312 5 22.0312Z" fill="#FC9581"/>
<path d="M8.42549 13.9633C9.20695 13.1827 9.20761 11.9163 8.42697 11.1349C7.64633 10.3534 6.38 10.3528 5.59855 11.1334C4.81709 11.914 4.81643 13.1804 5.59707 13.9618C6.37771 14.7433 7.64404 14.7439 8.42549 13.9633Z" fill="#FC9581"/>
<path d="M12.5 9.03906C13.6046 9.03906 14.5 8.14363 14.5 7.03906C14.5 5.93449 13.6046 5.03906 12.5 5.03906C11.3954 5.03906 10.5 5.93449 10.5 7.03906C10.5 8.14363 11.3954 9.03906 12.5 9.03906Z" fill="#FC9581"/>
<path d="M20 30C25.5228 30 30 25.5228 30 20C30 14.4772 25.5228 10 20 10C14.4772 10 10 14.4772 10 20C10 25.5228 14.4772 30 20 30Z" fill="#FC9581"/>
<path d="M33 29.54C32.6487 29.5394 32.3038 29.4463 32 29.27C31.5415 29.0045 31.2072 28.5678 31.0703 28.056C30.9334 27.5442 31.0053 26.9989 31.27 26.54C32.4215 24.5619 33.0303 22.3148 33.0349 20.026C33.0394 17.7371 32.4396 15.4876 31.2961 13.5049C30.1525 11.5222 28.5057 9.87654 26.5222 8.73434C24.5388 7.59213 22.2889 6.99386 20 7C19.4696 7 18.9609 6.78929 18.5858 6.41422C18.2107 6.03914 18 5.53044 18 5C18 4.46957 18.2107 3.96086 18.5858 3.58579C18.9609 3.21072 19.4696 3 20 3C22.989 2.99812 25.9256 3.78431 28.5138 5.27932C31.102 6.77433 33.2503 8.92531 34.742 11.5154C36.2338 14.1054 37.0163 17.043 37.0107 20.032C37.0051 23.0209 36.2115 25.9556 34.71 28.54C34.5363 28.8408 34.2873 29.0912 33.9875 29.2666C33.6877 29.4419 33.3473 29.5362 33 29.54Z" fill="#FC9581"/>
</g>
<defs>
<clipPath id="clip0_3022_113945">
<rect width="40" height="40" fill="white"/>
</clipPath>
</defs>
</svg>
