<svg width="30" height="30" viewBox="0 0 30 30" fill="none" xmlns="http://www.w3.org/2000/svg">
<path d="M15 30C23.2059 30 30 23.1912 30 15C30 6.79412 23.1912 0 14.9853 0C6.79412 0 0 6.79412 0 15C0 23.1912 6.80882 30 15 30ZM15 27.5C8.05882 27.5 2.51471 21.9412 2.51471 15C2.51471 8.05882 8.04412 2.5 14.9853 2.5C21.9265 2.5 27.5 8.05882 27.5 15C27.5 21.9412 21.9412 27.5 15 27.5ZM9.97059 21.2206C10.3088 21.2206 10.6029 21.0882 10.8235 20.8529L14.9853 16.6765L19.1765 20.8529C19.3971 21.0735 19.6765 21.2206 20.0147 21.2206C20.6618 21.2206 21.1912 20.6912 21.1912 20.0294C21.1912 19.6912 21.0735 19.4265 20.8382 19.1912L16.6618 15.0147L20.8529 10.8088C21.1029 10.5588 21.2059 10.3088 21.2059 9.98529C21.2059 9.33824 20.6765 8.80882 20.0294 8.80882C19.7206 8.80882 19.4706 8.92647 19.2206 9.17647L14.9853 13.3676L10.7941 9.19118C10.5735 8.95588 10.3088 8.83824 9.97059 8.83824C9.32353 8.83824 8.79412 9.35294 8.79412 10C8.79412 10.3235 8.92647 10.6029 9.14706 10.8235L13.3235 15.0147L9.14706 19.2059C8.92647 19.4265 8.79412 19.7059 8.79412 20.0294C8.79412 20.6912 9.32353 21.2206 9.97059 21.2206Z" fill="#898A8D"/>
</svg>
