<svg width="6" height="8" viewBox="0 0 6 8" fill="none" xmlns="http://www.w3.org/2000/svg">
<path d="M2.83073 8C4.73229 8 6 6.67961 6 4.68978C6 1.37957 3.2557 0 1.35054 0C1.012 0 0.795918 0.122053 0.795918 0.358761C0.795918 0.451225 0.835534 0.547388 0.911164 0.636154C1.33974 1.16135 1.76831 1.78641 1.77551 2.51503C1.77551 2.60749 1.76831 2.69626 1.7431 2.79242C1.54502 2.35969 1.17407 2.0712 0.842737 2.0712C0.695078 2.0712 0.594238 2.18215 0.594238 2.34859C0.594238 2.44475 0.619448 2.67037 0.619448 2.8331C0.619448 3.66158 0 4.14609 0 5.48128C0 6.99399 1.12725 8 2.83073 8ZM2.91357 6.9607C2.2401 6.9607 1.79352 6.54277 1.79352 5.92141C1.79352 5.27046 2.2437 5.03745 2.30132 4.61951C2.30852 4.58622 2.33013 4.57513 2.35534 4.59732C2.52101 4.74896 2.62905 4.93389 2.71909 5.14841C2.90996 4.88211 3 4.31993 2.93878 3.71336C2.93517 3.68007 2.95678 3.66158 2.9892 3.67268C3.77791 4.05363 4.18848 4.85992 4.18848 5.58114C4.18848 6.31345 3.77071 6.9607 2.91357 6.9607Z" fill="white"/>
</svg>
