<svg width="32" height="32" viewBox="0 0 32 32" fill="none" xmlns="http://www.w3.org/2000/svg">
<path d="M7.42917 11.9544H24.5708C25.5208 11.9544 26 11.3721 26 10.3987V9.55568C26 8.58229 25.5208 8 24.5708 8H7.42917C6.52963 8 6 8.58229 6 9.55568V10.3987C6 11.3721 6.47919 11.9544 7.42917 11.9544ZM11.5822 24H20.4094C22.0656 24 22.7297 23.0961 22.9735 21.4101L24.1673 13.1363H7.8243L9.02648 21.4101C9.27028 23.1048 9.93443 24 11.5822 24ZM13.4905 21.5926C13.1206 21.5926 12.8096 21.2624 12.8096 20.8886C12.8096 20.6888 12.9021 20.5323 13.0198 20.4106L15.0542 18.2901L13.0198 16.1608C12.9021 16.0391 12.8096 15.8827 12.8096 15.6828C12.8096 15.3091 13.1206 15.0049 13.4905 15.0049C13.6671 15.0049 13.8016 15.0918 13.9445 15.2135L15.9958 17.3254L18.0639 15.2048C18.2068 15.0744 18.3497 14.9875 18.5179 14.9875C18.8962 14.9875 19.1988 15.3004 19.1988 15.6828C19.1988 15.874 19.1148 16.0043 18.9887 16.1521L16.9458 18.2901L18.9802 20.402C19.0979 20.5323 19.1904 20.6801 19.1904 20.8886C19.1904 21.2624 18.8794 21.5926 18.5179 21.5926C18.3245 21.5926 18.1732 21.4883 18.0471 21.3753L15.9958 19.2548L13.9529 21.3753C13.8268 21.497 13.6671 21.5926 13.4905 21.5926Z" fill="#FF0000"/>
</svg>
