<svg width="20" height="16" viewBox="0 0 20 16" fill="none" xmlns="http://www.w3.org/2000/svg">
<path d="M9.87891 4.57861C10.2165 4.57861 10.5208 4.49837 10.792 4.33789C11.0687 4.17188 11.2873 3.95052 11.4478 3.67383C11.6138 3.39714 11.6968 3.09277 11.6968 2.76074C11.6968 2.42318 11.6138 2.11882 11.4478 1.84766C11.2873 1.57096 11.0687 1.35238 10.792 1.19189C10.5208 1.02588 10.2165 0.942871 9.87891 0.942871C9.54688 0.942871 9.24251 1.02588 8.96582 1.19189C8.69466 1.35238 8.47607 1.57096 8.31006 1.84766C8.14958 2.11882 8.06934 2.42318 8.06934 2.76074C8.06934 3.09277 8.14958 3.39714 8.31006 3.67383C8.47607 3.95052 8.69466 4.17188 8.96582 4.33789C9.24251 4.49837 9.54688 4.57861 9.87891 4.57861ZM0.972168 3.3335L7.07324 6.604C7.17285 6.65934 7.24756 6.73682 7.29736 6.83643C7.34717 6.9305 7.35547 7.03288 7.32227 7.14355L6.73291 9.29346C7.12028 9.37093 7.45231 9.47884 7.729 9.61719C8.0057 9.75553 8.25749 9.89665 8.48438 10.0405C8.71126 10.1844 8.93815 10.3062 9.16504 10.4058C9.39746 10.5054 9.65479 10.5552 9.93701 10.5552C10.0975 10.5552 10.2441 10.5358 10.377 10.4971C10.5153 10.4583 10.6481 10.4085 10.7754 10.3477L11.5806 7.37598C11.6248 7.22103 11.6774 7.09928 11.7383 7.01074C11.7992 6.91667 11.9071 6.82812 12.062 6.74512L18.4536 3.3335C18.6805 3.20622 18.8327 3.01807 18.9102 2.76904C18.9876 2.52002 18.9683 2.28206 18.8521 2.05518C18.7192 1.82829 18.5283 1.67611 18.2793 1.59863C18.0358 1.51562 17.7979 1.53776 17.5654 1.66504L11.2236 5.02686C10.7256 5.29248 10.2275 5.43083 9.72949 5.44189C9.23145 5.45296 8.68359 5.30078 8.08594 4.98535L1.86035 1.66504C1.62793 1.53776 1.38721 1.51562 1.13818 1.59863C0.88916 1.67611 0.703776 1.82829 0.582031 2.05518C0.460286 2.28206 0.435384 2.52002 0.507324 2.76904C0.584798 3.01807 0.739746 3.20622 0.972168 3.3335ZM0.582031 12.7466H1.42041C1.9738 12.7466 2.43587 12.6774 2.80664 12.5391C3.18294 12.4007 3.51497 12.243 3.80273 12.0659C4.09603 11.8833 4.38656 11.7228 4.67432 11.5845C4.96208 11.4461 5.29688 11.377 5.67871 11.377C6.06608 11.377 6.40365 11.4461 6.69141 11.5845C6.97917 11.7228 7.26693 11.8833 7.55469 12.0659C7.84245 12.243 8.17171 12.4007 8.54248 12.5391C8.91878 12.6774 9.38363 12.7466 9.93701 12.7466C10.4959 12.7466 10.9608 12.6774 11.3315 12.5391C11.7078 12.4007 12.0399 12.243 12.3276 12.0659C12.6154 11.8833 12.9032 11.7228 13.1909 11.5845C13.4787 11.4461 13.8162 11.377 14.2036 11.377C14.5854 11.377 14.9202 11.4461 15.208 11.5845C15.4958 11.7228 15.7835 11.8833 16.0713 12.0659C16.359 12.243 16.6883 12.4007 17.0591 12.5391C17.4354 12.6774 17.903 12.7466 18.4619 12.7466H19.3003C19.4331 12.7466 19.5438 12.7023 19.6323 12.6138C19.7209 12.5252 19.7651 12.4173 19.7651 12.29C19.7651 12.1572 19.7209 12.0465 19.6323 11.958C19.5438 11.8695 19.4331 11.8252 19.3003 11.8252H18.4619C18.0635 11.8252 17.7148 11.756 17.416 11.6177C17.1172 11.4793 16.8211 11.3216 16.5278 11.1445C16.2401 10.9619 15.9136 10.8014 15.5483 10.6631C15.1831 10.5247 14.7349 10.4556 14.2036 10.4556C13.6668 10.4556 13.2158 10.5247 12.8506 10.6631C12.4854 10.8014 12.1561 10.9619 11.8628 11.1445C11.575 11.3216 11.2817 11.4793 10.9829 11.6177C10.6841 11.756 10.3354 11.8252 9.93701 11.8252C9.53857 11.8252 9.18994 11.756 8.89111 11.6177C8.59229 11.4793 8.29622 11.3216 8.00293 11.1445C7.71517 10.9619 7.38867 10.8014 7.02344 10.6631C6.6582 10.5247 6.20996 10.4556 5.67871 10.4556C5.14746 10.4556 4.69922 10.5247 4.33398 10.6631C3.96875 10.8014 3.63949 10.9619 3.34619 11.1445C3.05843 11.3216 2.76514 11.4793 2.46631 11.6177C2.16748 11.756 1.81885 11.8252 1.42041 11.8252H0.582031C0.449219 11.8252 0.338542 11.8695 0.25 11.958C0.161458 12.0465 0.117188 12.1572 0.117188 12.29C0.117188 12.4173 0.161458 12.5252 0.25 12.6138C0.338542 12.7023 0.449219 12.7466 0.582031 12.7466ZM0.797852 15.0542C0.936198 15.0542 1.05241 15.0072 1.14648 14.9131C1.24056 14.819 1.2876 14.7028 1.2876 14.5645C1.2876 14.4316 1.24056 14.3182 1.14648 14.2241C1.05241 14.13 0.936198 14.083 0.797852 14.083C0.665039 14.083 0.551595 14.13 0.45752 14.2241C0.363444 14.3182 0.316406 14.4316 0.316406 14.5645C0.316406 14.7028 0.363444 14.819 0.45752 14.9131C0.551595 15.0072 0.665039 15.0542 0.797852 15.0542ZM2.3584 14.772C2.49121 14.772 2.60466 14.7249 2.69873 14.6309C2.79281 14.5368 2.83984 14.4233 2.83984 14.2905C2.83984 14.1522 2.79281 14.036 2.69873 13.9419C2.60466 13.8478 2.49121 13.8008 2.3584 13.8008C2.22005 13.8008 2.10384 13.8478 2.00977 13.9419C1.91569 14.036 1.86865 14.1522 1.86865 14.2905C1.86865 14.4233 1.91569 14.5368 2.00977 14.6309C2.10384 14.7249 2.22005 14.772 2.3584 14.772ZM3.81104 14.083C3.94938 14.083 4.06559 14.0387 4.15967 13.9502C4.25374 13.8561 4.30078 13.7399 4.30078 13.6016C4.30078 13.4688 4.25374 13.3553 4.15967 13.2612C4.06559 13.1672 3.94938 13.1201 3.81104 13.1201C3.67822 13.1201 3.56478 13.1672 3.4707 13.2612C3.37663 13.3553 3.32959 13.4688 3.32959 13.6016C3.32959 13.7399 3.37663 13.8561 3.4707 13.9502C3.56478 14.0387 3.67822 14.083 3.81104 14.083ZM5.37988 13.7178C5.51823 13.7178 5.63444 13.6707 5.72852 13.5767C5.82259 13.4826 5.86963 13.3664 5.86963 13.228C5.86963 13.0952 5.82259 12.9818 5.72852 12.8877C5.63444 12.7936 5.51823 12.7466 5.37988 12.7466C5.24707 12.7466 5.13363 12.7936 5.03955 12.8877C4.94548 12.9818 4.89844 13.0952 4.89844 13.228C4.89844 13.3664 4.94548 13.4826 5.03955 13.5767C5.13363 13.6707 5.24707 13.7178 5.37988 13.7178ZM6.94873 14.083C7.08154 14.083 7.19499 14.0387 7.28906 13.9502C7.38314 13.8561 7.43018 13.7399 7.43018 13.6016C7.43018 13.4688 7.38314 13.3553 7.28906 13.2612C7.19499 13.1672 7.08154 13.1201 6.94873 13.1201C6.81038 13.1201 6.69417 13.1672 6.6001 13.2612C6.51156 13.3553 6.46729 13.4688 6.46729 13.6016C6.46729 13.7399 6.51156 13.8561 6.6001 13.9502C6.69417 14.0387 6.81038 14.083 6.94873 14.083ZM8.41797 14.772C8.55632 14.772 8.67253 14.7249 8.7666 14.6309C8.86068 14.5368 8.90771 14.4233 8.90771 14.2905C8.90771 14.1522 8.86068 14.036 8.7666 13.9419C8.67253 13.8478 8.55632 13.8008 8.41797 13.8008C8.28516 13.8008 8.17171 13.8478 8.07764 13.9419C7.98356 14.036 7.93652 14.1522 7.93652 14.2905C7.93652 14.4233 7.98356 14.5368 8.07764 14.6309C8.17171 14.7249 8.28516 14.772 8.41797 14.772ZM9.95361 15.0542C10.0864 15.0542 10.1999 15.0072 10.2939 14.9131C10.388 14.819 10.4351 14.7028 10.4351 14.5645C10.4351 14.4316 10.388 14.3182 10.2939 14.2241C10.1999 14.13 10.0864 14.083 9.95361 14.083C9.81527 14.083 9.69906 14.13 9.60498 14.2241C9.51091 14.3182 9.46387 14.4316 9.46387 14.5645C9.46387 14.7028 9.51091 14.819 9.60498 14.9131C9.69906 15.0072 9.81527 15.0542 9.95361 15.0542ZM11.481 14.772C11.6193 14.772 11.7327 14.7249 11.8213 14.6309C11.9154 14.5368 11.9624 14.4233 11.9624 14.2905C11.9624 14.1522 11.9154 14.036 11.8213 13.9419C11.7327 13.8478 11.6193 13.8008 11.481 13.8008C11.3481 13.8008 11.2347 13.8478 11.1406 13.9419C11.0465 14.036 10.9995 14.1522 10.9995 14.2905C10.9995 14.4233 11.0465 14.5368 11.1406 14.6309C11.2347 14.7249 11.3481 14.772 11.481 14.772ZM12.9502 14.083C13.0885 14.083 13.2048 14.0387 13.2988 13.9502C13.3929 13.8561 13.4399 13.7399 13.4399 13.6016C13.4399 13.4688 13.3929 13.3553 13.2988 13.2612C13.2048 13.1672 13.0885 13.1201 12.9502 13.1201C12.8174 13.1201 12.7039 13.1672 12.6099 13.2612C12.5158 13.3553 12.4688 13.4688 12.4688 13.6016C12.4688 13.7399 12.5158 13.8561 12.6099 13.9502C12.7039 14.0387 12.8174 14.083 12.9502 14.083ZM14.519 13.7178C14.6574 13.7178 14.7708 13.6707 14.8594 13.5767C14.9535 13.4826 15.0005 13.3664 15.0005 13.228C15.0005 13.0952 14.9535 12.9818 14.8594 12.8877C14.7708 12.7936 14.6574 12.7466 14.519 12.7466C14.3862 12.7466 14.2728 12.7936 14.1787 12.8877C14.0846 12.9818 14.0376 13.0952 14.0376 13.228C14.0376 13.3664 14.0846 13.4826 14.1787 13.5767C14.2728 13.6707 14.3862 13.7178 14.519 13.7178ZM16.0879 14.083C16.2262 14.083 16.3397 14.0387 16.4282 13.9502C16.5223 13.8561 16.5693 13.7399 16.5693 13.6016C16.5693 13.4688 16.5223 13.3553 16.4282 13.2612C16.3397 13.1672 16.2262 13.1201 16.0879 13.1201C15.9551 13.1201 15.8416 13.1672 15.7476 13.2612C15.6535 13.3553 15.6064 13.4688 15.6064 13.6016C15.6064 13.7399 15.6535 13.8561 15.7476 13.9502C15.8416 14.0387 15.9551 14.083 16.0879 14.083ZM17.5488 14.772C17.6816 14.772 17.7951 14.7249 17.8892 14.6309C17.9832 14.5368 18.0303 14.4233 18.0303 14.2905C18.0303 14.1522 17.9832 14.036 17.8892 13.9419C17.7951 13.8478 17.6816 13.8008 17.5488 13.8008C17.4105 13.8008 17.2943 13.8478 17.2002 13.9419C17.1117 14.036 17.0674 14.1522 17.0674 14.2905C17.0674 14.4233 17.1117 14.5368 17.2002 14.6309C17.2943 14.7249 17.4105 14.772 17.5488 14.772ZM19.0928 15.0542C19.2311 15.0542 19.3473 15.0072 19.4414 14.9131C19.5355 14.819 19.5825 14.7028 19.5825 14.5645C19.5825 14.4316 19.5355 14.3182 19.4414 14.2241C19.3473 14.13 19.2311 14.083 19.0928 14.083C18.96 14.083 18.8465 14.13 18.7524 14.2241C18.6584 14.3182 18.6113 14.4316 18.6113 14.5645C18.6113 14.7028 18.6584 14.819 18.7524 14.9131C18.8465 15.0072 18.96 15.0542 19.0928 15.0542Z" fill="black"/>
</svg>
