<svg width="32" height="32" viewBox="0 0 32 32" fill="none" xmlns="http://www.w3.org/2000/svg">
<path d="M4.88977 11.7695H27.0984C27.5966 11.7695 28 11.3828 28 10.8906C28 10.3984 27.5966 10 27.0984 10H4.88977C4.3915 10 4 10.3984 4 10.8906C4 11.3828 4.3915 11.7695 4.88977 11.7695ZM4.88977 16.8789H27.0984C27.5966 16.8789 28 16.4922 28 16C28 15.4961 27.5966 15.0977 27.0984 15.0977H4.88977C4.3915 15.0977 4 15.4961 4 16C4 16.4922 4.3915 16.8789 4.88977 16.8789ZM4.88977 22H27.0984C27.5966 22 28 21.6016 28 21.0977C28 20.6055 27.5966 20.2188 27.0984 20.2188H4.88977C4.3915 20.2188 4 20.6055 4 21.0977C4 21.6016 4.3915 22 4.88977 22Z" fill="white" fill-opacity="0.5"/>
</svg>
