<svg width="40" height="40" viewBox="0 0 40 40" fill="none" xmlns="http://www.w3.org/2000/svg">
<g clip-path="url(#clip0_3127_125898)">
<path d="M10.5 34H9C8.20435 34 7.44129 33.6839 6.87868 33.1213C6.31607 32.5587 6 31.7956 6 31V29.5C6 29.1022 5.84196 28.7206 5.56066 28.4393C5.27936 28.158 4.89783 28 4.5 28C4.10218 28 3.72064 28.158 3.43934 28.4393C3.15803 28.7206 3 29.1022 3 29.5V31C3 32.5913 3.63214 34.1174 4.75736 35.2426C5.88258 36.3679 7.4087 37 9 37H10.5C10.8978 37 11.2794 36.842 11.5607 36.5607C11.842 36.2794 12 35.8978 12 35.5C12 35.1022 11.842 34.7206 11.5607 34.4393C11.2794 34.158 10.8978 34 10.5 34Z" fill="#7A948F"/>
<path d="M34 29.5L34 31C34 31.7956 33.6839 32.5587 33.1213 33.1213C32.5587 33.6839 31.7956 34 31 34L29.5 34C29.1022 34 28.7206 34.158 28.4393 34.4393C28.158 34.7206 28 35.1022 28 35.5C28 35.8978 28.158 36.2794 28.4393 36.5607C28.7206 36.842 29.1022 37 29.5 37L31 37C32.5913 37 34.1174 36.3679 35.2426 35.2426C36.3679 34.1174 37 32.5913 37 31L37 29.5C37 29.1022 36.842 28.7206 36.5607 28.4393C36.2794 28.158 35.8978 28 35.5 28C35.1022 28 34.7206 28.158 34.4393 28.4393C34.158 28.7206 34 29.1022 34 29.5Z" fill="#7A948F"/>
<path d="M6 10.5L6 9C6 8.20435 6.31607 7.44129 6.87868 6.87868C7.44129 6.31607 8.20435 6 9 6L10.5 6C10.8978 6 11.2794 5.84196 11.5607 5.56066C11.842 5.27936 12 4.89783 12 4.5C12 4.10218 11.842 3.72064 11.5607 3.43934C11.2794 3.15803 10.8978 3 10.5 3L9 3C7.4087 3 5.88258 3.63214 4.75736 4.75736C3.63214 5.88258 3 7.4087 3 9L3 10.5C3 10.8978 3.15803 11.2794 3.43934 11.5607C3.72064 11.842 4.10217 12 4.5 12C4.89782 12 5.27936 11.842 5.56066 11.5607C5.84197 11.2794 6 10.8978 6 10.5Z" fill="#7A948F"/>
<path d="M29.5 6L31 6C31.7956 6 32.5587 6.31607 33.1213 6.87868C33.6839 7.44129 34 8.20435 34 9L34 10.5C34 10.8978 34.158 11.2794 34.4393 11.5607C34.7206 11.842 35.1022 12 35.5 12C35.8978 12 36.2794 11.842 36.5607 11.5607C36.842 11.2794 37 10.8978 37 10.5L37 9C37 7.4087 36.3679 5.88258 35.2426 4.75736C34.1174 3.63214 32.5913 3 31 3L29.5 3C29.1022 3 28.7206 3.15803 28.4393 3.43934C28.158 3.72064 28 4.10217 28 4.5C28 4.89782 28.158 5.27936 28.4393 5.56066C28.7206 5.84197 29.1022 6 29.5 6Z" fill="#7A948F"/>
<path d="M11 28.625V11.375C11 11.2755 10.9473 11.1802 10.8536 11.1098C10.7598 11.0395 10.6326 11 10.5 11C10.3674 11 10.2402 11.0395 10.1464 11.1098C10.0527 11.1802 10 11.2755 10 11.375V28.625C10 28.7245 10.0527 28.8198 10.1464 28.8902C10.2402 28.9605 10.3674 29 10.5 29C10.6326 29 10.7598 28.9605 10.8536 28.8902C10.9473 28.8198 11 28.7245 11 28.625Z" fill="#7A948F"/>
<path d="M14.5 11H12.5C12.2239 11 12 11.1679 12 11.375V28.625C12 28.8321 12.2239 29 12.5 29H14.5C14.7761 29 15 28.8321 15 28.625V11.375C15 11.1679 14.7761 11 14.5 11Z" fill="#7A948F"/>
<path d="M16.75 11H16.25C16.1119 11 16 11.1679 16 11.375V28.625C16 28.8321 16.1119 29 16.25 29H16.75C16.8881 29 17 28.8321 17 28.625V11.375C17 11.1679 16.8881 11 16.75 11Z" fill="#7A948F"/>
<path d="M18.5 11C18.3674 11 18.2402 11.0395 18.1464 11.1098C18.0527 11.1802 18 11.2755 18 11.375V28.625C18 28.7245 18.0527 28.8198 18.1464 28.8902C18.2402 28.9605 18.3674 29 18.5 29C18.6326 29 18.7598 28.9605 18.8536 28.8902C18.9473 28.8198 19 28.7245 19 28.625V11.375C19 11.2755 18.9473 11.1802 18.8536 11.1098C18.7598 11.0395 18.6326 11 18.5 11Z" fill="#7A948F"/>
<path d="M22.5 11H20.5C20.2239 11 20 11.1679 20 11.375V28.625C20 28.8321 20.2239 29 20.5 29H22.5C22.7761 29 23 28.8321 23 28.625V11.375C23 11.1679 22.7761 11 22.5 11Z" fill="#7A948F"/>
<path d="M27.3333 11H24.6667C24.2985 11 24 11.1679 24 11.375V28.625C24 28.8321 24.2985 29 24.6667 29H27.3333C27.7015 29 28 28.8321 28 28.625V11.375C28 11.1679 27.7015 11 27.3333 11Z" fill="#7A948F"/>
<path d="M30 28.625V11.375C30 11.2755 29.9473 11.1802 29.8536 11.1098C29.7598 11.0395 29.6326 11 29.5 11C29.3674 11 29.2402 11.0395 29.1464 11.1098C29.0527 11.1802 29 11.2755 29 11.375V28.625C29 28.7245 29.0527 28.8198 29.1464 28.8902C29.2402 28.9605 29.3674 29 29.5 29C29.6326 29 29.7598 28.9605 29.8536 28.8902C29.9473 28.8198 30 28.7245 30 28.625Z" fill="#7A948F"/>
</g>
<defs>
<clipPath id="clip0_3127_125898">
<rect width="40" height="40" fill="white"/>
</clipPath>
</defs>
</svg>
