<svg width="41" height="41" viewBox="0 0 41 41" fill="none" xmlns="http://www.w3.org/2000/svg">
<path d="M20.4935 26.0521C20.7774 26.0521 21.0073 25.966 21.2777 25.6788L25.8478 20.9836C26.0507 20.7682 26.1723 20.5384 26.1723 20.2369C26.1723 19.6482 25.7397 19.2318 25.1853 19.2318C24.9149 19.2318 24.6445 19.3467 24.4552 19.5764L21.494 22.9076L21.5752 20.7538V5.61996C21.5752 5.01691 21.0749 4.5 20.4935 4.5C19.9121 4.5 19.4253 5.01691 19.4253 5.61996V20.7538L19.5064 22.9076L18.587 21.8881L16.5453 19.5764C16.356 19.3467 16.0585 19.2318 15.8016 19.2318C15.2338 19.2318 14.8281 19.6482 14.8281 20.2369C14.8281 20.5384 14.9363 20.7682 15.1391 20.9836L19.7093 25.6788C19.9932 25.966 20.2231 26.0521 20.4935 26.0521Z" fill="white"/>
<path d="M12.7456 35.5016H28.2544C31.0803 35.5016 32.5 34.0083 32.5 31.0504V16.7207C32.5 13.7628 31.0803 12.2695 28.2544 12.2695H24.482V14.5813H28.2138C29.5524 14.5813 30.3231 15.3566 30.3231 16.8499V30.9212C30.3231 32.4145 29.5524 33.1899 28.2138 33.1899H12.7727C11.4206 33.1899 10.6769 32.4145 10.6769 30.9212V16.8499C10.6769 15.3566 11.4206 14.5813 12.7727 14.5813H16.518V12.2695H12.7456C9.91972 12.2695 8.5 13.7628 8.5 16.7207V31.0504C8.5 34.0083 9.91972 35.5016 12.7456 35.5016Z" fill="white"/>
</svg>
