<svg width="64" height="64" viewBox="0 0 64 64" fill="none" xmlns="http://www.w3.org/2000/svg">
<path d="M53.5866 12.5733C53.1602 12.0418 52.626 11.6066 52.0193 11.2963C51.4126 10.9861 50.7471 10.8078 50.0666 10.7733C48.7894 10.6395 47.4985 10.7823 46.2814 11.1918C45.0644 11.6013 43.9497 12.268 43.0132 13.1466C40.203 13.5774 37.3629 13.7825 34.5199 13.7599C33.5021 13.7008 32.5036 13.4568 31.5732 13.0399V24.6666H38.5866C41.3205 27.9193 43.1017 31.8647 43.7332 36.0666L44.7599 46.0933C44.8867 47.0603 44.806 48.0432 44.5232 48.9767C44.2404 49.9101 43.762 50.7725 43.1199 51.5066C42.1976 52.5266 41.0725 53.3428 39.8166 53.903C38.5607 54.4632 37.2017 54.7551 35.8266 54.7599H31.5732V56.0933H35.8532C42.1732 55.9066 46.7866 51.2933 46.0799 45.9599C45.7332 42.5999 45.3999 39.2933 45.0532 35.8933C44.9231 34.9934 44.7361 34.1028 44.4932 33.2266L44.7999 33.3599C45.2335 33.4823 45.6827 33.5407 46.1332 33.5333C47.1861 33.5199 48.2114 33.1951 49.0799 32.5999C51.7466 30.9199 53.8932 27.0533 54.4932 22.9999C55.0932 18.9466 55.4399 14.9333 53.5866 12.5733ZM51.7999 22.5599C51.3199 25.7866 49.5466 29.0533 47.5866 30.3066C47.2981 30.5222 46.9666 30.6731 46.6145 30.749C46.2625 30.8249 45.8983 30.8241 45.5466 30.7466C45.0551 30.5703 44.6045 30.2963 44.2218 29.9411C43.8391 29.5859 43.5323 29.1569 43.3199 28.6799C41.9621 25.4773 41.778 21.8983 42.7999 18.5733C43.8132 15.2933 46.1599 13.3866 49.1466 13.3866H49.8266C50.1452 13.3867 50.4599 13.4573 50.748 13.5933C51.0362 13.7293 51.2907 13.9273 51.4932 14.1733C52.7866 15.8666 52.1466 20.2266 51.7999 22.5599Z" fill="#87AFB2"/>
<path d="M35.8266 54.7593C37.2017 54.7545 38.5607 54.4626 39.8166 53.9024C41.0725 53.3422 42.1976 52.526 43.1199 51.506C43.762 50.7719 44.2404 49.9095 44.5232 48.9761C44.806 48.0426 44.8867 47.0597 44.7599 46.0927L43.7332 36.066C43.1017 31.8641 41.3205 27.9187 38.5866 24.666H31.5732V54.7593H35.8266Z" fill="#2EB7E2"/>
<path d="M26.9735 54.7601C25.6031 54.75 24.2497 54.4556 22.9989 53.8956C21.7481 53.3356 20.6271 52.5222 19.7068 51.5068C19.0732 50.7835 18.5996 49.9345 18.317 49.0154C18.0344 48.0963 17.9491 47.1278 18.0668 46.1735L19.1068 36.0001C19.738 31.8102 21.5197 27.8776 24.2535 24.6401H31.5735V13.0401C29.1735 12.0801 26.5335 10.5068 24.4935 10.5068C18.2401 10.5868 13.6001 9.64015 17.6268 13.6401C19.1087 15.2364 20.3608 17.0314 21.3468 18.9735C21.7868 19.8401 22.1335 20.6935 22.4935 21.5201C23.1468 23.0801 21.7735 25.5201 21.3335 26.2401L21.2668 26.3468V26.4535C19.5193 29.3077 18.3546 32.4799 17.8401 35.7868C17.5068 39.1468 17.1601 42.4535 16.8135 45.8535C16.1068 51.1868 20.7201 55.8002 27.0401 55.9868H31.6401V54.6535L26.9735 54.7601Z" fill="#DAE8ED"/>
<path d="M19.1064 35.9993L18.0664 46.106C17.9488 47.0604 18.034 48.0288 18.3167 48.9479C18.5993 49.867 19.0729 50.716 19.7064 51.4394C20.6268 52.4547 21.7478 53.2681 22.9986 53.8281C24.2494 54.3881 25.6027 54.6825 26.9731 54.6927H31.5731V24.666H24.2531C21.5238 27.896 19.7424 31.8187 19.1064 35.9993Z" fill="#71CEF2"/>
</svg>
