<svg width="128" height="128" viewBox="0 0 128 128" fill="none" xmlns="http://www.w3.org/2000/svg">
<path d="M0 0H128V128H0V0Z" fill="white"/>
<path d="M37 46C41.9706 46 46 41.9706 46 37C46 32.0294 41.9706 28 37 28C32.0294 28 28 32.0294 28 37C28 41.9706 32.0294 46 37 46Z" fill="#FF291D"/>
<path d="M37 73C41.9706 73 46 68.9706 46 64C46 59.0294 41.9706 55 37 55C32.0294 55 28 59.0294 28 64C28 68.9706 32.0294 73 37 73Z" fill="#FF291D"/>
<path d="M64 46C68.9706 46 73 41.9706 73 37C73 32.0294 68.9706 28 64 28C59.0294 28 55 32.0294 55 37C55 41.9706 59.0294 46 64 46Z" fill="#FF291D"/>
<path d="M64 73C68.9706 73 73 68.9706 73 64C73 59.0294 68.9706 55 64 55C59.0294 55 55 59.0294 55 64C55 68.9706 59.0294 73 64 73Z" fill="#FF291D"/>
<path d="M91 46C95.9706 46 100 41.9706 100 37C100 32.0294 95.9706 28 91 28C86.0294 28 82 32.0294 82 37C82 41.9706 86.0294 46 91 46Z" fill="#FCAA0A"/>
<path d="M91 73C95.9706 73 100 68.9706 100 64C100 59.0294 95.9706 55 91 55C86.0294 55 82 59.0294 82 64C82 68.9706 86.0294 73 91 73Z" fill="#FCAA0A"/>
<path d="M91 100C95.9706 100 100 95.9706 100 91C100 86.0294 95.9706 82 91 82C86.0294 82 82 86.0294 82 91C82 95.9706 86.0294 100 91 100Z" fill="#FCAA0A"/>
<path d="M63.9793 82H37.0207C35.8361 82 34.6631 82.2326 33.5686 82.6849C32.4742 83.1372 31.4797 83.8005 30.642 84.6362C29.8044 85.472 29.14 86.4639 28.6866 87.5558C28.2333 88.6478 28 89.8183 28 91.0003C28 92.1822 28.2333 93.3522 28.6866 94.4442C29.14 95.5361 29.8044 96.5285 30.642 97.3643C31.4797 98.2 32.4742 98.8628 33.5686 99.3151C34.6631 99.7673 35.8361 100 37.0207 100H63.9793C65.1639 100 66.3369 99.7673 67.4314 99.3151C68.5258 98.8628 69.5203 98.2 70.358 97.3643C71.1956 96.5285 71.86 95.5361 72.3134 94.4442C72.7667 93.3522 73 92.1822 73 91.0003C73 89.8183 72.7667 88.6478 72.3134 87.5558C71.86 86.4639 71.1956 85.472 70.358 84.6362C69.5203 83.8005 68.5258 83.1372 67.4314 82.6849C66.3369 82.2326 65.1639 82 63.9793 82Z" fill="#00C94D"/>
</svg>
