<svg width="44" height="44" viewBox="0 0 44 44" fill="none" xmlns="http://www.w3.org/2000/svg">
<rect x="1" y="1" width="42" height="42" rx="21" fill="#FF0000"/>
<path d="M16.7428 32H27.2472C29.218 32 30.0884 31.0505 30.3885 29.0277L31.8691 18.6763H32.0992C33.3297 18.6763 34 17.8816 34 16.6225V15.0538C34 13.7947 33.3297 13 32.0992 13H11.9008C10.7303 13 10 13.7947 10 15.0538V16.6225C10 17.8816 10.6703 18.6763 11.9008 18.6763H12.1209L13.6115 29.0277C13.9016 31.0608 14.782 32 16.7428 32ZM12.311 17.1179C11.8108 17.1179 11.6107 16.9011 11.6107 16.3851V15.2911C11.6107 14.7751 11.8108 14.5584 12.311 14.5584H31.699C32.1992 14.5584 32.3893 14.7751 32.3893 15.2911V16.3851C32.3893 16.9011 32.1992 17.1179 31.699 17.1179H12.311ZM16.7728 30.4416C15.8724 30.4416 15.3522 30.0288 15.2122 29.0071L13.7216 18.6763H30.2784L28.7878 29.0071C28.6378 30.0288 28.1075 30.4416 27.2272 30.4416H16.7728ZM19.1038 28.2846C19.3039 28.2846 19.484 28.1814 19.634 28.0369L21.995 25.591L24.366 28.0369C24.506 28.1711 24.6861 28.2846 24.9062 28.2846C25.3264 28.2846 25.6765 27.9131 25.6765 27.4796C25.6765 27.2423 25.5765 27.0771 25.4364 26.9223L23.0855 24.4867L25.4464 22.0201C25.5965 21.855 25.6865 21.7002 25.6865 21.4834C25.6865 21.0397 25.3464 20.6888 24.9062 20.6888C24.7161 20.6888 24.5461 20.7713 24.386 20.9364L21.995 23.3824L19.624 20.9468C19.4639 20.792 19.3039 20.7094 19.1038 20.7094C18.6736 20.7094 18.3235 21.05 18.3235 21.4834C18.3235 21.7105 18.4235 21.8859 18.5636 22.0304L20.9145 24.4867L18.5636 26.9326C18.4235 27.0771 18.3235 27.2526 18.3235 27.4796C18.3235 27.9131 18.6736 28.2846 19.1038 28.2846Z" fill="white"/>
<rect x="1" y="1" width="42" height="42" rx="21" stroke="white" stroke-width="2"/>
</svg>
