<svg width="17" height="20" viewBox="0 0 17 20" fill="none" xmlns="http://www.w3.org/2000/svg">
<path d="M7.83632 3.65674C8.16835 3.65674 8.46994 3.5765 8.7411 3.41602C9.01226 3.25 9.22808 3.03141 9.38857 2.76025C9.55458 2.48356 9.63759 2.17643 9.63759 1.83887C9.63759 1.50684 9.55458 1.20524 9.38857 0.934082C9.22808 0.662923 9.01226 0.447103 8.7411 0.286621C8.46994 0.120605 8.16835 0.0375977 7.83632 0.0375977C7.49875 0.0375977 7.19163 0.120605 6.91493 0.286621C6.64377 0.447103 6.42519 0.662923 6.25917 0.934082C6.09869 1.20524 6.01845 1.50684 6.01845 1.83887C6.01845 2.17643 6.09869 2.48356 6.25917 2.76025C6.42519 3.03141 6.64377 3.25 6.91493 3.41602C7.19163 3.5765 7.49875 3.65674 7.83632 3.65674ZM0.415421 19.7437C0.592504 19.8931 0.797256 19.9622 1.02968 19.9512C1.26763 19.9401 1.46685 19.8433 1.62733 19.6606L4.58241 16.2822C4.74289 16.0941 4.8342 15.8893 4.85634 15.668L5.22987 12.0322C5.23541 11.9714 5.26308 11.9326 5.31288 11.916C5.36822 11.8939 5.41526 11.9077 5.45399 11.9575L7.83632 14.7051V19.0962C7.83632 19.3341 7.91933 19.5361 8.08534 19.7021C8.25689 19.8737 8.46164 19.9595 8.6996 19.9595C8.93202 19.9595 9.13401 19.8737 9.30556 19.7021C9.47711 19.5361 9.56288 19.3341 9.56288 19.0962V14.4229C9.56288 14.3066 9.54628 14.207 9.51308 14.124C9.47987 14.0355 9.4356 13.9525 9.38026 13.875L6.85683 10.1895L8.08534 6.52051C8.14621 6.33789 8.27903 6.24658 8.48378 6.24658H15.1244C15.3568 6.24658 15.5588 6.16357 15.7304 5.99756C15.9019 5.83154 15.9877 5.62956 15.9877 5.3916C15.9877 5.15365 15.9019 4.95166 15.7304 4.78564C15.5588 4.6141 15.3568 4.52832 15.1244 4.52832H5.12196C4.77333 4.52832 4.45237 4.58366 4.15907 4.69434C3.86578 4.80501 3.57802 5.00146 3.29579 5.28369L1.66054 6.93555C1.47792 7.11816 1.38384 7.32568 1.37831 7.55811C1.37278 7.78499 1.43918 7.98145 1.57753 8.14746C1.72141 8.31348 1.91786 8.39648 2.16689 8.39648H3.71083L3.3788 9.38428C3.20725 9.90446 3.12148 10.444 3.12148 11.0029V15.3525L0.332413 18.5317C0.171931 18.7144 0.0999908 18.9219 0.116592 19.1543C0.133194 19.3923 0.232803 19.5887 0.415421 19.7437ZM15.1244 7.11816C15.4786 7.11816 15.7802 6.99089 16.0292 6.73633C16.2837 6.48177 16.411 6.17464 16.411 5.81494C16.411 5.46077 16.2837 5.15918 16.0292 4.91016C15.7802 4.6556 15.4786 4.52832 15.1244 4.52832C14.7647 4.52832 14.4576 4.6556 14.203 4.91016C13.9485 5.15918 13.8212 5.46077 13.8212 5.81494C13.8212 6.17464 13.9485 6.48177 14.203 6.73633C14.4576 6.99089 14.7647 7.11816 15.1244 7.11816Z" fill="black"/>
</svg>
