<svg width="48" height="48" viewBox="0 0 48 48" fill="none" xmlns="http://www.w3.org/2000/svg">
<circle cx="24" cy="24" r="24" fill="#FFC2B9"/>
<path d="M15.8516 30V22.5044H16.001L21.5293 30H23.6045V18.022H21.2056V25.4844H21.0562L15.5444 18.022H13.4526V30H15.8516ZM30.3364 30.1992C33.1504 30.1992 34.8438 28.4146 34.8438 25.418C34.8438 22.4463 33.1255 20.645 30.3364 20.645C27.5474 20.645 25.8291 22.4546 25.8291 25.418C25.8291 28.4146 27.5225 30.1992 30.3364 30.1992ZM30.3364 28.2236C29.0415 28.2236 28.311 27.2026 28.311 25.418C28.311 23.6582 29.0498 22.6206 30.3364 22.6206C31.6147 22.6206 32.3618 23.6582 32.3618 25.418C32.3618 27.1943 31.623 28.2236 30.3364 28.2236Z" fill="#434A4A"/>
</svg>
