<svg width="24" height="25" viewBox="0 0 24 25" fill="none" xmlns="http://www.w3.org/2000/svg">
<path d="M4.09343 24.0898H19.9066C22.6442 24.0898 24 22.7341 24 20.0486V4.13113C24 1.44563 22.6442 0.0898438 19.9066 0.0898438H4.09343C1.36882 0.0898438 0 1.43259 0 4.13113V20.0486C0 22.7471 1.36882 24.0898 4.09343 24.0898ZM4.1195 21.991C2.81586 21.991 2.09886 21.3001 2.09886 19.9443V4.23542C2.09886 2.87963 2.81586 2.1887 4.1195 2.1887H19.8805C21.1711 2.1887 21.9011 2.87963 21.9011 4.23542V19.9443C21.9011 21.3001 21.1711 21.991 19.8805 21.991H4.1195ZM6.90929 13.1784H17.1298C17.8599 13.1784 18.3683 12.7873 18.3683 12.0964C18.3683 11.3924 17.8859 10.9883 17.1298 10.9883H6.90929C6.14014 10.9883 5.65779 11.3924 5.65779 12.0964C5.65779 12.7873 6.17925 13.1784 6.90929 13.1784Z" fill="#2C6300"/>
</svg>
