<svg width="48" height="48" viewBox="0 0 48 48" fill="none" xmlns="http://www.w3.org/2000/svg">
<circle cx="24" cy="24" r="24" fill="#8AF294"/>
<path d="M16.2798 30V25.5923L20.4468 18.022H17.7324L15.1011 23.0356H14.9517L12.312 18.022H9.59766L13.7729 25.5923V30H16.2798ZM24.5972 22.4961C25.7261 22.4961 26.4565 23.2515 26.5063 24.4634H22.605C22.688 23.2764 23.4766 22.4961 24.5972 22.4961ZM26.5562 27.3936C26.2988 27.9995 25.6431 28.3398 24.6885 28.3398C23.4268 28.3398 22.6299 27.4932 22.5967 26.1318V26.0073H28.8804V25.2686C28.8804 22.3633 27.2866 20.645 24.5889 20.645C21.8662 20.645 20.1895 22.4878 20.1895 25.4678C20.1895 28.4395 21.833 30.1992 24.6221 30.1992C26.8633 30.1992 28.4487 29.1118 28.8057 27.3936H26.5562ZM30.6567 23.5337C30.6567 24.9448 31.52 25.7915 33.2964 26.1816L34.9565 26.5552C35.7617 26.7295 36.1104 27.0034 36.1104 27.4517C36.1104 28.041 35.4629 28.4312 34.5249 28.4312C33.562 28.4312 32.9727 28.0742 32.79 27.4517H30.4326C30.5986 29.2114 32.0596 30.1992 34.4751 30.1992C36.874 30.1992 38.5093 29.0039 38.5093 27.1777C38.5093 25.8081 37.7124 25.061 35.936 24.6709L34.2178 24.2974C33.3711 24.1064 32.981 23.8325 32.981 23.3843C32.981 22.8032 33.6201 22.4131 34.4834 22.4131C35.3799 22.4131 35.936 22.7783 36.0605 23.3677H38.2935C38.1606 21.6162 36.791 20.645 34.4668 20.645C32.1841 20.645 30.6567 21.7988 30.6567 23.5337Z" fill="#434A4A"/>
</svg>
