<svg width="24" height="24" viewBox="0 0 24 24" fill="none" xmlns="http://www.w3.org/2000/svg">
<path d="M12.0576 6.34521C12.4173 6.34521 12.7438 6.25667 13.0371 6.07959C13.3304 5.90251 13.5656 5.66732 13.7427 5.37402C13.9198 5.0752 14.0083 4.74593 14.0083 4.38623C14.0083 4.02653 13.9198 3.70003 13.7427 3.40674C13.5656 3.11344 13.3304 2.87826 13.0371 2.70117C12.7438 2.52409 12.4173 2.43555 12.0576 2.43555C11.6979 2.43555 11.3687 2.52409 11.0698 2.70117C10.7765 2.87826 10.5413 3.11344 10.3643 3.40674C10.1872 3.70003 10.0986 4.02653 10.0986 4.38623C10.0986 4.74593 10.1872 5.0752 10.3643 5.37402C10.5413 5.66732 10.7765 5.90251 11.0698 6.07959C11.3687 6.25667 11.6979 6.34521 12.0576 6.34521ZM14.4316 21.3696C14.653 21.2977 14.8328 21.1566 14.9712 20.9463C15.1095 20.7415 15.1372 20.4925 15.0542 20.1992L13.7593 15.6919C13.6873 15.4429 13.5435 15.2575 13.3276 15.1357L10.7046 13.5918L11.958 9.86475C11.9912 9.74854 12.0521 9.6849 12.1406 9.67383C12.2347 9.65723 12.326 9.6932 12.4146 9.78174L14.3237 11.6826C14.5229 11.8708 14.7443 11.9648 14.9878 11.9648C15.2534 11.9648 15.4803 11.8708 15.6685 11.6826L18.2417 9.10107C18.4243 8.91846 18.5184 8.6971 18.5239 8.43701C18.5295 8.17692 18.4354 7.95003 18.2417 7.75635C18.0591 7.57373 17.835 7.48242 17.5693 7.48242C17.3092 7.47689 17.0851 7.5682 16.897 7.75635L14.9878 9.66553L13.4106 8.02197C13.0177 7.618 12.5806 7.35514 12.0991 7.2334C11.6232 7.11165 10.9868 7.05078 10.1899 7.05078H2.10498C1.84489 7.05078 1.62077 7.14486 1.43262 7.33301C1.24447 7.51562 1.15039 7.74251 1.15039 8.01367C1.15039 8.27376 1.24447 8.49788 1.43262 8.68604C1.62077 8.86865 1.84489 8.95996 2.10498 8.95996H8.10645C8.21159 8.95996 8.2946 8.99593 8.35547 9.06787C8.42188 9.13428 8.43018 9.23942 8.38037 9.3833L7.37598 12.3799C7.2487 12.7507 7.21826 13.1187 7.28467 13.4839C7.35661 13.8491 7.50326 14.1784 7.72461 14.4717C7.9515 14.7594 8.24202 14.9808 8.59619 15.1357L12.0327 16.6548L13.2197 20.6973C13.3138 21.0182 13.4798 21.2285 13.7178 21.3281C13.9613 21.4277 14.1992 21.4416 14.4316 21.3696ZM3.49121 21.0459C3.61849 21.223 3.79281 21.342 4.01416 21.4028C4.23551 21.4692 4.47624 21.4305 4.73633 21.2866L8.57129 19.1616C8.78711 19.0454 8.93652 18.8628 9.01953 18.6138L9.68359 16.6299L8.23096 15.9907C8.14242 15.9465 8.05387 15.9022 7.96533 15.8579C7.88232 15.8081 7.79932 15.7555 7.71631 15.7002L7.28467 17.6841L3.80664 19.6265C3.49674 19.8035 3.32796 20.0332 3.30029 20.3154C3.27262 20.5977 3.33626 20.8411 3.49121 21.0459ZM15.4194 14.1729H20.79V12.8945H15.4194C15.2424 12.8945 15.0902 12.9582 14.9629 13.0854C14.8411 13.2072 14.7803 13.3566 14.7803 13.5337C14.7803 13.7108 14.8411 13.863 14.9629 13.9902C15.0902 14.112 15.2424 14.1729 15.4194 14.1729ZM2.271 7.52393H3.375V6.12109H2.271V7.52393ZM2.82715 2.73438C2.35124 2.73438 1.94727 2.90316 1.61523 3.24072C1.2832 3.57275 1.11719 3.97949 1.11719 4.46094C1.11719 4.7487 1.19189 5.04199 1.34131 5.34082C1.49626 5.63965 1.70101 5.90251 1.95557 6.12939C2.21566 6.35075 2.50618 6.4974 2.82715 6.56934C3.14258 6.4974 3.43034 6.35075 3.69043 6.12939C3.95052 5.90251 4.15527 5.63965 4.30469 5.34082C4.45964 5.04199 4.53711 4.7487 4.53711 4.46094C4.53711 3.97949 4.37109 3.57275 4.03906 3.24072C3.70703 2.90316 3.30306 2.73438 2.82715 2.73438Z" fill="black"/>
</svg>
