<svg width="26" height="24" viewBox="0 0 26 24" fill="none" xmlns="http://www.w3.org/2000/svg">
<path d="M7.23775 24C7.68013 24 8.00907 23.7687 8.5422 23.2598L12.637 19.4429H20.3049C23.6851 19.4429 25.5 17.546 25.5 14.1571V5.29735C25.5 1.90843 23.6851 0 20.3049 0H5.6951C2.31488 0 0.5 1.89687 0.5 5.29735V14.1571C0.5 17.5576 2.31488 19.4429 5.6951 19.4429H6.22822V22.8087C6.22822 23.5258 6.5912 24 7.23775 24ZM7.27178 11.4275C6.35299 11.4275 5.59301 10.6641 5.59301 9.71566C5.59301 8.76723 6.35299 8.00386 7.27178 8.00386C8.20191 8.00386 8.95054 8.76723 8.95054 9.71566C8.95054 10.6641 8.20191 11.4275 7.27178 11.4275ZM13.0113 11.4275C12.0812 11.4275 11.3212 10.6641 11.3212 9.71566C11.3212 8.76723 12.0812 8.00386 13.0113 8.00386C13.9301 8.00386 14.6901 8.76723 14.6901 9.71566C14.6901 10.6641 13.9301 11.4275 13.0113 11.4275ZM18.7396 11.4275C17.8094 11.4275 17.0608 10.6641 17.0608 9.71566C17.0608 8.76723 17.8094 8.00386 18.7396 8.00386C19.6697 8.00386 20.4183 8.76723 20.4183 9.71566C20.4183 10.6641 19.6697 11.4275 18.7396 11.4275Z" fill="white"/>
</svg>
