<svg width="35" height="35" viewBox="0 0 35 35" fill="none" xmlns="http://www.w3.org/2000/svg">
<g clip-path="url(#clip0_746_90570)">
<path d="M4.35 8.7C6.75244 8.7 8.7 6.75244 8.7 4.35C8.7 1.94756 6.75244 0 4.35 0C1.94756 0 0 1.94756 0 4.35C0 6.75244 1.94756 8.7 4.35 8.7Z" fill="#F53F4A"/>
<path d="M4.35 21.7391C6.75244 21.7391 8.7 19.7915 8.7 17.3891C8.7 14.9866 6.75244 13.0391 4.35 13.0391C1.94756 13.0391 0 14.9866 0 17.3891C0 19.7915 1.94756 21.7391 4.35 21.7391Z" fill="#F53F4A"/>
<path d="M17.39 8.7C19.7925 8.7 21.74 6.75244 21.74 4.35C21.74 1.94756 19.7925 0 17.39 0C14.9876 0 13.04 1.94756 13.04 4.35C13.04 6.75244 14.9876 8.7 17.39 8.7Z" fill="#F53F4A"/>
<path d="M17.39 21.7391C19.7925 21.7391 21.74 19.7915 21.74 17.3891C21.74 14.9866 19.7925 13.0391 17.39 13.0391C14.9876 13.0391 13.04 14.9866 13.04 17.3891C13.04 19.7915 14.9876 21.7391 17.39 21.7391Z" fill="#F53F4A"/>
<path d="M30.4398 8.7C32.8423 8.7 34.7898 6.75244 34.7898 4.35C34.7898 1.94756 32.8423 0 30.4398 0C28.0374 0 26.0898 1.94756 26.0898 4.35C26.0898 6.75244 28.0374 8.7 30.4398 8.7Z" fill="#FF9933"/>
<path d="M30.4398 21.7391C32.8423 21.7391 34.7898 19.7915 34.7898 17.3891C34.7898 14.9866 32.8423 13.0391 30.4398 13.0391C28.0374 13.0391 26.0898 14.9866 26.0898 17.3891C26.0898 19.7915 28.0374 21.7391 30.4398 21.7391Z" fill="#FF9933"/>
<path d="M30.4398 21.7391C32.8423 21.7391 34.7898 19.7915 34.7898 17.3891C34.7898 14.9866 32.8423 13.0391 30.4398 13.0391C28.0374 13.0391 26.0898 14.9866 26.0898 17.3891C26.0898 19.7915 28.0374 21.7391 30.4398 21.7391Z" fill="#FF9933"/>
<path d="M30.4398 34.7898C32.8423 34.7898 34.7898 32.8423 34.7898 30.4398C34.7898 28.0374 32.8423 26.0898 30.4398 26.0898C28.0374 26.0898 26.0898 28.0374 26.0898 30.4398C26.0898 32.8423 28.0374 34.7898 30.4398 34.7898Z" fill="#FF9933"/>
<path d="M17.4198 26.0898H4.4198C3.84855 26.0898 3.28289 26.2023 2.75513 26.4209C2.22736 26.6395 1.74781 26.9601 1.34387 27.364C0.939937 27.7679 0.619548 28.2474 0.40094 28.7751C0.182332 29.3029 0.0698242 29.8687 0.0698242 30.4399C0.0698242 31.0112 0.182332 31.5767 0.40094 32.1045C0.619548 32.6323 0.939937 33.1119 1.34387 33.5159C1.74781 33.9198 2.22736 34.2401 2.75513 34.4587C3.28289 34.6773 3.84855 34.7898 4.4198 34.7898H17.4198C17.9911 34.7898 18.5567 34.6773 19.0845 34.4587C19.6122 34.2401 20.0918 33.9198 20.4957 33.5159C20.8997 33.1119 21.2201 32.6323 21.4387 32.1045C21.6573 31.5767 21.7698 31.0112 21.7698 30.4399C21.7698 29.8687 21.6573 29.3029 21.4387 28.7751C21.2201 28.2474 20.8997 27.7679 20.4957 27.364C20.0918 26.9601 19.6122 26.6395 19.0845 26.4209C18.5567 26.2023 17.9911 26.0898 17.4198 26.0898Z" fill="#309565"/>
</g>
<defs>
<clipPath id="clip0_746_90570">
<rect width="34.79" height="34.79" fill="white"/>
</clipPath>
</defs>
</svg>
