<svg width="18" height="24" viewBox="0 0 18 24" fill="none" xmlns="http://www.w3.org/2000/svg">
<path d="M9.97432 0C7.41133 0 5.31068 0.963731 3.96386 2.64249L15.0903 14.1347C16.1054 12.5699 17.7035 10.8601 17.7035 7.86529C17.7035 3.15026 14.6078 0 9.97432 0ZM16.6783 19.7927C16.9899 20.114 17.4723 20.1036 17.7739 19.7927C18.0754 19.4819 18.0754 18.9741 17.7739 18.6632L1.32046 1.67876C1.00888 1.36788 0.506333 1.37824 0.214855 1.67876C-0.0766219 1.98964 -0.066571 2.51813 0.214855 2.80829L16.6783 19.7927ZM6.33588 18.7047H12.6881C12.8589 18.7047 12.9796 18.601 12.9796 18.4145V17.7202L2.37581 6.78757C2.2954 7.11917 2.2552 7.48187 2.2552 7.86529C2.2552 12.342 5.78308 13.9585 5.78308 16.4663V18.1244C5.78308 18.4767 6.0042 18.7047 6.33588 18.7047ZM6.72787 21.5026H13.2509C13.7635 21.5026 14.1756 21.0674 14.1756 20.5285C14.1756 19.9896 13.7635 19.5544 13.2509 19.5544H6.72787C6.21527 19.5544 5.79313 19.9896 5.79313 20.5285C5.79313 21.0674 6.21527 21.5026 6.72787 21.5026ZM9.98437 24C11.3714 24 12.3564 23.3472 12.4469 22.342H7.52189C7.61235 23.3472 8.58729 24 9.98437 24Z" fill="white"/>
</svg>
