<svg width="32" height="32" viewBox="0 0 32 32" fill="none" xmlns="http://www.w3.org/2000/svg">
<path d="M7.78123 27H24.2308C26.7476 27 28 25.7572 28 23.2955V8.70451C28 6.2428 26.7476 5 24.2308 5H7.78123C5.26443 5 4 6.23085 4 8.70451V23.2955C4 25.7691 5.26443 27 7.78123 27ZM7.6006 25.076C6.52885 25.076 5.93879 24.5144 5.93879 23.403V12.1342C5.93879 11.0348 6.52885 10.4612 7.6006 10.4612H24.3874C25.4591 10.4612 26.0612 11.0348 26.0612 12.1342V23.403C26.0612 24.5144 25.4591 25.076 24.3874 25.076H7.6006ZM9.69594 14.9066H22.3402C22.7617 14.9066 23.0868 14.572 23.0868 14.1537C23.0868 13.7474 22.7617 13.4367 22.3402 13.4367H9.69594C9.25038 13.4367 8.93728 13.7474 8.93728 14.1537C8.93728 14.572 9.25038 14.9066 9.69594 14.9066ZM9.69594 18.5035H22.3402C22.7617 18.5035 23.0868 18.1928 23.0868 17.7865C23.0868 17.3563 22.7617 17.0337 22.3402 17.0337H9.69594C9.25038 17.0337 8.93728 17.3563 8.93728 17.7865C8.93728 18.1928 9.25038 18.5035 9.69594 18.5035ZM9.69594 22.1005H17.728C18.1495 22.1005 18.4747 21.7898 18.4747 21.3835C18.4747 20.9652 18.1495 20.6306 17.728 20.6306H9.69594C9.25038 20.6306 8.93728 20.9652 8.93728 21.3835C8.93728 21.7898 9.25038 22.1005 9.69594 22.1005Z" fill="white"/>
</svg>
