<svg width="64" height="64" viewBox="0 0 64 64" fill="none" xmlns="http://www.w3.org/2000/svg">
<g filter="url(#filter0_dd_5058_224808)">
<rect x="12" y="8" width="40" height="40" rx="20" fill="#FF0000" shape-rendering="crispEdges"/>
<path d="M25.4285 41H38.559C41.0225 41 42.1105 39.8506 42.4856 37.402L44.3364 24.8713H44.624C46.1621 24.8713 47 23.9093 47 22.3851V20.4861C47 18.962 46.1621 18 44.624 18H19.376C17.9129 18 17 18.962 17 20.4861V22.3851C17 23.9093 17.8378 24.8713 19.376 24.8713H19.6511L21.5144 37.402C21.877 39.8631 22.9775 41 25.4285 41ZM19.8887 22.9848C19.2634 22.9848 19.0133 22.7224 19.0133 22.0978V20.7735C19.0133 20.1488 19.2634 19.8865 19.8887 19.8865H44.1238C44.7491 19.8865 44.9867 20.1488 44.9867 20.7735V22.0978C44.9867 22.7224 44.7491 22.9848 44.1238 22.9848H19.8887ZM25.466 39.1135C24.3406 39.1135 23.6903 38.6138 23.5152 37.377L21.6519 24.8713H42.3481L40.4848 37.377C40.2972 38.6138 39.6344 39.1135 38.534 39.1135H25.466ZM28.3797 36.5024C28.6298 36.5024 28.8549 36.3775 29.0425 36.2026L31.9937 33.2417L34.9575 36.2026C35.1326 36.365 35.3576 36.5024 35.6328 36.5024C36.158 36.5024 36.5957 36.0527 36.5957 35.528C36.5957 35.2406 36.4706 35.0407 36.2955 34.8533L33.3568 31.9049L36.308 28.9191C36.4956 28.7192 36.6082 28.5318 36.6082 28.2694C36.6082 27.7322 36.183 27.3074 35.6328 27.3074C35.3952 27.3074 35.1826 27.4074 34.9825 27.6073L31.9937 30.5682L29.03 27.6198C28.8299 27.4324 28.6298 27.3324 28.3797 27.3324C27.842 27.3324 27.4043 27.7447 27.4043 28.2694C27.4043 28.5443 27.5294 28.7567 27.7045 28.9316L30.6432 31.9049L27.7045 34.8658C27.5294 35.0407 27.4043 35.2531 27.4043 35.528C27.4043 36.0527 27.842 36.5024 28.3797 36.5024Z" fill="white"/>
<rect x="11" y="7" width="42" height="42" rx="21" stroke="white" stroke-width="2" shape-rendering="crispEdges"/>
</g>
<defs>
<filter id="filter0_dd_5058_224808" x="0" y="0" width="64" height="64" filterUnits="userSpaceOnUse" color-interpolation-filters="sRGB">
<feFlood flood-opacity="0" result="BackgroundImageFix"/>
<feColorMatrix in="SourceAlpha" type="matrix" values="0 0 0 0 0 0 0 0 0 0 0 0 0 0 0 0 0 0 127 0" result="hardAlpha"/>
<feMorphology radius="2" operator="dilate" in="SourceAlpha" result="effect1_dropShadow_5058_224808"/>
<feOffset dy="0.5"/>
<feGaussianBlur stdDeviation="1"/>
<feComposite in2="hardAlpha" operator="out"/>
<feColorMatrix type="matrix" values="0 0 0 0 0.129167 0 0 0 0 0.000215352 0 0 0 0 0.12442 0 0 0 0.25 0"/>
<feBlend mode="normal" in2="BackgroundImageFix" result="effect1_dropShadow_5058_224808"/>
<feColorMatrix in="SourceAlpha" type="matrix" values="0 0 0 0 0 0 0 0 0 0 0 0 0 0 0 0 0 0 127 0" result="hardAlpha"/>
<feOffset dy="4"/>
<feGaussianBlur stdDeviation="5"/>
<feComposite in2="hardAlpha" operator="out"/>
<feColorMatrix type="matrix" values="0 0 0 0 0.890196 0 0 0 0 0.25098 0 0 0 0 0.866667 0 0 0 0.2 0"/>
<feBlend mode="normal" in2="effect1_dropShadow_5058_224808" result="effect2_dropShadow_5058_224808"/>
<feBlend mode="normal" in="SourceGraphic" in2="effect2_dropShadow_5058_224808" result="shape"/>
</filter>
</defs>
</svg>
