<svg width="96" height="18" viewBox="0 0 96 18" fill="none" xmlns="http://www.w3.org/2000/svg">
<rect x="47.1074" width="1.78571" height="18" rx="0.892857" fill="#E35959"/>
<rect x="43.5361" y="5.39844" width="0.892857" height="7.2" rx="0.446429" fill="#9E9E9E"/>
<rect x="51.5713" y="5.39844" width="0.892857" height="7.2" rx="0.446429" fill="#9E9E9E"/>
<rect x="55.1426" y="5.39844" width="0.892857" height="7.2" rx="0.446429" fill="#9E9E9E"/>
<rect x="58.7148" y="5.39844" width="0.892857" height="7.2" rx="0.446429" fill="#9E9E9E"/>
<rect x="62.2861" y="5.39844" width="0.892857" height="7.2" rx="0.446429" fill="#9E9E9E"/>
<rect x="65.8574" y="2.69922" width="0.892857" height="12.6" rx="0.446429" fill="#9E9E9E"/>
<rect x="69.4287" y="5.39844" width="0.892857" height="7.2" rx="0.446429" fill="#9E9E9E"/>
<rect x="73" y="5.39844" width="0.892857" height="7.2" rx="0.446429" fill="#9E9E9E"/>
<rect x="76.5713" y="5.39844" width="0.892857" height="7.2" rx="0.446429" fill="#9E9E9E"/>
<rect x="80.1426" y="5.39844" width="0.892857" height="7.2" rx="0.446429" fill="#9E9E9E"/>
<rect x="83.7148" y="2.69922" width="0.892857" height="12.6" rx="0.446429" fill="#9E9E9E"/>
<rect x="87.2861" y="5.39844" width="0.892857" height="7.2" rx="0.446429" fill="#9E9E9E"/>
<rect x="90.8574" y="5.39844" width="0.892857" height="7.2" rx="0.446429" fill="#9E9E9E"/>
<rect x="94.4287" y="5.39844" width="0.892857" height="7.2" rx="0.446429" fill="#9E9E9E"/>
<rect x="39.9648" y="5.39844" width="0.892857" height="7.2" rx="0.446429" fill="#9E9E9E"/>
<rect x="36.3926" y="5.39844" width="0.892857" height="7.2" rx="0.446429" fill="#9E9E9E"/>
<rect x="32.8213" y="5.39844" width="0.892857" height="7.2" rx="0.446429" fill="#9E9E9E"/>
<rect x="29.25" y="2.69922" width="0.892857" height="12.6" rx="0.446429" fill="#9E9E9E"/>
<rect x="25.6787" y="5.39844" width="0.892857" height="7.2" rx="0.446429" fill="#9E9E9E"/>
<rect x="22.1074" y="5.39844" width="0.892857" height="7.2" rx="0.446429" fill="#9E9E9E"/>
<rect x="18.5361" y="5.39844" width="0.892857" height="7.2" rx="0.446429" fill="#9E9E9E"/>
<rect x="14.9648" y="5.39844" width="0.892857" height="7.2" rx="0.446429" fill="#9E9E9E"/>
<rect x="11.3926" y="2.69922" width="0.892857" height="12.6" rx="0.446429" fill="#9E9E9E"/>
<rect x="7.82129" y="5.39844" width="0.892857" height="7.2" rx="0.446429" fill="#9E9E9E"/>
<rect x="4.25" y="5.39844" width="0.892857" height="7.2" rx="0.446429" fill="#9E9E9E"/>
<rect x="0.678711" y="5.39844" width="0.892857" height="7.2" rx="0.446429" fill="#9E9E9E"/>
</svg>
