<svg width="84" height="84" viewBox="0 0 84 84" fill="none" xmlns="http://www.w3.org/2000/svg">
<g filter="url(#filter0_dd_3517_463934)">
<rect x="10" y="6" width="64" height="64" rx="16" fill="#62D3B4" shape-rendering="crispEdges"/>
<path d="M27 35.3249C27 41.5692 32.13 46.6498 38.435 46.6498C40.9284 46.6498 43.2068 45.855 45.0839 44.521L52.1341 51.5175C52.4637 51.8439 52.8936 52 53.3521 52C54.3265 52 55 51.2762 55 50.3254C55 49.8713 54.828 49.4597 54.5271 49.1617L47.52 42.1794C48.9959 40.2778 49.87 37.9078 49.87 35.3249C49.87 29.0806 44.74 24 38.435 24C32.13 24 27 29.0806 27 35.3249ZM29.4504 35.3249C29.4504 30.4146 33.477 26.4268 38.435 26.4268C43.393 26.4268 47.4197 30.4146 47.4197 35.3249C47.4197 40.2352 43.393 44.223 38.435 44.223C33.477 44.223 29.4504 40.2352 29.4504 35.3249Z" fill="white"/>
</g>
<defs>
<filter id="filter0_dd_3517_463934" x="0" y="0" width="84" height="84" filterUnits="userSpaceOnUse" color-interpolation-filters="sRGB">
<feFlood flood-opacity="0" result="BackgroundImageFix"/>
<feColorMatrix in="SourceAlpha" type="matrix" values="0 0 0 0 0 0 0 0 0 0 0 0 0 0 0 0 0 0 127 0" result="hardAlpha"/>
<feOffset dy="0.5"/>
<feGaussianBlur stdDeviation="1"/>
<feComposite in2="hardAlpha" operator="out"/>
<feColorMatrix type="matrix" values="0 0 0 0 0.0724169 0 0 0 0 0.243082 0 0 0 0 0.366667 0 0 0 0.25 0"/>
<feBlend mode="normal" in2="BackgroundImageFix" result="effect1_dropShadow_3517_463934"/>
<feColorMatrix in="SourceAlpha" type="matrix" values="0 0 0 0 0 0 0 0 0 0 0 0 0 0 0 0 0 0 127 0" result="hardAlpha"/>
<feOffset dy="4"/>
<feGaussianBlur stdDeviation="5"/>
<feComposite in2="hardAlpha" operator="out"/>
<feColorMatrix type="matrix" values="0 0 0 0 0.0226116 0 0 0 0 0.733333 0 0 0 0 0.733333 0 0 0 0.2 0"/>
<feBlend mode="normal" in2="effect1_dropShadow_3517_463934" result="effect2_dropShadow_3517_463934"/>
<feBlend mode="normal" in="SourceGraphic" in2="effect2_dropShadow_3517_463934" result="shape"/>
</filter>
</defs>
</svg>
