<svg width="16" height="16" viewBox="0 0 16 16" fill="none" xmlns="http://www.w3.org/2000/svg">
<path d="M2.72895 16H13.271C15.0961 16 16 15.0961 16 13.3058V2.69419C16 0.903857 15.0961 0 13.271 0H2.72895C0.912548 0 0 0.895166 0 2.69419V13.3058C0 15.1048 0.912548 16 2.72895 16ZM2.74633 14.6008C1.87724 14.6008 1.39924 14.1401 1.39924 13.2363V2.76372C1.39924 1.85986 1.87724 1.39924 2.74633 1.39924H13.2537C14.1141 1.39924 14.6008 1.85986 14.6008 2.76372V13.2363C14.6008 14.1401 14.1141 14.6008 13.2537 14.6008H2.74633ZM5.04074 11.6632C5.24063 11.6632 5.41445 11.585 5.54481 11.446L8.00434 8.97773L10.4813 11.446C10.6116 11.5763 10.7768 11.6632 10.9766 11.6632C11.3677 11.6632 11.6719 11.3504 11.6719 10.9593C11.6719 10.7594 11.6024 10.6029 11.4633 10.4639L8.99511 7.99565L11.472 5.51005C11.6198 5.3623 11.6806 5.21456 11.6806 5.02336C11.6806 4.64096 11.3764 4.32808 10.9853 4.32808C10.8028 4.32808 10.6551 4.39761 10.5073 4.54536L8.00434 7.02227L5.52743 4.55405C5.39707 4.41499 5.24063 4.34546 5.04074 4.34546C4.65834 4.34546 4.34546 4.64965 4.34546 5.03205C4.34546 5.22325 4.42368 5.38838 4.55405 5.51874L7.02227 7.99565L4.55405 10.4726C4.42368 10.6029 4.34546 10.7681 4.34546 10.9593C4.34546 11.3504 4.65834 11.6632 5.04074 11.6632Z" fill="#192621"/>
</svg>
