<svg width="19" height="18" viewBox="0 0 19 18" fill="none" xmlns="http://www.w3.org/2000/svg">
<path d="M12.1859 4.3999C12.5179 4.3999 12.8195 4.31966 13.0907 4.15918C13.3674 3.99316 13.5859 3.77458 13.7464 3.50342C13.9124 3.22673 13.9954 2.92236 13.9954 2.59033C13.9954 2.25277 13.9124 1.9484 13.7464 1.67725C13.5859 1.40055 13.3674 1.18197 13.0907 1.02148C12.8195 0.855469 12.5179 0.772461 12.1859 0.772461C11.8483 0.772461 11.5412 0.855469 11.2645 1.02148C10.9933 1.18197 10.7747 1.40055 10.6087 1.67725C10.4482 1.9484 10.368 2.25277 10.368 2.59033C10.368 2.92236 10.4482 3.22673 10.6087 3.50342C10.7747 3.77458 10.9933 3.99316 11.2645 4.15918C11.5412 4.31966 11.8483 4.3999 12.1859 4.3999ZM5.68637 15.2739C5.88005 15.3957 6.09587 15.4289 6.33383 15.3735C6.57732 15.3182 6.7627 15.1909 6.88998 14.9917L8.93197 11.7212L11.1483 11.8457L9.76205 14.062C9.62924 14.2668 9.58773 14.4909 9.63754 14.7344C9.69288 14.9779 9.82569 15.1577 10.036 15.2739C10.2463 15.3957 10.4649 15.4289 10.6917 15.3735C10.9242 15.3237 11.104 15.1965 11.2313 14.9917L13.3812 11.5552C13.4974 11.367 13.5444 11.1733 13.5223 10.9741C13.5002 10.7694 13.4144 10.5923 13.265 10.4429C13.1211 10.2935 12.9163 10.2049 12.6507 10.1772L9.02328 9.77051C8.8462 9.75391 8.72722 9.6709 8.66635 9.52148C8.61101 9.36654 8.62761 9.22542 8.71615 9.09814L10.2186 6.84033C10.2629 6.76839 10.3265 6.72412 10.4095 6.70752C10.4925 6.68538 10.57 6.69645 10.6419 6.74072L16.1454 10.0527C16.3446 10.1689 16.5632 10.1994 16.8011 10.144C17.0446 10.0887 17.2245 9.96143 17.3407 9.76221C17.4569 9.54639 17.4873 9.32227 17.432 9.08984C17.3766 8.85742 17.2438 8.68034 17.0335 8.55859L6.15951 2.02588C6.0267 1.95394 5.88005 1.91797 5.71957 1.91797H2.23324C1.98975 1.91797 1.78223 2.00098 1.61068 2.16699C1.43913 2.33301 1.35336 2.53499 1.35336 2.77295C1.35336 3.01091 1.43913 3.21566 1.61068 3.38721C1.78223 3.55876 1.98975 3.64453 2.23324 3.64453H5.47055L6.98959 4.55762C7.18327 4.66829 7.21924 4.82048 7.0975 5.01416L5.21322 7.83643C4.95867 8.21273 4.81479 8.6084 4.78158 9.02344C4.74838 9.43848 4.81202 9.83138 4.9725 10.2021C5.13852 10.5729 5.38754 10.8883 5.71957 11.1484C6.05714 11.403 6.46387 11.5579 6.93979 11.6133L5.40414 14.062C5.27686 14.2668 5.23812 14.4881 5.28793 14.7261C5.34327 14.964 5.47608 15.1466 5.68637 15.2739ZM2.59018 17.2246H15.8216C16.2865 17.2246 16.707 17.172 17.0833 17.0669C17.4652 16.9618 17.8027 16.7819 18.096 16.5273C18.2233 16.4222 18.287 16.3088 18.287 16.187C18.2925 16.0708 18.2621 15.9657 18.1956 15.8716C18.1237 15.7775 18.0213 15.7166 17.8885 15.689C17.7612 15.6668 17.634 15.7056 17.5067 15.8052C17.2853 15.9823 17.0474 16.1095 16.7928 16.187C16.5383 16.2645 16.2145 16.3032 15.8216 16.3032H2.59018C2.19727 16.3032 1.87354 16.2645 1.61898 16.187C1.36443 16.1095 1.12647 15.9823 0.905117 15.8052C0.783372 15.7166 0.661628 15.6779 0.539883 15.689C0.423672 15.7 0.329596 15.7443 0.257656 15.8218C0.169115 15.9103 0.122077 16.021 0.116543 16.1538C0.111009 16.2866 0.174648 16.4111 0.307461 16.5273C0.606289 16.7819 0.943854 16.9618 1.32016 17.0669C1.70199 17.172 2.12533 17.2246 2.59018 17.2246Z" fill="black"/>
</svg>
