<svg width="38" height="22" viewBox="0 0 38 22" fill="none" xmlns="http://www.w3.org/2000/svg">
<path d="M0.879421 16.878C-0.29215 18.0496 -0.292031 19.9489 0.879688 21.1204C2.05141 22.2918 3.95102 22.2917 5.12259 21.1201L0.879421 16.878ZM21.1219 5.12076C22.2935 3.94919 22.2933 2.04981 21.1216 0.878383C19.9499 -0.293044 18.0503 -0.292925 16.8787 0.878649L21.1219 5.12076ZM5.12259 21.1201L21.1219 5.12076L16.8787 0.878649L0.879421 16.878L5.12259 21.1201Z" fill="#788985"/>
<path d="M21.1215 0.878876C19.9499 -0.292662 18.0503 -0.292721 16.8786 0.878743C15.7069 2.05021 15.7069 3.94959 16.8785 5.12112L21.1215 0.878876ZM32.8792 21.1209C34.0508 22.2924 35.9504 22.2925 37.1221 21.121C38.2938 19.9495 38.2938 18.0502 37.1222 16.8786L32.8792 21.1209ZM16.8785 5.12112L32.8792 21.1209L37.1222 16.8786L21.1215 0.878876L16.8785 5.12112Z" fill="#788985"/>
</svg>
