<svg width="64" height="64" viewBox="0 0 64 64" fill="none" xmlns="http://www.w3.org/2000/svg">
<path d="M13.8794 37.878C12.7079 39.0496 12.708 40.9489 13.8797 42.1204C15.0514 43.2918 16.951 43.2917 18.1226 42.1201L13.8794 37.878ZM34.1219 26.1208C35.2935 24.9492 35.2933 23.0498 34.1216 21.8784C32.9499 20.707 31.0503 20.7071 29.8787 21.8786L34.1219 26.1208ZM18.1226 42.1201L34.1219 26.1208L29.8787 21.8786L13.8794 37.878L18.1226 42.1201Z" fill="#788985"/>
<path d="M34.1215 21.8789C32.9499 20.7073 31.0503 20.7073 29.8786 21.8787C28.7069 23.0502 28.7069 24.9496 29.8785 26.1211L34.1215 21.8789ZM45.8792 42.1209C47.0508 43.2924 48.9504 43.2925 50.1221 42.121C51.2938 40.9495 51.2938 39.0502 50.1222 37.8786L45.8792 42.1209ZM29.8785 26.1211L45.8792 42.1209L50.1222 37.8786L34.1215 21.8789L29.8785 26.1211Z" fill="#788985"/>
</svg>
