<svg width="22" height="16" viewBox="0 0 22 16" fill="none" xmlns="http://www.w3.org/2000/svg">
<path d="M14.2031 4.36719C14.5208 4.36719 14.8073 4.29167 15.0625 4.14062C15.3229 3.98438 15.5286 3.77865 15.6797 3.52344C15.8359 3.26302 15.9141 2.97396 15.9141 2.65625C15.9141 2.34375 15.8359 2.0599 15.6797 1.80469C15.5286 1.54427 15.3229 1.33854 15.0625 1.1875C14.8073 1.03125 14.5208 0.953125 14.2031 0.953125C13.8906 0.953125 13.6042 1.03125 13.3438 1.1875C13.0885 1.33854 12.8828 1.54427 12.7266 1.80469C12.5755 2.0599 12.5 2.34375 12.5 2.65625C12.5 2.97396 12.5755 3.26302 12.7266 3.52344C12.8828 3.77865 13.0885 3.98438 13.3438 4.14062C13.6042 4.29167 13.8906 4.36719 14.2031 4.36719ZM8.46094 15.5781C8.61198 15.6615 8.79688 15.6797 9.01562 15.6328C9.23438 15.5859 9.39844 15.4505 9.50781 15.2266L11.4688 11.3281C11.5417 11.1771 11.5651 11.0182 11.5391 10.8516C11.5182 10.6849 11.4453 10.5417 11.3203 10.4219L8.96094 8.05469L11.9375 6.5625C12.0885 6.48438 12.2292 6.50781 12.3594 6.63281L13.8906 8.17188V11.3672C13.8906 11.5807 13.9688 11.7656 14.125 11.9219C14.2812 12.0729 14.4661 12.1484 14.6797 12.1484C14.8932 12.1484 15.0755 12.0729 15.2266 11.9219C15.3828 11.7656 15.4609 11.5807 15.4609 11.3672V7.85156C15.4609 7.7474 15.4453 7.64844 15.4141 7.55469C15.3828 7.46094 15.3229 7.3724 15.2344 7.28906L11.7031 3.77344C11.2917 3.36719 10.7969 3.16406 10.2188 3.16406H7.21875C6.95833 3.16406 6.76042 3.24219 6.625 3.39844C6.49479 3.54948 6.43229 3.72917 6.4375 3.9375C6.44271 4.14583 6.52604 4.32812 6.6875 4.48438L7.625 5.41406L7.24219 5.57031C6.88802 5.71615 6.59896 5.92969 6.375 6.21094C6.15625 6.48698 6.01823 6.79688 5.96094 7.14062C5.90365 7.47917 5.9375 7.8125 6.0625 8.14062C6.1875 8.46875 6.41667 8.75521 6.75 9L9.77344 11.2188L8.11719 14.5312C8.01823 14.724 8.0026 14.9219 8.07031 15.125C8.14323 15.3281 8.27344 15.4792 8.46094 15.5781ZM1.77344 12.5469H5.6875C5.84375 12.5469 5.98177 12.5052 6.10156 12.4219C6.22135 12.3333 6.3125 12.2292 6.375 12.1094L7.26562 10.3203L6.30469 9.60938C6.08594 9.44792 5.90104 9.27344 5.75 9.08594L5.11719 10.9766H1.77344C1.5599 10.9766 1.375 11.0547 1.21875 11.2109C1.06771 11.362 0.992188 11.5469 0.992188 11.7656C0.992188 11.9792 1.06771 12.1641 1.21875 12.3203C1.375 12.4714 1.5599 12.5469 1.77344 12.5469ZM18.2422 15.3203H20.5938C20.7083 15.3203 20.8073 15.276 20.8906 15.1875C20.974 15.1042 21.0156 15.0052 21.0156 14.8906V14.5C21.0156 14.3802 20.974 14.276 20.8906 14.1875C20.8073 14.1042 20.7083 14.0625 20.5938 14.0625H17.9922L10.4062 6.48438L9.63281 6.92969L17.8594 15.1562C17.9271 15.2292 17.9896 15.2734 18.0469 15.2891C18.1042 15.3099 18.1693 15.3203 18.2422 15.3203Z" fill="black"/>
</svg>
