<svg width="23" height="23" viewBox="0 0 23 23" fill="none" xmlns="http://www.w3.org/2000/svg">
<path d="M21.8666 2.75087L22.7036 1.8892C23.0988 1.47001 23.0988 0.911097 22.7036 0.526841L22.4362 0.247382C22.0758 -0.113586 21.5062 -0.0670094 21.1226 0.305603L20.2739 1.14398L21.8666 2.75087ZM7.88173 15.4546L10.1486 14.4649L21.0063 3.60089L19.4137 2.02893L8.5676 12.8929L7.52135 15.082C7.42835 15.2799 7.66085 15.5478 7.88173 15.4546ZM3.65024 23H17.298C19.3904 23 20.5994 21.789 20.5994 19.3903V6.94275L18.7278 8.81746V19.2972C18.7278 20.5082 18.0768 21.1253 17.2747 21.1253H3.68512C2.52262 21.1253 1.87162 20.5082 1.87162 19.2972V6.08109C1.87162 4.8701 2.52262 4.24132 3.68512 4.24132H14.2755L16.1471 2.36661H3.65024C1.23225 2.36661 0 3.5776 0 5.97629V19.3903C0 21.8007 1.23225 23 3.65024 23Z" fill="white"/>
</svg>
