<svg width="40" height="40" viewBox="0 0 40 40" fill="none" xmlns="http://www.w3.org/2000/svg">
<path d="M24.9816 14.7786C26.4268 14.7786 27.6496 13.8344 28.1221 12.5379H32.93C33.4998 12.5379 34 12.0305 34 11.3964C34 10.7622 33.4998 10.2689 32.93 10.2689H28.1221C27.6635 8.95831 26.4268 8 24.9816 8C23.5365 8 22.2859 8.95831 21.8273 10.2689H7.11166C6.48635 10.2689 6 10.7622 6 11.3964C6 12.0305 6.48635 12.5379 7.11166 12.5379H21.8412C22.2998 13.8344 23.5365 14.7786 24.9816 14.7786ZM24.9816 13.0452C24.0645 13.0452 23.3558 12.3124 23.3558 11.3823C23.3558 10.4521 24.0645 9.73341 24.9816 9.73341C25.8988 9.73341 26.6074 10.4521 26.6074 11.3823C26.6074 12.3124 25.8988 13.0452 24.9816 13.0452ZM7.05608 18.8655C6.48635 18.8655 6 19.3729 6 20.007C6 20.6412 6.48635 21.1345 7.05608 21.1345H12.0308C12.4893 22.4592 13.7261 23.4034 15.1712 23.4034C16.6164 23.4034 17.8531 22.4592 18.3256 21.1345H32.8744C33.4998 21.1345 34 20.6412 34 20.007C34 19.3729 33.4998 18.8655 32.8744 18.8655H18.3117C17.8531 17.569 16.6164 16.6248 15.1712 16.6248C13.7261 16.6248 12.4893 17.569 12.0308 18.8655H7.05608ZM15.1712 21.6559C14.268 21.6559 13.5454 20.9231 13.5454 20.007C13.5454 19.0769 14.268 18.3582 15.1712 18.3582C16.0883 18.3582 16.797 19.0769 16.797 20.007C16.797 20.9231 16.0883 21.6559 15.1712 21.6559ZM24.9816 32C26.4268 32 27.6635 31.0558 28.1221 29.7452H32.93C33.4998 29.7452 34 29.2519 34 28.6177C34 27.9836 33.4998 27.4762 32.93 27.4762H28.1221C27.6635 26.1656 26.4268 25.2355 24.9816 25.2355C23.5365 25.2355 22.2998 26.1656 21.8412 27.4762H7.11166C6.48635 27.4762 6 27.9836 6 28.6177C6 29.2519 6.48635 29.7452 7.11166 29.7452H21.8273C22.2998 31.0558 23.5365 32 24.9816 32ZM24.9816 30.2666C24.0645 30.2666 23.3558 29.5338 23.3558 28.6177C23.3558 27.6735 24.0645 26.9689 24.9816 26.9689C25.8988 26.9689 26.6074 27.6735 26.6074 28.6177C26.6074 29.5338 25.8988 30.2666 24.9816 30.2666Z" fill="#0C695E"/>
</svg>
