<svg width="24" height="24" viewBox="0 0 24 24" fill="none" xmlns="http://www.w3.org/2000/svg">
<path d="M12 24C18.5647 24 24 18.5529 24 12C24 5.43529 18.5529 0 11.9882 0C5.43529 0 0 5.43529 0 12C0 18.5529 5.44706 24 12 24ZM11.7529 14.5176C11.1294 14.5176 10.7765 14.1882 10.7765 13.5529V13.4C10.7765 12.2 11.4353 11.5647 12.3059 10.9529C13.3647 10.2118 13.8706 9.81177 13.8706 8.98824C13.8706 8.07059 13.1529 7.44706 12.0588 7.44706C11.2471 7.44706 10.6235 7.84706 10.1882 8.55294L9.97647 8.84706C9.75294 9.12941 9.48235 9.32941 9.07059 9.32941C8.67059 9.32941 8.23529 9.03529 8.23529 8.49412C8.23529 8.28235 8.28235 8.08235 8.34118 7.89412C8.67059 6.77647 10.0353 5.8 12.1294 5.8C14.2 5.8 16 6.87059 16 8.89412C16 10.3529 15.1529 11.0588 13.9765 11.8353C13.1294 12.3882 12.7412 12.8235 12.7412 13.5059V13.6471C12.7412 14.1294 12.3647 14.5176 11.7529 14.5176ZM11.7294 18.1294C11.0235 18.1294 10.4118 17.5647 10.4118 16.8706C10.4118 16.1765 11.0118 15.6 11.7294 15.6C12.4471 15.6 13.0471 16.1647 13.0471 16.8706C13.0471 17.5765 12.4353 18.1294 11.7294 18.1294Z" fill="white"/>
</svg>
