<svg width="22" height="28" viewBox="0 0 22 28" fill="none" xmlns="http://www.w3.org/2000/svg">
<path d="M10.9938 18.2862C11.5268 18.2862 11.9854 17.8396 11.9854 17.3186V4.57776L11.911 2.71688L12.7414 3.5977L14.6254 5.60744C14.7989 5.80594 15.0468 5.90518 15.2946 5.90518C15.8028 5.90518 16.1994 5.53301 16.1994 5.02437C16.1994 4.76385 16.0879 4.56535 15.902 4.37926L11.7127 0.334958C11.4648 0.0868409 11.2541 0 10.9938 0C10.7459 0 10.5352 0.0868409 10.2749 0.334958L6.08563 4.37926C5.89972 4.56535 5.80056 4.76385 5.80056 5.02437C5.80056 5.53301 6.17239 5.90518 6.69296 5.90518C6.92845 5.90518 7.20113 5.80594 7.37465 5.60744L9.2462 3.5977L10.089 2.71688L10.0146 4.57776V17.3186C10.0146 17.8396 10.4608 18.2862 10.9938 18.2862ZM3.89183 28H18.1082C20.6986 28 22 26.7098 22 24.1542V11.7731C22 9.21755 20.6986 7.92734 18.1082 7.92734H14.6501V9.92468H18.071C19.298 9.92468 20.0045 10.5946 20.0045 11.8848V24.0425C20.0045 25.3327 19.298 26.0027 18.071 26.0027H3.91662C2.67718 26.0027 1.99549 25.3327 1.99549 24.0425V11.8848C1.99549 10.5946 2.67718 9.92468 3.91662 9.92468H7.34986V7.92734H3.89183C1.30141 7.92734 0 9.21755 0 11.7731V24.1542C0 26.7098 1.30141 28 3.89183 28Z" fill="#0C695E"/>
</svg>
