<svg width="24" height="24" viewBox="0 0 24 24" fill="none" xmlns="http://www.w3.org/2000/svg">
<path d="M6.65945 20.1514L16.2371 21.9413C17.9555 22.2619 19 21.2556 19 19.2698V8.25446C19 7.28383 18.7473 6.64268 18.2503 6.20634V4.47879C18.2503 2.60876 17.0626 1.70937 15.0662 2.08337L6.39832 3.70406C5.53911 3.81092 5 4.4966 5 5.56518V18.13C5 19.2787 5.55596 19.9466 6.65945 20.1514ZM16.4055 5.46723L10.3574 4.33631L15.5463 3.42801C16.3887 3.27663 16.8941 3.65063 16.8941 4.42536V5.57409C16.7341 5.52956 16.574 5.49394 16.4055 5.46723ZM6.98797 18.7355C6.55836 18.6643 6.3562 18.3971 6.3562 17.9252V5.80562C6.3562 5.32475 6.65945 5.08432 7.15644 5.17337L16.3381 6.8742C17.1889 7.0434 17.6438 7.4085 17.6438 8.23665V19.1184C17.6438 20.1247 17.0878 20.6323 16.1781 20.4542L6.98797 18.7355ZM8.46209 12.5644L14.9567 13.7755C15.3526 13.8467 15.5969 13.5885 15.5969 13.2145C15.5969 12.8761 15.4368 12.698 15.142 12.6357L8.68111 11.4424C8.29362 11.3712 8.02407 11.6116 8.02407 11.9767C8.02407 12.2884 8.18412 12.511 8.46209 12.5644Z" fill="white"/>
<path d="M12.6021 9.15518L12.5395 15.8918C12.5331 16.3019 12.2324 16.4979 11.8651 16.4273C11.5329 16.3634 11.3888 16.1694 11.3844 15.8622L11.458 9.16269C11.4628 8.76096 11.7508 8.53628 12.1093 8.60524C12.4154 8.66412 12.6032 8.86655 12.6021 9.15518Z" fill="white"/>
</svg>
