<svg width="31" height="30" viewBox="0 0 31 30" fill="none" xmlns="http://www.w3.org/2000/svg">
<path d="M5.61678 30H25.3832C28.8053 30 30.5 28.3053 30.5 24.9484V5.0516C30.5 1.69473 28.8053 0 25.3832 0H5.61678C2.21103 0 0.5 1.67844 0.5 5.0516V24.9484C0.5 28.3216 2.21103 30 5.61678 30ZM5.64938 27.3764C4.01983 27.3764 3.12357 26.5128 3.12357 24.818V5.18197C3.12357 3.48724 4.01983 2.62357 5.64938 2.62357H25.3506C26.9639 2.62357 27.8764 3.48724 27.8764 5.18197V24.818C27.8764 26.5128 26.9639 27.3764 25.3506 27.3764H5.64938ZM7.96334 14.9756C7.96334 15.774 8.51738 16.3118 9.34845 16.3118H14.1393V21.119C14.1393 21.9337 14.6934 22.5041 15.4919 22.5041C16.3066 22.5041 16.877 21.95 16.877 21.119V16.3118H21.6841C22.4989 16.3118 23.0693 15.774 23.0693 14.9756C23.0693 14.1608 22.4989 13.5904 21.6841 13.5904H16.877V8.79957C16.877 7.9685 16.3066 7.39815 15.4919 7.39815C14.6934 7.39815 14.1393 7.9685 14.1393 8.79957V13.5904H9.34845C8.51738 13.5904 7.96334 14.1608 7.96334 14.9756Z" fill="#0C695E"/>
</svg>
