<svg width="32" height="32" viewBox="0 0 32 32" fill="none" xmlns="http://www.w3.org/2000/svg">
<path d="M16.5 22C16.7592 22 16.9977 21.8875 17.1843 21.6738L25.2304 12.7658C25.4067 12.5634 25.5 12.316 25.5 12.0235C25.5 11.4499 25.0956 11 24.5565 11C24.2972 11 24.0588 11.1125 23.8825 11.2924L16.5 19.4806L9.11751 11.2924C8.94124 11.1125 8.71313 11 8.44355 11C7.90438 11 7.5 11.4499 7.5 12.0235C7.5 12.316 7.59332 12.5634 7.77995 12.7658L15.8157 21.6738C16.0127 21.8875 16.2408 22 16.5 22Z" fill="#7A948F"/>
</svg>
