<svg width="331" height="159" viewBox="0 0 331 159" fill="none" xmlns="http://www.w3.org/2000/svg">
<g clip-path="url(#clip0_5718_318588)">
<path d="M277.369 59.4711C275.965 57.1207 275.794 54.2173 276.914 51.7029L278.206 52.2747C277.272 54.3672 277.417 56.7835 278.588 58.7433C280.578 62.077 284.902 63.1679 288.236 61.1774C291.569 59.187 292.66 54.8631 290.67 51.5294C289.552 49.6571 287.659 48.4303 285.486 48.1565L285.662 46.7538C288.275 47.0756 290.546 48.5522 291.889 50.8016C294.277 54.802 292.967 59.9971 288.966 62.3857C284.966 64.7742 279.771 63.4635 277.382 59.4631L277.369 59.4711Z" fill="#00C94D"/>
<path d="M262.506 35.7429C259.779 31.1768 261.274 25.2503 265.841 22.524C270.407 19.7977 276.333 21.2929 279.06 25.859C281.01 29.1254 280.85 33.2495 278.645 36.3656L277.49 35.5479C279.374 32.8885 279.508 29.3643 277.843 26.5761C275.519 22.6834 270.453 21.4053 266.56 23.7295C262.668 26.0537 261.39 31.1197 263.714 35.0124C265.334 37.7265 268.297 39.2463 271.464 38.9814L271.584 40.3901C267.885 40.6982 264.406 38.911 262.508 35.7322L262.506 35.7429Z" fill="#00C94D"/>
<path d="M270.802 48.4724C268.329 44.3306 269.686 38.9526 273.828 36.4796C277.97 34.0067 283.347 35.3635 285.82 39.5053C288.293 43.6472 286.937 49.0252 282.795 51.4981C278.653 53.9711 273.275 52.6143 270.802 48.4724ZM284.608 40.2291C282.533 36.754 278.027 35.617 274.551 37.6919C271.076 39.7668 269.943 44.2802 272.014 47.7486C274.085 51.217 278.603 52.3568 282.071 50.2859C285.539 48.215 286.679 43.6975 284.608 40.2291Z" fill="#00C94D"/>
<path d="M276.676 36.7087L277.494 35.5536C279.256 33.058 279.5 29.8246 278.136 27.1124L277.873 26.5939L278.335 26.2357C278.624 26.0171 278.888 25.832 279.158 25.6712C283.306 23.1942 288.684 24.551 291.157 28.6928C293.63 32.8347 292.274 38.2127 288.132 40.6856C287.458 41.0878 286.715 41.4036 285.918 41.6144L285.322 41.7786L285.089 41.2051C284.934 40.8227 284.777 40.5143 284.612 40.2382C283.253 37.9618 280.755 36.5937 278.094 36.666L276.683 36.7047L276.676 36.7087ZM279.65 27.0309C280.793 29.7103 280.655 32.7529 279.294 35.3099C281.98 35.6157 284.406 37.1545 285.814 39.5116C285.922 39.6935 286.024 39.8793 286.116 40.08C286.569 39.9195 286.997 39.7187 287.394 39.4814C290.87 37.4065 292.003 32.8931 289.932 29.4247C287.861 25.9563 283.343 24.8166 279.875 26.8874C279.794 26.9357 279.713 26.9839 279.639 27.0282L279.65 27.0309Z" fill="#00C94D"/>
<path d="M284.507 48.0459L284.93 47.163C285.825 45.2951 285.88 43.124 285.094 41.2095L284.788 40.4689L285.568 40.2594C286.23 40.0833 286.857 39.8183 287.423 39.4805C288.487 38.8452 289.38 37.9377 290 36.8642L290.224 36.4746L290.67 36.5186C293.17 36.7433 295.426 38.1647 296.705 40.3063C298.924 44.0239 297.706 48.8533 293.988 51.0729C293.227 51.5273 292.386 51.847 291.495 52.0227L290.989 52.1238L290.692 51.5797L290.687 51.573C289.545 49.6603 287.657 48.4401 285.483 48.1664L284.507 48.0459ZM286.655 41.3917C287.223 43.1996 287.189 45.1474 286.552 46.9257C288.675 47.4213 290.504 48.6951 291.696 50.5232C292.251 50.3656 292.776 50.1435 293.261 49.8539C296.311 48.0324 297.31 44.0742 295.488 41.0234C294.511 39.3868 292.842 38.2734 290.962 37.9707C290.242 39.0763 289.264 40.0078 288.132 40.6833C287.668 40.9608 287.175 41.1911 286.651 41.385L286.655 41.3917Z" fill="#00C94D"/>
<path d="M258.284 54.9428C257.524 53.67 256.987 52.3101 256.737 50.9886C256.666 50.6104 256.35 48.6888 257.096 47.8416C257.17 47.7516 257.283 47.6657 257.572 47.4296C258.332 46.8205 259.907 45.5419 260.864 44.1302C262.691 41.4222 263.014 39.5759 263.092 36.2036L264.502 36.2389C264.419 39.8331 264.049 41.9363 262.031 44.9223C260.961 46.5114 259.266 47.8799 258.46 48.5346C258.307 48.6621 258.188 48.7519 258.135 48.8016C258.007 48.9695 257.966 49.8801 258.121 50.7373C258.591 53.2068 260.183 55.7823 262.394 57.6327C262.9 58.0522 263.618 58.1533 264.267 57.8937C269.039 55.9857 272.771 54.771 277.401 56.4652L276.912 57.7891C272.743 56.2681 269.402 57.3586 264.787 59.2091C263.65 59.66 262.387 59.4729 261.486 58.7136C260.206 57.6414 259.114 56.3477 258.282 54.9536L258.284 54.9428Z" fill="#00C94D"/>
<path d="M266.104 42.5655C265.895 42.2153 265.77 41.7146 265.853 40.9978C265.952 40.1532 266.174 39.3169 266.546 38.364L267.865 38.874C267.538 39.7181 267.342 40.4467 267.259 41.1636C267.234 41.3518 267.208 41.797 267.385 41.9104C267.733 42.1412 268.814 41.8705 269.696 41.3437C270.356 40.9496 270.704 41.1804 270.885 41.4377C270.972 41.5684 271.241 42.0654 270.561 42.6087L270.487 42.5157C270.487 42.5157 270.447 42.5399 270.42 42.556C270.171 42.7047 267.968 43.9739 266.612 43.0939C266.434 42.9805 266.249 42.8079 266.1 42.5587L266.104 42.5655ZM269.673 41.5495C269.587 41.7282 269.56 42.0187 269.748 42.272C269.962 42.555 270.303 42.5893 270.491 42.5225L270.126 42.0643L269.673 41.5495Z" fill="#00C94D"/>
<path d="M271.476 52.4945C270.917 51.5583 271.333 49.9759 271.599 48.9676L271.621 48.8815L272.988 49.2437L272.966 49.3297C272.481 51.1635 272.587 51.648 272.688 51.7707C272.968 51.8412 273.916 52.006 276.708 52.3672L276.531 53.7699C272.375 53.2363 272.191 53.1269 271.997 53.0149C271.772 52.8839 271.604 52.71 271.484 52.5079L271.476 52.4945Z" fill="#00C94D"/>
<path d="M265.723 27.0674C265.579 26.8249 265.59 26.5075 265.776 26.2684C267.653 23.8874 271.151 23.0138 273.927 24.2521C274.287 24.4116 274.445 24.8289 274.282 25.1824C274.122 25.5425 273.705 25.7004 273.351 25.5368C271.186 24.573 268.348 25.2812 266.89 27.1385C266.652 27.4447 266.209 27.4989 265.899 27.2547C265.828 27.1967 265.774 27.1374 265.73 27.0634L265.723 27.0674Z" fill="#00C94D"/>
<path d="M275.81 39.2824C275.81 39.2824 275.778 39.2286 275.762 39.2016C275.605 38.8475 275.774 38.4268 276.129 38.2702C277.894 37.5086 280.024 37.6342 281.693 38.5929C282.028 38.786 282.148 39.2168 281.948 39.5553C281.755 39.8899 281.324 40.01 280.986 39.8102C279.702 39.0689 278.056 38.9739 276.689 39.5615C276.362 39.702 275.983 39.572 275.806 39.2757L275.81 39.2824Z" fill="#00C94D"/>
<path d="M263.875 30.2912C263.754 30.0891 263.738 29.8335 263.845 29.6145L264.322 28.6537C264.496 28.303 264.915 28.1626 265.266 28.3369C265.616 28.5112 265.757 28.9299 265.583 29.2806L265.106 30.2414C264.931 30.5921 264.506 30.7365 264.162 30.5582C264.034 30.4974 263.939 30.3989 263.871 30.2845L263.875 30.2912Z" fill="#00C94D"/>
<path d="M282.122 28.1874C282.122 28.1874 282.081 28.1201 282.072 28.0891C281.929 27.7269 282.106 27.3197 282.464 27.1698C284.288 26.446 286.496 27.0373 287.713 28.5856C287.95 28.8914 287.895 29.3352 287.594 29.5794C287.288 29.8169 286.844 29.7621 286.6 29.4602C285.772 28.4105 284.224 27.9915 282.984 28.4852C282.66 28.615 282.292 28.4878 282.115 28.1914L282.122 28.1874Z" fill="#00C94D"/>
<path d="M282.855 53.2828C282.826 53.2357 282.798 53.1885 282.79 53.1293C282.678 52.7578 282.881 52.3628 283.259 52.2465C284.407 51.8898 285.394 50.9719 285.835 49.859C285.977 49.5001 286.389 49.318 286.748 49.4601C287.107 49.6021 287.289 50.0141 287.147 50.373C286.543 51.9025 285.244 53.1077 283.673 53.598C283.357 53.6956 283.019 53.559 282.859 53.2896L282.855 53.2828Z" fill="#00C94D"/>
</g>
<g clip-path="url(#clip1_5718_318588)">
<path d="M23.082 41.4153C22.8417 41.5116 22.5635 41.4711 22.3565 41.2921C22.0606 41.0389 22.0267 40.5961 22.2872 40.2973C23.6769 38.6837 24.8859 36.9145 25.8923 35.0405C26.0756 34.6966 26.5052 34.5666 26.8491 34.7499C27.193 34.9331 27.3229 35.3627 27.1397 35.7066C26.0867 37.6753 24.821 39.5349 23.3615 41.2272C23.2872 41.3161 23.1941 41.3788 23.0922 41.4196L23.082 41.4153Z" fill="#FF9C3A"/>
<path d="M27.678 33.8233C27.5324 33.8817 27.3591 33.892 27.1945 33.8397C26.8244 33.7176 26.6216 33.3172 26.7437 32.9472L27.0866 31.9055C27.2086 31.5354 27.609 31.3326 27.9791 31.4547C28.3491 31.5767 28.5519 31.9771 28.4299 32.3472L28.087 33.3889C28.0172 33.5943 27.8673 33.7474 27.678 33.8233Z" fill="#FF9C3A"/>
<path d="M20.5872 33.0863C20.4634 33.1359 20.3178 33.152 20.1692 33.1186C16.8505 32.3872 13.5579 31.4256 10.37 30.2615C8.76729 29.6787 7.62299 28.5741 7.15282 27.1485C6.65637 25.6574 6.93901 23.9384 7.93115 22.4082C8.85629 20.8795 10.2873 19.8748 11.8456 19.6725C13.3327 19.482 14.8217 20.0342 16.0506 21.2233C18.485 23.5853 20.784 26.1368 22.8793 28.8123C23.1213 29.1209 23.0707 29.5637 22.7621 29.8058C22.4535 30.0478 22.0107 29.9972 21.7687 29.6886C19.7113 27.0655 17.4545 24.5562 15.0624 22.2364C14.1367 21.3399 13.0891 20.9402 12.0259 21.0707C10.9016 21.2172 9.84619 21.9784 9.11886 23.1574C8.34929 24.3364 8.12748 25.6169 8.48521 26.6988C8.82688 27.7196 9.64318 28.4909 10.8496 28.9284C13.9792 30.0736 17.2136 31.0163 20.4667 31.7317C20.8469 31.8159 21.0905 32.1915 21.0063 32.5718C20.9584 32.8107 20.7852 32.99 20.5814 33.0717L20.5872 33.0863Z" fill="#009600"/>
<path d="M19.1653 36.4531C19.1289 36.4677 19.0852 36.4853 19.043 36.4853C15.9716 37.1083 11.1732 36.5223 9.34962 34.8196C7.86279 33.4297 7.44877 31.1957 8.38844 29.6189C8.58481 29.2867 9.02023 29.1712 9.3554 29.3749C9.69058 29.5785 9.80308 30.0067 9.59943 30.3419C9.01469 31.3284 9.33057 32.875 10.3043 33.7861C11.7357 35.122 16.1466 35.6268 18.7593 35.1032C19.1423 35.0257 19.5125 35.2745 19.59 35.6575C19.6573 35.9939 19.4711 36.3305 19.1653 36.4531Z" fill="#009600"/>
<path d="M24.9973 27.1604C24.9973 27.1604 24.939 27.1838 24.9099 27.1954C24.5327 27.2875 24.1465 27.0621 24.0545 26.6849C23.394 24.1102 21.0255 20.3527 19.2013 19.639C17.9526 19.1594 16.4221 19.5364 15.7863 20.5012C15.5696 20.8247 15.1327 20.9154 14.8091 20.6986C14.4856 20.4818 14.3949 20.0449 14.6117 19.7214C15.6286 18.1897 17.8217 17.5893 19.7144 18.3262C22.0471 19.2332 24.6504 23.3022 25.4277 26.3371C25.5154 26.6822 25.3278 27.0363 25.0075 27.1648L24.9973 27.1604Z" fill="#009600"/>
<path d="M37.3061 39.2693C37.0295 39.3802 36.7046 39.3076 36.499 39.0689C36.2526 38.7705 36.2858 38.3262 36.5914 38.0769C38.1635 36.7706 39.4446 34.1695 40.1276 32.1633C40.2496 31.7932 40.6529 31.5977 41.023 31.7198C41.3931 31.8418 41.5886 32.2451 41.4665 32.6152C40.7269 34.7963 39.2901 37.6625 37.4983 39.1584C37.4415 39.2065 37.3717 39.243 37.3061 39.2693Z" fill="#FF9C3A"/>
<path d="M42.9391 50.26C42.6697 50.368 42.355 50.2998 42.1553 50.0756C41.8943 49.7831 41.9202 49.3417 42.2025 49.0764C43.2898 48.0996 44.0943 46.839 44.5272 45.4316C44.639 45.0572 45.0365 44.8471 45.4109 44.959C45.7854 45.0708 45.9954 45.4683 45.8836 45.8427C45.378 47.4905 44.4325 48.9683 43.1545 50.1229C43.0934 50.1812 43.0191 50.2279 42.9463 50.2571L42.9391 50.26Z" fill="#FF9C3A"/>
<path d="M46.4448 44.5464C46.241 44.6282 46.0065 44.6123 45.8054 44.4901C45.4775 44.2836 45.3795 43.8496 45.5832 43.5144L45.9716 42.9023C46.1781 42.5744 46.6121 42.4765 46.9473 42.6802C47.2752 42.8867 47.3731 43.3207 47.1695 43.6559L46.7811 44.268C46.6996 44.402 46.5759 44.4939 46.4448 44.5464Z" fill="#FF9C3A"/>
<path d="M53.455 53.4327C53.1492 53.5553 52.7952 53.4521 52.6071 53.1726C52.3913 52.8451 52.4798 52.4124 52.7971 52.1922C53.2775 51.8728 53.5829 51.2856 53.5708 50.7073C53.5603 50.3228 53.8688 49.9963 54.2635 49.9901C54.6481 49.9796 54.9746 50.2882 54.9807 50.6829C55.002 51.7476 54.4697 52.7808 53.5832 53.3728C53.5424 53.3976 53.4944 53.4254 53.4507 53.4429L53.455 53.4327Z" fill="#FF9C3A"/>
<path d="M27.5477 47.0076C27.2929 47.1098 26.9841 47.0562 26.78 46.8422C26.5074 46.5628 26.5128 46.1127 26.7923 45.8401C27.7267 44.9246 28.4977 43.8126 29.0357 42.6251C29.1956 42.2652 29.6165 42.1133 29.9662 42.2689C30.3261 42.4288 30.4852 42.8467 30.3223 43.1994C29.7058 44.5705 28.8547 45.7991 27.7792 46.8472C27.7137 46.9157 27.6322 46.9653 27.5521 46.9974L27.5477 47.0076Z" fill="#FF9C3A"/>
<path d="M51.4542 47.0509C51.2139 47.1472 50.9255 47.1023 50.7156 46.916C50.4241 46.6526 50.4048 46.204 50.6711 45.9198C51.2823 45.2521 51.6982 44.3924 51.8562 43.5009C51.9229 43.1192 52.2927 42.8611 52.6743 42.9278C53.056 42.9945 53.3141 43.3642 53.2474 43.7459C53.0401 44.8939 52.505 46.0042 51.7191 46.8686C51.642 46.9502 51.5561 47.01 51.4615 47.048L51.4542 47.0509Z" fill="#FF9C3A"/>
<path d="M61.6716 57.0838L61.5696 57.1247C59.9066 57.614 53.5629 57.1151 48.1387 55.4532C38.0932 52.3822 30.0181 49.0197 21.9771 44.5618C15.2287 40.8195 18.7557 34.4194 20.8632 30.5913L20.9039 30.5243C22.644 28.0773 24.7218 25.3766 27.3136 24.3374C29.4614 23.4763 31.7004 23.8546 33.9754 25.4608C41.4884 30.7727 48.0171 36.5805 55.1445 44.3033C58.9962 48.4718 62.1963 53.9663 62.4701 55.6397L62.476 55.7387C62.5199 56.0169 62.618 56.7043 61.6716 57.0838ZM22.0713 31.3069C19.4708 36.0342 17.5706 40.5059 22.6564 43.3261C30.6128 47.7418 38.5961 51.065 48.5455 54.107C53.719 55.6919 59.6447 56.1387 61.0631 55.7981C60.7546 54.3753 57.7718 49.2331 54.1082 45.2597C47.0478 37.6199 40.592 31.8673 33.1622 26.6151C31.2763 25.2838 29.5427 24.9648 27.8391 25.6479C25.6112 26.5411 23.695 29.0334 22.0785 31.304L22.0713 31.3069Z" fill="#FF9C3A"/>
</g>
<g clip-path="url(#clip2_5718_318588)">
<path d="M293.125 80.8536C292.869 80.6869 292.745 80.3445 292.833 80.0368C292.975 79.5304 293.402 79.1621 293.966 79.0708C294.524 78.9752 295.055 79.1801 295.356 79.6096C295.577 79.9312 295.5 80.3673 295.185 80.5928C294.87 80.8183 294.434 80.7407 294.208 80.4256C294.226 80.4559 294.182 80.4651 294.167 80.474C294.065 80.8472 293.686 81.0408 293.313 80.9385C293.248 80.924 293.191 80.8964 293.132 80.8579L293.125 80.8536Z" fill="#009600"/>
<path d="M288.422 77.4983C288.284 77.4085 288.174 77.2901 288.081 77.1454C287.884 76.83 287.86 76.4495 288.006 76.1237C288.148 75.8044 288.457 75.5746 288.819 75.5204C289.186 75.4596 289.547 75.5817 289.789 75.8421C290.053 76.1263 290.041 76.5768 289.757 76.8411C289.74 76.8674 289.71 76.8852 289.684 76.8963C289.684 76.9246 289.684 76.9529 289.685 76.9812C289.676 77.3685 289.345 77.6769 288.957 77.6683C288.764 77.664 288.58 77.6009 288.422 77.4983Z" fill="#009600"/>
<path d="M299.081 73.535C299.048 73.5136 299.015 73.4923 298.986 73.4643C298.725 73.2193 298.603 72.8595 298.673 72.4932C298.742 72.0986 298.999 71.7606 299.359 71.6107C299.878 71.3872 300.522 71.5625 300.926 72.0213C301.181 72.3186 301.145 72.7629 300.848 73.0187C300.652 73.1906 300.383 73.2307 300.145 73.1508C300.115 73.2533 300.062 73.3497 299.982 73.4289C299.742 73.6841 299.359 73.7254 299.076 73.5416L299.081 73.535Z" fill="#009600"/>
<path d="M308.663 72.0933C308.578 72.0377 308.498 71.9581 308.438 71.8631C308.317 71.6621 308.312 71.425 308.394 71.2261C308.179 71.2264 307.964 71.1244 307.823 70.939C307.597 70.6239 307.662 70.1793 307.977 69.9538C308.258 69.7526 308.62 69.6701 308.969 69.7379C309.322 69.7991 309.631 70.0001 309.817 70.2895C310.007 70.5723 310.068 70.9393 309.99 71.2904C309.911 71.6416 309.697 71.9421 309.405 72.1174C309.163 72.2594 308.876 72.2409 308.659 72.0999L308.663 72.0933Z" fill="#009600"/>
<path d="M307.456 79.3198C307.239 79.1787 307.082 78.9455 307.029 78.6677C306.922 78.1119 307.225 77.5602 307.725 77.3804C308.237 77.1983 308.778 77.3444 309.349 77.8186C309.646 78.0676 309.694 78.5108 309.441 78.814C309.237 79.0557 308.907 79.1312 308.628 79.0148C308.53 79.2792 308.28 79.4626 307.982 79.4748C307.784 79.477 307.603 79.4247 307.452 79.3264L307.456 79.3198Z" fill="#009600"/>
<path d="M300.627 77.6777C300.456 77.5666 300.311 77.4159 300.194 77.2367C299.952 76.8457 299.91 76.3784 300.081 75.9848C300.253 75.5913 300.622 75.2977 301.069 75.2142C301.52 75.1241 301.968 75.2561 302.28 75.5527C302.56 75.828 302.563 76.2696 302.294 76.5534C302.182 76.6678 302.044 76.7368 301.9 76.7559C301.995 76.8831 302.041 77.0436 302.032 77.2156C302.012 77.6052 301.657 77.9074 301.267 77.8879C301.039 77.8797 300.818 77.8017 300.627 77.6777Z" fill="#009600"/>
<path d="M312.73 75.7681C312.625 75.6997 312.526 75.6073 312.451 75.4929C312.256 75.1883 312.226 74.8036 312.378 74.482C312.565 74.0796 312.94 73.8925 313.145 73.7922L313.638 73.5516L314.412 74.4478C314.668 74.7451 314.632 75.1893 314.339 75.4385C314.19 75.5664 314.004 75.623 313.819 75.6055C313.699 75.7896 313.491 75.9073 313.254 75.9122C313.074 75.9165 312.893 75.8642 312.741 75.7658L312.73 75.7681Z" fill="#009600"/>
<path d="M286.645 85.0513C286.421 84.906 286.292 84.6442 286.328 84.3588C286.408 83.8031 286.884 83.4016 287.491 83.3751C288.098 83.3485 288.611 83.7103 288.733 84.2572C288.82 84.6412 288.583 85.0204 288.203 85.1009C287.96 85.1581 287.722 85.0781 287.552 84.9212C287.402 85.0949 287.162 85.1912 286.922 85.1569C286.818 85.1451 286.723 85.1027 286.638 85.0471L286.645 85.0513Z" fill="#009600"/>
<path d="M322.393 76.0454C322.249 75.9513 322.121 75.831 322.006 75.6909C321.739 75.3393 321.638 74.8901 321.728 74.4344C321.858 73.8172 322.339 73.1937 322.95 72.843C323.203 72.6986 323.463 72.5869 323.736 72.5119C322.625 72.4072 321.463 72.7556 320.584 73.4467C320.277 73.6874 319.835 73.6337 319.59 73.3341C319.35 73.028 319.397 72.5814 319.703 72.3407C320.936 71.3649 322.532 70.9245 324.09 71.1329C324.814 71.229 325.358 71.4707 325.752 71.8578C325.961 72.0686 326.121 72.3126 326.226 72.5964C326.305 72.6195 326.379 72.6491 326.453 72.6787C327.66 73.1543 328.551 74.0709 328.915 75.1959C329.19 76.0673 329.001 76.8614 328.421 77.2793C327.825 77.706 326.956 77.5616 326.52 76.9792C326.085 76.3967 326.205 75.5207 326.786 75.0746C326.913 74.9796 327.056 74.9322 327.202 74.924C326.972 74.6156 326.655 74.3538 326.29 74.1535C326.265 74.2495 326.229 74.3478 326.186 74.4418C325.884 75.1524 325.248 75.7406 324.428 76.096C323.664 76.4224 322.911 76.4006 322.378 76.0543L322.393 76.0454ZM324.945 73.7751C324.477 73.7609 324.028 73.8618 323.654 74.0772C323.401 74.2215 323.161 74.5049 323.122 74.7229C323.11 74.7992 323.121 74.8252 323.13 74.8403C323.214 74.9416 323.549 74.9443 323.887 74.799C324.376 74.5932 324.746 74.2539 324.905 73.88C324.926 73.8471 324.93 73.8123 324.945 73.7751Z" fill="#009600"/>
<path d="M299.183 82.8177C299.183 82.8177 299.124 82.7792 299.095 82.7513C298.737 82.4247 298.561 81.8893 298.658 81.4379C298.732 81.0933 298.964 80.823 299.285 80.704C299.709 80.512 300.21 80.5476 300.644 80.8015C301.095 81.0574 301.376 81.5023 301.403 81.9785C301.43 82.3698 301.131 82.6996 300.74 82.7258C300.533 82.7413 300.341 82.663 300.204 82.5275C300.177 82.5844 300.132 82.6393 300.093 82.6985C299.859 82.9579 299.472 83.0058 299.19 82.822L299.183 82.8177Z" fill="#009600"/>
<path d="M281.827 86.6899C280.643 85.9203 279.847 84.8134 279.468 83.397C278.638 80.3128 280.168 77.4995 284.021 75.0272C287.116 73.0444 291.675 71.2558 297.967 69.5648C308.261 66.7987 314.944 66.55 318.409 68.8033C319.679 69.6285 320.521 70.7936 320.916 72.2576C321.739 75.3093 320.167 78.0295 316.253 80.322C313.277 82.0641 308.959 83.6541 302.249 85.4565C294.048 87.6655 285.898 89.3366 281.834 86.6942L281.827 86.6899ZM317.64 69.987C314.575 67.9945 308.082 68.3106 298.337 70.9377C292.191 72.5923 287.755 74.3207 284.785 76.2259C281.466 78.3527 280.175 80.5823 280.832 83.0398C281.119 84.1243 281.698 84.9313 282.599 85.5171C286.209 87.8644 294.372 86.1171 301.876 84.101C308.463 82.3305 312.673 80.7917 315.532 79.1141C318.921 77.1257 320.196 75.0638 319.543 72.6281C319.234 71.4916 318.615 70.6306 317.629 69.9893L317.64 69.987Z" fill="#009600"/>
</g>
<g clip-path="url(#clip3_5718_318588)">
<path d="M237.392 13.6145C236.624 14.0419 235.761 14.298 234.871 14.3271C234.481 14.3374 234.159 14.0323 234.141 13.6468C234.131 13.2575 234.433 12.928 234.822 12.9177C236.603 12.8595 238.31 11.523 238.777 9.79919C238.88 9.41891 239.27 9.20138 239.644 9.30766C240.024 9.41012 240.242 9.80073 240.135 10.1742C239.734 11.6457 238.704 12.8924 237.382 13.629L237.392 13.6145Z" fill="#009600"/>
<path d="M237.578 16.1583C237.297 16.3147 236.937 16.2641 236.708 16.0144C236.446 15.7206 236.468 15.2772 236.762 15.0148C237.947 13.9508 239.239 12.6924 239.827 11.1353L238.987 10.3369C238.701 10.0652 238.695 9.61956 238.96 9.3374C239.225 9.05524 239.678 9.04563 239.96 9.31047L241.43 10.7093L241.315 11.1147C240.744 13.1205 239.24 14.6763 237.707 16.0507C237.663 16.0843 237.625 16.114 237.577 16.1407L237.578 16.1583Z" fill="#009600"/>
<path d="M226.347 31.6488C223.564 33.1983 220.624 34.5757 217.607 35.7528C209.634 38.864 199.476 39.7445 198.198 37.4488C197.461 36.1262 199.462 35.0118 200.785 34.2753C201.601 33.8211 202.559 33.3325 203.66 32.7638C205.03 32.0638 206.585 31.2607 208.209 30.3562C210.299 29.1923 212.093 28.0766 213.7 26.9481C217.885 23.9985 219.83 21.8823 222.078 19.4367C223.622 17.7598 225.363 15.8564 228.075 13.4393C228.392 13.1548 228.74 12.9076 229.096 12.7091C232.276 10.9383 236.211 12.9754 237.887 15.9838C239.963 19.7117 237.791 22.7439 235.387 25.214C233.517 27.1442 230.215 29.4858 226.336 31.6458L226.347 31.6488ZM199.519 36.8387C200.619 37.636 208.48 37.7918 217.092 34.4414C220.05 33.288 222.932 31.9342 225.653 30.4191C229.367 28.3507 232.625 26.0427 234.374 24.2338C237.338 21.1734 237.981 19.0555 236.653 16.6707C235.325 14.2859 232.229 12.5802 229.783 13.9426C229.516 14.0915 229.261 14.2784 229.014 14.4965C226.356 16.8656 224.635 18.74 223.114 20.3948C220.81 22.8992 218.82 25.0664 214.507 28.1061C212.862 29.2643 211.027 30.4029 208.889 31.5936C207.245 32.5095 205.672 33.3133 204.289 34.021C203.194 34.5859 202.243 35.0707 201.455 35.5095C200.098 36.2652 199.641 36.6542 199.495 36.8433L199.519 36.8387Z" fill="#CD0000"/>
<path d="M227.418 18.6287C227.199 18.7508 226.914 18.7565 226.686 18.6051C226.361 18.3913 226.271 17.9564 226.481 17.624C227.148 16.5971 228.986 14.1732 231.48 13.8164C231.864 13.7642 232.22 14.0328 232.28 14.4129C232.332 14.7968 232.067 15.1597 231.683 15.2119C230.343 15.4015 228.84 16.5885 227.67 18.3892C227.608 18.4868 227.517 18.5646 227.421 18.618L227.418 18.6287Z" fill="#CD0000"/>
<path d="M224.369 21.3565C224.088 21.5129 223.727 21.4622 223.498 21.2126C223.24 20.9256 223.258 20.4754 223.552 20.213L224.707 19.1749C225.001 18.9125 225.444 18.9349 225.706 19.2287C225.969 19.5225 225.946 19.966 225.653 20.2283L224.491 21.2702C224.447 21.3038 224.41 21.3336 224.362 21.3603L224.369 21.3565Z" fill="#CD0000"/>
</g>
<g clip-path="url(#clip4_5718_318588)">
<path d="M256.276 129.932C253.563 130.829 250.543 129.884 248.186 128.406C248.304 128.666 248.422 128.926 248.54 129.186C249.319 126.424 251.089 123.511 253.93 122.576C256.348 121.778 259.434 122.982 261.488 124.278C261.37 124.019 261.252 123.759 261.134 123.499C260.378 126.184 258.725 128.848 256.113 130.004C255.28 130.375 256.028 131.581 256.85 131.214C259.798 129.9 261.66 126.832 262.517 123.809C262.608 123.493 262.425 123.189 262.163 123.029C259.503 121.352 256.049 120.386 252.991 121.391C249.945 122.393 247.976 125.956 247.16 128.868C247.07 129.185 247.253 129.489 247.515 129.648C250.175 131.326 253.629 132.291 256.686 131.286C257.551 131.005 257.152 129.648 256.28 129.926L256.276 129.932Z" fill="#009600"/>
<path d="M254.307 135.692C253.472 132.584 250.767 130.231 247.91 128.919C247.629 128.794 247.278 128.801 247.063 129.05C245.082 131.332 243.174 134.929 244.006 138.026C244.842 141.134 247.547 143.487 250.404 144.798C250.685 144.923 251.036 144.917 251.251 144.667C253.316 142.297 254.854 139.054 254.337 135.868C254.193 134.979 252.774 135.015 252.921 135.915C253.383 138.74 252.065 141.577 250.229 143.687C250.511 143.644 250.793 143.6 251.075 143.556C248.716 142.478 246.433 140.647 245.508 138.168C244.492 135.444 246.319 132.062 248.081 130.037C247.799 130.081 247.517 130.124 247.235 130.168C249.761 131.319 252.203 133.333 252.947 136.098C253.182 136.983 254.543 136.577 254.307 135.692Z" fill="#009600"/>
<path d="M221.179 112.882C221.288 112.682 221.489 112.541 221.724 112.517L222.151 112.471C222.538 112.431 222.887 112.708 222.927 113.096C222.968 113.483 222.69 113.832 222.303 113.873L221.877 113.919C221.489 113.959 221.14 113.681 221.1 113.294C221.083 113.143 221.112 113.007 221.179 112.882Z" fill="#CD0000"/>
<path d="M219.536 115.926C219.603 115.802 219.701 115.703 219.836 115.634C220.182 115.455 220.606 115.595 220.785 115.941L220.98 116.323C221.158 116.669 221.018 117.093 220.672 117.271C220.326 117.45 219.903 117.31 219.724 116.964L219.529 116.582C219.42 116.372 219.431 116.12 219.536 115.926Z" fill="#CD0000"/>
<path d="M217.501 113.106L217.568 112.982L217.621 112.885C219.414 109.566 224.312 107.38 230.728 107.039C237.271 106.695 245.765 108.431 248.942 113.062C251.831 117.271 251.57 123.282 248.213 129.545C244.804 135.79 239.927 139.306 234.824 139.198C229.202 139.076 223.093 132.923 219.801 127.266C216.569 121.714 215.712 116.419 217.505 113.099L217.501 113.106ZM218.811 113.653L218.747 113.77C217.193 116.648 218.041 121.43 221.024 126.554C224.229 132.057 230.007 137.683 234.854 137.788C239.41 137.886 243.83 134.639 246.978 128.878C250.067 123.094 250.367 117.621 247.78 113.861C245.035 109.864 237.166 108.11 230.807 108.445C224.886 108.76 220.421 110.671 218.867 113.549L218.814 113.646L218.811 113.653Z" fill="#CD0000"/>
<path d="M243.771 124.862C243.938 124.552 244.312 124.406 244.648 124.543C245.199 124.76 245.715 125.092 246.144 125.502C246.427 125.771 246.434 126.221 246.158 126.5C245.889 126.782 245.44 126.789 245.161 126.514C244.868 126.231 244.51 126.002 244.129 125.849C243.768 125.708 243.588 125.299 243.73 124.938C243.745 124.911 243.756 124.89 243.771 124.862Z" fill="#CD0000"/>
<path d="M241.854 128.408C241.854 128.408 241.881 128.36 241.895 128.332C242.12 128.016 242.561 127.943 242.876 128.167C243.213 128.402 243.594 128.572 243.998 128.666C244.377 128.755 244.615 129.124 244.533 129.507C244.45 129.891 244.071 130.131 243.691 130.042C243.109 129.915 242.548 129.665 242.068 129.317C241.773 129.104 241.687 128.719 241.854 128.408Z" fill="#CD0000"/>
<path d="M245.422 120.832C245.422 120.832 245.437 120.804 245.444 120.79C245.651 120.457 246.086 120.362 246.42 120.569C246.905 120.875 247.32 121.296 247.606 121.789C247.799 122.125 247.69 122.557 247.351 122.757C247.011 122.956 246.583 122.841 246.383 122.501C246.207 122.201 245.958 121.951 245.666 121.766C245.346 121.567 245.246 121.156 245.422 120.832Z" fill="#CD0000"/>
<path d="M239.39 131.999C239.565 131.675 239.969 131.537 240.305 131.691C240.62 131.834 240.972 131.909 241.313 131.888C241.7 131.865 242.034 132.17 242.057 132.557C242.08 132.944 241.774 133.278 241.387 133.301C240.818 133.332 240.239 133.216 239.717 132.978C239.36 132.812 239.212 132.394 239.367 132.04C239.375 132.027 239.382 132.013 239.39 131.999Z" fill="#CD0000"/>
<path d="M246.152 117.27C246.204 117.174 246.281 117.082 246.378 117.018C246.701 116.8 247.144 116.888 247.358 117.217L247.726 117.773C247.944 118.096 247.86 118.532 247.534 118.757C247.211 118.975 246.768 118.887 246.557 118.568L246.182 118.008C246.034 117.786 246.025 117.505 246.149 117.277L246.152 117.27Z" fill="#CD0000"/>
<path d="M236.809 134.564C236.929 134.344 237.165 134.186 237.439 134.191L238.113 134.199C238.502 134.204 238.811 134.523 238.806 134.912C238.801 135.301 238.482 135.611 238.089 135.612L237.422 135.609C237.033 135.603 236.724 135.285 236.718 134.899C236.718 134.783 236.754 134.668 236.806 134.571L236.809 134.564Z" fill="#CD0000"/>
<path d="M242.353 116.563C242.52 116.253 242.9 116.11 243.23 116.244C243.833 116.48 244.35 116.876 244.741 117.39C244.977 117.696 244.914 118.143 244.608 118.379C244.302 118.615 243.855 118.552 243.619 118.246C243.39 117.944 243.068 117.698 242.714 117.561C242.354 117.42 242.174 117.01 242.315 116.65C242.33 116.622 242.341 116.601 242.356 116.574L242.353 116.563Z" fill="#CD0000"/>
<path d="M234.136 131.772C234.136 131.772 234.162 131.724 234.177 131.696C234.401 131.38 234.842 131.307 235.158 131.531C235.467 131.751 235.848 131.886 236.227 131.912C236.615 131.935 236.91 132.281 236.88 132.666C236.85 133.051 236.511 133.349 236.126 133.32C235.482 133.275 234.867 133.059 234.339 132.684C234.043 132.471 233.957 132.086 234.125 131.775L234.136 131.772Z" fill="#CD0000"/>
<path d="M240.908 120.082C240.908 120.082 240.919 120.061 240.923 120.054C241.123 119.717 241.554 119.611 241.892 119.811C242.484 120.167 243.036 120.599 243.525 121.095C243.801 121.377 243.794 121.819 243.511 122.095C243.229 122.37 242.787 122.363 242.518 122.084C242.117 121.671 241.658 121.316 241.169 121.017C240.846 120.824 240.732 120.406 240.911 120.075L240.908 120.082Z" fill="#CD0000"/>
<path d="M236.285 128.638C236.464 128.307 236.875 128.173 237.214 128.338C237.729 128.589 238.281 128.772 238.846 128.881C239.226 128.952 239.478 129.329 239.399 129.706C239.327 130.086 238.951 130.337 238.571 130.265C237.887 130.128 237.231 129.907 236.602 129.603C236.249 129.43 236.101 129.011 236.273 128.659C236.277 128.652 236.285 128.638 236.288 128.631L236.285 128.638Z" fill="#CD0000"/>
<path d="M239.366 123.199C239.553 122.854 239.978 122.727 240.323 122.913L241.641 123.625C241.986 123.812 242.113 124.237 241.927 124.582C241.74 124.927 241.315 125.054 240.97 124.868L239.652 124.156C239.307 123.969 239.18 123.544 239.366 123.199Z" fill="#CD0000"/>
<path d="M238.05 125.633C238.237 125.287 238.662 125.161 239.007 125.347L240.325 126.059C240.67 126.245 240.797 126.671 240.611 127.016C240.424 127.361 239.999 127.488 239.654 127.301L238.336 126.589C237.991 126.403 237.864 125.978 238.05 125.633Z" fill="#CD0000"/>
<path d="M241.595 112.883C241.752 112.593 242.101 112.442 242.427 112.547C243.073 112.754 243.632 113.172 244.014 113.735C244.232 114.057 244.145 114.5 243.822 114.718C243.499 114.936 243.056 114.849 242.842 114.519C242.644 114.225 242.346 114.001 242.012 113.892C241.641 113.772 241.436 113.376 241.553 113.011C241.568 112.966 241.58 112.928 241.602 112.886L241.595 112.883Z" fill="#CD0000"/>
<path d="M230.642 133.159C230.664 133.118 230.683 133.083 230.719 133.049C230.964 132.745 231.414 132.703 231.708 132.951C231.982 133.17 232.339 133.301 232.687 133.301C233.076 133.306 233.389 133.618 233.391 134.011C233.386 134.401 233.074 134.714 232.681 134.715C232.007 134.708 231.341 134.473 230.817 134.039C230.55 133.823 230.485 133.449 230.642 133.159Z" fill="#CD0000"/>
<path d="M238.888 116.919C239.052 116.616 239.418 116.466 239.751 116.592C240.257 116.777 240.714 117.086 241.078 117.469C241.342 117.755 241.325 118.2 241.046 118.469C240.76 118.733 240.312 118.723 240.047 118.437C239.833 118.206 239.558 118.022 239.26 117.914C238.895 117.779 238.705 117.373 238.839 117.009C238.854 116.981 238.873 116.947 238.888 116.919Z" fill="#CD0000"/>
<path d="M232.535 128.679C232.535 128.679 232.565 128.624 232.583 128.589C232.814 128.277 233.259 128.214 233.571 128.445C233.824 128.636 234.129 128.765 234.44 128.817C234.824 128.881 235.079 129.251 235.014 129.635C234.949 130.019 234.58 130.274 234.196 130.209C233.665 130.119 233.16 129.899 232.735 129.58C232.446 129.371 232.371 128.983 232.535 128.679Z" fill="#CD0000"/>
<path d="M236.888 119.895C237.074 119.55 237.499 119.423 237.844 119.61L238.755 120.102C239.1 120.288 239.227 120.714 239.041 121.059C238.855 121.404 238.429 121.531 238.084 121.344L237.173 120.852C236.828 120.666 236.701 120.24 236.888 119.895Z" fill="#CD0000"/>
<path d="M233.927 125.376C234.114 125.031 234.539 124.904 234.884 125.09L235.795 125.582C236.14 125.769 236.267 126.194 236.08 126.539C235.894 126.884 235.469 127.011 235.124 126.825L234.213 126.333C233.868 126.146 233.741 125.721 233.927 125.376Z" fill="#CD0000"/>
<path d="M235.063 122.549C235.249 122.204 235.675 122.077 236.02 122.264L237.441 123.032C237.786 123.218 237.913 123.643 237.727 123.988C237.541 124.333 237.115 124.46 236.77 124.274L235.349 123.506C235.004 123.319 234.877 122.894 235.063 122.549Z" fill="#CD0000"/>
<path d="M237.663 113.577C237.812 113.301 238.137 113.146 238.457 113.23C238.983 113.363 239.457 113.672 239.802 114.09C240.048 114.393 240.003 114.841 239.704 115.081C239.401 115.327 238.96 115.285 238.714 114.982C238.565 114.795 238.352 114.662 238.119 114.599C237.743 114.503 237.513 114.12 237.609 113.744C237.621 113.688 237.644 113.629 237.67 113.581L237.663 113.577Z" fill="#CD0000"/>
<path d="M229.07 129.485C229.096 129.437 229.126 129.382 229.173 129.344C229.435 129.058 229.885 129.034 230.168 129.302C230.342 129.459 230.577 129.568 230.815 129.589C231.203 129.63 231.487 129.979 231.44 130.364C231.399 130.752 231.053 131.029 230.665 130.989C230.127 130.929 229.611 130.695 229.215 130.339C228.97 130.117 228.921 129.761 229.07 129.485Z" fill="#CD0000"/>
<path d="M235.244 116.388C235.431 116.043 235.856 115.916 236.201 116.102L236.808 116.43C237.153 116.616 237.28 117.042 237.094 117.387C236.907 117.732 236.482 117.859 236.137 117.672L235.53 117.344C235.185 117.158 235.058 116.733 235.244 116.388Z" fill="#CD0000"/>
<path d="M230.092 125.927C230.278 125.582 230.703 125.455 231.048 125.641L231.656 125.969C232.001 126.156 232.128 126.581 231.941 126.926C231.755 127.271 231.33 127.398 230.985 127.211L230.377 126.883C230.032 126.697 229.905 126.272 230.092 125.927Z" fill="#CD0000"/>
<path d="M233.173 119.727C233.359 119.382 233.784 119.255 234.129 119.442L234.737 119.77C235.082 119.956 235.209 120.382 235.022 120.727C234.836 121.072 234.411 121.199 234.066 121.012L233.458 120.684C233.113 120.498 232.986 120.073 233.173 119.727Z" fill="#CD0000"/>
<path d="M231.749 122.364C231.935 122.019 232.36 121.892 232.705 122.079L233.312 122.407C233.658 122.593 233.784 123.018 233.598 123.363C233.412 123.708 232.986 123.835 232.641 123.649L232.034 123.321C231.689 123.134 231.562 122.709 231.749 122.364Z" fill="#CD0000"/>
<path d="M235.573 110.433C235.73 110.143 236.078 109.993 236.405 110.098L237.312 110.383C237.684 110.503 237.889 110.9 237.768 111.271C237.648 111.643 237.252 111.848 236.88 111.727L235.973 111.443C235.601 111.322 235.396 110.926 235.517 110.554C235.532 110.509 235.544 110.471 235.566 110.429L235.573 110.433Z" fill="#CD0000"/>
<path d="M225.294 129.457C225.317 129.416 225.335 129.381 225.371 129.347C225.616 129.043 226.06 128.997 226.364 129.242L227.104 129.837C227.408 130.082 227.454 130.526 227.209 130.83C226.964 131.135 226.521 131.181 226.216 130.936L225.477 130.34C225.21 130.125 225.145 129.751 225.301 129.461L225.294 129.457Z" fill="#CD0000"/>
<path d="M233.502 113.54C233.677 113.215 234.071 113.08 234.41 113.228L235.366 113.655C235.726 113.814 235.884 114.229 235.719 114.585C235.56 114.945 235.137 115.101 234.788 114.939L233.833 114.512C233.473 114.353 233.314 113.937 233.48 113.581C233.487 113.567 233.498 113.547 233.506 113.533L233.502 113.54Z" fill="#CD0000"/>
<path d="M226.758 126.021C226.758 126.021 226.773 125.994 226.784 125.973C226.998 125.643 227.433 125.548 227.756 125.758L228.637 126.323C228.967 126.537 229.062 126.972 228.852 127.295C228.638 127.625 228.203 127.72 227.88 127.51L226.999 126.945C226.686 126.749 226.587 126.339 226.762 126.014L226.758 126.021Z" fill="#CD0000"/>
<path d="M231.828 116.639C232.015 116.294 232.44 116.167 232.785 116.353L233.599 116.793C233.944 116.98 234.071 117.405 233.885 117.75C233.698 118.095 233.273 118.222 232.928 118.036L232.114 117.596C231.769 117.409 231.642 116.984 231.828 116.639Z" fill="#CD0000"/>
<path d="M228.428 122.932C228.615 122.587 229.04 122.46 229.385 122.646L230.199 123.086C230.544 123.273 230.671 123.698 230.485 124.043C230.298 124.388 229.873 124.515 229.528 124.329L228.714 123.889C228.369 123.702 228.242 123.277 228.428 122.932Z" fill="#CD0000"/>
<path d="M229.745 113.942C229.931 113.597 230.356 113.47 230.701 113.657L231.612 114.149C231.957 114.335 232.084 114.76 231.898 115.105C231.711 115.451 231.286 115.577 230.941 115.391L230.03 114.899C229.685 114.713 229.558 114.287 229.745 113.942Z" fill="#CD0000"/>
<path d="M225.032 122.665C225.219 122.32 225.644 122.193 225.989 122.379L226.9 122.872C227.245 123.058 227.372 123.483 227.185 123.828C226.999 124.173 226.574 124.3 226.229 124.114L225.318 123.622C224.973 123.435 224.846 123.01 225.032 122.665Z" fill="#CD0000"/>
<path d="M228.357 110.867C228.495 110.612 228.784 110.456 229.095 110.508L229.601 110.594C229.985 110.659 230.244 111.022 230.179 111.406C230.114 111.79 229.752 112.048 229.368 111.984L228.862 111.897C228.478 111.833 228.219 111.47 228.284 111.086C228.3 111.006 228.324 110.929 228.357 110.867Z" fill="#CD0000"/>
<path d="M221.699 123.191C221.737 123.122 221.788 123.06 221.842 123.01C222.128 122.745 222.573 122.762 222.837 123.048L223.187 123.424C223.452 123.71 223.434 124.155 223.148 124.42C222.863 124.684 222.418 124.667 222.153 124.381L221.803 124.005C221.596 123.777 221.561 123.446 221.699 123.191Z" fill="#CD0000"/>
<path d="M245.347 113.645C245.347 113.645 245.359 113.624 245.362 113.617C245.563 113.28 246.001 113.178 246.332 113.374C246.755 113.63 247.105 113.988 247.351 114.424C247.544 114.76 247.425 115.195 247.089 115.388C246.753 115.581 246.318 115.462 246.125 115.126C246.002 114.908 245.819 114.72 245.602 114.593C245.278 114.401 245.165 113.983 245.344 113.652L245.347 113.645Z" fill="#CD0000"/>
<path d="M233.336 135.881C233.515 135.55 233.926 135.415 234.265 135.58C234.493 135.686 234.747 135.743 234.997 135.726C235.384 135.704 235.726 135.995 235.745 136.389C235.768 136.776 235.469 137.114 235.082 137.136C234.593 137.167 234.091 137.074 233.645 136.859C233.293 136.687 233.144 136.268 233.317 135.915C233.321 135.908 233.328 135.895 233.332 135.888L233.336 135.881Z" fill="#CD0000"/>
<path d="M232.015 110.301C232.168 110.018 232.51 109.864 232.833 109.958L233.758 110.226C234.137 110.333 234.346 110.722 234.239 111.102C234.126 111.477 233.743 111.689 233.364 111.583L232.432 111.311C232.057 111.197 231.844 110.815 231.951 110.436C231.967 110.391 231.986 110.339 232.008 110.297L232.015 110.301Z" fill="#CD0000"/>
<path d="M223.231 126.561C223.254 126.52 223.28 126.471 223.316 126.437C223.568 126.136 224.011 126.108 224.312 126.36L225.043 126.987C225.344 127.239 225.372 127.682 225.12 127.983C224.868 128.283 224.425 128.312 224.124 128.06L223.393 127.433C223.137 127.214 223.075 126.851 223.231 126.561Z" fill="#CD0000"/>
<path d="M228.13 116.933C228.317 116.587 228.742 116.461 229.087 116.647L229.77 117.016C230.115 117.202 230.242 117.628 230.056 117.973C229.869 118.318 229.444 118.445 229.099 118.258L228.416 117.889C228.071 117.703 227.944 117.278 228.13 116.933Z" fill="#CD0000"/>
<path d="M226.65 119.671C226.837 119.326 227.262 119.199 227.607 119.385L228.29 119.754C228.635 119.941 228.762 120.366 228.576 120.711C228.389 121.056 227.964 121.183 227.619 120.997L226.936 120.627C226.591 120.441 226.464 120.016 226.65 119.671Z" fill="#CD0000"/>
<path d="M239.526 110.393C239.664 110.138 239.953 109.982 240.264 110.034C240.927 110.143 241.564 110.416 242.099 110.829C242.407 111.067 242.47 111.511 242.232 111.819C241.994 112.128 241.55 112.191 241.242 111.953C240.889 111.682 240.477 111.504 240.033 111.434C239.649 111.369 239.391 111.006 239.455 110.622C239.472 110.542 239.495 110.466 239.529 110.404L239.526 110.393Z" fill="#CD0000"/>
<path d="M227.425 132.794C227.462 132.725 227.513 132.664 227.567 132.613C227.853 132.348 228.298 132.366 228.563 132.651C228.861 132.973 229.243 133.224 229.659 133.377C230.027 133.505 230.218 133.911 230.091 134.279C229.963 134.647 229.557 134.838 229.189 134.71C228.55 134.49 227.98 134.11 227.518 133.611C227.311 133.384 227.276 133.053 227.414 132.797L227.425 132.794Z" fill="#CD0000"/>
<path d="M226.271 114.367C226.438 114.057 226.818 113.914 227.148 114.048L228.035 114.402C228.395 114.543 228.575 114.953 228.43 115.32C228.292 115.691 227.88 115.861 227.512 115.716L226.625 115.361C226.265 115.22 226.085 114.811 226.23 114.443C226.244 114.416 226.256 114.395 226.271 114.367Z" fill="#CD0000"/>
<path d="M223.482 119.527C223.482 119.527 223.508 119.479 223.523 119.452C223.747 119.136 224.192 119.055 224.507 119.279L225.29 119.827C225.606 120.051 225.697 120.493 225.463 120.812C225.239 121.127 224.801 121.212 224.478 120.984L223.695 120.436C223.396 120.23 223.314 119.838 223.482 119.527Z" fill="#CD0000"/>
<path d="M224.249 111.377C224.398 111.101 224.712 110.949 225.036 111.026C225.279 111.087 225.539 111.102 225.795 111.089C226.182 111.066 226.524 111.358 226.547 111.744C226.569 112.131 226.278 112.473 225.891 112.496C225.494 112.522 225.102 112.488 224.722 112.399C224.342 112.31 224.108 111.934 224.198 111.554C224.214 111.492 224.237 111.433 224.266 111.377L224.249 111.377Z" fill="#CD0000"/>
<path d="M219.872 119.479C219.902 119.423 219.939 119.372 219.983 119.324C220.251 119.041 220.694 119.031 220.977 119.299C221.259 119.568 221.509 119.881 221.698 120.224C221.888 120.567 221.772 120.995 221.429 121.184C221.093 121.377 220.658 121.258 220.469 120.915C220.339 120.694 220.188 120.496 220 120.314C219.765 120.089 219.713 119.74 219.862 119.464L219.872 119.479Z" fill="#CD0000"/>
<path d="M229.784 119.694C229.97 119.349 230.395 119.222 230.74 119.409L231.879 120.024C232.224 120.21 232.351 120.635 232.164 120.98C231.978 121.326 231.553 121.452 231.208 121.266L230.069 120.651C229.724 120.465 229.597 120.039 229.784 119.694Z" fill="#CD0000"/>
<path d="M224.958 116.794C225.145 116.449 225.57 116.322 225.915 116.508L226.833 117.004C227.178 117.191 227.305 117.616 227.119 117.961C226.932 118.306 226.507 118.433 226.162 118.247L225.244 117.751C224.899 117.564 224.772 117.139 224.958 116.794Z" fill="#CD0000"/>
<path d="M223.204 114.544C223.268 114.427 223.369 114.321 223.501 114.259C223.851 114.073 224.263 114.02 224.647 114.102C225.03 114.184 225.275 114.557 225.192 114.941C225.11 115.324 224.737 115.568 224.354 115.486C224.291 115.47 224.214 115.482 224.153 115.511C223.807 115.69 223.379 115.557 223.201 115.211C223.085 114.997 223.103 114.748 223.211 114.548L223.204 114.544Z" fill="#CD0000"/>
<path d="M222.029 116.773C222.133 116.58 222.323 116.442 222.556 116.407C222.94 116.356 223.293 116.627 223.351 117.015C223.359 117.082 223.363 117.092 223.484 117.247C223.524 117.304 223.565 117.362 223.619 117.427C223.84 117.743 223.76 118.189 223.444 118.411C223.128 118.633 222.681 118.552 222.46 118.236L222.355 118.099C222.203 117.901 222.011 117.646 221.955 117.206C221.932 117.05 221.968 116.901 222.035 116.776L222.029 116.773Z" fill="#CD0000"/>
</g>
<g clip-path="url(#clip5_5718_318588)">
<path d="M211.037 87.7974L208.836 84.3573C208.386 83.6574 207.83 82.7824 207.791 81.741C207.725 79.7841 209.458 78.4721 210.51 77.8669C210.829 77.6785 211.142 77.523 211.444 77.3656C212.262 76.9461 212.909 76.6104 213.444 75.9016C213.676 75.5918 214.125 75.5321 214.435 75.7641C214.749 76.0024 214.81 76.4402 214.572 76.7545C213.842 77.7175 212.992 78.1597 212.088 78.621C211.805 78.7647 211.516 78.913 211.217 79.0878C210.594 79.4445 209.16 80.4186 209.199 81.6906C209.224 82.3471 209.647 83.0087 210.016 83.5936L212.176 86.9762L214.627 90.0646C215.06 90.6039 215.552 91.2264 216.159 91.4577C217.342 91.915 218.738 90.8725 219.278 90.4008C219.547 90.1704 219.782 89.9454 220.01 89.725C220.708 89.0547 221.365 88.4226 222.502 88.0455C222.877 87.9228 223.271 88.1238 223.394 88.4987C223.512 88.8673 223.315 89.2673 222.94 89.39C222.107 89.6663 221.616 90.1408 220.987 90.7437C220.739 90.9778 220.49 91.2228 220.195 91.4714C219.282 92.2573 217.474 93.478 215.646 92.7775C214.674 92.4007 214.028 91.5894 213.514 90.935L211.022 87.7892L211.037 87.7974Z" fill="#939598"/>
<path d="M217.958 82.8154C216.01 80.0814 214.075 77.3665 213.288 76.2614C211.399 73.6104 211.116 70.4023 212.453 66.9935C213.525 64.2547 216.33 62.1889 219.604 61.7147C222.486 61.2985 224.489 61.6628 227.263 63.0956C230.519 64.7725 233.37 67.2869 235.457 70.3648C235.53 70.467 235.626 70.6012 235.717 70.7289C237.783 73.6291 239.142 76.9952 239.639 80.4644C240.088 83.5542 239.768 85.5644 238.444 88.1544C236.934 91.0897 234.059 93.0706 231.12 93.1904C227.462 93.3413 224.528 92.0223 222.633 89.3758C221.845 88.2707 219.911 85.5558 217.963 82.8218L217.958 82.8154ZM234.03 70.7945C232.095 68.0797 229.534 65.8501 226.614 64.3478C224.103 63.0547 222.389 62.7446 219.802 63.1146C217.024 63.5145 214.66 65.238 213.762 67.5056C212.955 69.5636 212.416 72.6058 214.437 75.4421C216.017 77.6587 222.199 86.3335 223.778 88.5501C225.799 91.3863 228.857 91.8657 231.059 91.7797C233.494 91.6822 235.901 90.0053 237.181 87.5037C238.376 85.179 238.642 83.4577 238.24 80.6625C237.751 77.2736 236.37 73.9712 234.301 71.1887C234.196 71.0418 234.11 70.9204 234.023 70.7991L234.03 70.7945Z" fill="#939598"/>
<path d="M233.993 87.0985C233.784 86.8047 233.824 86.4008 234.106 86.1613C235.591 84.8527 236.125 82.5746 235.38 80.7455C235.238 80.3843 235.408 79.9742 235.765 79.8259C236.122 79.6777 236.536 79.8542 236.685 80.2108C237.649 82.5772 236.957 85.5262 235.037 87.2119C234.741 87.4714 234.296 87.4417 234.041 87.1515C234.027 87.1323 234.014 87.1132 234 87.094L233.993 87.0985Z" fill="#939598"/>
<path d="M231.891 89.544C231.768 89.3715 231.722 89.1444 231.793 88.9202C231.839 88.7817 231.92 88.6659 232.024 88.5822C232.042 88.4445 232.097 88.3187 232.182 88.2094C232.434 87.9143 232.879 87.8765 233.175 88.1285C233.519 88.4225 233.599 88.914 233.367 89.3305C233.134 89.7469 232.674 89.9397 232.252 89.807C232.102 89.7594 231.977 89.6654 231.891 89.544Z" fill="#939598"/>
</g>
<g clip-path="url(#clip6_5718_318588)">
<path d="M86.3977 42.6827C86.2252 42.8186 85.9896 42.8744 85.7525 42.8016C83.2457 42.0401 81.0892 40.1641 79.9801 37.7926C79.815 37.4434 79.9665 37.0146 80.3205 36.8556C80.6696 36.6904 81.0923 36.8467 81.2575 37.1959C82.1965 39.2121 84.0293 40.8039 86.1645 41.4486C86.5361 41.5653 86.7462 41.9589 86.6356 42.3256C86.5904 42.471 86.5038 42.5892 86.399 42.6717L86.3977 42.6827Z" fill="#939598"/>
<path d="M80.0707 35.5248C80.0091 35.5733 79.9378 35.6095 79.8677 35.6347C79.5005 35.7642 79.0989 35.5713 78.9694 35.204L78.5905 34.1145C78.461 33.7473 78.654 33.3457 79.0212 33.2162C79.3885 33.0867 79.7901 33.2796 79.9196 33.6469L80.2984 34.7364C80.3979 35.0275 80.2987 35.3452 80.0707 35.5248Z" fill="#939598"/>
<path d="M92.5584 43.8128L92.5399 43.8273C89.5814 45.9279 86.439 46.4258 83.6621 45.2581C79.1195 43.3444 76.5328 38.6022 75.6331 34.7977C75.2806 33.298 75.1282 31.7607 74.9802 30.2797C74.7902 28.3525 74.6154 26.5332 74.0225 24.7536C73.9686 24.5964 73.9244 24.4515 73.8802 24.3066C73.7055 23.7552 73.5848 23.3611 73.2256 22.9051C72.6917 22.2272 72.069 21.6394 71.4123 21.0084C70.9708 20.5873 70.5196 20.1539 70.0882 19.6949C70.0445 19.6394 69.9678 19.58 69.8875 19.5035C69.4156 19.0564 69.0411 18.6824 68.9723 18.2274C68.8777 17.6129 69.3401 17.059 69.6454 16.6987L69.7035 16.633C69.8606 16.4394 70.1457 16.1549 70.338 15.9935C70.412 15.9352 70.4613 15.8964 70.5093 15.8686C70.5524 15.8346 70.5955 15.8007 70.6338 15.7605C70.8728 15.5823 71.2162 15.3717 71.4412 15.2644L71.5249 15.2185C71.9467 15.0061 72.5935 14.6864 73.1687 14.9223C73.59 15.0896 73.8659 15.5413 74.1948 16.111C74.2504 16.207 74.2963 16.2906 74.3339 16.3509C74.6852 16.873 74.9995 17.4242 75.3005 17.9459C75.7552 18.7261 76.1857 19.4754 76.7195 20.1532C77.0738 20.6031 77.4336 20.8189 77.9287 21.1179C78.0592 21.1949 78.1896 21.2718 78.3298 21.3611C79.9161 22.3483 81.6487 22.9507 83.4777 23.5869C84.8889 24.073 86.3429 24.5753 87.717 25.2803C91.1985 27.0512 95.2026 30.6772 96.0048 35.5369C96.4942 38.5162 95.269 41.4482 92.5645 43.8079L92.5522 43.8176L92.5584 43.8128ZM70.4144 18.0301C70.5261 18.1718 70.7475 18.3768 70.8533 18.4732C70.964 18.5757 71.0588 18.6708 71.1232 18.7399C71.5242 19.1729 71.9609 19.5878 72.3816 19.9953C73.0494 20.6276 73.7317 21.2784 74.3286 22.0363C74.8479 22.6957 75.0248 23.2752 75.2198 23.8905C75.2654 24.0243 75.3047 24.1631 75.3538 24.3141C75.9958 26.2448 76.1902 28.2284 76.3753 30.1494C76.5175 31.585 76.6593 33.0708 76.9953 34.4736C77.818 37.9394 80.1434 42.2484 84.2025 43.9539C87.298 45.26 90.1921 43.7495 91.6553 42.7169C93.002 41.5364 95.1486 39.0769 94.6041 35.7614C93.8911 31.4206 90.2421 28.144 87.0765 26.5336C85.7915 25.8782 84.3803 25.3921 83.018 24.9175C81.1938 24.2874 79.311 23.6337 77.5845 22.5572C77.4492 22.4741 77.3297 22.3985 77.204 22.3277C76.6516 21.9939 76.1296 21.6862 75.6103 21.0268C75.0134 20.2689 74.5357 19.4469 74.0824 18.6558C73.791 18.1464 73.4899 17.6247 73.1567 17.1383C73.0985 17.0643 73.0345 16.945 72.9607 16.8134C72.8919 16.6879 72.7383 16.4295 72.6328 16.2829C72.4817 16.332 72.2506 16.4441 72.1498 16.4936L72.0551 16.5382C71.9063 16.6155 71.6355 16.7788 71.5013 16.8746C71.5013 16.8746 71.4643 16.9037 71.426 16.9438L71.3705 16.9875L71.3151 17.0312C71.2781 17.0603 71.235 17.0943 71.1932 17.1172C71.1007 17.19 70.8834 17.4211 70.7734 17.5477L70.714 17.6244C70.6423 17.7109 70.4791 17.9093 70.396 18.0446L70.4144 18.0301Z" fill="#939598"/>
<path d="M86.6576 47.5C86.5529 47.5825 86.4481 47.665 86.3372 47.7524C84.9784 48.7527 83.2935 49.301 81.6004 49.3065C77.216 49.305 72.7603 45.955 71.2321 41.5173C70.2193 38.5707 69.9633 35.5074 70.4817 32.4132C70.5574 31.9642 70.6542 31.4785 70.7523 30.9819C70.9306 30.0927 71.1114 29.1814 71.1836 28.3857C71.2749 27.3353 71.3599 25.8205 71.0547 24.723C70.8768 24.1043 70.4031 23.5788 69.9739 23.148C69.8244 22.9962 69.6453 22.8576 69.4676 22.708C69.0707 22.3816 68.6179 22.0094 68.3239 21.5221C68.1654 21.2575 68.0157 20.966 67.962 20.6189C67.8932 20.1639 68.0146 19.6589 68.3084 19.2078C68.534 18.8604 68.8165 18.598 69.0682 18.3598C69.3521 18.0863 69.8028 18.1007 70.0701 18.3894C70.3374 18.6781 70.3243 19.1178 70.0466 19.3864C69.827 19.5894 69.6307 19.7839 69.4957 19.9801C69.3928 20.141 69.3463 20.2974 69.3601 20.4164C69.3752 20.5243 69.4586 20.6683 69.5372 20.8061C69.7054 21.083 70.0414 21.3575 70.3664 21.6307C70.5746 21.8062 70.7889 21.9769 70.9688 22.1547C71.5391 22.714 72.1536 23.4181 72.4173 24.3487C72.7907 25.6722 72.7019 27.3596 72.5975 28.5201C72.5223 29.3881 72.3252 30.3422 72.143 31.2645C72.0462 31.7501 71.952 32.2136 71.8825 32.6578C71.4087 35.5171 71.642 38.3487 72.5757 41.0681C73.9169 44.9641 77.7963 47.8994 81.6001 47.8989C82.9967 47.8973 84.3856 47.4423 85.5054 46.6202C86.6019 45.8066 86.8912 45.2992 87.0317 44.869C87.1484 44.4975 87.5518 44.2996 87.9233 44.4164C88.2948 44.5331 88.4926 44.9365 88.3759 45.308C88.1125 46.1145 87.6102 46.7698 86.6674 47.5123L86.6576 47.5Z" fill="#939598"/>
<path d="M97.4965 38.9656C96.5537 39.7082 95.799 40.043 94.9532 40.1101C94.5647 40.1365 94.2299 39.851 94.1925 39.4612C94.166 39.0726 94.4529 38.7269 94.8414 38.7004C95.2925 38.6647 95.8523 38.5133 96.9015 37.627C97.9631 36.731 98.7308 35.4873 99.0597 34.13C99.9563 30.4384 98.0069 25.973 94.5336 23.7563C92.1038 22.2053 89.4057 21.315 86.5198 21.1117C86.0766 21.0814 85.599 21.0582 85.1042 21.0385C84.1649 20.9995 83.1974 20.9628 82.3298 20.8373C81.1771 20.6669 79.5159 20.3578 78.3168 19.6847C77.4739 19.2103 76.9395 18.4431 76.5232 17.7625C76.3926 17.5459 76.2707 17.3024 76.155 17.054C75.9765 16.6754 75.7774 16.2831 75.5476 16.0547C75.432 15.946 75.3116 15.8312 75.2103 15.7912C75.0979 15.7499 74.9349 15.7585 74.7543 15.8208C74.5271 15.8999 74.2969 16.0513 74.0543 16.2124L73.278 15.0366C73.5685 14.8477 73.9009 14.6358 74.2867 14.4917C74.794 14.3118 75.3134 14.3121 75.7396 14.4856C76.0755 14.6205 76.3176 14.8392 76.5328 15.0491C76.9377 15.4491 77.1934 15.9765 77.4178 16.4389C77.5215 16.6467 77.6143 16.8532 77.7269 17.0341C78.0438 17.5633 78.4436 18.147 79.0048 18.4539C80.1149 19.0773 81.9369 19.3496 82.5353 19.4375C83.3257 19.5537 84.254 19.5914 85.1603 19.6265C85.6661 19.6475 86.1609 19.6671 86.6151 19.6988C89.7385 19.9246 92.6627 20.8865 95.2899 22.5615C99.2508 25.0931 101.459 30.2036 100.434 34.4553C100.037 36.1061 99.1043 37.6095 97.8072 38.7009C97.6963 38.7883 97.5916 38.8708 97.4868 38.9533L97.4965 38.9656Z" fill="#939598"/>
</g>
<g clip-path="url(#clip7_5718_318588)">
<path d="M141.574 4.19705H130.758C130.366 4.19705 130.052 3.8833 130.052 3.4911C130.052 3.09891 130.366 2.78516 130.758 2.78516H141.574C141.967 2.78516 142.28 3.09891 142.28 3.4911C142.28 3.8833 141.967 4.19705 141.574 4.19705Z" fill="#CD0000"/>
<path d="M145.677 4.24002H144.296C143.904 4.24002 143.59 3.92627 143.59 3.53407C143.59 3.14188 143.904 2.82812 144.296 2.82812H145.677C146.069 2.82812 146.383 3.14188 146.383 3.53407C146.383 3.92627 146.069 4.24002 145.677 4.24002Z" fill="#CD0000"/>
<path d="M156.282 31.5027C138.319 31.5027 124.639 19.3212 123 1.88424C122.969 1.54695 123.086 1.20182 123.314 0.950819C123.549 0.699815 123.871 0.550781 124.216 0.550781H127.848V1.96268H124.436C126.091 18.5368 139.158 30.0908 156.29 30.0908C173.421 30.0908 186.441 18.5368 188.089 1.96268H184.653V0.550781H188.3C188.645 0.550781 188.975 0.699815 189.202 0.950819C189.43 1.20182 189.548 1.53911 189.516 1.88424C187.892 19.3212 174.221 31.5027 156.282 31.5027Z" fill="#009600"/>
<path d="M148.406 22.9075C148.304 22.9075 148.203 22.8839 148.108 22.8369C147.755 22.6721 147.606 22.2486 147.771 21.8956C147.92 21.5818 148.069 21.2681 148.226 20.9543C148.375 20.6484 148.524 20.3425 148.665 20.0366C148.83 19.6836 149.254 19.5267 149.607 19.6993C149.96 19.864 150.109 20.2876 149.944 20.6406C149.795 20.9543 149.646 21.2681 149.489 21.5818C149.34 21.8877 149.191 22.1937 149.05 22.4996C148.932 22.7584 148.673 22.9075 148.406 22.9075Z" fill="#CD0000"/>
<path d="M156.384 24.6232C155.991 24.6232 155.678 24.3095 155.678 23.9173C155.678 23.5722 155.678 23.227 155.686 22.8819C155.686 22.5446 155.693 22.1995 155.693 21.8622C155.693 21.47 156.007 21.1562 156.399 21.1562C156.792 21.1562 157.105 21.47 157.105 21.8622C157.105 22.2073 157.105 22.5525 157.097 22.9054C157.097 23.2427 157.09 23.5878 157.09 23.9251C157.09 24.3173 156.776 24.6311 156.384 24.6311V24.6232Z" fill="#CD0000"/>
<path d="M164.573 23.447C164.306 23.447 164.055 23.2979 163.929 23.0391C163.788 22.7332 163.639 22.4351 163.49 22.1292C163.333 21.8155 163.184 21.5017 163.035 21.1879C162.871 20.835 163.02 20.4114 163.373 20.2467C163.726 20.082 164.149 20.231 164.314 20.584C164.463 20.8899 164.612 21.2036 164.761 21.5095C164.91 21.8155 165.059 22.1292 165.208 22.4351C165.373 22.7881 165.224 23.2117 164.871 23.3764C164.777 23.4235 164.675 23.447 164.573 23.447Z" fill="#CD0000"/>
<path d="M142.892 19.8553C142.751 19.8553 142.602 19.8082 142.476 19.7219C142.163 19.4945 142.092 19.0474 142.319 18.7336L143.378 17.2825C143.606 16.9687 144.053 16.8981 144.367 17.1256C144.68 17.3531 144.751 17.8002 144.524 18.1139L143.465 19.5729C143.323 19.7612 143.112 19.8631 142.892 19.8631V19.8553Z" fill="#CD0000"/>
<path d="M170.369 19.8553C170.15 19.8553 169.938 19.7533 169.797 19.5651L168.738 18.1061C168.51 17.7924 168.573 17.3531 168.895 17.1178C169.208 16.8903 169.648 16.9609 169.883 17.2747L170.942 18.7336C171.169 19.0474 171.107 19.4866 170.785 19.722C170.659 19.8161 170.51 19.8553 170.369 19.8553Z" fill="#CD0000"/>
<path d="M137.613 14.3408C137.425 14.3408 137.229 14.2623 137.088 14.1133C136.821 13.8231 136.844 13.376 137.135 13.1171L138.562 11.8151C138.852 11.5484 139.299 11.5719 139.558 11.8621C139.825 12.1523 139.801 12.5994 139.511 12.8583L138.084 14.1604C137.95 14.2859 137.778 14.3486 137.605 14.3486L137.613 14.3408Z" fill="#CD0000"/>
<path d="M175.648 14.3416C175.476 14.3416 175.311 14.2789 175.17 14.1534L173.742 12.8513C173.452 12.5846 173.436 12.1453 173.695 11.8551C173.954 11.5649 174.401 11.5492 174.691 11.808L176.119 13.1101C176.409 13.3768 176.425 13.8161 176.166 14.1063C176.025 14.2553 175.837 14.3338 175.641 14.3338L175.648 14.3416Z" fill="#CD0000"/>
<path d="M133.464 7.89097C133.182 7.89097 132.907 7.7184 132.805 7.43602C132.672 7.06736 132.852 6.66732 133.221 6.52613L134.946 5.87509C135.315 5.7339 135.715 5.92216 135.856 6.29082C135.99 6.65948 135.809 7.05952 135.441 7.20071L133.715 7.85175C133.636 7.88312 133.55 7.89881 133.464 7.89881V7.89097Z" fill="#CD0000"/>
<path d="M179.805 7.89474C179.727 7.89474 179.641 7.87906 179.554 7.84768L177.829 7.19664C177.46 7.06329 177.28 6.65541 177.413 6.28675C177.554 5.92593 177.954 5.73768 178.323 5.87103L180.048 6.52207C180.417 6.65541 180.598 7.06329 180.464 7.43196C180.354 7.71434 180.088 7.8869 179.805 7.8869V7.89474Z" fill="#CD0000"/>
<path d="M148.1 13.5884C147.983 13.5884 147.857 13.5571 147.747 13.4943C147.41 13.2982 147.292 12.8668 147.489 12.5295C147.677 12.2001 147.889 11.8706 148.093 11.549C148.289 11.2353 148.485 10.9294 148.665 10.6078C148.861 10.2705 149.293 10.1528 149.63 10.3489C149.967 10.545 150.085 10.9764 149.889 11.3137C149.701 11.6432 149.489 11.9726 149.285 12.302C149.089 12.6158 148.893 12.9217 148.712 13.2355C148.579 13.4629 148.344 13.5884 148.1 13.5884Z" fill="#CD0000"/>
<path d="M156.211 16.1514C155.826 16.1514 155.505 15.8376 155.505 15.4533C155.505 15.0689 155.513 14.6846 155.528 14.3002C155.544 13.9316 155.552 13.5629 155.552 13.2021C155.552 12.8099 155.858 12.4961 156.25 12.4883C156.634 12.4883 156.956 12.802 156.956 13.1864C156.956 13.5707 156.948 13.9551 156.932 14.3394C156.917 14.7081 156.909 15.0768 156.909 15.4376C156.909 15.8298 156.595 16.1435 156.211 16.1514Z" fill="#CD0000"/>
<path d="M164.949 14.1062C164.698 14.1062 164.463 13.9729 164.33 13.7454C164.157 13.4317 163.961 13.1179 163.773 12.8042C163.569 12.4747 163.365 12.1453 163.184 11.808C162.996 11.4707 163.122 11.0393 163.459 10.851C163.804 10.6628 164.228 10.7804 164.416 11.1256C164.588 11.4393 164.785 11.7531 164.973 12.0668C165.177 12.3963 165.381 12.7257 165.561 13.063C165.749 13.4003 165.624 13.8317 165.287 14.02C165.177 14.0827 165.059 14.1062 164.941 14.1062H164.949Z" fill="#CD0000"/>
<path d="M140.767 8.69132C140.508 8.69132 140.265 8.55013 140.139 8.31482C139.959 7.96969 140.092 7.54612 140.437 7.36571L142.382 6.35385C142.727 6.17344 143.151 6.30679 143.331 6.65192C143.512 6.99705 143.379 7.42062 143.033 7.60102L141.088 8.61288C140.986 8.66779 140.876 8.69132 140.767 8.69132Z" fill="#CD0000"/>
<path d="M172.322 8.70839C172.213 8.70839 172.095 8.68485 171.993 8.6221L170.055 7.58671C169.71 7.4063 169.585 6.97489 169.765 6.62976C169.946 6.28463 170.377 6.15128 170.722 6.33954L172.66 7.37493C173.005 7.55534 173.13 7.98675 172.95 8.33188C172.824 8.5672 172.581 8.70839 172.33 8.70839H172.322Z" fill="#CD0000"/>
<path d="M156.282 28.0278C140.21 28.0278 127.134 16.0266 127.134 1.28017C127.134 0.887974 127.448 0.574219 127.84 0.574219H184.723C185.116 0.574219 185.429 0.887974 185.429 1.28017C185.429 16.0266 172.354 28.0199 156.282 28.0199V28.0278ZM128.561 1.98612C128.969 15.6266 141.253 26.608 156.289 26.608C171.326 26.608 183.594 15.6344 184.01 1.98612H128.561Z" fill="#CD0000"/>
</g>
<g clip-path="url(#clip8_5718_318588)">
<path d="M69.9348 127.294C71.5337 124.062 71.0771 120.162 69.6728 116.92C69.5528 116.645 69.2856 116.403 68.9584 116.447C65.6835 116.856 62.3377 118.235 60.2433 120.854C57.8435 123.855 58.6201 128.694 60.0333 131.951C60.1532 132.226 60.4204 132.468 60.7477 132.424C64.3268 131.98 67.9417 130.386 69.9426 127.294C70.4351 126.523 69.169 125.905 68.6755 126.66C66.9682 129.31 63.7181 130.589 60.6957 131.012C61.2568 130.937 61.497 131.856 61.1851 131.043C60.9597 130.476 60.796 129.889 60.6323 129.303C59.9765 126.94 59.9403 124.435 61.0389 122.218C62.3733 119.514 66.2223 118.259 69.0108 117.867C68.4498 117.942 68.2095 117.022 68.5215 117.835C68.7468 118.403 68.9105 118.989 69.0742 119.576C69.73 121.939 69.7662 124.444 68.6676 126.661C68.2648 127.481 69.5319 128.114 69.9348 127.294Z" fill="#009600"/>
<path d="M73.7123 116.306C73.7326 116.619 73.5399 116.922 73.2319 117.02C70.9617 117.773 68.306 116.694 67.1947 114.581C67.0154 114.239 67.1451 113.814 67.4946 113.626C67.8367 113.447 68.2695 113.576 68.4493 113.926C69.2378 115.424 71.1835 116.218 72.7916 115.681C73.1612 115.563 73.559 115.757 73.6855 116.134C73.7052 116.196 73.7166 116.25 73.7206 116.313L73.7123 116.306Z" fill="#009600"/>
<path d="M85.4634 127.482C85.4826 127.78 85.313 128.074 85.0138 128.187C82.5376 129.157 79.4777 128.27 77.901 126.132C77.6684 125.817 77.734 125.372 78.0496 125.148C78.3647 124.915 78.8091 124.981 79.0339 125.296C80.2234 126.917 82.6263 127.611 84.4967 126.877C84.857 126.735 85.2694 126.913 85.4106 127.273C85.4386 127.342 85.451 127.412 85.4556 127.483L85.4634 127.482Z" fill="#CD0000"/>
<path d="M90.0402 126.425C90.0594 126.722 89.882 127.017 89.5906 127.13L88.1024 127.698C87.7421 127.839 87.3292 127.653 87.1959 127.293C87.0547 126.932 87.2402 126.519 87.6005 126.378L89.0887 125.81C89.449 125.669 89.8618 125.855 89.9952 126.216C90.0233 126.285 90.0356 126.354 90.0402 126.425Z" fill="#CD0000"/>
<path d="M104.091 110.558C104.169 111.779 104.034 113.085 103.732 114.009C104.142 114.886 104.453 116.171 104.532 117.384C104.57 117.979 104.57 118.82 104.336 119.456C103.168 122.676 100.325 124.534 97.2562 126.304L91.9671 129.358C90.6565 130.119 89.2999 130.898 87.8342 131.449C83.8971 132.921 79.9464 132.603 76.9926 130.562C73.4385 128.111 71.3866 123.606 72.0554 119.484C72.1684 118.8 72.4563 117.296 72.797 116.001C72.2924 114.76 71.8053 113.306 71.6131 112.642C70.42 108.656 71.8742 103.916 75.0832 101.029C77.75 98.6316 81.6263 97.7994 85.7203 98.753C87.2364 99.103 88.6904 99.7086 90.0881 100.294L95.7263 102.641C98.9898 104.003 102.056 105.478 103.629 108.521C103.943 109.122 104.052 109.956 104.09 110.55L104.091 110.558ZM102.19 114.108L102.319 113.793C102.61 113.075 102.762 111.776 102.689 110.641C102.647 109.999 102.534 109.464 102.381 109.167C101.025 106.543 98.2105 105.2 95.1894 103.942L89.5512 101.594C88.2103 101.037 86.8126 100.451 85.4081 100.125C81.769 99.2757 78.3489 99.9921 76.0312 102.076C73.2159 104.608 71.9277 108.755 72.9705 112.24C73.1716 112.919 73.6788 114.442 74.1991 115.682L74.2921 115.904L74.2285 116.136C73.8795 117.424 73.5653 119.009 73.4533 119.708C72.8763 123.306 74.6795 127.245 77.7974 129.394C80.3641 131.161 83.8479 131.431 87.3474 130.12C88.6983 129.616 90.0016 128.864 91.2668 128.13L96.5558 125.076C99.3818 123.439 102.008 121.744 103.015 118.968C103.128 118.654 103.172 118.109 103.13 117.467C103.057 116.332 102.739 115.071 102.357 114.388L102.189 114.093L102.19 114.108Z" fill="#CD0000"/>
</g>
<g clip-path="url(#clip9_5718_318588)">
<path d="M30.2247 144.797C30.2621 144.854 30.2932 144.915 30.3116 144.984C30.4121 145.345 30.2075 145.724 29.8472 145.824C26.7732 146.708 23.4115 146.657 20.3635 145.674C20.0048 145.556 19.8099 145.176 19.9239 144.811C20.0421 144.452 20.422 144.258 20.7807 144.376C23.5665 145.277 26.6485 145.33 29.4613 144.518C29.7584 144.432 30.0603 144.56 30.2183 144.801L30.2247 144.797Z" fill="#FFD900"/>
<path d="M33.7704 142.932C33.9784 143.248 33.8913 143.668 33.5744 143.876L32.7125 144.442C32.3956 144.65 31.9757 144.563 31.7677 144.246C31.5597 143.929 31.6468 143.509 31.9637 143.301L32.8256 142.736C33.1425 142.528 33.5624 142.615 33.7704 142.932Z" fill="#FFD900"/>
<path d="M45.8075 120.986L45.9364 121.183C46.8433 122.564 46.7018 124.698 45.5675 126.893C44.8831 128.213 44.782 129.413 44.6555 130.919C44.5081 132.712 44.3197 134.939 43.0084 138.067C41.3805 141.955 38.958 144.634 35.1623 146.753C30.9887 149.084 26.5699 149.854 22.3772 148.979C21.4535 148.787 20.4738 148.469 19.5235 148.168C17.7174 147.585 15.8482 146.989 14.5698 147.293C12.6405 147.752 9.92921 147.6 8.648 145.648L8.56896 145.528L8.51904 145.452C7.23783 143.5 8.17704 140.952 9.36588 139.365C10.1535 138.313 10.3504 136.361 10.5343 134.472C10.636 133.48 10.7337 132.455 10.9254 131.531C11.7902 127.336 14.254 123.588 18.0532 120.687C21.5077 118.047 24.9327 116.896 29.1481 116.95C32.5393 116.991 34.6578 117.704 36.3609 118.282C37.7936 118.765 38.9305 119.144 40.4177 119.047C42.8895 118.876 44.9006 119.605 45.8075 120.986ZM9.79293 144.906C10.7455 146.357 13.0486 146.26 14.2575 145.975C15.9045 145.583 17.9583 146.239 19.9449 146.875C20.8637 147.17 21.814 147.471 22.6643 147.648C26.5315 148.455 30.6284 147.734 34.5064 145.561C38.0615 143.572 40.2338 141.176 41.7548 137.538C42.9806 134.612 43.1486 132.588 43.3002 130.802C43.4336 129.209 43.5507 127.827 44.3567 126.264C45.2522 124.534 45.4218 122.872 44.802 121.927L44.673 121.731C44.0574 120.793 42.4295 120.275 40.5131 120.408C38.7523 120.53 37.4435 120.083 35.9291 119.572C34.2301 119.001 32.3066 118.35 29.1341 118.31C25.1921 118.259 22.1254 119.292 18.8907 121.769C15.3578 124.469 13.0664 127.94 12.2649 131.804C12.0885 132.654 11.9868 133.646 11.8979 134.602C11.6917 136.677 11.4766 138.823 10.4618 140.178C9.71876 141.173 8.70941 143.241 9.66615 144.699L9.71607 144.775L9.79511 144.896L9.79293 144.906Z" fill="#FFD900"/>
</g>
<g clip-path="url(#clip10_5718_318588)">
<path d="M14.454 83.9382C16.4895 81.8805 19.4014 81.3203 22.2079 81.4423C21.559 81.4146 21.5423 80.5771 21.6921 81.4479C21.7975 82.0413 21.8308 82.6404 21.8696 83.2449C21.975 85.0697 21.6255 86.8279 20.7215 88.4198C19.5733 90.4442 16.8389 91.0821 14.7091 91.3261C14.1933 91.3871 13.6775 91.3927 13.1616 91.3982C12.1799 91.4038 13.084 91.2096 13.2227 91.8475C12.6236 89.1186 12.8566 86.0792 14.5594 83.7996C15.1029 83.0674 13.866 82.3741 13.328 83.1007C11.3923 85.6909 11.1816 89.1852 11.8638 92.2745C11.9359 92.6018 12.2409 92.7848 12.546 92.8015C15.5522 92.99 19.5678 92.3134 21.4869 89.7398C23.4226 87.1496 23.6334 83.6554 22.9511 80.566C22.879 80.2387 22.574 80.0557 22.2689 80.0391C19.0853 79.8394 15.7241 80.6381 13.4445 82.951C12.8011 83.5943 13.805 84.5983 14.4484 83.9549L14.454 83.9382Z" fill="#009600"/>
<path d="M13.2841 78.2776C15.5692 80.5849 18.9248 81.3891 22.1085 81.1895C22.4191 81.1673 22.7241 80.9842 22.7907 80.6626C23.4729 77.5732 23.2677 74.0845 21.3264 71.4887C19.4129 68.9207 15.3862 68.244 12.3855 68.4271C12.0749 68.4493 11.7699 68.6323 11.7033 68.954C11.0211 72.0434 11.2263 75.5321 13.1676 78.1278C13.7111 78.8489 14.9425 78.1611 14.3989 77.429C12.6961 75.1494 12.5353 72.2819 13.0234 69.5641C13.1232 68.9873 12.0139 69.8636 12.674 69.8359C13.101 69.8192 13.5281 69.8359 13.9552 69.8525C15.9963 69.9302 18.0152 70.507 19.6459 71.7605C22.0364 73.6075 21.9809 77.5565 21.4429 80.2355C21.5649 79.6476 22.4967 79.7696 21.5039 79.7862C20.9825 79.7973 20.4723 79.7529 19.9565 79.7141C17.8266 79.5588 15.8022 78.7989 14.2935 77.2681C13.6501 76.6247 12.6518 77.6231 13.2896 78.272L13.2841 78.2776Z" fill="#009600"/>
<path d="M42.4745 87.7801L42.5632 87.8689C45.1146 90.4202 45.1146 94.569 42.5632 97.1204C40.0119 99.6717 35.8631 99.6717 33.3118 97.1204C32.2968 96.1054 31.6589 94.813 31.4648 93.3876C31.4093 92.9993 31.6811 92.6499 32.0694 92.5944C32.4576 92.539 32.8181 92.8108 32.8625 93.199C33.0178 94.3194 33.517 95.3288 34.3101 96.122C36.3124 98.1243 39.5626 98.1243 41.5649 96.122C43.5672 94.1197 43.5672 90.9582 41.6536 88.956L38.1538 87.3752C36.7173 87.3142 35.3196 87.8578 34.3101 88.8672C33.994 89.1834 33.7111 89.555 33.4782 89.9654C33.284 90.3038 32.8569 90.4202 32.5131 90.2317C32.1692 90.0431 32.0583 89.6105 32.2468 89.2666C32.5463 88.7452 32.9013 88.2682 33.3062 87.8633C34.6374 86.5322 36.4843 85.8389 38.3646 85.9664L38.4921 85.972L42.4634 87.769L42.4745 87.7801Z" fill="#A60094"/>
<path d="M32.9793 88.0894L33.2677 88.6884C34.1496 90.5354 33.778 92.7484 32.3414 94.1849C30.4556 96.0707 27.3884 96.0652 25.5082 94.1849C23.7999 92.4766 23.6335 89.7367 25.1199 87.8176L25.5248 87.2907L26.0739 87.6734C27.932 88.9546 30.2781 89.2042 32.3636 88.339L32.9848 88.0838L32.9793 88.0894ZM26.501 93.1921C27.8377 94.5288 30.0064 94.5233 31.3375 93.1921C32.2028 92.3269 32.5245 91.0623 32.2139 89.8975C30.1007 90.5576 27.8155 90.3135 25.8853 89.2264C25.2198 90.5243 25.4361 92.1383 26.4955 93.1977L26.501 93.1921Z" fill="#A60094"/>
<path d="M63.1408 84.6167C65.3926 86.8686 65.3926 90.5292 63.1408 92.7811C60.8889 95.033 57.2283 95.033 54.9764 92.7811C54.8377 92.6424 54.7046 92.4982 54.5882 92.3485C54.3441 92.049 54.3885 91.6052 54.688 91.3501C54.993 91.1005 55.4312 91.1504 55.6863 91.4499C55.7751 91.5609 55.8749 91.6718 55.9803 91.7772C57.6831 93.4799 60.4508 93.4744 62.148 91.7772C63.8452 90.08 63.8452 87.3067 62.148 85.6095C60.8224 84.2839 58.7979 83.9567 57.1173 84.7942C56.7679 84.9661 56.3464 84.8219 56.1689 84.478C55.997 84.1286 56.1356 83.7015 56.485 83.5296C58.7147 82.4203 61.3881 82.8529 63.1463 84.6112L63.1408 84.6167Z" fill="#A60094"/>
<path d="M54.6876 86.883C54.7265 86.9218 54.7653 86.9606 54.7875 87.0161C56.6234 90.0167 56.1741 93.8493 53.6837 96.3397C50.7219 99.3015 45.9132 99.296 42.9569 96.3397C42.8182 96.201 42.7018 96.0624 42.5853 95.9126L42.491 95.7962C42.2469 95.4966 42.2858 95.0474 42.5853 94.8033C42.8903 94.5537 43.3285 94.6037 43.5781 94.8976L43.6835 95.0252C43.7667 95.1306 43.8554 95.2415 43.9553 95.3413C46.3624 97.7485 50.2838 97.754 52.6909 95.3469C54.7154 93.3224 55.0814 90.2053 53.5894 87.7593C53.3898 87.4266 53.4896 86.9939 53.8279 86.7887C54.1108 86.6168 54.4713 86.6667 54.6932 86.8885L54.6876 86.883Z" fill="#A60094"/>
<path d="M55.9249 78.234C58.3321 80.6411 58.3266 84.5514 55.9249 86.953C53.5233 89.3546 49.6075 89.3546 47.2059 86.953C44.8043 84.5514 44.8043 80.6356 47.2059 78.234C49.6075 75.8323 53.5233 75.8323 55.9249 78.234ZM48.1987 85.9602C50.0512 87.8127 53.0685 87.8127 54.921 85.9602C56.7736 84.1077 56.7735 81.0904 54.921 79.2379C53.0685 77.3854 50.0512 77.3854 48.1987 79.2379C46.3462 81.0904 46.3462 84.1077 48.1987 85.9602Z" fill="#A60094"/>
<path d="M48.0043 75.3851C48.6255 76.0063 49.1358 76.7273 49.524 77.5371C49.696 77.8865 49.5407 78.308 49.1912 78.48C48.8363 78.6464 48.4147 78.5022 48.2483 78.1472C47.0059 75.5625 44.1606 74.1371 41.404 74.6086C41.0158 74.6751 40.6552 74.4144 40.5942 74.0317C40.5277 73.6435 40.7884 73.2829 41.1711 73.2219C43.667 72.8004 46.2294 73.6102 48.0098 75.3906L48.0043 75.3851Z" fill="#A60094"/>
<path d="M47.8596 85.5782C47.8596 85.5782 47.8707 85.5893 47.8763 85.5948C48.148 85.8777 48.1314 86.327 47.8485 86.5877C44.7536 89.5162 39.967 89.4441 36.9609 86.4379C36.6392 86.1162 36.3341 85.7557 36.0623 85.3619L35.846 85.0457L35.9902 84.6908C36.8166 82.6552 36.5781 80.3534 35.3635 78.5287L35.1527 78.207L35.3025 77.8575C35.4134 77.5913 35.5354 77.3251 35.6852 77.0644C35.8793 76.7261 36.3119 76.604 36.6447 76.7926C36.983 76.9867 37.0995 77.4138 36.9165 77.7522C36.8555 77.8575 36.8055 77.9629 36.7556 78.0683C37.9759 80.1094 38.231 82.5831 37.4489 84.8294C39.8117 87.88 44.1657 88.1185 46.8946 85.5449C47.1719 85.2787 47.61 85.2842 47.8818 85.556L47.8596 85.5782Z" fill="#A60094"/>
<path d="M35.5193 76.5218C38.6586 79.6611 38.6586 84.7638 35.5193 87.9031C32.38 91.0424 27.2772 91.0424 24.138 87.9031C20.9987 84.7638 20.9987 79.6611 24.138 76.5218C27.2772 73.3825 32.38 73.3825 35.5193 76.5218ZM25.1363 86.9047C27.721 89.4894 31.9307 89.4949 34.5209 86.9047C37.1111 84.3145 37.1111 80.1103 34.5209 77.5201C31.9307 74.9299 27.7265 74.9299 25.1363 77.5201C22.5461 80.1103 22.5517 84.3201 25.1363 86.9047Z" fill="#A60094"/>
<path d="M40.5447 67.925C42.8797 70.2601 42.8797 74.0539 40.5447 76.3889C39.1359 77.7977 37.1225 78.4134 35.1646 78.0307L34.9317 77.9863L34.6821 77.7034C33.9333 76.8437 32.9239 76.2336 31.809 75.8842L31.5816 75.8121L31.443 75.618C29.7402 73.2274 30.012 69.9939 32.0808 67.925C34.4158 65.59 38.2096 65.59 40.5447 67.925ZM35.6638 76.6773C37.0892 76.8825 38.5258 76.4111 39.5519 75.385C41.3323 73.6046 41.3378 70.7038 39.5519 68.9178C37.7659 67.1319 34.8707 67.1319 33.0847 68.9178C31.5539 70.4487 31.3154 72.8059 32.4746 74.6085C33.6837 75.03 34.8263 75.7289 35.6693 76.6718L35.6638 76.6773Z" fill="#A60094"/>
<path d="M30.7378 65.2503C31.8527 66.3651 32.4794 67.846 32.5182 69.4268L32.5238 69.632L32.4184 69.8039C31.9747 70.5471 31.7473 71.3957 31.775 72.2665L31.7805 72.4718L31.6752 72.6437C31.4089 73.0985 31.0928 73.5034 30.7378 73.8584C28.3639 76.2323 24.4981 76.2378 22.1186 73.8584C19.7392 71.4789 19.7392 67.6186 22.1186 65.2392C24.4981 62.8598 28.3584 62.8598 30.7378 65.2392V65.2503ZM31.0983 69.2715C31.0318 68.1289 30.5492 67.0584 29.7395 66.2486C27.9147 64.4239 24.9418 64.4239 23.117 66.2486C21.2922 68.0734 21.2922 71.0463 23.117 72.8711C24.9418 74.6959 27.9147 74.6959 29.7395 72.8711C29.9669 72.6437 30.1721 72.383 30.3551 72.1001C30.3607 71.1073 30.6158 70.1423 31.0928 69.277L31.0983 69.2715Z" fill="#A60094"/>
<path d="M22.7072 86.4908C22.8459 86.6295 22.9235 86.8181 22.9124 87.0288C22.8736 87.7332 22.5907 88.4709 22.2912 89.2474C22.0694 89.8132 21.8475 90.39 21.72 90.9613C22.5242 90.8892 23.2619 91.1055 23.8553 91.6102C24.8315 92.42 24.7539 93.6846 24.1937 94.4444C23.6889 95.1377 22.6961 95.5315 21.6312 94.8549C21.0433 94.4777 20.6162 93.8399 20.3611 92.9635C19.579 93.5015 18.9356 94.278 18.7692 94.8549C18.6583 95.232 18.2701 95.4428 17.8984 95.3374C17.5213 95.2265 17.3105 94.8382 17.4159 94.4666C17.7487 93.313 18.9301 92.065 20.2224 91.4161C20.3056 90.4676 20.6495 89.5691 20.9767 88.7427C21.2374 88.0716 21.4759 87.4448 21.5036 86.9623C21.5258 86.574 21.8586 86.2745 22.2469 86.2967C22.4299 86.3022 22.5907 86.3854 22.7072 86.5019L22.7072 86.4908ZM22.2136 93.5182C22.269 93.5736 22.3301 93.6236 22.3911 93.6624C22.685 93.8454 22.9013 93.8288 23.0622 93.6125C23.2064 93.4128 23.2951 92.9913 22.9513 92.6918C22.6074 92.4033 22.1859 92.3035 21.6756 92.3923C21.6811 92.4311 21.6922 92.4644 21.7033 92.5087C21.8253 92.9635 21.9917 93.3074 22.2136 93.5293L22.2136 93.5182Z" fill="#009600"/>
<path d="M29.8676 77.6791C29.9952 77.8067 30.0728 77.9842 30.0784 78.1783C30.0784 78.5666 29.7622 78.8827 29.374 78.8827C27.9873 78.8827 26.6007 79.637 25.8409 80.7962C25.6246 81.1235 25.1919 81.2122 24.8591 81.0015C24.5375 80.7907 24.4432 80.3525 24.6539 80.0197C25.68 78.4501 27.4826 77.4684 29.3684 77.4684C29.5681 77.4684 29.74 77.5516 29.8676 77.6791Z" fill="#A60094"/>
<path d="M32.7962 77.7019L33.2843 78.19C33.5617 78.4673 33.5617 78.911 33.2843 79.1883C33.007 79.4656 32.5633 79.4656 32.286 79.1883L31.7979 78.7002C31.5206 78.4229 31.5206 77.9792 31.7979 77.7019C32.0752 77.4245 32.5189 77.4245 32.7962 77.7019Z" fill="#A60094"/>
<path d="M51.4159 93.4132C51.6489 93.6461 51.6932 94.0122 51.5047 94.3006C50.8835 95.2324 49.8407 95.8869 48.6427 96.0755C47.4391 96.2696 46.2411 95.9812 45.3592 95.2879C45.0597 95.0438 44.9987 94.6057 45.2427 94.2951C45.4812 93.99 45.9249 93.9345 46.2355 94.1786C46.8068 94.6278 47.6055 94.8164 48.4208 94.6778C49.2362 94.5502 49.9295 94.1231 50.3344 93.5186C50.5507 93.1913 50.9888 93.1081 51.3105 93.3189C51.3494 93.3466 51.3882 93.3743 51.4215 93.4076L51.4159 93.4132Z" fill="#A60094"/>
<path d="M53.3013 91.1293C53.4844 91.3123 53.562 91.5896 53.4733 91.8559L53.2292 92.588C53.1072 92.9541 52.7023 93.1593 52.3362 93.0373C51.9702 92.9152 51.7705 92.5159 51.887 92.1443L52.131 91.4122C52.253 91.0461 52.6579 90.8409 53.024 90.9629C53.1294 91.0017 53.2292 91.0572 53.3013 91.1293Z" fill="#A60094"/>
</g>
<g clip-path="url(#clip11_5718_318588)">
<path d="M277.694 108.231C276.784 110.986 277.601 114.057 279.096 116.468C279.24 116.698 279.511 116.879 279.794 116.801C282.778 115.972 285.734 114.099 286.737 111.049C287.548 108.594 286.454 105.472 285.156 103.368C285.011 103.138 284.74 102.957 284.457 103.035C281.705 103.804 279.014 105.443 277.76 108.085C277.414 108.813 278.486 109.501 278.838 108.757C279.586 107.183 280.743 106.168 282.242 105.307C282.708 105.042 283.2 104.838 283.688 104.629C284.903 104.116 284.469 104.676 284.041 103.981C285.252 105.936 286.006 108.385 285.521 110.674C285.094 112.661 283.158 113.933 281.484 114.791C281.004 115.041 280.492 115.234 279.985 115.413C279.19 115.694 280.13 115.738 280.14 115.748C278.877 113.631 278.11 111.011 278.909 108.606C279.163 107.828 277.953 107.449 277.694 108.231Z" fill="#009600"/>
<path d="M300.74 123.62C300.511 123.83 300.161 123.846 299.911 123.646C291.92 117.217 285.682 116.39 276.977 117.113C276.632 117.143 276.324 116.881 276.294 116.536C276.27 116.186 276.528 115.882 276.873 115.852C285.909 115.103 292.38 115.964 300.702 122.661C300.972 122.882 301.019 123.278 300.798 123.548C300.772 123.572 300.756 123.596 300.73 123.62L300.74 123.62Z" fill="#009600"/>
<path d="M287.617 136.497C287.503 136.602 287.35 136.666 287.186 136.664C286.837 136.659 286.555 136.373 286.556 136.029C286.632 126.971 283.834 121.649 276.582 117.026C276.286 116.839 276.204 116.446 276.391 116.15C276.579 115.854 276.972 115.77 277.268 115.957C284.845 120.788 287.905 126.605 287.822 136.042C287.819 136.226 287.741 136.392 287.617 136.507L287.617 136.497Z" fill="#009600"/>
<path d="M297.03 149.347C293.568 152.525 288.176 152.298 285.012 148.85C281.847 145.403 282.086 140.007 285.543 136.834C288.999 133.66 294.396 133.883 297.561 137.331C300.725 140.778 300.487 146.174 297.03 149.347ZM286.399 137.767C283.457 140.468 283.254 145.057 285.947 147.991C288.641 150.925 293.231 151.115 296.173 148.414C299.115 145.713 299.318 141.123 296.625 138.19C293.932 135.256 289.341 135.066 286.399 137.767Z" fill="#CD0000"/>
<path d="M312.265 134.941C308.802 138.119 303.411 137.891 300.247 134.444C297.082 130.997 297.32 125.601 300.777 122.428C304.234 119.254 309.631 119.477 312.795 122.924C315.96 126.371 315.721 131.767 312.265 134.941ZM301.629 123.355C298.687 126.056 298.484 130.646 301.177 133.58C303.871 136.514 308.461 136.704 311.403 134.003C314.346 131.302 314.548 126.712 311.855 123.778C309.162 120.844 304.571 120.654 301.629 123.355Z" fill="#CD0000"/>
<path d="M295.343 140.782C295.307 140.815 295.27 140.849 295.23 140.867C294.928 141.039 294.534 140.933 294.368 140.627C293.558 139.192 291.728 138.388 290.121 138.766C289.778 138.841 289.443 138.633 289.359 138.29C289.279 137.953 289.493 137.613 289.836 137.527C292.008 137.023 294.376 138.059 295.468 139.999C295.615 140.264 295.556 140.586 295.343 140.782Z" fill="#CD0000"/>
<path d="M296.796 143.688C296.728 143.75 296.641 143.802 296.55 143.828C296.212 143.928 295.861 143.734 295.766 143.401L295.371 142.074C295.271 141.735 295.466 141.384 295.795 141.283C296.134 141.182 296.484 141.376 296.584 141.705L296.979 143.033C297.049 143.275 296.973 143.526 296.801 143.684L296.796 143.688Z" fill="#CD0000"/>
<path d="M309.857 125.768C309.821 125.802 309.779 125.84 309.729 125.858C309.422 126.025 309.033 125.914 308.867 125.608C308.161 124.307 306.538 123.562 305.088 123.871C304.746 123.946 304.411 123.728 304.336 123.386C304.262 123.044 304.486 122.704 304.824 122.633C306.833 122.202 309.003 123.2 309.981 125.005C310.124 125.266 310.06 125.582 309.852 125.773L309.857 125.768Z" fill="#CD0000"/>
<path d="M311.825 128.65C311.778 128.693 311.726 128.731 311.671 128.753C311.35 128.905 310.977 128.769 310.826 128.459L310.406 127.574C310.255 127.254 310.392 126.88 310.703 126.728C311.023 126.577 311.397 126.712 311.547 127.023L311.967 127.908C312.09 128.167 312.022 128.469 311.825 128.65Z" fill="#CD0000"/>
</g>
<defs>
<clipPath id="clip0_5718_318588">
<rect width="46.0827" height="41.6823" fill="white" transform="translate(281.789 13) rotate(59.1599)"/>
</clipPath>
<clipPath id="clip1_5718_318588">
<rect width="42.0667" height="53.4168" fill="white" transform="translate(4 22.6562) rotate(-21.8479)"/>
</clipPath>
<clipPath id="clip2_5718_318588">
<rect width="39.792" height="36.4426" fill="white" transform="translate(296.865 53) rotate(33.0313)"/>
</clipPath>
<clipPath id="clip3_5718_318588">
<rect width="50.7812" height="15.2014" fill="white" transform="translate(195 31.707) rotate(-29.1133)"/>
</clipPath>
<clipPath id="clip4_5718_318588">
<rect width="31.8147" height="45.0552" fill="white" transform="translate(264.762 120.414) rotate(118.378)"/>
</clipPath>
<clipPath id="clip5_5718_318588">
<rect width="34.6542" height="30.0028" fill="white" transform="translate(225.393 56.2422) rotate(54.5265)"/>
</clipPath>
<clipPath id="clip6_5718_318588">
<rect width="31.8696" height="35.5955" fill="white" transform="translate(58 25.7188) rotate(-38.2244)"/>
</clipPath>
<clipPath id="clip7_5718_318588">
<rect width="66.5239" height="30.9519" fill="white" transform="translate(123 0.550781)"/>
</clipPath>
<clipPath id="clip8_5718_318588">
<rect width="34.011" height="46.3102" fill="white" transform="translate(59.1943 133.93) rotate(-93.6993)"/>
</clipPath>
<clipPath id="clip9_5718_318588">
<rect width="31.2937" height="44.5981" fill="white" transform="translate(17.1714 158.633) rotate(-123.279)"/>
</clipPath>
<clipPath id="clip10_5718_318588">
<rect width="53.3148" height="41.7529" fill="white" transform="translate(37.6992 118.223) rotate(-135)"/>
</clipPath>
<clipPath id="clip11_5718_318588">
<rect width="38" height="44" fill="white" transform="translate(261 122.695) rotate(-42.5518)"/>
</clipPath>
</defs>
</svg>
