<svg width="31" height="33" viewBox="0 0 31 33" fill="none" xmlns="http://www.w3.org/2000/svg">
<path d="M0.5 17.9322C0.5 26.1752 7.30882 33 15.5 33C23.7059 33 30.5 26.1752 30.5 17.9322C30.5 10.6642 25.2206 4.50412 18.3382 3.14507V1.04739C18.3382 -0.00144344 17.6176 -0.282118 16.8235 0.294004L12.1324 3.58824C11.4559 4.06095 11.4412 4.77003 12.1324 5.25752L16.8088 8.56652C17.6176 9.15742 18.3382 8.87674 18.3382 7.81313V5.71546C23.8971 6.98588 27.9853 11.9494 27.9853 17.9322C27.9853 24.9047 22.4412 30.4887 15.5 30.4887C8.55882 30.4887 2.98529 24.9047 3 17.9322C3.01471 13.7368 5.04412 10.029 8.17647 7.78359C8.77941 7.32565 8.97059 6.63134 8.60294 6.01091C8.23529 5.40524 7.42647 5.24274 6.77941 5.745C3 8.50743 0.5 12.9687 0.5 17.9322ZM8.5 15.5243H15.1029C15.5 16.6913 16.6176 17.5333 17.9118 17.5333C19.2059 17.5333 20.3088 16.6913 20.7206 15.5243H22.5588C23.0588 15.5243 23.5 15.0959 23.5 14.5493C23.5 14.0175 23.0588 13.5744 22.5588 13.5744H20.7206C20.3235 12.3926 19.2059 11.5505 17.9118 11.5505C16.6029 11.5505 15.4853 12.3926 15.0882 13.5744H8.5C7.94118 13.5744 7.5 14.0175 7.5 14.5493C7.5 15.0959 7.94118 15.5243 8.5 15.5243ZM17.9118 16.0118C17.0735 16.0118 16.4559 15.3618 16.4559 14.5346C16.4559 13.6925 17.0735 13.0721 17.9118 13.0721C18.7206 13.0721 19.3676 13.6925 19.3676 14.5346C19.3676 15.3618 18.7206 16.0118 17.9118 16.0118ZM8.44118 23.5161H10.2941C10.6912 24.6832 11.8088 25.5252 13.0882 25.5252C14.3971 25.5252 15.5147 24.6832 15.9118 23.5161H22.5C23.0588 23.5161 23.5 23.073 23.5 22.5264C23.5 21.9946 23.0588 21.5662 22.5 21.5662H15.9265C15.5294 20.3844 14.4118 19.5276 13.0882 19.5276C11.7941 19.5276 10.6765 20.3844 10.2794 21.5662H8.44118C7.94118 21.5662 7.5 21.9946 7.5 22.5264C7.5 23.073 7.94118 23.5161 8.44118 23.5161ZM13.0882 24.0036C12.2794 24.0036 11.6324 23.3537 11.6324 22.5116C11.6324 21.6844 12.2794 21.0492 13.0882 21.0492C13.9265 21.0492 14.5735 21.6844 14.5735 22.5116C14.5735 23.3537 13.9265 24.0036 13.0882 24.0036Z" fill="#0C695E"/>
</svg>
