<svg width="24" height="24" viewBox="0 0 24 24" fill="none" xmlns="http://www.w3.org/2000/svg">
<path d="M4.64113 10.411H7.46945C8.50824 10.411 9.11057 9.78821 9.11057 8.72582V5.68517C9.11057 4.62278 8.50824 4 7.46945 4H4.64113C3.5936 4 3 4.62278 3 5.68517V8.72582C3 9.78821 3.5936 10.411 4.64113 10.411ZM11.7207 5.61191H20.2231C20.6508 5.61191 21 5.25472 21 4.80595C21 4.35718 20.6508 4 20.2231 4H11.7207C11.2929 4 10.9525 4.35718 10.9525 4.80595C10.9525 5.25472 11.2929 5.61191 11.7207 5.61191ZM11.7207 10.411H20.2231C20.6508 10.411 21 10.0538 21 9.60504C21 9.15627 20.6508 8.79908 20.2231 8.79908H11.7207C11.2929 8.79908 10.9525 9.15627 10.9525 9.60504C10.9525 10.0538 11.2929 10.411 11.7207 10.411ZM4.64113 20H7.46945C8.50824 20 9.11057 19.3864 9.11057 18.3148V15.2833C9.11057 14.2118 8.50824 13.5982 7.46945 13.5982H4.64113C3.5936 13.5982 3 14.2118 3 15.2833V18.3148C3 19.3864 3.5936 20 4.64113 20ZM11.7207 15.2101H20.2231C20.6508 15.2101 21 14.8529 21 14.4041C21 13.9554 20.6508 13.5982 20.2231 13.5982H11.7207C11.2929 13.5982 10.9525 13.9554 10.9525 14.4041C10.9525 14.8529 11.2929 15.2101 11.7207 15.2101ZM11.7207 20H20.2231C20.6508 20 21 19.652 21 19.2032C21 18.7453 20.6508 18.3973 20.2231 18.3973H11.7207C11.2929 18.3973 10.9525 18.7453 10.9525 19.2032C10.9525 19.652 11.2929 20 11.7207 20Z" fill="#7A948F"/>
</svg>
