<svg width="18" height="20" viewBox="0 0 18 20" fill="none" xmlns="http://www.w3.org/2000/svg">
<path d="M11.7798 4.41211C12.1118 4.41211 12.4134 4.33187 12.6846 4.17139C12.9613 4.00537 13.1799 3.78678 13.3403 3.51562C13.5008 3.23893 13.5811 2.9318 13.5811 2.59424C13.5811 2.25667 13.5008 1.95231 13.3403 1.68115C13.1799 1.40446 12.9613 1.18587 12.6846 1.02539C12.4134 0.864909 12.1118 0.784668 11.7798 0.784668C11.4422 0.784668 11.1351 0.864909 10.8584 1.02539C10.5817 1.18587 10.3604 1.40446 10.1943 1.68115C10.0339 1.95231 9.95361 2.25667 9.95361 2.59424C9.95361 2.9318 10.0339 3.23893 10.1943 3.51562C10.3604 3.78678 10.5817 4.00537 10.8584 4.17139C11.1351 4.33187 11.4422 4.41211 11.7798 4.41211ZM6.12695 19.229C6.35938 19.229 6.56136 19.146 6.73291 18.98C6.90446 18.814 6.99023 18.612 6.99023 18.374V10.5796C7.93652 10.4246 8.79427 10.0566 9.56348 9.47559C10.3327 8.889 10.9165 8.16683 11.3149 7.30908C11.3481 7.22607 11.4146 7.16797 11.5142 7.13477C11.6138 7.09603 11.7466 7.1071 11.9126 7.16797L16.1128 8.5791C16.4006 8.67871 16.6413 8.66764 16.835 8.5459C17.0286 8.41862 17.1559 8.2526 17.2168 8.04785C17.2832 7.8431 17.2749 7.63281 17.1919 7.41699C17.1089 7.19564 16.9318 7.04069 16.6606 6.95215L4.07666 2.75195C3.78337 2.65234 3.53988 2.66618 3.34619 2.79346C3.15804 2.9152 3.03076 3.07845 2.96436 3.2832C2.89795 3.48796 2.90625 3.70101 2.98926 3.92236C3.0778 4.13818 3.25765 4.29036 3.52881 4.37891L8.05273 5.88965C8.15788 5.92839 8.22982 6.00033 8.26855 6.10547C8.31283 6.21061 8.30176 6.31852 8.23535 6.4292C7.9974 6.81104 7.70133 7.10986 7.34717 7.32568C6.993 7.53597 6.58626 7.64111 6.12695 7.64111H1.83545V3.33301C1.83545 3.07845 1.75521 2.8737 1.59473 2.71875C1.43978 2.55827 1.23226 2.47803 0.972168 2.47803C0.717611 2.47803 0.510091 2.55827 0.349609 2.71875C0.194661 2.8737 0.117188 3.07845 0.117188 3.33301V8.42969C0.117188 8.71191 0.180827 8.92497 0.308105 9.06885C0.440918 9.20719 0.615234 9.29574 0.831055 9.33447L4.63281 9.96533L5.27197 13.7173V18.374C5.27197 18.612 5.35498 18.814 5.521 18.98C5.68701 19.146 5.889 19.229 6.12695 19.229Z" fill="black"/>
</svg>
