<svg width="8" height="10" viewBox="0 0 8 10" fill="none" xmlns="http://www.w3.org/2000/svg">
<path d="M3.80252 10C6.02101 10 7.5 8.34951 7.5 5.86223C7.5 1.72446 4.29832 0 2.07563 0C1.68067 0 1.42857 0.152566 1.42857 0.448451C1.42857 0.564031 1.47479 0.684235 1.56303 0.795192C2.06303 1.45169 2.56303 2.23301 2.57143 3.14378C2.57143 3.25936 2.56303 3.37032 2.53361 3.49052C2.30252 2.94961 1.86975 2.589 1.48319 2.589C1.31092 2.589 1.19328 2.72769 1.19328 2.93574C1.19328 3.05594 1.22269 3.33796 1.22269 3.54138C1.22269 4.57698 0.5 5.18262 0.5 6.85159C0.5 8.74249 1.81513 10 3.80252 10ZM3.89916 8.70088C3.11345 8.70088 2.59244 8.17846 2.59244 7.40176C2.59244 6.58807 3.11765 6.29681 3.18487 5.77439C3.19328 5.73278 3.21849 5.71891 3.2479 5.74665C3.44118 5.9362 3.56723 6.16736 3.67227 6.43551C3.89496 6.10263 4 5.39991 3.92857 4.6417C3.92437 4.60009 3.94958 4.57698 3.98739 4.59085C4.90756 5.06704 5.38655 6.0749 5.38655 6.97642C5.38655 7.89182 4.89916 8.70088 3.89916 8.70088Z" fill="#FF764B"/>
</svg>
