<svg width="24" height="24" viewBox="0 0 24 24" fill="none" xmlns="http://www.w3.org/2000/svg">
<path d="M12 24C18.5647 24 24 18.5529 24 12C24 5.43529 18.5529 0 11.9882 0C5.43529 0 0 5.43529 0 12C0 18.5529 5.44706 24 12 24ZM12 22C6.44706 22 2.01176 17.5529 2.01176 12C2.01176 6.44706 6.43529 2 11.9882 2C17.5412 2 22 6.44706 22 12C22 17.5529 17.5529 22 12 22ZM12.0353 18.3176C15.4706 18.3176 18.3294 15.4471 18.3294 12.0118C18.3294 8.58824 15.4588 5.70588 12.0353 5.70588C8.6 5.70588 5.74118 8.57647 5.74118 12.0118C5.74118 15.4353 8.61176 18.3176 12.0353 18.3176ZM12.0353 16.4824C9.61176 16.4824 7.57647 14.4471 7.57647 12.0118C7.57647 9.56471 9.58824 7.54118 12.0353 7.54118C14.4588 7.54118 16.4941 9.57647 16.4941 12.0118C16.4941 14.4588 14.4706 16.4824 12.0353 16.4824Z" fill="white"/>
</svg>
