<svg width="27" height="23" viewBox="0 0 27 23" fill="none" xmlns="http://www.w3.org/2000/svg">
<path d="M9.51083 17.3143H23.1629C23.6192 17.3143 24.0169 16.94 24.0169 16.4369C24.0169 15.9339 23.6192 15.5595 23.1629 15.5595H9.70971C9.04289 15.5595 8.63345 15.0916 8.52816 14.3779L8.34099 13.1495H23.1863C24.8943 13.1495 25.7717 12.0966 26.0173 10.4237L26.9532 4.23499C26.9766 4.08291 27 3.89573 27 3.79044C27 3.22889 26.5789 2.84283 25.9354 2.84283H6.83189L6.60962 1.35707C6.49263 0.456256 6.16508 0 4.97184 0H0.865685C0.397747 0 0 0.409461 0 0.877416C0 1.35707 0.397747 1.76653 0.865685 1.76653H4.81976L6.69151 14.6119C6.93717 16.2731 7.81456 17.3143 9.51083 17.3143ZM25.0113 4.60936L24.1807 10.2131C24.0871 10.9385 23.701 11.3947 23.0108 11.3947H8.08362L7.08925 4.60936H25.0113ZM10.435 23C11.4879 23 12.3302 22.1694 12.3302 21.1048C12.3302 20.0519 11.4879 19.2096 10.435 19.2096C9.37045 19.2096 8.52816 20.0519 8.52816 21.1048C8.52816 22.1694 9.37045 23 10.435 23ZM21.3731 23C22.4376 23 23.2799 22.1694 23.2799 21.1048C23.2799 20.0519 22.4376 19.2096 21.3731 19.2096C20.3202 19.2096 19.4662 20.0519 19.4662 21.1048C19.4662 22.1694 20.3202 23 21.3731 23Z" fill="#0C695E"/>
</svg>
