<svg width="64" height="64" viewBox="0 0 64 64" fill="none" xmlns="http://www.w3.org/2000/svg">
<path d="M24.0079 30.4626C22.29 29.4664 20.7743 28.1567 19.5394 26.6016C18.2776 29.6568 18.1604 33.0648 19.2095 36.1995C20.2585 39.3342 22.4033 41.9852 25.2499 43.6656C26.7852 44.5624 28.4835 45.1448 30.2461 45.379C32.0086 45.6132 33.8001 45.4944 35.5163 45.0295C37.2325 44.5647 38.8391 43.763 40.2425 42.6713C41.6459 41.5796 42.8181 40.2196 43.6909 38.6706C44.7291 36.8501 45.3381 34.8166 45.4715 32.7251C45.6048 30.6335 45.259 28.5392 44.4604 26.6016C42.0895 29.6027 38.7142 31.6461 34.9559 32.3556C31.1977 33.065 27.3097 32.3928 24.0079 30.4626Z" fill="#EF7632"/>
<path d="M21.8616 52.1813C23.3528 52.1813 24.5616 50.9724 24.5616 49.4813C24.5616 47.9901 23.3528 46.7812 21.8616 46.7812C20.3705 46.7812 19.1616 47.9901 19.1616 49.4813C19.1616 50.9724 20.3705 52.1813 21.8616 52.1813Z" fill="#799B8B"/>
<path d="M51.9126 40.7493C52.1496 41.1597 52.2743 41.6253 52.2743 42.0993C52.2743 42.5732 52.1496 43.0388 51.9126 43.4493C49.9025 46.9524 47.0034 49.8631 43.5083 51.8872C40.0132 53.9113 36.0458 54.9772 32.0069 54.9772C27.9679 54.9772 24.0005 53.9113 20.5054 51.8872C17.0103 49.8631 14.1113 46.9524 12.1011 43.4493C11.9058 43.142 11.7746 42.7983 11.7155 42.439C11.6564 42.0797 11.6706 41.7121 11.7572 41.3584C11.8438 41.0047 12.0011 40.6722 12.2196 40.3809C12.4381 40.0896 12.7132 39.8454 13.0285 39.6632C13.3438 39.481 13.6926 39.3644 14.0541 39.3205C14.4156 39.2766 14.7822 39.3062 15.132 39.4077C15.4817 39.5092 15.8073 39.6803 16.0891 39.9109C16.371 40.1414 16.6033 40.4266 16.7721 40.7493C18.3085 43.431 20.5258 45.6594 23.1997 47.2092C25.8737 48.759 28.9095 49.5751 32.0001 49.5751C35.0907 49.5751 38.1265 48.759 40.8005 47.2092C43.4745 45.6594 45.6918 43.431 47.2281 40.7493C47.5865 40.134 48.1735 39.6852 48.8613 39.5006C49.549 39.3161 50.2818 39.4106 50.9001 39.7638C51.3232 39.991 51.674 40.3325 51.9126 40.7493Z" fill="#E16E2C"/>
<path d="M42.8 17.1508C41.3088 17.1508 40.1 18.3596 40.1 19.8508C40.1 21.3419 41.3088 22.5508 42.8 22.5508C44.2912 22.5508 45.5 21.342 45.5 19.8508C45.5 18.3596 44.2912 17.1508 42.8 17.1508Z" fill="#F53F4A"/>
<path d="M35.2721 24.4444C34.2101 25.4913 34.1979 27.2008 35.2448 28.2627C36.2916 29.3246 38.0011 29.3369 39.063 28.29C40.125 27.2432 40.1372 25.5337 39.0904 24.4717C38.0435 23.4098 36.334 23.3976 35.2721 24.4444Z" fill="#FF9933"/>
<path d="M24.4723 24.4444C23.4103 25.4913 23.3981 27.2008 24.445 28.2627C25.4918 29.3246 27.2013 29.3369 28.2632 28.29C29.3252 27.2432 29.3374 25.5337 28.2906 24.4717C27.2437 23.4098 25.5342 23.3976 24.4723 24.4444Z" fill="#F53F4A"/>
<path d="M32 16.9164C30.5088 16.9164 29.3 18.1252 29.3 19.6164C29.3 21.1076 30.5088 22.3164 32 22.3164C33.4911 22.3164 34.7 21.1076 34.7 19.6164C34.7 18.1252 33.4911 16.9164 32 16.9164Z" fill="#309565"/>
<path d="M27.9499 9.04922C26.4587 9.04922 25.2499 10.258 25.2499 11.7492C25.2499 13.2404 26.4587 14.4492 27.9499 14.4492C29.4411 14.4492 30.6499 13.2404 30.6499 11.7492C30.6499 10.258 29.4411 9.04922 27.9499 9.04922Z" fill="#F53F4A"/>
<path d="M36.05 9.04922C34.5588 9.04922 33.35 10.258 33.35 11.7492C33.35 13.2404 34.5588 14.4492 36.05 14.4492C37.5412 14.4492 38.75 13.2404 38.75 11.7492C38.75 10.258 37.5412 9.04922 36.05 9.04922Z" fill="#309565"/>
<path d="M21.1999 17.1508C19.7087 17.1508 18.4999 18.3596 18.4999 19.8508C18.4999 21.342 19.7087 22.5508 21.1999 22.5508C22.6911 22.5508 23.8999 21.342 23.8999 19.8508C23.8999 18.3596 22.6911 17.1508 21.1999 17.1508Z" fill="#FF9933"/>
<path d="M38.3598 13.1376L34.3008 21.0539L29.5232 18.5328L33.6324 10.5156L38.3598 13.1376Z" fill="#309565"/>
</svg>
