<svg width="66" height="59" viewBox="0 0 66 59" fill="none" xmlns="http://www.w3.org/2000/svg">
<rect width="66" height="59" fill="white"/>
<path d="M52.1448 50.2769L51.7827 50.6218L52.1448 50.2769ZM56.7525 53.2848L56.9225 52.8146L56.7525 53.2848ZM29.8757 19.6315L29.6525 19.1841L29.8757 19.6315ZM36.1243 19.6315L35.9012 20.0789L36.1243 19.6315ZM9.24752 53.2848L9.07748 52.8146L9.24752 53.2848ZM13.8552 50.2769L13.4932 49.9321L13.8552 50.2769ZM0.466574 53.5H0V54.5H0.466574V53.5ZM18.5012 42.7273L23.2045 32.0272L22.2891 31.6248L17.5857 42.3249L18.5012 42.7273ZM42.7955 32.0272L47.4988 42.7273L48.4143 42.3249L43.7109 31.6248L42.7955 32.0272ZM65.5334 54.5H66V53.5H65.5334V54.5ZM47.4988 42.7273C49.3084 46.8442 50.2572 49.0204 51.7827 50.6218L52.5068 49.9321C51.1311 48.488 50.2548 46.5121 48.4143 42.3249L47.4988 42.7273ZM65.5334 53.5C60.9596 53.5 58.7981 53.4929 56.9225 52.8146L56.5824 53.755C58.6624 54.5071 61.0364 54.5 65.5334 54.5V53.5ZM51.7827 50.6218C53.1184 52.0239 54.7615 53.0965 56.5824 53.755L56.9225 52.8146C55.2472 52.2087 53.7356 51.222 52.5068 49.9321L51.7827 50.6218ZM23.2045 32.0272C24.8297 28.3299 26.0353 25.5885 27.1156 23.6275C28.2024 21.6548 29.1122 20.571 30.0988 20.0789L29.6525 19.1841C28.3738 19.8218 27.3404 21.147 26.2397 23.145C25.1325 25.1547 23.9063 27.9457 22.2891 31.6248L23.2045 32.0272ZM43.7109 31.6248C42.0937 27.9457 40.8675 25.1547 39.7603 23.145C38.6596 21.1471 37.6262 19.8218 36.3475 19.1841L35.9012 20.0789C36.8878 20.571 37.7976 21.6548 38.8844 23.6275C39.9647 25.5885 41.1703 28.3299 42.7955 32.0272L43.7109 31.6248ZM30.0988 20.0789C31.9256 19.1678 34.0744 19.1678 35.9012 20.0789L36.3475 19.1841C34.2397 18.1327 31.7603 18.1327 29.6525 19.1841L30.0988 20.0789ZM0.466574 54.5C4.96361 54.5 7.3376 54.5071 9.41755 53.755L9.07748 52.8146C7.20188 53.4929 5.04043 53.5 0.466574 53.5V54.5ZM17.5857 42.3249C15.7452 46.5121 14.8689 48.488 13.4932 49.9321L14.2173 50.6218C15.7428 49.0204 16.6916 46.8442 18.5012 42.7273L17.5857 42.3249ZM9.41755 53.755C11.2385 53.0965 12.8816 52.0239 14.2173 50.6218L13.4932 49.9321C12.2644 51.222 10.7528 52.2087 9.07748 52.8146L9.41755 53.755Z" fill="#FDD8FB"/>
</svg>
