<svg width="40" height="40" viewBox="0 0 40 40" fill="none" xmlns="http://www.w3.org/2000/svg">
<rect width="40" height="40" fill="white"/>
<path d="M12.998 26.2325H14.1012V13.7695H12.998V26.2325ZM15.4802 26.2325H17.5486V13.7695H15.4802V26.2325ZM18.4679 26.2325H19.7703V13.7695H18.4679V26.2325ZM20.9347 26.2325H22.9419V13.7695H20.9347V26.2325ZM23.7692 26.2325H25.378V13.7695H23.7692V26.2325ZM25.9603 26.2325H26.9868V13.7695H25.9603V26.2325Z" fill="#0C695E"/>
<path d="M37.7592 10.7496C38.5712 10.7496 39.0003 10.2897 39.0003 9.49259V5.73684C39.0003 2.57895 37.3915 1 34.1892 1H30.4354C29.6387 1 29.1943 1.42923 29.1943 2.22637C29.1943 3.02351 29.6387 3.46806 30.4354 3.46806H34.1433C35.6601 3.46806 36.5335 4.28053 36.5335 5.87481V9.49259C36.5335 10.2897 36.9778 10.7496 37.7592 10.7496Z" fill="#0C695E"/>
<path d="M10.7455 2.23983C10.7455 1.42777 10.2858 0.998764 9.48898 0.998764L5.73483 0.998764C2.57828 0.998764 1 2.60755 1 5.8098L1 9.56363C1 10.3604 1.42905 10.8047 2.22585 10.8047C3.02265 10.8047 3.46701 10.3604 3.46701 9.56363L3.46701 5.85576C3.46701 4.33891 4.27914 3.46557 5.87274 3.46557L9.48898 3.46557C10.2858 3.46557 10.7455 3.02124 10.7455 2.23983Z" fill="#0C695E"/>
<path d="M2.2408 29.2504C1.42875 29.2504 0.99974 29.7103 0.99974 30.5074L0.99974 34.2632C0.99974 37.4211 2.60852 39 5.81077 39L9.5646 39C10.3613 39 10.8057 38.5708 10.8057 37.7736C10.8057 36.9765 10.3613 36.5319 9.5646 36.5319L5.85674 36.5319C4.33988 36.5319 3.46654 35.7195 3.46654 34.1252L3.46654 30.5074C3.46654 29.7103 3.02221 29.2504 2.2408 29.2504Z" fill="#0C695E"/>
<path d="M29.2504 37.7602C29.2504 38.5722 29.7103 39.0012 30.5074 39.0012L34.2632 39.0012C37.4211 39.0012 39 37.3925 39 34.1902L39 30.4364C39 29.6396 38.5708 29.1953 37.7736 29.1953C36.9765 29.1953 36.5319 29.6396 36.5319 30.4364L36.5319 34.1442C36.5319 35.6611 35.7195 36.5344 34.1252 36.5344L30.5074 36.5344C29.7103 36.5344 29.2504 36.9788 29.2504 37.7602Z" fill="#0C695E"/>
</svg>
