<svg width="20" height="13" viewBox="0 0 20 13" fill="none" xmlns="http://www.w3.org/2000/svg">
<path d="M13.249 4.22216C13.5866 4.22216 13.891 4.14192 14.1621 3.98144C14.4388 3.81543 14.6574 3.59684 14.8179 3.32568C14.9839 3.04899 15.0669 2.74463 15.0669 2.41259C15.0669 2.07503 14.9839 1.77067 14.8179 1.49951C14.6574 1.22282 14.4388 1.00423 14.1621 0.843746C13.891 0.677731 13.5866 0.594723 13.249 0.594723C12.917 0.594723 12.6126 0.677731 12.3359 0.843746C12.0592 1.00423 11.8407 1.22282 11.6802 1.49951C11.5197 1.77067 11.4395 2.07503 11.4395 2.41259C11.4395 2.74463 11.5197 3.04899 11.6802 3.32568C11.8407 3.59684 12.0592 3.81543 12.3359 3.98144C12.6126 4.14192 12.917 4.22216 13.249 4.22216ZM9.93701 7.58398C10.3078 7.58398 10.6204 7.53694 10.875 7.44287C11.1351 7.34879 11.373 7.23258 11.5889 7.09423C11.8102 6.95035 12.0399 6.81201 12.2778 6.6792C12.5158 6.54085 12.798 6.43017 13.1245 6.34716L7.37207 0.362301C7.18392 0.168616 6.96256 0.0607059 6.70801 0.0385705C6.45898 0.0164351 6.2238 0.0856083 6.00244 0.24609L2.74854 2.56201C2.46631 2.76123 2.32243 2.99088 2.31689 3.25097C2.31689 3.51106 2.3999 3.72688 2.56592 3.89843C2.69873 4.04785 2.87581 4.14192 3.09717 4.18066C3.32406 4.2194 3.55371 4.15576 3.78613 3.98974L6.42578 2.12207L7.91992 3.65771C8.00293 3.74625 8.0472 3.84863 8.05273 3.96484C8.0638 4.08105 8.0057 4.18343 7.87842 4.27197L4.80713 6.28906C4.98421 6.27246 5.1696 6.26139 5.36328 6.25586C5.55697 6.25032 5.76449 6.25309 5.98584 6.26416C6.45622 6.28076 6.84912 6.35823 7.16455 6.49658C7.47998 6.63492 7.76774 6.78987 8.02783 6.96142C8.28792 7.12744 8.56462 7.27408 8.85791 7.40136C9.1512 7.52311 9.51091 7.58398 9.93701 7.58398ZM0.582031 9.77539H1.42041C1.9738 9.77539 2.43587 9.70898 2.80664 9.57617C3.18294 9.43782 3.51497 9.28011 3.80273 9.10302C4.09603 8.92041 4.38656 8.75992 4.67432 8.62158C4.96208 8.48323 5.29688 8.41406 5.67871 8.41406C6.06608 8.41406 6.40365 8.48323 6.69141 8.62158C6.97917 8.75992 7.26693 8.92041 7.55469 9.10302C7.84245 9.28011 8.17171 9.43782 8.54248 9.57617C8.91878 9.70898 9.38363 9.77539 9.93701 9.77539C10.4959 9.77539 10.9608 9.70898 11.3315 9.57617C11.7078 9.43782 12.0399 9.28011 12.3276 9.10302C12.6154 8.92041 12.9032 8.75992 13.1909 8.62158C13.4787 8.48323 13.8162 8.41406 14.2036 8.41406C14.5854 8.41406 14.9202 8.48323 15.208 8.62158C15.4958 8.75992 15.7835 8.92041 16.0713 9.10302C16.359 9.28011 16.6883 9.43782 17.0591 9.57617C17.4354 9.70898 17.903 9.77539 18.4619 9.77539H19.3003C19.4331 9.77539 19.5438 9.73112 19.6323 9.64257C19.7209 9.55403 19.7651 9.44612 19.7651 9.31884C19.7651 9.19157 19.7209 9.08366 19.6323 8.99511C19.5438 8.90104 19.4331 8.854 19.3003 8.854H18.4619C18.0635 8.854 17.7148 8.78759 17.416 8.65478C17.1172 8.51643 16.8211 8.35872 16.5278 8.18164C16.2401 7.99902 15.9136 7.83854 15.5483 7.70019C15.1831 7.56185 14.7349 7.49267 14.2036 7.49267C13.6668 7.49267 13.2158 7.56185 12.8506 7.70019C12.4854 7.83854 12.1561 7.99902 11.8628 8.18164C11.575 8.35872 11.2817 8.51643 10.9829 8.65478C10.6841 8.78759 10.3354 8.854 9.93701 8.854C9.53857 8.854 9.18994 8.78759 8.89111 8.65478C8.59229 8.51643 8.29622 8.35872 8.00293 8.18164C7.71517 7.99902 7.38867 7.83854 7.02344 7.70019C6.6582 7.56185 6.20996 7.49267 5.67871 7.49267C5.14746 7.49267 4.69922 7.56185 4.33398 7.70019C3.96875 7.83854 3.63949 7.99902 3.34619 8.18164C3.05843 8.35872 2.76514 8.51643 2.46631 8.65478C2.16748 8.78759 1.81885 8.854 1.42041 8.854H0.582031C0.449219 8.854 0.338542 8.90104 0.25 8.99511C0.161458 9.08366 0.117188 9.19157 0.117188 9.31884C0.117188 9.44612 0.161458 9.55403 0.25 9.64257C0.338542 9.73112 0.449219 9.77539 0.582031 9.77539ZM0.797852 12.083C0.936198 12.083 1.05241 12.036 1.14648 11.9419C1.24056 11.8478 1.2876 11.7344 1.2876 11.6016C1.2876 11.4632 1.24056 11.347 1.14648 11.2529C1.05241 11.1589 0.936198 11.1118 0.797852 11.1118C0.665039 11.1118 0.551595 11.1589 0.45752 11.2529C0.363444 11.347 0.316406 11.4632 0.316406 11.6016C0.316406 11.7344 0.363444 11.8478 0.45752 11.9419C0.551595 12.036 0.665039 12.083 0.797852 12.083ZM2.3584 11.8008C2.49121 11.8008 2.60466 11.7565 2.69873 11.668C2.79281 11.5739 2.83984 11.4577 2.83984 11.3193C2.83984 11.1865 2.79281 11.0731 2.69873 10.979C2.60466 10.8849 2.49121 10.8379 2.3584 10.8379C2.22005 10.8379 2.10384 10.8849 2.00977 10.979C1.91569 11.0731 1.86865 11.1865 1.86865 11.3193C1.86865 11.4577 1.91569 11.5739 2.00977 11.668C2.10384 11.7565 2.22005 11.8008 2.3584 11.8008ZM3.81104 11.1201C3.94938 11.1201 4.06559 11.0731 4.15967 10.979C4.25374 10.8849 4.30078 10.7687 4.30078 10.6304C4.30078 10.4976 4.25374 10.3841 4.15967 10.29C4.06559 10.196 3.94938 10.1489 3.81104 10.1489C3.67822 10.1489 3.56478 10.196 3.4707 10.29C3.37663 10.3841 3.32959 10.4976 3.32959 10.6304C3.32959 10.7687 3.37663 10.8849 3.4707 10.979C3.56478 11.0731 3.67822 11.1201 3.81104 11.1201ZM5.37988 10.7466C5.51823 10.7466 5.63444 10.6995 5.72852 10.6055C5.82259 10.5114 5.86963 10.3979 5.86963 10.2651C5.86963 10.1268 5.82259 10.0106 5.72852 9.9165C5.63444 9.82242 5.51823 9.77539 5.37988 9.77539C5.24707 9.77539 5.13363 9.82242 5.03955 9.9165C4.94548 10.0106 4.89844 10.1268 4.89844 10.2651C4.89844 10.3979 4.94548 10.5114 5.03955 10.6055C5.13363 10.6995 5.24707 10.7466 5.37988 10.7466ZM6.94873 11.1201C7.08154 11.1201 7.19499 11.0731 7.28906 10.979C7.38314 10.8849 7.43018 10.7687 7.43018 10.6304C7.43018 10.4976 7.38314 10.3841 7.28906 10.29C7.19499 10.196 7.08154 10.1489 6.94873 10.1489C6.81038 10.1489 6.69417 10.196 6.6001 10.29C6.51156 10.3841 6.46729 10.4976 6.46729 10.6304C6.46729 10.7687 6.51156 10.8849 6.6001 10.979C6.69417 11.0731 6.81038 11.1201 6.94873 11.1201ZM8.41797 11.8008C8.55632 11.8008 8.67253 11.7565 8.7666 11.668C8.86068 11.5739 8.90771 11.4577 8.90771 11.3193C8.90771 11.1865 8.86068 11.0731 8.7666 10.979C8.67253 10.8849 8.55632 10.8379 8.41797 10.8379C8.28516 10.8379 8.17171 10.8849 8.07764 10.979C7.98356 11.0731 7.93652 11.1865 7.93652 11.3193C7.93652 11.4577 7.98356 11.5739 8.07764 11.668C8.17171 11.7565 8.28516 11.8008 8.41797 11.8008ZM9.95361 12.083C10.0864 12.083 10.1999 12.036 10.2939 11.9419C10.388 11.8478 10.4351 11.7344 10.4351 11.6016C10.4351 11.4632 10.388 11.347 10.2939 11.2529C10.1999 11.1589 10.0864 11.1118 9.95361 11.1118C9.81527 11.1118 9.69906 11.1589 9.60498 11.2529C9.51091 11.347 9.46387 11.4632 9.46387 11.6016C9.46387 11.7344 9.51091 11.8478 9.60498 11.9419C9.69906 12.036 9.81527 12.083 9.95361 12.083ZM11.481 11.8008C11.6193 11.8008 11.7327 11.7565 11.8213 11.668C11.9154 11.5739 11.9624 11.4577 11.9624 11.3193C11.9624 11.1865 11.9154 11.0731 11.8213 10.979C11.7327 10.8849 11.6193 10.8379 11.481 10.8379C11.3481 10.8379 11.2347 10.8849 11.1406 10.979C11.0465 11.0731 10.9995 11.1865 10.9995 11.3193C10.9995 11.4577 11.0465 11.5739 11.1406 11.668C11.2347 11.7565 11.3481 11.8008 11.481 11.8008ZM12.9502 11.1201C13.0885 11.1201 13.2048 11.0731 13.2988 10.979C13.3929 10.8849 13.4399 10.7687 13.4399 10.6304C13.4399 10.4976 13.3929 10.3841 13.2988 10.29C13.2048 10.196 13.0885 10.1489 12.9502 10.1489C12.8174 10.1489 12.7039 10.196 12.6099 10.29C12.5158 10.3841 12.4688 10.4976 12.4688 10.6304C12.4688 10.7687 12.5158 10.8849 12.6099 10.979C12.7039 11.0731 12.8174 11.1201 12.9502 11.1201ZM14.519 10.7466C14.6574 10.7466 14.7708 10.6995 14.8594 10.6055C14.9535 10.5114 15.0005 10.3979 15.0005 10.2651C15.0005 10.1268 14.9535 10.0106 14.8594 9.9165C14.7708 9.82242 14.6574 9.77539 14.519 9.77539C14.3862 9.77539 14.2728 9.82242 14.1787 9.9165C14.0846 10.0106 14.0376 10.1268 14.0376 10.2651C14.0376 10.3979 14.0846 10.5114 14.1787 10.6055C14.2728 10.6995 14.3862 10.7466 14.519 10.7466ZM16.0879 11.1201C16.2262 11.1201 16.3397 11.0731 16.4282 10.979C16.5223 10.8849 16.5693 10.7687 16.5693 10.6304C16.5693 10.4976 16.5223 10.3841 16.4282 10.29C16.3397 10.196 16.2262 10.1489 16.0879 10.1489C15.9551 10.1489 15.8416 10.196 15.7476 10.29C15.6535 10.3841 15.6064 10.4976 15.6064 10.6304C15.6064 10.7687 15.6535 10.8849 15.7476 10.979C15.8416 11.0731 15.9551 11.1201 16.0879 11.1201ZM17.5488 11.8008C17.6816 11.8008 17.7951 11.7565 17.8892 11.668C17.9832 11.5739 18.0303 11.4577 18.0303 11.3193C18.0303 11.1865 17.9832 11.0731 17.8892 10.979C17.7951 10.8849 17.6816 10.8379 17.5488 10.8379C17.4105 10.8379 17.2943 10.8849 17.2002 10.979C17.1117 11.0731 17.0674 11.1865 17.0674 11.3193C17.0674 11.4577 17.1117 11.5739 17.2002 11.668C17.2943 11.7565 17.4105 11.8008 17.5488 11.8008ZM19.0928 12.083C19.2311 12.083 19.3473 12.036 19.4414 11.9419C19.5355 11.8478 19.5825 11.7344 19.5825 11.6016C19.5825 11.4632 19.5355 11.347 19.4414 11.2529C19.3473 11.1589 19.2311 11.1118 19.0928 11.1118C18.96 11.1118 18.8465 11.1589 18.7524 11.2529C18.6584 11.347 18.6113 11.4632 18.6113 11.6016C18.6113 11.7344 18.6584 11.8478 18.7524 11.9419C18.8465 12.036 18.96 12.083 19.0928 12.083Z" fill="black"/>
</svg>
