<svg width="64" height="64" viewBox="0 0 64 64" fill="none" xmlns="http://www.w3.org/2000/svg">
<path d="M36.7636 27.5164V22.7646C36.7636 19.9416 34.9177 18 32.4153 18C29.9004 18 28.0545 19.9416 28.0545 22.7646V31.3613C28.0545 34.1971 29.9004 36.1259 32.4153 36.1259C32.8736 36.1259 33.2825 36.062 33.6789 35.9343C33.555 35.3595 33.4807 34.7719 33.4807 34.1588C33.4807 31.4507 34.7815 29.0109 36.7636 27.5164ZM41.6323 40.7372C45.0887 40.7372 48 37.7482 48 34.1588C48 30.5566 45.1259 27.5931 41.6323 27.5931C38.1388 27.5931 35.2522 30.5566 35.2522 34.1588C35.2522 37.7737 38.1388 40.7372 41.6323 40.7372ZM26.7289 46H38.0892C38.7334 46 39.2661 45.4635 39.2661 44.812C39.2661 44.1478 38.7334 43.6113 38.0892 43.6113H33.5426V40.9927C34.5213 40.8905 35.4381 40.6606 36.2805 40.3285C35.6487 39.8303 35.1036 39.2044 34.6824 38.4635C33.9886 38.6807 33.2329 38.7828 32.4153 38.7828C28.1908 38.7828 25.3414 35.9088 25.3414 31.5657V29.1259C25.3414 28.4617 24.8087 27.938 24.1645 27.938C23.5203 27.938 23 28.4617 23 29.1259V31.6551C23 36.9051 26.3944 40.5073 31.2755 40.9927V43.6113H26.7289C26.0847 43.6113 25.552 44.1478 25.552 44.812C25.552 45.4635 26.0847 46 26.7289 46ZM41.6323 38.3358C41.112 38.3358 40.7775 37.9781 40.7775 37.4672V35.0401H38.4361C37.9281 35.0401 37.5937 34.6953 37.5937 34.1588C37.5813 33.635 37.9281 33.2901 38.4361 33.2901H40.7775V30.8759C40.7775 30.365 41.112 30.0073 41.6323 30.0073C42.1402 30.0073 42.4747 30.3522 42.4747 30.8759V33.2901H44.8162C45.3241 33.2901 45.6586 33.635 45.6586 34.1588C45.6586 34.6953 45.3241 35.0401 44.8162 35.0401H42.4747V37.4672C42.4747 37.9781 42.1402 38.3358 41.6323 38.3358Z" fill="white"/>
</svg>
