<svg width="40" height="40" viewBox="0 0 40 40" fill="none" xmlns="http://www.w3.org/2000/svg">
<path d="M19.9932 24.2455C20.5746 24.2455 21.0749 23.751 21.0749 23.1741V9.06823L20.9938 7.00798L21.8997 7.98316L23.9549 10.2082C24.1442 10.428 24.4146 10.5379 24.6851 10.5379C25.2394 10.5379 25.6721 10.1258 25.6721 9.56269C25.6721 9.27426 25.5504 9.0545 25.3476 8.84847L20.7775 4.37085C20.507 4.09615 20.2772 4 19.9932 4C19.7228 4 19.493 4.09615 19.209 4.37085L14.6389 8.84847C14.4361 9.0545 14.3279 9.27426 14.3279 9.56269C14.3279 10.1258 14.7335 10.5379 15.3014 10.5379C15.5583 10.5379 15.8558 10.428 16.0451 10.2082L18.0868 7.98316L19.0062 7.00798L18.9251 9.06823V23.1741C18.9251 23.751 19.4118 24.2455 19.9932 24.2455ZM12.2456 35H27.7544C30.5803 35 32 33.5716 32 30.7421V17.0346C32 14.2051 30.5803 12.7767 27.7544 12.7767H23.982V14.988H27.7138C29.0524 14.988 29.8231 15.7297 29.8231 17.1582V30.6185C29.8231 32.047 29.0524 32.7887 27.7138 32.7887H12.2727C10.9206 32.7887 10.1769 32.047 10.1769 30.6185V17.1582C10.1769 15.7297 10.9206 14.988 12.2727 14.988H16.018V12.7767H12.2456C9.41972 12.7767 8 14.2051 8 17.0346V30.7421C8 33.5716 9.41972 35 12.2456 35Z" fill="#F0A56F"/>
</svg>
