<svg width="40" height="40" viewBox="0 0 40 40" fill="none" xmlns="http://www.w3.org/2000/svg">
<path d="M12.5 9.03906C13.6046 9.03906 14.5 8.14363 14.5 7.03906C14.5 5.93449 13.6046 5.03906 12.5 5.03906C11.3954 5.03906 10.5 5.93449 10.5 7.03906C10.5 8.14363 11.3954 9.03906 12.5 9.03906Z" fill="#799B8B"/>
<path d="M8.42549 13.9633C9.20695 13.1827 9.20761 11.9163 8.42697 11.1349C7.64633 10.3534 6.38 10.3528 5.59855 11.1334C4.81709 11.914 4.81643 13.1804 5.59707 13.9618C6.37771 14.7433 7.64404 14.7439 8.42549 13.9633Z" fill="#799B8B"/>
<path d="M5 22.0312C6.10457 22.0312 7 21.1358 7 20.0312C7 18.9267 6.10457 18.0312 5 18.0312C3.89543 18.0312 3 18.9267 3 20.0312C3 21.1358 3.89543 22.0312 5 22.0312Z" fill="#799B8B"/>
<path d="M7 29.5195C8.10457 29.5195 9 28.6241 9 27.5195C9 26.415 8.10457 25.5195 7 25.5195C5.89543 25.5195 5 26.415 5 27.5195C5 28.6241 5.89543 29.5195 7 29.5195Z" fill="#799B8B"/>
<path d="M12.4902 35C13.5948 35 14.4902 34.1046 14.4902 33C14.4902 31.8954 13.5948 31 12.4902 31C11.3857 31 10.4902 31.8954 10.4902 33C10.4902 34.1046 11.3857 35 12.4902 35Z" fill="#799B8B"/>
<path d="M19.9805 37.0117C21.085 37.0117 21.9805 36.1163 21.9805 35.0117C21.9805 33.9071 21.085 33.0117 19.9805 33.0117C18.8759 33.0117 17.9805 33.9071 17.9805 35.0117C17.9805 36.1163 18.8759 37.0117 19.9805 37.0117Z" fill="#799B8B"/>
<path d="M27.4707 35C28.5753 35 29.4707 34.1046 29.4707 33C29.4707 31.8954 28.5753 31 27.4707 31C26.3661 31 25.4707 31.8954 25.4707 33C25.4707 34.1046 26.3661 35 27.4707 35Z" fill="#799B8B"/>
<path d="M32.9805 29.4688C34.085 29.4688 34.9805 28.5733 34.9805 27.4688C34.9805 26.3642 34.085 25.4688 32.9805 25.4688C31.8759 25.4688 30.9805 26.3642 30.9805 27.4688C30.9805 28.5733 31.8759 29.4688 32.9805 29.4688Z" fill="#799B8B"/>
<path d="M34.9707 21.9805C36.0753 21.9805 36.9707 21.085 36.9707 19.9805C36.9707 18.8759 36.0753 17.9805 34.9707 17.9805C33.8661 17.9805 32.9707 18.8759 32.9707 19.9805C32.9707 21.085 33.8661 21.9805 34.9707 21.9805Z" fill="#799B8B"/>
<path d="M32.9609 14.5C34.0655 14.5 34.9609 13.6046 34.9609 12.5C34.9609 11.3954 34.0655 10.5 32.9609 10.5C31.8564 10.5 30.9609 11.3954 30.9609 12.5C30.9609 13.6046 31.8564 14.5 32.9609 14.5Z" fill="#799B8B"/>
<path d="M27.4707 9.01953C28.5753 9.01953 29.4707 8.1241 29.4707 7.01953C29.4707 5.91496 28.5753 5.01953 27.4707 5.01953C26.3661 5.01953 25.4707 5.91496 25.4707 7.01953C25.4707 8.1241 26.3661 9.01953 27.4707 9.01953Z" fill="#799B8B"/>
<path d="M19.9805 7.03125C21.085 7.03125 21.9805 6.13582 21.9805 5.03125C21.9805 3.92668 21.085 3.03125 19.9805 3.03125C18.8759 3.03125 17.9805 3.92668 17.9805 5.03125C17.9805 6.13582 18.8759 7.03125 19.9805 7.03125Z" fill="#799B8B"/>
<path d="M20 30C25.5228 30 30 25.5228 30 20C30 14.4772 25.5228 10 20 10C14.4772 10 10 14.4772 10 20C10 25.5228 14.4772 30 20 30Z" fill="#799B8B"/>
</svg>
