<svg width="9" height="16" viewBox="0 0 9 16" fill="none" xmlns="http://www.w3.org/2000/svg">
<path d="M-1.39876e-06 8C-1.4525e-06 8.30734 0.115043 8.56949 0.353981 8.80452L7.25664 15.7017C7.44248 15.9006 7.69026 16 7.97345 16C8.54867 16 9 15.548 9 14.9514C9 14.6621 8.88495 14.4 8.69026 14.2011L2.46903 8L8.69027 1.79887C8.88496 1.59096 9 1.32882 9 1.03955C9 0.451979 8.54867 1.4947e-06 7.97345 1.39412e-06C7.69027 1.34461e-06 7.44248 0.0994363 7.25664 0.298306L0.353981 7.19548C0.115043 7.43051 0.00884821 7.69266 -1.39876e-06 8Z" fill="#0C695E"/>
</svg>
