<svg width="26" height="59" viewBox="0 0 26 59" fill="none" xmlns="http://www.w3.org/2000/svg">
<g clip-path="url(#clip0_767_98376)">
<rect width="26" height="59" fill="white"/>
<path d="M-40 54H-32.3181C-30.3386 54 -29.3489 54 -28.3868 53.8426C-27.5326 53.7029 -26.6961 53.4712 -25.8918 53.1516C-24.9858 52.7915 -24.1371 52.2823 -22.4398 51.2639L-16.8783 47.927C-13.2867 45.772 -11.4909 44.6945 -9.57386 44.2736C-7.87816 43.9012 -6.12184 43.9012 -4.42614 44.2736C-2.50908 44.6945 -0.713284 45.772 2.87832 47.927L8.43977 51.2639C10.1371 52.2823 10.9858 52.7915 11.8918 53.1516C12.6961 53.4712 13.5326 53.7029 14.3868 53.8426C15.3489 54 16.3386 54 18.3181 54H26" stroke="#FDD8FB"/>
</g>
<defs>
<clipPath id="clip0_767_98376">
<rect width="26" height="59" fill="white"/>
</clipPath>
</defs>
</svg>
