<svg width="16" height="22" viewBox="0 0 16 22" fill="none" xmlns="http://www.w3.org/2000/svg">
<path d="M6.39258 3.85156C6.71908 3.85156 7.02067 3.77132 7.29736 3.61084C7.57406 3.44482 7.79264 3.22624 7.95312 2.95508C8.11914 2.67839 8.20215 2.37402 8.20215 2.04199C8.20215 1.70996 8.11914 1.4056 7.95312 1.12891C7.79264 0.852214 7.57406 0.633626 7.29736 0.473145C7.02067 0.307129 6.71908 0.224121 6.39258 0.224121C6.06055 0.224121 5.75619 0.307129 5.47949 0.473145C5.2028 0.633626 4.98145 0.852214 4.81543 1.12891C4.65495 1.4056 4.57471 1.70996 4.57471 2.04199C4.57471 2.37402 4.65495 2.67839 4.81543 2.95508C4.98145 3.22624 5.2028 3.44482 5.47949 3.61084C5.75619 3.77132 6.06055 3.85156 6.39258 3.85156ZM7.46338 17.4731C7.62386 17.5119 7.81478 17.4925 8.03613 17.415C8.26302 17.3431 8.4152 17.1743 8.49268 16.9087L9.69629 12.916C9.75716 12.7002 9.74333 12.4954 9.65479 12.3018C9.56624 12.1025 9.40576 11.9642 9.17334 11.8867L5.91113 10.7578L6.31787 7.97705C6.32894 7.89404 6.37321 7.84701 6.45068 7.83594C6.53369 7.81934 6.5918 7.84977 6.625 7.92725L7.32227 9.28027C7.47721 9.58464 7.72624 9.73682 8.06934 9.73682H11.4062C11.6331 9.73682 11.8296 9.65934 11.9956 9.50439C12.1616 9.34391 12.2446 9.14469 12.2446 8.90674C12.2446 8.67985 12.1616 8.48617 11.9956 8.32568C11.8296 8.15967 11.6331 8.07666 11.4062 8.07666H8.58398L7.49658 5.92676C7.3195 5.57812 7.07878 5.2876 6.77441 5.05518C6.47559 4.82275 6.13249 4.66781 5.74512 4.59033L5.28027 4.49902C4.85417 4.41602 4.4668 4.41325 4.11816 4.49072C3.77507 4.56266 3.4707 4.68164 3.20508 4.84766L0.507324 6.52441C0.391113 6.60189 0.297038 6.70426 0.225098 6.83154C0.153158 6.95882 0.117188 7.09717 0.117188 7.24658V10.5752C0.117188 10.8076 0.200195 11.0068 0.366211 11.1729C0.532227 11.3389 0.728678 11.4219 0.955566 11.4219C1.18245 11.4219 1.37891 11.3389 1.54492 11.1729C1.71094 11.0068 1.79395 10.8076 1.79395 10.5752V7.69482L2.95605 6.97266C3.01139 6.93945 3.0612 6.93945 3.10547 6.97266C3.15527 7.00033 3.17464 7.0446 3.16357 7.10547L2.78174 10.1851C2.7098 10.7772 2.78727 11.2697 3.01416 11.6626C3.24658 12.05 3.70036 12.3239 4.37549 12.4844L7.83691 13.2979L6.89893 16.4438C6.83252 16.6597 6.84359 16.8672 6.93213 17.0664C7.0262 17.2656 7.20329 17.4012 7.46338 17.4731ZM1.3374 20.478C1.48682 20.5776 1.67773 20.6164 1.91016 20.5942C2.14258 20.5721 2.3335 20.4504 2.48291 20.229L4.93994 16.5684C5.05062 16.3968 5.11979 16.2253 5.14746 16.0537L5.49609 13.605L4.19287 13.2979C4.09326 13.2757 3.99919 13.2508 3.91064 13.2231C3.8221 13.1899 3.73633 13.1595 3.65332 13.1318L3.479 15.7632L1.10498 19.3159C0.972168 19.5096 0.927897 19.7199 0.972168 19.9468C1.01644 20.1737 1.13818 20.3507 1.3374 20.478ZM4.64111 21.7812H7.31396C7.44678 21.7812 7.55745 21.7342 7.646 21.6401C7.74007 21.5516 7.78711 21.4409 7.78711 21.3081V19.7061H9.99512C10.1224 19.7061 10.2303 19.6618 10.3188 19.5732C10.4074 19.4847 10.4517 19.374 10.4517 19.2412V17.6309H12.6763C12.8035 17.6309 12.9115 17.5866 13 17.498C13.0885 17.4095 13.1328 17.3016 13.1328 17.1743V15.564H15.2578C15.3906 15.564 15.5013 15.5197 15.5898 15.4312C15.6839 15.3371 15.731 15.2264 15.731 15.0991C15.731 14.9718 15.6839 14.8639 15.5898 14.7754C15.5013 14.6813 15.3906 14.6343 15.2578 14.6343H12.6763C12.5435 14.6343 12.4328 14.6813 12.3442 14.7754C12.2612 14.8639 12.2197 14.9718 12.2197 15.0991V16.7095H9.99512C9.8623 16.7095 9.75163 16.7565 9.66309 16.8506C9.58008 16.9391 9.53857 17.047 9.53857 17.1743V18.7847H7.31396C7.19222 18.7847 7.08708 18.8289 6.99854 18.9175C6.90999 19.006 6.86572 19.1139 6.86572 19.2412V20.8599H4.64111C4.5083 20.8599 4.39762 20.9041 4.30908 20.9927C4.22607 21.0812 4.18457 21.1864 4.18457 21.3081C4.18457 21.4409 4.22607 21.5516 4.30908 21.6401C4.39762 21.7342 4.5083 21.7812 4.64111 21.7812Z" fill="black"/>
</svg>
