<svg width="40" height="40" viewBox="0 0 40 40" fill="none" xmlns="http://www.w3.org/2000/svg">
<g clip-path="url(#clip0_3022_113903)">
<path d="M7.10601 19.5951C7.11391 18.4905 6.22491 17.5887 5.12037 17.5808C4.01583 17.5729 3.11401 18.4619 3.10611 19.5665C3.0982 20.671 3.9872 21.5728 5.09175 21.5807C6.19629 21.5886 7.0981 20.6996 7.10601 19.5951Z" fill="#71E2C5"/>
<path d="M9.16069 12.1224C9.1686 11.0179 8.2796 10.1161 7.17506 10.1082C6.07052 10.1003 5.1687 10.9893 5.1608 12.0938C5.15289 13.1983 6.04189 14.1002 7.14643 14.1081C8.25097 14.116 9.15279 13.227 9.16069 12.1224Z" fill="#71E2C5"/>
<path d="M14.7007 6.68102C14.7086 5.57648 13.8196 4.67466 12.7151 4.66676C11.6106 4.65885 10.7087 5.54785 10.7008 6.6524C10.6929 7.75694 11.5819 8.65875 12.6865 8.66666C13.791 8.67456 14.6928 7.78556 14.7007 6.68102Z" fill="#71E2C5"/>
<path d="M19.7769 12.6849C19.7848 11.5804 18.8958 10.6786 17.7913 10.6707C16.6867 10.6628 15.7849 11.5518 15.777 12.6563C15.7691 13.7608 16.6581 14.6627 17.7626 14.6706C18.8672 14.6785 19.769 13.7895 19.7769 12.6849Z" fill="#71E2C5"/>
<path d="M14.6197 17.6693C14.6276 16.5648 13.7386 15.6629 12.634 15.655C11.5295 15.6471 10.6277 16.5361 10.6198 17.6407C10.6119 18.7452 11.5009 19.647 12.6054 19.6549C13.71 19.6628 14.6118 18.7738 14.6197 17.6693Z" fill="#71E2C5"/>
<path d="M22.2046 4.72008C22.2125 3.61554 21.3235 2.71372 20.219 2.70582C19.1145 2.69792 18.2126 3.58692 18.2047 4.69146C18.1968 5.796 19.0858 6.69781 20.1904 6.70572C21.2949 6.71362 22.1967 5.82462 22.2046 4.72008Z" fill="#71E2C5"/>
<path d="M28.8 5.08086L28.6 5.00086L28.36 4.91086C27.9814 4.79287 27.5762 4.79013 27.1959 4.903C26.8157 5.01587 26.4776 5.23925 26.2247 5.54473C25.9717 5.85022 25.8153 6.22402 25.7753 6.61863C25.7353 7.01324 25.8135 7.41082 26 7.76086C26.2039 8.1143 26.5109 8.39694 26.88 8.57085C28.5467 9.62143 29.9528 11.0371 30.9921 12.7109C32.0314 14.3846 32.6766 16.2727 32.8791 18.2325C33.0815 20.1922 32.8359 22.1723 32.1608 24.0232C31.4857 25.8741 30.3987 27.5473 28.982 28.9164C27.5652 30.2856 25.8559 31.3148 23.983 31.9263C22.1101 32.5378 20.1228 32.7157 18.1711 32.4464C16.2194 32.1771 14.3545 31.4678 12.7172 30.3719C11.0799 29.2761 9.71308 27.8225 8.72004 26.1209C8.45482 25.6594 8.01715 25.3222 7.5033 25.1834C6.98945 25.0446 6.44151 25.1156 5.98004 25.3809C5.51856 25.6461 5.18134 26.0837 5.04257 26.5976C4.90379 27.1114 4.97482 27.6594 5.24004 28.1209C6.53164 30.3701 8.32076 32.2939 10.4704 33.7451C12.6201 35.1963 15.0734 36.1364 17.6424 36.4934C20.2113 36.8504 22.828 36.6148 25.2919 35.8047C27.7558 34.9946 30.0017 33.6315 31.8576 31.8197C33.7135 30.0079 35.1303 27.7954 35.9994 25.3517C36.8685 22.908 37.1669 20.2978 36.8718 17.721C36.5767 15.1441 35.6959 12.669 34.2969 10.485C32.8978 8.30106 31.0175 6.46618 28.8 5.12086V5.08086Z" fill="#71E2C5"/>
<path d="M24.08 12.5802C23.9765 12.9721 23.7947 13.3389 23.5455 13.6586C23.2963 13.9783 22.9849 14.2442 22.63 14.4402C22.8655 14.8011 23.0205 15.2086 23.0843 15.6348C23.1481 16.0611 23.1194 16.496 23 16.9102C22.818 17.6004 22.3958 18.2031 21.8093 18.61C21.2227 19.0169 20.5103 19.2013 19.8 19.1302C19.8284 19.4656 19.8014 19.8035 19.72 20.1302C19.5979 20.6099 19.3589 21.052 19.0243 21.4169C18.6898 21.7819 18.2702 22.0584 17.8028 22.2218C17.3355 22.3851 16.835 22.4303 16.3459 22.3532C15.8569 22.2762 15.3945 22.0793 15 21.7802C14.8536 22.1818 14.623 22.5475 14.3237 22.8527C14.0244 23.1579 13.6634 23.3957 13.2647 23.55C12.8661 23.7044 12.4391 23.7718 12.0123 23.7476C11.5855 23.7235 11.1688 23.6084 10.79 23.4102C11.409 24.938 12.3962 26.2891 13.6635 27.3433C14.9309 28.3975 16.4392 29.122 18.0543 29.4523C19.6693 29.7827 21.341 29.7086 22.9205 29.2368C24.5 28.765 25.9384 27.91 27.1076 26.7479C28.2768 25.5858 29.1406 24.1527 29.6222 22.5761C30.1037 20.9995 30.188 19.3284 29.8675 17.7113C29.5471 16.0943 28.8319 14.5815 27.7855 13.3077C26.7391 12.0339 25.3941 11.0385 23.87 10.4102C24.2156 11.0798 24.2907 11.8566 24.08 12.5802Z" fill="#71E2C5"/>
</g>
<defs>
<clipPath id="clip0_3022_113903">
<rect width="40" height="40" fill="white"/>
</clipPath>
</defs>
</svg>
