<svg width="16" height="20" viewBox="0 0 16 20" fill="none" xmlns="http://www.w3.org/2000/svg">
<path d="M7.77829 11.6338L9.77878 14.7715L11.2729 18.8887C11.3559 19.1156 11.4943 19.265 11.688 19.3369C11.8816 19.4144 12.0698 19.4199 12.2524 19.3535C12.4516 19.2871 12.5955 19.1543 12.684 18.9551C12.7726 18.7614 12.7809 18.5677 12.709 18.374L9.69577 10.0898V6.34619C9.69577 6.15804 9.77878 6.01969 9.94479 5.93115L15.0332 3.2168C15.2213 3.11719 15.3458 2.96777 15.4067 2.76855C15.4676 2.56934 15.4482 2.37288 15.3486 2.1792C15.249 1.99658 15.0996 1.87484 14.9004 1.81396C14.7011 1.75309 14.5075 1.77246 14.3193 1.87207L9.40524 4.47021C8.86846 4.75244 8.32614 4.89355 7.77829 4.89355C7.23043 4.89355 6.68812 4.75244 6.15133 4.47021L1.23727 1.87207C1.04912 1.77246 0.855435 1.75309 0.656216 1.81396C0.456998 1.87484 0.307584 1.99658 0.207974 2.1792C0.108365 2.37288 0.0889963 2.56934 0.149869 2.76855C0.210741 2.96777 0.335253 3.11719 0.523404 3.2168L5.61178 5.93115C5.7778 6.01969 5.86081 6.15804 5.86081 6.34619V10.0898L2.84762 18.374C2.77568 18.5677 2.78398 18.7614 2.87252 18.9551C2.96107 19.1543 3.10218 19.2871 3.29586 19.3535C3.48402 19.4199 3.67493 19.4144 3.86862 19.3369C4.0623 19.265 4.20065 19.1156 4.28366 18.8887L5.7778 14.7715L7.77829 11.6338ZM7.77829 4.03027C8.09925 4.03027 8.39254 3.95003 8.65817 3.78955C8.92933 3.62907 9.14238 3.41325 9.29733 3.14209C9.45781 2.87093 9.53805 2.5721 9.53805 2.24561C9.53805 1.91911 9.45781 1.62305 9.29733 1.35742C9.14238 1.0918 8.92933 0.878743 8.65817 0.718262C8.39254 0.55778 8.09925 0.477539 7.77829 0.477539C7.44626 0.477539 7.14466 0.55778 6.8735 0.718262C6.60788 0.878743 6.39482 1.0918 6.23434 1.35742C6.07386 1.62305 5.99362 1.91911 5.99362 2.24561C5.99362 2.5721 6.07386 2.87093 6.23434 3.14209C6.39482 3.41325 6.60788 3.62907 6.8735 3.78955C7.14466 3.95003 7.44626 4.03027 7.77829 4.03027Z" fill="black"/>
</svg>
