<svg width="64" height="64" viewBox="0 0 64 64" fill="none" xmlns="http://www.w3.org/2000/svg">
<g clip-path="url(#clip0_789_168561)">
<path d="M35.3467 15.7461C35.5904 15.6701 35.7999 15.5111 35.9387 15.2968C36.0775 15.0825 36.1369 14.8263 36.1067 14.5728V11.9995C36.0984 11.6213 36.007 11.2496 35.8387 10.9108C35.6705 10.5721 35.4296 10.2745 35.1333 10.0395C34.6898 9.65313 34.1216 9.44006 33.5333 9.43945H32V17.8661H34.9733L35.48 18.6395C35.68 18.9461 35.8933 19.2528 36.08 19.5595C37.3606 21.2353 38.15 23.2342 38.36 25.3328V35.0795C38.26 35.9974 38.0264 36.8957 37.6667 37.7461C37.2158 38.8496 36.9283 40.013 36.8133 41.1995C36.8593 42.7447 37.1426 44.2737 37.6533 45.7328C38.07 46.9268 38.3081 48.1759 38.36 49.4395C38.36 51.2661 37.6933 53.2261 36.5867 53.2395C35.9372 53.1168 35.3227 52.8528 34.7867 52.4661L33.9867 51.9861L33.2667 52.5861C32.9189 52.9251 32.4778 53.1526 32 53.2395V54.5728C32.7945 54.5003 33.5414 54.1621 34.12 53.6128C34.8653 54.122 35.719 54.4507 36.6133 54.5728C38.64 54.5728 39.6933 52.0261 39.6933 49.4528C39.6933 46.4128 38.16 44.3328 38.1467 41.2528C38.2267 39.2528 39.6667 37.0395 39.6933 35.1061V25.3328C39.4976 22.9918 38.6423 20.7542 37.2267 18.8795C36.5061 17.8943 35.8769 16.8455 35.3467 15.7461Z" fill="#87AFB2"/>
<path d="M33.3333 52.5609L34.0533 51.9609L34.8533 52.4409C35.3894 52.8275 36.0039 53.0915 36.6533 53.2142C37.76 53.2142 38.4267 51.2409 38.4267 49.4142C38.3747 48.1506 38.1366 46.9016 37.72 45.7075C37.2093 44.2484 36.926 42.7194 36.88 41.1742C36.995 39.9877 37.2824 38.8243 37.7333 37.7209C38.0931 36.8705 38.3267 35.9721 38.4267 35.0542V25.3342C38.2143 23.2402 37.425 21.2462 36.1467 19.5742C35.96 19.2675 35.7467 18.9609 35.5467 18.6542L35.04 17.8809H32V53.2142C32.5015 53.1402 32.9676 52.9119 33.3333 52.5609Z" fill="#2EB7E2"/>
<path d="M32 53.2131C31.68 53.2131 31.36 53.0131 30.76 52.5598L30 51.9998L29.2266 52.4398C28.6647 52.8373 28.0153 53.0934 27.3333 53.1865C26.4133 53.1865 25.64 51.4531 25.64 49.3998C25.724 48.2164 25.9524 47.0478 26.32 45.9198C26.8205 44.3974 27.1121 42.814 27.1866 41.2131C27.1108 40.0332 26.8358 38.8746 26.3733 37.7865C25.9861 36.9011 25.7387 35.961 25.64 34.9998V25.3331C25.8485 23.2486 26.6333 21.2633 27.9066 19.5998C28.04 19.3865 28.1866 19.1598 28.3466 18.9331L29.0533 17.8798H32V9.45312H30.4666C29.8784 9.45373 29.3102 9.6668 28.8666 10.0531C28.572 10.2868 28.3322 10.5822 28.164 10.9185C27.9959 11.2548 27.9035 11.6239 27.8933 11.9998V14.5598C27.899 14.8065 27.973 15.0469 28.1072 15.254C28.2414 15.4612 28.4304 15.6271 28.6533 15.7331C28.1371 16.84 27.5071 17.8901 26.7733 18.8665C25.3553 20.7449 24.4999 22.9875 24.3066 25.3331V35.0798C24.3866 37.2798 25.8266 39.2665 25.8533 41.2265C25.8533 44.2665 24.3333 46.7731 24.3066 49.4265C24.28 52.0798 25.3466 54.5865 27.3866 54.5465C28.2894 54.4511 29.1548 54.1352 29.9066 53.6265C30.4832 54.1567 31.2195 54.4803 32 54.5465V53.2131Z" fill="#DAE8ED"/>
<path d="M28.3468 18.9342C28.1868 19.1609 28.0401 19.3875 27.9068 19.6009C26.6335 21.2644 25.8486 23.2497 25.6401 25.3342V35.0275C25.7389 35.9888 25.9862 36.9289 26.3735 37.8142C26.8359 38.9024 27.1109 40.0609 27.1868 41.2409C27.1122 42.8417 26.8207 44.4251 26.3201 45.9475C25.9525 47.0755 25.7242 48.2442 25.6401 49.4275C25.6401 51.4809 26.4135 53.2142 27.3335 53.2142C28.0154 53.1212 28.6649 52.865 29.2268 52.4675L30.0001 52.0009L30.7068 52.5342C31.3068 52.9875 31.6268 53.1875 31.9468 53.1875V17.8809H29.0535L28.3468 18.9342Z" fill="#71CEF2"/>
</g>
<defs>
<clipPath id="clip0_789_168561">
<rect width="64" height="64" fill="white"/>
</clipPath>
</defs>
</svg>
