<svg width="66" height="59" viewBox="0 0 66 59" fill="none" xmlns="http://www.w3.org/2000/svg">
<rect width="66" height="59" fill="white"/>
<path d="M47.6932 43.3865L48.1405 43.1629L47.6932 43.3865ZM52.0198 50.573L51.6699 50.9302L52.0198 50.573ZM56.5036 53.3441L56.6666 52.8715L56.5036 53.3441ZM21.5513 36.8973L21.9985 37.121L21.5513 36.8973ZM29.5718 24.6603L29.7861 25.1121L29.5718 24.6603ZM36.4282 24.6603L36.2139 25.1121L36.4282 24.6603ZM9.49645 53.3441L9.33341 52.8715L9.49645 53.3441ZM18.3067 43.3865L18.754 43.6101L18.3067 43.3865ZM13.9802 50.573L13.6304 50.2158L13.9802 50.573ZM1.13375 53.5H0V54.5H1.13375V53.5ZM18.754 43.6101L21.9985 37.121L21.1041 36.6737L17.8595 43.1629L18.754 43.6101ZM44.0015 37.1209L47.246 43.6101L48.1405 43.1629L44.8959 36.6737L44.0015 37.1209ZM64.8663 54.5H66V53.5H64.8663V54.5ZM47.246 43.6101C49.1562 47.4304 50.1588 49.4502 51.6699 50.9302L52.3696 50.2158C51.0068 48.881 50.083 47.048 48.1405 43.1629L47.246 43.6101ZM64.8663 53.5C60.5225 53.5 58.4699 53.4935 56.6666 52.8715L56.3405 53.8168C58.3401 54.5065 60.595 54.5 64.8663 54.5V53.5ZM51.6699 50.9302C52.9936 52.2267 54.589 53.2127 56.3405 53.8168L56.6666 52.8715C55.0552 52.3157 53.5874 51.4086 52.3696 50.2158L51.6699 50.9302ZM21.9985 37.121C23.8454 33.4272 25.2155 30.6881 26.4335 28.7219C27.6555 26.7492 28.6759 25.6386 29.7861 25.1121L29.3575 24.2085C27.9745 24.8645 26.8271 26.1875 25.5834 28.1953C24.3356 30.2096 22.9421 32.9978 21.1041 36.6737L21.9985 37.121ZM44.8959 36.6737C43.0579 32.9978 41.6644 30.2096 40.4166 28.1953C39.1729 26.1875 38.0255 24.8645 36.6425 24.2085L36.2139 25.1121C37.3241 25.6386 38.3445 26.7492 39.5665 28.7219C40.7845 30.6881 42.1546 33.4272 44.0015 37.1209L44.8959 36.6737ZM29.7861 25.1121C31.8201 24.1474 34.1799 24.1474 36.2139 25.1121L36.6425 24.2085C34.3372 23.1152 31.6628 23.1152 29.3575 24.2085L29.7861 25.1121ZM1.13375 54.5C5.40499 54.5 7.65988 54.5065 9.65948 53.8168L9.33341 52.8715C7.53009 53.4935 5.47749 53.5 1.13375 53.5V54.5ZM17.8595 43.1629C15.917 47.0481 14.9932 48.881 13.6304 50.2158L14.3301 50.9302C15.8412 49.4502 16.8438 47.4304 18.754 43.6101L17.8595 43.1629ZM9.65948 53.8168C11.411 53.2127 13.0064 52.2267 14.3301 50.9302L13.6304 50.2158C12.4126 51.4086 10.9448 52.3157 9.33341 52.8715L9.65948 53.8168Z" fill="#FDD8FB"/>
</svg>
