<svg width="15" height="21" viewBox="0 0 15 21" fill="none" xmlns="http://www.w3.org/2000/svg">
<path d="M3.60352 7.18018C3.93555 7.18018 4.23714 7.09994 4.5083 6.93945C4.78499 6.77344 5.00358 6.55485 5.16406 6.28369C5.32454 6.007 5.40479 5.69987 5.40479 5.3623C5.40479 5.03027 5.32454 4.72868 5.16406 4.45752C5.00358 4.18636 4.78499 3.97054 4.5083 3.81006C4.23714 3.64404 3.93555 3.56104 3.60352 3.56104C3.26595 3.56104 2.95882 3.64404 2.68213 3.81006C2.41097 3.97054 2.19238 4.18636 2.02637 4.45752C1.86589 4.72868 1.78564 5.03027 1.78564 5.3623C1.78564 5.69987 1.86589 6.007 2.02637 6.28369C2.19238 6.55485 2.41097 6.77344 2.68213 6.93945C2.95882 7.09994 3.26595 7.18018 3.60352 7.18018ZM8.12744 15.8711L10.7007 12.335L12.3276 15.3066C12.5103 16.1589 12.6431 16.9281 12.7261 17.6143C12.8146 18.3005 12.8727 18.8621 12.9004 19.2993C12.9281 19.7365 12.9419 20.0049 12.9419 20.1045C12.9419 20.359 13.0249 20.5721 13.1909 20.7437C13.3569 20.9152 13.5562 21.001 13.7886 21.001C14.0265 21.001 14.2257 20.9152 14.3862 20.7437C14.5522 20.5776 14.6353 20.3729 14.6353 20.1294C14.6353 20.1017 14.6242 19.8555 14.6021 19.3906C14.5799 18.9258 14.5218 18.2977 14.4277 17.5063C14.3337 16.7205 14.187 15.8296 13.9878 14.8335L13.9546 14.6841C13.8162 13.9979 13.6115 13.2148 13.3403 12.335C13.0692 11.4495 12.715 10.5143 12.2778 9.5293C11.8407 8.54427 11.3039 7.55371 10.6675 6.55762C10.0366 5.55599 9.28678 4.59587 8.41797 3.67725C7.55469 2.75309 6.56136 1.91748 5.43799 1.17041C5.29411 1.08187 5.15576 1.01823 5.02295 0.979492C4.89567 0.935221 4.76009 0.913086 4.61621 0.913086H0.963867C0.731445 0.913086 0.532227 0.996094 0.366211 1.16211C0.200195 1.32812 0.117188 1.52734 0.117188 1.75977C0.117188 2.00326 0.200195 2.21077 0.366211 2.38232C0.532227 2.54834 0.731445 2.63135 0.963867 2.63135H4.5498C4.99251 2.93571 5.40755 3.25391 5.79492 3.58594C6.18783 3.91797 6.56136 4.26383 6.91553 4.62354C7.02067 4.72314 7.03451 4.83936 6.95703 4.97217L4.08496 9.87793C3.96875 10.0827 3.93001 10.2847 3.96875 10.4839C4.01302 10.6776 4.10986 10.8408 4.25928 10.9736C4.41423 11.1009 4.60238 11.1646 4.82373 11.1646H8.7417L6.68311 14.9497L6.6001 15.0991L4.06836 19.731C3.95215 19.9412 3.92448 20.1598 3.98535 20.3867C4.05176 20.6191 4.1901 20.7879 4.40039 20.8931C4.59408 20.9982 4.80436 21.0231 5.03125 20.9678C5.26367 20.918 5.44352 20.7796 5.5708 20.5527L8.12744 15.8711ZM6.30127 9.46289L6.94043 8.37549C6.99023 8.28141 7.05387 8.23991 7.13135 8.25098C7.21436 8.25651 7.27799 8.28971 7.32227 8.35059L8.06934 9.46289H6.30127Z" fill="black"/>
</svg>
