<svg width="12" height="12" viewBox="0 0 12 12" fill="none" xmlns="http://www.w3.org/2000/svg">
<path d="M4.70612 11.5884C5.09435 11.5884 5.42376 11.4002 5.65906 11.0355L11.0355 2.57665C11.1649 2.34136 11.3179 2.08254 11.3179 1.82371C11.3179 1.2943 10.8473 0.953125 10.3532 0.953125C10.0591 0.953125 9.76494 1.14136 9.54141 1.48254L4.65906 9.31783L2.34141 6.31783C2.05906 5.94136 1.80024 5.84724 1.47082 5.84724C0.964941 5.84724 0.564941 6.25901 0.564941 6.77665C0.564941 7.03548 0.670824 7.28254 0.83553 7.50607L3.70612 11.0355C4.00024 11.4237 4.31788 11.5884 4.70612 11.5884Z" fill="white"/>
</svg>
