<svg width="24" height="24" viewBox="0 0 24 24" fill="none" xmlns="http://www.w3.org/2000/svg">
<path d="M10.9435 24H13.0565C13.6536 24 14.09 23.644 14.2163 23.0584L14.8134 20.5321C15.2612 20.3828 15.6976 20.2105 16.0766 20.0268L18.2928 21.3818C18.7866 21.6919 19.3493 21.6459 19.7627 21.2325L21.244 19.7627C21.6574 19.3493 21.7148 18.7522 21.3818 18.2584L20.0268 16.0651C20.222 15.6632 20.3943 15.2498 20.5206 14.8364L23.0699 14.2278C23.6555 14.1014 24 13.6651 24 13.0679V10.9895C24 10.4038 23.6555 9.96746 23.0699 9.84115L20.5435 9.23254C20.3943 8.76172 20.2105 8.33684 20.0498 7.98086L21.4048 5.75311C21.7263 5.25933 21.6919 4.69665 21.267 4.28325L19.7627 2.80191C19.3378 2.41148 18.8325 2.34258 18.3273 2.62967L16.0766 4.01914C15.7091 3.82392 15.2842 3.65167 14.8134 3.50239L14.2163 0.941627C14.09 0.355981 13.6536 0 13.0565 0H10.9435C10.3464 0 9.91005 0.355981 9.77225 0.941627L9.17512 3.47943C8.72727 3.62871 8.29091 3.80096 7.90048 4.00766L5.67273 2.62967C5.16746 2.34258 4.65072 2.4 4.22584 2.80191L2.73301 4.28325C2.30813 4.69665 2.2622 5.25933 2.59522 5.75311L3.93876 7.98086C3.78947 8.33684 3.60574 8.76172 3.45646 9.23254L0.930144 9.84115C0.344498 9.96746 0 10.4038 0 10.9895V13.0679C0 13.6651 0.344498 14.1014 0.930144 14.2278L3.47943 14.8364C3.60574 15.2498 3.77799 15.6632 3.96172 16.0651L2.61818 18.2584C2.27368 18.7522 2.34258 19.3493 2.75598 19.7627L4.22584 21.2325C4.63923 21.6459 5.2134 21.6919 5.70718 21.3818L7.91196 20.0268C8.30239 20.2105 8.72727 20.3828 9.17512 20.5321L9.77225 23.0584C9.91005 23.644 10.3464 24 10.9435 24ZM12 16.0536C9.77225 16.0536 7.94641 14.2163 7.94641 11.9885C7.94641 9.77225 9.77225 7.94641 12 7.94641C14.2278 7.94641 16.0536 9.77225 16.0536 11.9885C16.0536 14.2163 14.2278 16.0536 12 16.0536Z" fill="white"/>
</svg>
