<svg width="24" height="24" viewBox="0 0 24 24" fill="none" xmlns="http://www.w3.org/2000/svg">
<path d="M0 9.70705C0 15.0593 4.39713 19.4141 9.80143 19.4141C11.9386 19.4141 13.8915 18.7329 15.5005 17.5895L21.5435 23.5864C21.826 23.8662 22.1945 24 22.5875 24C23.4227 24 24 23.3796 24 22.5646C24 22.1754 23.8526 21.8226 23.5947 21.5672L17.5885 15.5824C18.8536 13.9524 19.6029 11.9209 19.6029 9.70705C19.6029 4.35479 15.2057 0 9.80143 0C4.39713 0 0 4.35479 0 9.70705ZM2.10031 9.70705C2.10031 5.49823 5.55169 2.08008 9.80143 2.08008C14.0512 2.08008 17.5026 5.49823 17.5026 9.70705C17.5026 13.9159 14.0512 17.334 9.80143 17.334C5.55169 17.334 2.10031 13.9159 2.10031 9.70705Z" fill="#ABABAB"/>
</svg>
