<svg width="17" height="20" viewBox="0 0 17 20" fill="none" xmlns="http://www.w3.org/2000/svg">
<path d="M10.9162 4.09668C11.2482 4.09668 11.5498 4.01644 11.8209 3.85596C12.0976 3.69548 12.3162 3.47689 12.4767 3.2002C12.6427 2.9235 12.7257 2.61914 12.7257 2.28711C12.7257 1.94954 12.6427 1.64518 12.4767 1.37402C12.3162 1.09733 12.0976 0.878743 11.8209 0.718262C11.5498 0.552246 11.2482 0.469238 10.9162 0.469238C10.5786 0.469238 10.2715 0.552246 9.99477 0.718262C9.72361 0.878743 9.50502 1.09733 9.33901 1.37402C9.17853 1.64518 9.09829 1.94954 9.09829 2.28711C9.09829 2.61914 9.17853 2.9235 9.33901 3.2002C9.50502 3.47689 9.72361 3.69548 9.99477 3.85596C10.2715 4.01644 10.5786 4.09668 10.9162 4.09668ZM2.59877 10.123C2.85333 10.2393 3.08575 10.2531 3.29604 10.1646C3.50633 10.076 3.66127 9.93213 3.76088 9.73291L5.27993 6.70312H7.0978C7.19741 6.70312 7.27211 6.74186 7.32192 6.81934C7.37172 6.89128 7.37172 6.97152 7.32192 7.06006L5.72817 10.2227C5.58429 10.516 5.51512 10.8175 5.52065 11.1274C5.53172 11.4318 5.61196 11.714 5.76137 11.9741C5.91632 12.2287 6.13214 12.4307 6.40883 12.5801C6.68553 12.7295 7.01756 12.7931 7.40493 12.771L11.6964 12.5054L10.111 16.0249C10.0114 16.2518 10.0031 16.4814 10.0861 16.7139C10.1691 16.9463 10.324 17.104 10.5509 17.187C10.7999 17.2811 11.0268 17.2894 11.2316 17.2119C11.4363 17.14 11.5913 16.985 11.6964 16.7471L13.9044 11.8994C13.9874 11.7223 14.0068 11.5397 13.9625 11.3516C13.9183 11.1579 13.8242 10.9946 13.6803 10.8618C13.5364 10.7235 13.3538 10.6543 13.1325 10.6543H9.2394L10.966 7.20947C10.9992 7.13753 11.0517 7.09326 11.1237 7.07666C11.2011 7.06006 11.2703 7.08219 11.3312 7.14307L13.3649 9.08545C13.5032 9.21273 13.6637 9.29297 13.8463 9.32617C14.0345 9.35384 14.2116 9.32894 14.3776 9.25146C14.5491 9.17399 14.6819 9.04118 14.776 8.85303L16.5275 5.3335C16.6382 5.11214 16.6603 4.88802 16.5939 4.66113C16.5275 4.42871 16.3781 4.25716 16.1456 4.14648C15.9298 4.04134 15.7057 4.03027 15.4733 4.11328C15.2409 4.19076 15.0721 4.3374 14.9669 4.55322L13.7384 6.97705L12.7423 5.97266C12.4048 5.63509 12.0423 5.38053 11.6549 5.20898C11.2731 5.03744 10.8082 4.95166 10.2604 4.95166H4.74038C4.57436 4.95166 4.42218 4.99593 4.28383 5.08447C4.14549 5.17301 4.04034 5.28923 3.9684 5.43311L2.19204 8.96094C2.08689 9.17676 2.07029 9.39811 2.14223 9.625C2.21971 9.84635 2.37189 10.0124 2.59877 10.123ZM0.21645 18.6479C0.310525 18.8416 0.429503 18.9772 0.573384 19.0547C0.722798 19.1322 0.869445 19.1709 1.01332 19.1709C1.16274 19.1709 1.28448 19.1488 1.37856 19.1045L5.76137 17.1953C5.95506 17.1123 6.09894 16.974 6.19301 16.7803L7.79506 13.5513L7.45473 13.5762C7.1061 13.5983 6.78237 13.5651 6.48354 13.4766C6.19025 13.3825 5.93015 13.2497 5.70327 13.0781L4.71547 15.7261L0.672993 17.4692C0.440571 17.5688 0.277322 17.7321 0.183247 17.959C0.0891713 18.1859 0.100239 18.4155 0.21645 18.6479ZM14.7013 19.4697C15.0444 19.4697 15.3515 19.3895 15.6227 19.229C15.8994 19.0685 16.118 18.8499 16.2785 18.5732C16.4445 18.3021 16.5275 17.995 16.5275 17.6519C16.5275 17.3198 16.4445 17.0155 16.2785 16.7388C16.118 16.4676 15.8994 16.249 15.6227 16.083C15.3515 15.9225 15.0444 15.8423 14.7013 15.8423C14.3693 15.8423 14.0649 15.9225 13.7882 16.083C13.5171 16.249 13.3012 16.4676 13.1408 16.7388C12.9803 17.0155 12.9 17.3198 12.9 17.6519C12.9 17.995 12.9803 18.3021 13.1408 18.5732C13.3012 18.8499 13.5171 19.0685 13.7882 19.229C14.0649 19.3895 14.3693 19.4697 14.7013 19.4697Z" fill="black"/>
</svg>
