<svg width="24" height="24" viewBox="0 0 24 24" fill="none" xmlns="http://www.w3.org/2000/svg">
<rect width="24" height="24" fill="white"/>
<path d="M11.605 22C16.042 22 19 18.699 19 13.7245C19 5.44891 12.5966 2 8.15126 2C7.36134 2 6.85714 2.30513 6.85714 2.8969C6.85714 3.12806 6.94958 3.36847 7.12605 3.59038C8.12605 4.90337 9.12605 6.46602 9.14286 8.28756C9.14286 8.51872 9.12605 8.74064 9.06723 8.98104C8.60504 7.89921 7.7395 7.17799 6.96639 7.17799C6.62185 7.17799 6.38655 7.45539 6.38655 7.87147C6.38655 8.11188 6.44538 8.67591 6.44538 9.08276C6.44538 11.154 5 12.3652 5 15.7032C5 19.485 7.63025 22 11.605 22ZM11.7983 19.4018C10.2269 19.4018 9.18487 18.3569 9.18487 16.8035C9.18487 15.1761 10.2353 14.5936 10.3697 13.5488C10.3866 13.4656 10.437 13.4378 10.4958 13.4933C10.8824 13.8724 11.1345 14.3347 11.3445 14.871C11.7899 14.2053 12 12.7998 11.8571 11.2834C11.8487 11.2002 11.8992 11.154 11.9748 11.1817C13.8151 12.1341 14.7731 14.1498 14.7731 15.9528C14.7731 17.7836 13.7983 19.4018 11.7983 19.4018Z" fill="#FF764B"/>
</svg>
