<svg width="12" height="12" viewBox="0 0 12 12" fill="none" xmlns="http://www.w3.org/2000/svg">
<path d="M4.70587 11.5884C5.09411 11.5884 5.42352 11.4002 5.65881 11.0355L11.0353 2.57665C11.1647 2.34136 11.3176 2.08254 11.3176 1.82371C11.3176 1.2943 10.847 0.953125 10.3529 0.953125C10.0588 0.953125 9.7647 1.14136 9.54117 1.48254L4.65881 9.31783L2.34117 6.31783C2.05882 5.94136 1.79999 5.84724 1.47058 5.84724C0.964697 5.84724 0.564697 6.25901 0.564697 6.77665C0.564697 7.03548 0.67058 7.28254 0.835286 7.50607L3.70587 11.0355C3.99999 11.4237 4.31764 11.5884 4.70587 11.5884Z" fill="white"/>
</svg>
