<svg width="30" height="22" viewBox="0 0 30 22" fill="none" xmlns="http://www.w3.org/2000/svg">
<path d="M3.30645 20.1241H19.123C18.5282 19.0924 18.1855 17.9043 18.1855 16.6329C18.1855 12.8394 21.2097 9.7442 24.9093 9.78588V5.80483C24.9093 3.58503 23.7802 2.41781 21.6028 2.41781H18.9012C18.1149 2.41781 17.8629 2.28233 17.379 1.75083L16.5827 0.854571C16.0585 0.291805 15.5242 0 14.496 0H10.3629C9.33468 0 8.8004 0.291805 8.27621 0.854571L7.47984 1.75083C6.99597 2.27191 6.73387 2.41781 5.95766 2.41781H3.30645C1.12903 2.41781 0 3.58503 0 5.80483V16.7371C0 18.9569 1.12903 20.1241 3.30645 20.1241ZM12.4597 16.8726C9.43548 16.8726 7.01613 14.361 7.01613 11.2241C7.01613 8.09758 9.43548 5.58598 12.4597 5.58598C15.4839 5.58598 17.9032 8.09758 17.9032 11.2241C17.9032 14.361 15.4738 16.8726 12.4597 16.8726ZM18.5484 7.39934C18.5484 6.6594 19.1633 6.01326 19.8992 6.01326C20.6149 6.01326 21.2298 6.6594 21.2298 7.39934C21.2298 8.16011 20.625 8.77499 19.8992 8.77499C19.1633 8.78541 18.5484 8.17054 18.5484 7.39934ZM12.4597 15.0071C14.4758 15.0071 16.1089 13.3292 16.1089 11.2241C16.1089 9.12932 14.4758 7.45144 12.4597 7.45144C10.4435 7.45144 8.81048 9.12932 8.81048 11.2241C8.81048 13.3292 10.4435 15.0071 12.4597 15.0071ZM24.8085 22C27.6311 22 30 19.5613 30 16.6329C30 13.694 27.6613 11.2658 24.8085 11.2658C21.9657 11.2658 19.627 13.694 19.627 16.6329C19.627 19.5822 21.9657 22 24.8085 22ZM27.6109 17.5083C27.1371 17.5083 26.7641 17.1018 26.7641 16.6329C26.7641 16.1535 27.1371 15.747 27.6109 15.747C28.0645 15.747 28.4476 16.1639 28.4476 16.6329C28.4476 17.1018 28.0645 17.5083 27.6109 17.5083ZM22.0161 17.4979C21.5625 17.4979 21.1794 17.1018 21.1794 16.6329C21.1794 16.1639 21.5625 15.7575 22.0161 15.7575C22.4798 15.7575 22.8629 16.1639 22.8528 16.6329C22.8528 17.1018 22.4798 17.4979 22.0161 17.4979ZM24.8186 17.4979C24.3649 17.4979 23.9718 17.1018 23.9718 16.6329C23.9718 16.1639 24.3649 15.7575 24.8186 15.7575C25.2722 15.7575 25.6653 16.1639 25.6653 16.6329C25.6552 17.1018 25.2722 17.4979 24.8186 17.4979Z" fill="#7A948F"/>
</svg>
