<svg width="24" height="24" viewBox="0 0 24 24" fill="none" xmlns="http://www.w3.org/2000/svg">
<rect width="24" height="24" fill="white"/>
<path d="M12 17C12.3073 17 12.5695 16.885 12.8045 16.6549L19.7017 9.75221C19.9006 9.55752 20 9.31858 20 9.0354C20 8.46018 19.548 8 18.9605 8C18.6712 8 18.409 8.11504 18.2011 8.30973L12 14.5398L5.79887 8.30973C5.6 8.12389 5.33785 8 5.04859 8C4.45198 8 4 8.46018 4 9.0354C4 9.31858 4.09944 9.55752 4.29831 9.75221L11.1955 16.6549C11.4305 16.8938 11.6927 17 12 17Z" fill="#0C695E"/>
</svg>
