<svg width="20" height="20" viewBox="0 0 20 20" fill="none" xmlns="http://www.w3.org/2000/svg">
<path d="M0.326361 19.6736C0.767791 20.1025 1.49931 20.1025 1.92812 19.6736L10 11.6004L18.0719 19.6736C18.5007 20.1025 19.2448 20.1151 19.6736 19.6736C20.1025 19.2321 20.1025 18.5131 19.6736 18.0842L11.6018 9.99842L19.6736 1.92527C20.1025 1.49639 20.1151 0.764758 19.6736 0.335872C19.2322 -0.105628 18.5007 -0.105628 18.0719 0.335872L10 8.40902L1.92812 0.335872C1.49931 -0.105628 0.755179 -0.118242 0.326361 0.335872C-0.102458 0.777373 -0.102458 1.49639 0.326361 1.92527L8.39824 9.99842L0.326361 18.0842C-0.102458 18.5131 -0.11507 19.2447 0.326361 19.6736Z" fill="#788985"/>
</svg>
