<svg width="15" height="20" viewBox="0 0 15 20" fill="none" xmlns="http://www.w3.org/2000/svg">
<path d="M8.79133 4.47021C9.12336 4.47021 9.42496 4.38997 9.69611 4.22949C9.97281 4.06348 10.1914 3.84489 10.3519 3.57373C10.5179 3.29704 10.6009 2.99268 10.6009 2.66064C10.6009 2.32308 10.5179 2.01872 10.3519 1.74756C10.1914 1.4764 9.97281 1.26058 9.69611 1.1001C9.42496 0.934082 9.12336 0.851074 8.79133 0.851074C8.45376 0.851074 8.1494 0.934082 7.87824 1.1001C7.60708 1.26058 7.3885 1.4764 7.22248 1.74756C7.062 2.01872 6.98176 2.32308 6.98176 2.66064C6.98176 2.99268 7.062 3.29704 7.22248 3.57373C7.3885 3.84489 7.60708 4.06348 7.87824 4.22949C8.1494 4.38997 8.45376 4.47021 8.79133 4.47021ZM5.95246 11.6919L9.13166 13.4766L7.08137 15.2363C6.86001 15.4245 6.7438 15.6292 6.73274 15.8506C6.72167 16.0664 6.78254 16.249 6.91535 16.3984C7.0537 16.5534 7.23355 16.6392 7.4549 16.6558C7.68179 16.6724 7.90868 16.5838 8.13557 16.3901L10.9993 13.9497C11.1321 13.839 11.2124 13.6979 11.2401 13.5264C11.2733 13.3493 11.2567 13.175 11.1903 13.0034C11.1238 12.8319 11.0132 12.6963 10.8582 12.5967L7.74543 10.5547L8.35969 8.40479C8.40396 8.24984 8.49527 8.16406 8.63361 8.14746C8.77196 8.13086 8.88817 8.18896 8.98225 8.32178L9.89533 9.6582C10.0005 9.81315 10.1416 9.91829 10.3187 9.97363C10.5013 10.0234 10.6811 10.0068 10.8582 9.92383L13.4896 8.75342C13.722 8.64827 13.8769 8.50163 13.9544 8.31348C14.0374 8.12533 14.0291 7.92611 13.9295 7.71582C13.8244 7.50553 13.6777 7.37272 13.4896 7.31738C13.3014 7.25651 13.0911 7.27865 12.8587 7.38379L10.7752 8.30518L9.33918 6.32129C8.96288 5.80664 8.5257 5.44141 8.02766 5.22559C7.52961 5.00977 6.89875 4.92952 6.13508 4.98486L3.22151 5.19238C2.98908 5.20898 2.79817 5.28923 2.64875 5.43311C2.49934 5.57699 2.40803 5.7679 2.37483 6.00586L1.98469 8.96094C1.95149 9.22103 1.99299 9.43408 2.1092 9.6001C2.22541 9.76611 2.39696 9.86019 2.62385 9.88232C2.85627 9.90446 3.04442 9.85189 3.1883 9.72461C3.33218 9.59733 3.42072 9.40365 3.45393 9.14355L3.81086 6.72803L4.98127 6.64502C5.11408 6.63395 5.22753 6.67269 5.3216 6.76123C5.42121 6.84424 5.44888 6.96598 5.40461 7.12646L4.72395 9.50049C4.62434 9.85466 4.59667 10.1507 4.64094 10.3887C4.69074 10.6211 4.78482 10.8175 4.92317 10.978C5.06151 11.133 5.22199 11.2658 5.40461 11.3765C5.59276 11.4871 5.77538 11.5923 5.95246 11.6919ZM0.39924 18.8638C0.554188 18.991 0.739572 19.0547 0.955392 19.0547C1.17675 19.0547 1.39257 18.9523 1.60285 18.7476L4.29231 16.083C4.40298 15.9723 4.48046 15.8838 4.52473 15.8174C4.57453 15.751 4.63541 15.632 4.70735 15.4604L5.83625 12.5386L5.56233 12.3892C5.2469 12.2176 4.97574 12.0461 4.74885 11.8745C4.52749 11.6974 4.34211 11.5148 4.1927 11.3267L3.2049 14.8213L0.415841 17.6021C0.200021 17.8179 0.100412 18.0448 0.117013 18.2827C0.139149 18.5207 0.233224 18.7144 0.39924 18.8638Z" fill="black"/>
</svg>
