<svg width="10" height="14" viewBox="0 0 10 14" fill="none" xmlns="http://www.w3.org/2000/svg">
<path d="M4.73674 13.6673C7.69472 13.6673 9.66671 11.4667 9.66671 8.15029C9.66671 2.63326 5.3978 0.333984 2.43421 0.333984C1.9076 0.333984 1.57147 0.537406 1.57147 0.931919C1.57147 1.08603 1.63309 1.2463 1.75074 1.39424C2.41741 2.26957 3.08407 3.31133 3.09528 4.52569C3.09528 4.6798 3.08407 4.82774 3.04486 4.98801C2.73674 4.26679 2.1597 3.78598 1.6443 3.78598C1.41461 3.78598 1.25774 3.97091 1.25774 4.2483C1.25774 4.40857 1.29696 4.78459 1.29696 5.05582C1.29696 6.43662 0.333374 7.24414 0.333374 9.46944C0.333374 11.9906 2.08688 13.6673 4.73674 13.6673ZM4.86559 11.9352C3.81797 11.9352 3.12329 11.2386 3.12329 10.203C3.12329 9.11808 3.82357 8.72973 3.91321 8.03317C3.92441 7.97769 3.95802 7.9592 3.99724 7.99618C4.25494 8.24892 4.42301 8.55713 4.56307 8.91466C4.85998 8.47083 5.00004 7.53386 4.9048 6.52292C4.8992 6.46744 4.93281 6.43662 4.98323 6.45511C6.21012 7.09003 6.84878 8.43385 6.84878 9.63588C6.84878 10.8564 6.19892 11.9352 4.86559 11.9352Z" fill="#FF764B"/>
</svg>
