<svg width="11" height="21" viewBox="0 0 11 21" fill="none" xmlns="http://www.w3.org/2000/svg">
<path d="M1.3291 20.9346C1.56706 20.9346 1.76628 20.8543 1.92676 20.6938C2.08724 20.5389 2.16748 20.348 2.16748 20.1211V16.145L4.4917 13.6714C4.51383 13.6493 4.5415 13.6382 4.57471 13.6382C4.60791 13.6382 4.63281 13.652 4.64941 13.6797L6.87402 16.6597L8.7666 20.4199C8.89388 20.6855 9.06543 20.846 9.28125 20.9014C9.49707 20.9567 9.70182 20.9346 9.89551 20.835C10.0947 20.7409 10.2358 20.5915 10.3188 20.3867C10.4074 20.1875 10.388 19.9634 10.2607 19.7144L6.37598 11.9282C6.19889 11.5796 6.06331 11.1812 5.96924 10.7329C5.87516 10.2791 5.80876 9.81429 5.77002 9.33838C5.75895 9.18343 5.79492 9.07552 5.87793 9.01465C5.96647 8.94824 6.07715 8.94824 6.20996 9.01465L7.74561 9.79492L9.16504 12.6338C9.29232 12.8828 9.46387 13.0378 9.67969 13.0986C9.89551 13.154 10.103 13.1346 10.3022 13.0405C10.5015 12.9465 10.6426 12.797 10.7256 12.5923C10.8086 12.3875 10.7837 12.1523 10.6509 11.8867L9.10693 8.80713C9.01839 8.64111 8.89388 8.5166 8.7334 8.43359L6.52539 7.32959C6.19889 7.16357 5.86963 7.03906 5.5376 6.95605C5.20557 6.87305 4.8846 6.79281 4.57471 6.71533C4.21501 6.62679 3.88021 6.51335 3.57031 6.375C3.26595 6.23665 3.00586 6.01253 2.79004 5.70264L1.78564 4.2417V1.36963C1.78564 1.14274 1.70264 0.949056 1.53662 0.788574C1.37061 0.628092 1.17415 0.547852 0.947266 0.547852C0.720378 0.547852 0.523926 0.628092 0.35791 0.788574C0.197428 0.949056 0.117188 1.14274 0.117188 1.36963V4.50732C0.117188 4.6014 0.128255 4.68441 0.150391 4.75635C0.172526 4.82275 0.211263 4.89469 0.266602 4.97217L2.02637 7.51221C2.10384 7.62842 2.16748 7.7391 2.21729 7.84424C2.26709 7.94385 2.30029 8.09049 2.31689 8.28418C2.33903 8.58854 2.375 8.96484 2.4248 9.41309C2.48014 9.86133 2.55208 10.3289 2.64062 10.8159C2.72917 11.2974 2.83431 11.7428 2.95605 12.1523L0.665039 15.3315C0.609701 15.4146 0.570964 15.4948 0.548828 15.5723C0.526693 15.6497 0.515625 15.73 0.515625 15.813V20.1211C0.515625 20.348 0.593099 20.5389 0.748047 20.6938C0.908529 20.8543 1.10221 20.9346 1.3291 20.9346ZM5.14746 5.81885C5.47949 5.81885 5.78109 5.73861 6.05225 5.57812C6.3234 5.41211 6.53923 5.19352 6.69971 4.92236C6.86572 4.64567 6.94873 4.33854 6.94873 4.00098C6.94873 3.66895 6.86572 3.36735 6.69971 3.09619C6.53923 2.82503 6.3234 2.60921 6.05225 2.44873C5.78109 2.28271 5.47949 2.19971 5.14746 2.19971C4.8099 2.19971 4.50277 2.28271 4.22607 2.44873C3.95492 2.60921 3.73633 2.82503 3.57031 3.09619C3.40983 3.36735 3.32959 3.66895 3.32959 4.00098C3.32959 4.33854 3.40983 4.64567 3.57031 4.92236C3.73633 5.19352 3.95492 5.41211 4.22607 5.57812C4.50277 5.73861 4.8099 5.81885 5.14746 5.81885Z" fill="black"/>
</svg>
