<svg width="24" height="24" viewBox="0 0 24 24" fill="none" xmlns="http://www.w3.org/2000/svg">
<path d="M4.51485 14C5.65323 14 6.55992 13.11 6.55992 12C6.55992 10.89 5.65323 10 4.51485 10C3.40668 10 2.5 10.89 2.5 12C2.5 13.11 3.40668 14 4.51485 14ZM12 14C13.1182 14 14.0148 13.11 14.0148 12C14.0148 10.89 13.1182 10 12 10C10.8918 10 9.99523 10.89 9.99523 12C9.99523 13.11 10.8918 14 12 14ZM19.4852 14C20.6034 14 21.5 13.11 21.5 12C21.5 10.89 20.6034 10 19.4852 10C18.3468 10 17.4502 10.89 17.4502 12C17.4502 13.11 18.3468 14 19.4852 14Z" fill="#62D3B4"/>
</svg>
