<svg width="66" height="59" viewBox="0 0 66 59" fill="none" xmlns="http://www.w3.org/2000/svg">
<rect width="66" height="59" fill="white"/>
<path d="M52.1719 53.7185L52.2652 53.2273L52.1719 53.7185ZM53.8731 53.9482L53.8329 54.4466L53.8731 53.9482ZM26.212 50.3667L26.0794 49.8846L26.212 50.3667ZM31.2858 49.1861L31.2322 48.689L31.2858 49.1861ZM34.7142 49.1861L34.7678 48.689L34.7142 49.1861ZM12.1269 53.9482L12.1671 54.4466L12.1269 53.9482ZM13.8281 53.7185L13.7348 53.2273L13.8281 53.7185ZM9.54415 53.5H0V54.5H9.54415V53.5ZM16.4647 53.5658L26.3446 50.8488L26.0794 49.8846L16.1996 52.6016L16.4647 53.5658ZM39.6554 50.8488L49.5353 53.5658L49.8004 52.6016L39.9206 49.8846L39.6554 50.8488ZM56.4559 54.5H66V53.5H56.4559V54.5ZM49.5353 53.5658C50.7752 53.9068 51.4211 54.0847 52.0785 54.2097L52.2652 53.2273C51.6564 53.1116 51.055 52.9466 49.8004 52.6016L49.5353 53.5658ZM56.4559 53.5C55.1547 53.5 54.5311 53.4996 53.9134 53.4498L53.8329 54.4466C54.4999 54.5004 55.1699 54.5 56.4559 54.5V53.5ZM52.0785 54.2097C52.6586 54.32 53.2443 54.3991 53.8329 54.4466L53.9134 53.4498C53.3604 53.4052 52.8102 53.3309 52.2652 53.2273L52.0785 54.2097ZM26.3446 50.8488C28.8864 50.1498 30.1051 49.8162 31.3393 49.6832L31.2322 48.689C29.8994 48.8326 28.5912 49.1939 26.0794 49.8846L26.3446 50.8488ZM39.9206 49.8846C37.4088 49.1939 36.1006 48.8326 34.7678 48.689L34.6607 49.6832C35.8949 49.8162 37.1136 50.1498 39.6554 50.8488L39.9206 49.8846ZM31.3393 49.6832C32.4432 49.5642 33.5568 49.5642 34.6607 49.6832L34.7678 48.689C33.5927 48.5623 32.4073 48.5623 31.2322 48.689L31.3393 49.6832ZM9.54415 54.5C10.8301 54.5 11.5001 54.5004 12.1671 54.4466L12.0866 53.4498C11.4689 53.4996 10.8453 53.5 9.54415 53.5V54.5ZM16.1996 52.6016C14.945 52.9466 14.3436 53.1116 13.7348 53.2273L13.9215 54.2097C14.5789 54.0847 15.2248 53.9068 16.4647 53.5658L16.1996 52.6016ZM12.1671 54.4466C12.7557 54.3991 13.3414 54.32 13.9215 54.2097L13.7348 53.2273C13.1898 53.3309 12.6396 53.4052 12.0866 53.4498L12.1671 54.4466Z" fill="#FDD8FB"/>
</svg>
